%TF.GenerationSoftware,KiCad,Pcbnew,(6.0.4-0)*%
%TF.CreationDate,2023-01-08T13:58:21-06:00*%
%TF.ProjectId,bancouver40_cfx,62616e63-6f75-4766-9572-34305f636678,rev?*%
%TF.SameCoordinates,Original*%
%TF.FileFunction,Legend,Bot*%
%TF.FilePolarity,Positive*%
%FSLAX46Y46*%
G04 Gerber Fmt 4.6, Leading zero omitted, Abs format (unit mm)*
G04 Created by KiCad (PCBNEW (6.0.4-0)) date 2023-01-08 13:58:21*
%MOMM*%
%LPD*%
G01*
G04 APERTURE LIST*
%ADD10C,0.004500*%
%ADD11C,0.300000*%
%ADD12C,0.150000*%
%ADD13C,0.120000*%
G04 APERTURE END LIST*
D10*
G36*
X235737177Y-21226202D02*
G01*
X233306317Y-19822745D01*
X233306317Y-18462864D01*
X233714671Y-18462864D01*
X233716517Y-18550010D01*
X233722008Y-18636217D01*
X233731066Y-18721413D01*
X233743619Y-18805521D01*
X233759592Y-18888467D01*
X233778909Y-18970177D01*
X233801497Y-19050576D01*
X233827280Y-19129589D01*
X233856184Y-19207142D01*
X233888134Y-19283159D01*
X233923055Y-19357567D01*
X233960873Y-19430290D01*
X234001514Y-19501255D01*
X234044902Y-19570385D01*
X234090962Y-19637607D01*
X234139621Y-19702846D01*
X234146659Y-19654201D01*
X234155137Y-19606035D01*
X234165031Y-19558371D01*
X234176320Y-19511231D01*
X234188981Y-19464637D01*
X234202990Y-19418613D01*
X234217974Y-19374223D01*
X234901383Y-19374223D01*
X234901535Y-19377784D01*
X234901852Y-19381337D01*
X234902335Y-19384875D01*
X234902983Y-19388391D01*
X234903797Y-19391879D01*
X234904776Y-19395333D01*
X234905921Y-19398747D01*
X234907232Y-19402115D01*
X234908708Y-19405429D01*
X234910349Y-19408684D01*
X234912157Y-19411874D01*
X234914129Y-19414992D01*
X234916268Y-19418032D01*
X234918571Y-19420988D01*
X234921041Y-19423853D01*
X234923676Y-19426622D01*
X234926444Y-19429256D01*
X234929309Y-19431726D01*
X234932265Y-19434030D01*
X234935305Y-19436168D01*
X234938423Y-19438141D01*
X234941613Y-19439948D01*
X234944868Y-19441589D01*
X234948182Y-19443065D01*
X234951550Y-19444376D01*
X234954964Y-19445521D01*
X234958418Y-19446500D01*
X234961906Y-19447314D01*
X234965422Y-19447962D01*
X234968960Y-19448445D01*
X234972513Y-19448762D01*
X234976074Y-19448914D01*
X234979639Y-19448900D01*
X234983199Y-19448720D01*
X234986750Y-19448375D01*
X234990284Y-19447865D01*
X234993796Y-19447189D01*
X234997279Y-19446347D01*
X235000727Y-19445340D01*
X235004134Y-19444167D01*
X235007493Y-19442829D01*
X235010798Y-19441325D01*
X235014043Y-19439655D01*
X235017221Y-19437820D01*
X235020326Y-19435820D01*
X235023353Y-19433654D01*
X235026294Y-19431322D01*
X235029143Y-19428825D01*
X235029149Y-19428830D01*
X235029154Y-19428836D01*
X235029166Y-19428848D01*
X235029177Y-19428860D01*
X235029189Y-19428871D01*
X235031439Y-19426622D01*
X235200204Y-19257856D01*
X235371220Y-19428871D01*
X235371242Y-19428848D01*
X235371254Y-19428836D01*
X235371266Y-19428825D01*
X235374115Y-19431322D01*
X235377056Y-19433654D01*
X235380082Y-19435820D01*
X235383187Y-19437820D01*
X235386366Y-19439655D01*
X235389610Y-19441325D01*
X235392915Y-19442829D01*
X235396274Y-19444167D01*
X235399681Y-19445340D01*
X235403129Y-19446347D01*
X235406612Y-19447189D01*
X235410124Y-19447865D01*
X235413658Y-19448375D01*
X235417209Y-19448720D01*
X235420769Y-19448900D01*
X235424333Y-19448914D01*
X235427895Y-19448762D01*
X235431448Y-19448445D01*
X235434985Y-19447962D01*
X235438501Y-19447314D01*
X235441990Y-19446500D01*
X235445444Y-19445521D01*
X235448858Y-19444376D01*
X235452225Y-19443065D01*
X235455540Y-19441589D01*
X235458795Y-19439948D01*
X235461985Y-19438141D01*
X235465103Y-19436168D01*
X235468143Y-19434030D01*
X235471099Y-19431726D01*
X235473964Y-19429256D01*
X235476732Y-19426622D01*
X235479367Y-19423853D01*
X235481837Y-19420988D01*
X235484141Y-19418032D01*
X235486279Y-19414992D01*
X235488252Y-19411874D01*
X235490059Y-19408684D01*
X235491700Y-19405429D01*
X235493177Y-19402115D01*
X235494487Y-19398747D01*
X235495632Y-19395333D01*
X235496611Y-19391879D01*
X235497425Y-19388391D01*
X235498074Y-19384875D01*
X235498556Y-19381337D01*
X235498874Y-19377784D01*
X235499025Y-19374223D01*
X235499011Y-19370659D01*
X235498832Y-19367098D01*
X235498487Y-19363547D01*
X235497976Y-19360013D01*
X235497300Y-19356501D01*
X235496458Y-19353018D01*
X235495451Y-19349570D01*
X235494278Y-19346164D01*
X235492940Y-19342805D01*
X235491436Y-19339500D01*
X235489767Y-19336255D01*
X235487932Y-19333077D01*
X235485931Y-19329971D01*
X235483765Y-19326945D01*
X235481434Y-19324004D01*
X235478936Y-19321155D01*
X235478982Y-19321108D01*
X235307967Y-19150093D01*
X235883078Y-19150093D01*
X235883172Y-19153913D01*
X235883452Y-19157685D01*
X235883913Y-19161404D01*
X235884551Y-19165066D01*
X235885361Y-19168666D01*
X235886338Y-19172199D01*
X235887479Y-19175662D01*
X235888779Y-19179049D01*
X235890234Y-19182357D01*
X235891838Y-19185581D01*
X235893588Y-19188716D01*
X235895479Y-19191758D01*
X235897507Y-19194703D01*
X235899667Y-19197545D01*
X235901955Y-19200282D01*
X235904366Y-19202908D01*
X235906897Y-19205418D01*
X235909541Y-19207809D01*
X235912296Y-19210076D01*
X235915156Y-19212214D01*
X235918117Y-19214219D01*
X235921175Y-19216087D01*
X235924326Y-19217813D01*
X235927564Y-19219392D01*
X235930885Y-19220821D01*
X235934286Y-19222094D01*
X235937760Y-19223208D01*
X235941305Y-19224158D01*
X235944916Y-19224939D01*
X235948587Y-19225548D01*
X235952315Y-19225978D01*
X235956096Y-19226227D01*
X235956096Y-19226293D01*
X236197948Y-19226293D01*
X236197948Y-19468144D01*
X236198014Y-19468144D01*
X236198263Y-19471925D01*
X236198693Y-19475653D01*
X236199302Y-19479325D01*
X236200083Y-19482935D01*
X236201033Y-19486480D01*
X236202147Y-19489955D01*
X236203420Y-19493355D01*
X236204849Y-19496677D01*
X236206429Y-19499915D01*
X236208154Y-19503065D01*
X236210022Y-19506123D01*
X236212027Y-19509085D01*
X236214165Y-19511945D01*
X236216432Y-19514699D01*
X236218823Y-19517344D01*
X236221333Y-19519874D01*
X236223959Y-19522285D01*
X236226696Y-19524573D01*
X236229538Y-19526733D01*
X236232483Y-19528761D01*
X236235525Y-19530652D01*
X236238660Y-19532402D01*
X236241884Y-19534007D01*
X236245191Y-19535461D01*
X236248579Y-19536761D01*
X236252041Y-19537902D01*
X236255575Y-19538880D01*
X236259174Y-19539690D01*
X236262836Y-19540327D01*
X236266555Y-19540788D01*
X236270327Y-19541068D01*
X236274147Y-19541162D01*
X236277968Y-19541068D01*
X236281740Y-19540788D01*
X236285459Y-19540327D01*
X236289121Y-19539690D01*
X236292721Y-19538880D01*
X236296254Y-19537902D01*
X236299717Y-19536761D01*
X236303104Y-19535461D01*
X236306412Y-19534007D01*
X236309636Y-19532402D01*
X236312771Y-19530652D01*
X236315813Y-19528761D01*
X236318758Y-19526733D01*
X236321600Y-19524573D01*
X236324337Y-19522285D01*
X236326963Y-19519874D01*
X236329473Y-19517344D01*
X236331864Y-19514699D01*
X236334131Y-19511945D01*
X236336269Y-19509085D01*
X236338274Y-19506123D01*
X236340142Y-19503065D01*
X236341868Y-19499915D01*
X236343447Y-19496677D01*
X236344876Y-19493355D01*
X236346150Y-19489955D01*
X236347264Y-19486480D01*
X236348213Y-19482935D01*
X236348995Y-19479325D01*
X236349603Y-19475653D01*
X236350034Y-19471925D01*
X236350283Y-19468144D01*
X236350347Y-19468144D01*
X236350347Y-19226293D01*
X236592200Y-19226293D01*
X236592200Y-19226227D01*
X236595980Y-19225978D01*
X236599708Y-19225548D01*
X236603380Y-19224939D01*
X236606990Y-19224158D01*
X236610535Y-19223208D01*
X236614010Y-19222094D01*
X236617410Y-19220821D01*
X236620732Y-19219392D01*
X236623970Y-19217813D01*
X236627120Y-19216087D01*
X236630178Y-19214219D01*
X236633140Y-19212214D01*
X236636000Y-19210076D01*
X236638754Y-19207809D01*
X236641399Y-19205418D01*
X236643929Y-19202908D01*
X236646340Y-19200282D01*
X236648628Y-19197545D01*
X236650788Y-19194703D01*
X236652816Y-19191758D01*
X236654707Y-19188716D01*
X236656457Y-19185581D01*
X236658062Y-19182357D01*
X236659516Y-19179049D01*
X236660816Y-19175662D01*
X236661957Y-19172199D01*
X236662935Y-19168666D01*
X236663745Y-19165066D01*
X236664382Y-19161404D01*
X236664843Y-19157685D01*
X236665123Y-19153913D01*
X236665217Y-19150093D01*
X236665123Y-19146272D01*
X236664843Y-19142500D01*
X236664382Y-19138781D01*
X236663745Y-19135119D01*
X236662935Y-19131520D01*
X236661957Y-19127986D01*
X236660816Y-19124524D01*
X236659516Y-19121136D01*
X236658062Y-19117828D01*
X236656457Y-19114605D01*
X236654707Y-19111470D01*
X236652816Y-19108428D01*
X236650789Y-19105483D01*
X236648628Y-19102640D01*
X236646341Y-19099904D01*
X236643929Y-19097278D01*
X236641399Y-19094768D01*
X236638755Y-19092377D01*
X236636000Y-19090110D01*
X236633140Y-19087972D01*
X236630179Y-19085967D01*
X236627120Y-19084099D01*
X236623970Y-19082373D01*
X236620732Y-19080794D01*
X236617411Y-19079365D01*
X236614010Y-19078091D01*
X236610535Y-19076977D01*
X236606991Y-19076028D01*
X236603380Y-19075246D01*
X236599708Y-19074638D01*
X236595980Y-19074207D01*
X236592200Y-19073958D01*
X236592200Y-19073893D01*
X236350347Y-19073893D01*
X236350347Y-18832041D01*
X236350283Y-18832041D01*
X236350034Y-18828260D01*
X236349603Y-18824532D01*
X236348995Y-18820860D01*
X236348213Y-18817250D01*
X236347264Y-18813705D01*
X236346150Y-18810230D01*
X236344876Y-18806830D01*
X236343447Y-18803508D01*
X236341868Y-18800270D01*
X236340142Y-18797120D01*
X236338274Y-18794062D01*
X236336269Y-18791101D01*
X236334131Y-18788240D01*
X236331864Y-18785486D01*
X236329473Y-18782841D01*
X236326963Y-18780311D01*
X236324337Y-18777900D01*
X236321600Y-18775612D01*
X236318758Y-18773452D01*
X236315813Y-18771424D01*
X236312771Y-18769533D01*
X236309636Y-18767783D01*
X236306412Y-18766178D01*
X236303104Y-18764724D01*
X236299717Y-18763424D01*
X236296254Y-18762283D01*
X236292721Y-18761305D01*
X236289121Y-18760495D01*
X236285459Y-18759858D01*
X236281740Y-18759397D01*
X236277968Y-18759117D01*
X236274147Y-18759023D01*
X236270327Y-18759117D01*
X236266555Y-18759397D01*
X236262836Y-18759858D01*
X236259174Y-18760495D01*
X236255575Y-18761305D01*
X236252041Y-18762283D01*
X236248579Y-18763424D01*
X236245191Y-18764724D01*
X236241884Y-18766178D01*
X236238660Y-18767783D01*
X236235525Y-18769533D01*
X236232483Y-18771424D01*
X236229538Y-18773452D01*
X236226695Y-18775612D01*
X236223959Y-18777900D01*
X236221333Y-18780311D01*
X236218823Y-18782841D01*
X236216432Y-18785486D01*
X236214165Y-18788240D01*
X236212027Y-18791101D01*
X236210022Y-18794062D01*
X236208154Y-18797120D01*
X236206428Y-18800270D01*
X236204848Y-18803508D01*
X236203420Y-18806830D01*
X236202146Y-18810230D01*
X236201032Y-18813705D01*
X236200082Y-18817250D01*
X236199301Y-18820860D01*
X236198693Y-18824532D01*
X236198262Y-18828260D01*
X236198013Y-18832041D01*
X236197948Y-18832041D01*
X236197948Y-19073894D01*
X235959184Y-19073894D01*
X235956096Y-19073893D01*
X235956096Y-19073958D01*
X235952315Y-19074207D01*
X235948587Y-19074637D01*
X235944916Y-19075246D01*
X235941305Y-19076027D01*
X235937760Y-19076977D01*
X235934286Y-19078091D01*
X235930885Y-19079364D01*
X235927564Y-19080793D01*
X235924326Y-19082373D01*
X235921175Y-19084098D01*
X235918117Y-19085966D01*
X235915156Y-19087971D01*
X235912296Y-19090109D01*
X235909541Y-19092376D01*
X235906897Y-19094767D01*
X235904366Y-19097277D01*
X235901955Y-19099903D01*
X235899667Y-19102640D01*
X235897507Y-19105482D01*
X235895479Y-19108427D01*
X235893588Y-19111469D01*
X235891838Y-19114604D01*
X235890234Y-19117828D01*
X235888779Y-19121136D01*
X235887479Y-19124523D01*
X235886338Y-19127986D01*
X235885361Y-19131519D01*
X235884551Y-19135119D01*
X235883913Y-19138781D01*
X235883452Y-19142500D01*
X235883172Y-19146272D01*
X235883078Y-19150093D01*
X235307967Y-19150093D01*
X235476732Y-18981327D01*
X235478982Y-18979078D01*
X235478936Y-18979032D01*
X235481434Y-18976182D01*
X235483765Y-18973241D01*
X235485931Y-18970215D01*
X235487932Y-18967110D01*
X235489767Y-18963931D01*
X235491436Y-18960687D01*
X235492940Y-18957382D01*
X235494278Y-18954023D01*
X235495451Y-18950616D01*
X235496458Y-18947168D01*
X235497300Y-18943685D01*
X235497976Y-18940173D01*
X235498487Y-18936639D01*
X235498832Y-18933088D01*
X235499011Y-18929528D01*
X235499025Y-18925963D01*
X235498874Y-18922402D01*
X235498556Y-18918849D01*
X235498074Y-18915311D01*
X235497425Y-18911795D01*
X235496611Y-18908307D01*
X235495632Y-18904853D01*
X235494487Y-18901439D01*
X235493177Y-18898071D01*
X235491700Y-18894757D01*
X235490059Y-18891502D01*
X235488252Y-18888312D01*
X235486279Y-18885194D01*
X235484141Y-18882154D01*
X235481837Y-18879198D01*
X235479367Y-18876333D01*
X235476732Y-18873564D01*
X235473964Y-18870929D01*
X235471099Y-18868460D01*
X235468143Y-18866156D01*
X235465103Y-18864018D01*
X235461985Y-18862045D01*
X235458795Y-18860238D01*
X235455540Y-18858596D01*
X235452225Y-18857120D01*
X235448858Y-18855810D01*
X235445444Y-18854665D01*
X235441990Y-18853685D01*
X235438501Y-18852872D01*
X235434985Y-18852223D01*
X235431448Y-18851741D01*
X235427895Y-18851423D01*
X235424333Y-18851272D01*
X235420769Y-18851286D01*
X235417209Y-18851465D01*
X235413658Y-18851810D01*
X235410124Y-18852321D01*
X235406612Y-18852997D01*
X235403129Y-18853839D01*
X235399681Y-18854846D01*
X235396274Y-18856019D01*
X235392915Y-18857357D01*
X235389610Y-18858861D01*
X235386366Y-18860530D01*
X235383187Y-18862365D01*
X235380082Y-18864366D01*
X235377056Y-18866532D01*
X235374115Y-18868864D01*
X235371266Y-18871361D01*
X235371220Y-18871314D01*
X235368969Y-18873564D01*
X235200204Y-19042330D01*
X235031438Y-18873565D01*
X235031405Y-18873532D01*
X235031389Y-18873515D01*
X235031372Y-18873498D01*
X235029190Y-18871314D01*
X235029143Y-18871361D01*
X235026294Y-18868864D01*
X235023353Y-18866532D01*
X235020326Y-18864366D01*
X235017221Y-18862365D01*
X235014043Y-18860530D01*
X235010798Y-18858861D01*
X235007493Y-18857357D01*
X235004134Y-18856019D01*
X235000727Y-18854846D01*
X234997279Y-18853839D01*
X234993796Y-18852997D01*
X234990284Y-18852321D01*
X234986750Y-18851810D01*
X234983199Y-18851465D01*
X234979639Y-18851286D01*
X234976075Y-18851272D01*
X234972513Y-18851424D01*
X234968960Y-18851741D01*
X234965423Y-18852224D01*
X234961907Y-18852872D01*
X234958418Y-18853686D01*
X234954964Y-18854665D01*
X234951550Y-18855810D01*
X234948183Y-18857121D01*
X234944868Y-18858597D01*
X234941613Y-18860238D01*
X234938423Y-18862046D01*
X234935305Y-18864018D01*
X234932265Y-18866157D01*
X234929309Y-18868461D01*
X234926444Y-18870930D01*
X234923676Y-18873565D01*
X234921041Y-18876333D01*
X234918571Y-18879198D01*
X234916268Y-18882154D01*
X234914129Y-18885194D01*
X234912157Y-18888312D01*
X234910349Y-18891502D01*
X234908708Y-18894757D01*
X234907232Y-18898072D01*
X234905921Y-18901439D01*
X234904776Y-18904853D01*
X234903797Y-18908307D01*
X234902983Y-18911796D01*
X234902335Y-18915312D01*
X234901852Y-18918849D01*
X234901535Y-18922402D01*
X234901383Y-18925964D01*
X234901397Y-18929528D01*
X234901577Y-18933089D01*
X234901922Y-18936639D01*
X234902432Y-18940174D01*
X234903108Y-18943685D01*
X234903950Y-18947168D01*
X234904957Y-18950616D01*
X234906130Y-18954023D01*
X234907468Y-18957382D01*
X234908972Y-18960687D01*
X234910642Y-18963932D01*
X234912477Y-18967110D01*
X234914477Y-18970215D01*
X234916643Y-18973241D01*
X234918975Y-18976182D01*
X234921472Y-18979032D01*
X234921449Y-18979055D01*
X234921437Y-18979066D01*
X234921426Y-18979078D01*
X234923676Y-18981328D01*
X235092442Y-19150093D01*
X234923676Y-19318858D01*
X234921426Y-19321108D01*
X234921472Y-19321155D01*
X234918975Y-19324004D01*
X234916643Y-19326945D01*
X234914477Y-19329971D01*
X234912477Y-19333077D01*
X234910642Y-19336255D01*
X234908972Y-19339500D01*
X234907468Y-19342805D01*
X234906130Y-19346164D01*
X234904957Y-19349570D01*
X234903950Y-19353018D01*
X234903108Y-19356501D01*
X234902432Y-19360013D01*
X234901922Y-19363547D01*
X234901577Y-19367098D01*
X234901397Y-19370659D01*
X234901383Y-19374223D01*
X234217974Y-19374223D01*
X234218325Y-19373182D01*
X234234965Y-19328365D01*
X234252885Y-19284186D01*
X234272063Y-19240668D01*
X234292477Y-19197832D01*
X234314104Y-19155702D01*
X234336921Y-19114300D01*
X234360905Y-19073649D01*
X234386035Y-19033772D01*
X234412286Y-18994691D01*
X234380452Y-18969069D01*
X234350133Y-18941722D01*
X234321403Y-18912723D01*
X234294337Y-18882147D01*
X234269009Y-18850068D01*
X234245493Y-18816561D01*
X234223864Y-18781700D01*
X234204196Y-18745560D01*
X234186564Y-18708214D01*
X234171041Y-18669736D01*
X234157702Y-18630203D01*
X234146622Y-18589687D01*
X234137875Y-18548263D01*
X234131535Y-18506005D01*
X234127677Y-18462989D01*
X234126374Y-18419287D01*
X234127314Y-18382145D01*
X234130104Y-18345488D01*
X234134699Y-18309363D01*
X234141053Y-18273814D01*
X234149121Y-18238886D01*
X234158857Y-18204627D01*
X234170215Y-18171080D01*
X234183150Y-18138292D01*
X234197618Y-18106308D01*
X234213571Y-18075173D01*
X234230965Y-18044933D01*
X234249755Y-18015633D01*
X234269894Y-17987320D01*
X234291337Y-17960037D01*
X234314039Y-17933832D01*
X234337955Y-17908748D01*
X234363038Y-17884833D01*
X234389244Y-17862131D01*
X234416526Y-17840687D01*
X234444840Y-17820548D01*
X234474139Y-17801759D01*
X234504379Y-17784365D01*
X234535514Y-17768411D01*
X234567498Y-17753944D01*
X234600287Y-17741009D01*
X234633833Y-17729650D01*
X234668093Y-17719914D01*
X234703020Y-17711847D01*
X234738569Y-17705493D01*
X234774694Y-17700898D01*
X234811351Y-17698108D01*
X234848493Y-17697167D01*
X234882174Y-17697940D01*
X234915459Y-17700236D01*
X234948315Y-17704021D01*
X234980708Y-17709261D01*
X235012605Y-17715923D01*
X235043971Y-17723972D01*
X235074772Y-17733375D01*
X235104975Y-17744098D01*
X235134545Y-17756107D01*
X235163449Y-17769368D01*
X235191654Y-17783848D01*
X235219124Y-17799511D01*
X235245827Y-17816326D01*
X235271728Y-17834257D01*
X235296794Y-17853271D01*
X235320991Y-17873334D01*
X235344284Y-17894412D01*
X235366641Y-17916472D01*
X235388027Y-17939479D01*
X235408408Y-17963400D01*
X235427750Y-17988200D01*
X235446020Y-18013846D01*
X235463184Y-18040305D01*
X235479208Y-18067541D01*
X235494058Y-18095522D01*
X235507700Y-18124213D01*
X235520100Y-18153581D01*
X235531225Y-18183592D01*
X235541040Y-18214211D01*
X235549512Y-18245406D01*
X235556607Y-18277141D01*
X235562291Y-18309384D01*
X235583876Y-18307197D01*
X235605543Y-18305296D01*
X235627291Y-18303681D01*
X235649118Y-18302356D01*
X235671021Y-18301322D01*
X235693000Y-18300582D01*
X235715052Y-18300136D01*
X235737176Y-18299987D01*
X235760901Y-18300158D01*
X235784543Y-18300671D01*
X235808101Y-18301522D01*
X235831572Y-18302711D01*
X235854954Y-18304233D01*
X235878245Y-18306088D01*
X235901441Y-18308271D01*
X235924541Y-18310782D01*
X235930582Y-18278979D01*
X235937998Y-18247683D01*
X235946757Y-18216927D01*
X235956826Y-18186745D01*
X235968172Y-18157169D01*
X235980761Y-18128232D01*
X235994562Y-18099968D01*
X236009540Y-18072408D01*
X236025664Y-18045587D01*
X236042899Y-18019536D01*
X236061214Y-17994289D01*
X236080575Y-17969879D01*
X236100950Y-17946339D01*
X236122305Y-17923702D01*
X236144608Y-17902000D01*
X236167825Y-17881267D01*
X236191923Y-17861535D01*
X236216871Y-17842837D01*
X236242634Y-17825207D01*
X236269181Y-17808677D01*
X236296477Y-17793280D01*
X236324490Y-17779049D01*
X236353187Y-17766018D01*
X236382535Y-17754218D01*
X236412502Y-17743683D01*
X236443054Y-17734446D01*
X236474158Y-17726540D01*
X236505782Y-17719997D01*
X236537892Y-17714851D01*
X236570456Y-17711135D01*
X236603440Y-17708881D01*
X236636812Y-17708122D01*
X236673954Y-17709062D01*
X236710611Y-17711852D01*
X236746736Y-17716447D01*
X236782285Y-17722801D01*
X236817213Y-17730869D01*
X236851472Y-17740605D01*
X236885019Y-17751963D01*
X236917807Y-17764898D01*
X236949791Y-17779366D01*
X236980926Y-17795319D01*
X237011166Y-17812713D01*
X237040466Y-17831503D01*
X237068779Y-17851642D01*
X237096062Y-17873085D01*
X237122267Y-17895787D01*
X237147351Y-17919703D01*
X237171266Y-17944786D01*
X237193968Y-17970992D01*
X237215412Y-17998274D01*
X237235551Y-18026588D01*
X237254340Y-18055887D01*
X237271734Y-18086127D01*
X237287688Y-18117262D01*
X237302155Y-18149246D01*
X237315091Y-18182035D01*
X237326449Y-18215581D01*
X237336185Y-18249841D01*
X237344252Y-18284768D01*
X237350606Y-18320317D01*
X237355201Y-18356443D01*
X237357991Y-18393099D01*
X237358932Y-18430241D01*
X237358931Y-18430241D01*
X237357617Y-18474131D01*
X237353726Y-18517329D01*
X237347331Y-18559761D01*
X237338510Y-18601352D01*
X237327337Y-18642025D01*
X237313888Y-18681705D01*
X237298237Y-18720318D01*
X237280460Y-18757788D01*
X237260633Y-18794039D01*
X237238831Y-18828997D01*
X237215129Y-18862586D01*
X237189602Y-18894730D01*
X237162326Y-18925354D01*
X237133376Y-18954384D01*
X237102827Y-18981743D01*
X237070755Y-19007357D01*
X237096126Y-19045890D01*
X237120414Y-19085180D01*
X237143596Y-19125206D01*
X237157069Y-19150093D01*
X237165652Y-19165948D01*
X237186561Y-19207382D01*
X237206302Y-19249490D01*
X237224852Y-19292248D01*
X237242190Y-19335635D01*
X237258296Y-19379631D01*
X237273148Y-19424214D01*
X237286724Y-19469363D01*
X237299004Y-19515056D01*
X237309966Y-19561272D01*
X237319589Y-19607990D01*
X237327850Y-19655188D01*
X237334730Y-19702846D01*
X237383389Y-19637607D01*
X237429450Y-19570385D01*
X237472838Y-19501254D01*
X237513478Y-19430290D01*
X237551296Y-19357567D01*
X237586218Y-19283159D01*
X237618168Y-19207141D01*
X237647071Y-19129589D01*
X237672854Y-19050576D01*
X237695442Y-18970177D01*
X237714759Y-18888467D01*
X237730732Y-18805521D01*
X237743285Y-18721413D01*
X237752344Y-18636217D01*
X237757834Y-18550010D01*
X237759680Y-18462864D01*
X237757047Y-18358837D01*
X237749232Y-18256170D01*
X237736363Y-18154989D01*
X237718567Y-18055424D01*
X237695971Y-17957601D01*
X237668703Y-17861647D01*
X237636891Y-17767690D01*
X237600661Y-17675857D01*
X237560141Y-17586275D01*
X237515459Y-17499073D01*
X237466741Y-17414377D01*
X237414116Y-17332315D01*
X237357711Y-17253014D01*
X237297652Y-17176602D01*
X237234068Y-17103206D01*
X237167086Y-17032953D01*
X237096833Y-16965971D01*
X237023437Y-16902387D01*
X236947025Y-16842329D01*
X236867724Y-16785923D01*
X236785662Y-16733298D01*
X236700966Y-16684581D01*
X236613764Y-16639898D01*
X236524183Y-16599379D01*
X236432350Y-16563149D01*
X236338393Y-16531336D01*
X236242439Y-16504069D01*
X236144615Y-16481473D01*
X236045050Y-16463677D01*
X235943870Y-16450808D01*
X235841203Y-16442993D01*
X235737176Y-16440359D01*
X235633148Y-16442993D01*
X235530481Y-16450808D01*
X235429301Y-16463677D01*
X235329736Y-16481473D01*
X235231912Y-16504069D01*
X235135958Y-16531336D01*
X235042001Y-16563149D01*
X234950168Y-16599379D01*
X234860587Y-16639898D01*
X234773385Y-16684581D01*
X234688689Y-16733298D01*
X234606627Y-16785923D01*
X234527326Y-16842329D01*
X234450914Y-16902387D01*
X234377518Y-16965971D01*
X234307265Y-17032953D01*
X234240283Y-17103206D01*
X234176699Y-17176602D01*
X234116640Y-17253014D01*
X234060235Y-17332315D01*
X234007610Y-17414377D01*
X233958892Y-17499073D01*
X233914210Y-17586275D01*
X233873690Y-17675857D01*
X233837460Y-17767690D01*
X233805648Y-17861647D01*
X233778380Y-17957601D01*
X233755785Y-18055424D01*
X233737988Y-18154989D01*
X233725119Y-18256170D01*
X233717304Y-18358837D01*
X233714671Y-18462864D01*
X233306317Y-18462864D01*
X233306318Y-17015829D01*
X235737175Y-15612374D01*
X238168035Y-17015830D01*
X238168035Y-18462864D01*
X238168034Y-19822746D01*
X235737177Y-21226202D01*
G37*
X235737177Y-21226202D02*
X233306317Y-19822745D01*
X233306317Y-18462864D01*
X233714671Y-18462864D01*
X233716517Y-18550010D01*
X233722008Y-18636217D01*
X233731066Y-18721413D01*
X233743619Y-18805521D01*
X233759592Y-18888467D01*
X233778909Y-18970177D01*
X233801497Y-19050576D01*
X233827280Y-19129589D01*
X233856184Y-19207142D01*
X233888134Y-19283159D01*
X233923055Y-19357567D01*
X233960873Y-19430290D01*
X234001514Y-19501255D01*
X234044902Y-19570385D01*
X234090962Y-19637607D01*
X234139621Y-19702846D01*
X234146659Y-19654201D01*
X234155137Y-19606035D01*
X234165031Y-19558371D01*
X234176320Y-19511231D01*
X234188981Y-19464637D01*
X234202990Y-19418613D01*
X234217974Y-19374223D01*
X234901383Y-19374223D01*
X234901535Y-19377784D01*
X234901852Y-19381337D01*
X234902335Y-19384875D01*
X234902983Y-19388391D01*
X234903797Y-19391879D01*
X234904776Y-19395333D01*
X234905921Y-19398747D01*
X234907232Y-19402115D01*
X234908708Y-19405429D01*
X234910349Y-19408684D01*
X234912157Y-19411874D01*
X234914129Y-19414992D01*
X234916268Y-19418032D01*
X234918571Y-19420988D01*
X234921041Y-19423853D01*
X234923676Y-19426622D01*
X234926444Y-19429256D01*
X234929309Y-19431726D01*
X234932265Y-19434030D01*
X234935305Y-19436168D01*
X234938423Y-19438141D01*
X234941613Y-19439948D01*
X234944868Y-19441589D01*
X234948182Y-19443065D01*
X234951550Y-19444376D01*
X234954964Y-19445521D01*
X234958418Y-19446500D01*
X234961906Y-19447314D01*
X234965422Y-19447962D01*
X234968960Y-19448445D01*
X234972513Y-19448762D01*
X234976074Y-19448914D01*
X234979639Y-19448900D01*
X234983199Y-19448720D01*
X234986750Y-19448375D01*
X234990284Y-19447865D01*
X234993796Y-19447189D01*
X234997279Y-19446347D01*
X235000727Y-19445340D01*
X235004134Y-19444167D01*
X235007493Y-19442829D01*
X235010798Y-19441325D01*
X235014043Y-19439655D01*
X235017221Y-19437820D01*
X235020326Y-19435820D01*
X235023353Y-19433654D01*
X235026294Y-19431322D01*
X235029143Y-19428825D01*
X235029149Y-19428830D01*
X235029154Y-19428836D01*
X235029166Y-19428848D01*
X235029177Y-19428860D01*
X235029189Y-19428871D01*
X235031439Y-19426622D01*
X235200204Y-19257856D01*
X235371220Y-19428871D01*
X235371242Y-19428848D01*
X235371254Y-19428836D01*
X235371266Y-19428825D01*
X235374115Y-19431322D01*
X235377056Y-19433654D01*
X235380082Y-19435820D01*
X235383187Y-19437820D01*
X235386366Y-19439655D01*
X235389610Y-19441325D01*
X235392915Y-19442829D01*
X235396274Y-19444167D01*
X235399681Y-19445340D01*
X235403129Y-19446347D01*
X235406612Y-19447189D01*
X235410124Y-19447865D01*
X235413658Y-19448375D01*
X235417209Y-19448720D01*
X235420769Y-19448900D01*
X235424333Y-19448914D01*
X235427895Y-19448762D01*
X235431448Y-19448445D01*
X235434985Y-19447962D01*
X235438501Y-19447314D01*
X235441990Y-19446500D01*
X235445444Y-19445521D01*
X235448858Y-19444376D01*
X235452225Y-19443065D01*
X235455540Y-19441589D01*
X235458795Y-19439948D01*
X235461985Y-19438141D01*
X235465103Y-19436168D01*
X235468143Y-19434030D01*
X235471099Y-19431726D01*
X235473964Y-19429256D01*
X235476732Y-19426622D01*
X235479367Y-19423853D01*
X235481837Y-19420988D01*
X235484141Y-19418032D01*
X235486279Y-19414992D01*
X235488252Y-19411874D01*
X235490059Y-19408684D01*
X235491700Y-19405429D01*
X235493177Y-19402115D01*
X235494487Y-19398747D01*
X235495632Y-19395333D01*
X235496611Y-19391879D01*
X235497425Y-19388391D01*
X235498074Y-19384875D01*
X235498556Y-19381337D01*
X235498874Y-19377784D01*
X235499025Y-19374223D01*
X235499011Y-19370659D01*
X235498832Y-19367098D01*
X235498487Y-19363547D01*
X235497976Y-19360013D01*
X235497300Y-19356501D01*
X235496458Y-19353018D01*
X235495451Y-19349570D01*
X235494278Y-19346164D01*
X235492940Y-19342805D01*
X235491436Y-19339500D01*
X235489767Y-19336255D01*
X235487932Y-19333077D01*
X235485931Y-19329971D01*
X235483765Y-19326945D01*
X235481434Y-19324004D01*
X235478936Y-19321155D01*
X235478982Y-19321108D01*
X235307967Y-19150093D01*
X235883078Y-19150093D01*
X235883172Y-19153913D01*
X235883452Y-19157685D01*
X235883913Y-19161404D01*
X235884551Y-19165066D01*
X235885361Y-19168666D01*
X235886338Y-19172199D01*
X235887479Y-19175662D01*
X235888779Y-19179049D01*
X235890234Y-19182357D01*
X235891838Y-19185581D01*
X235893588Y-19188716D01*
X235895479Y-19191758D01*
X235897507Y-19194703D01*
X235899667Y-19197545D01*
X235901955Y-19200282D01*
X235904366Y-19202908D01*
X235906897Y-19205418D01*
X235909541Y-19207809D01*
X235912296Y-19210076D01*
X235915156Y-19212214D01*
X235918117Y-19214219D01*
X235921175Y-19216087D01*
X235924326Y-19217813D01*
X235927564Y-19219392D01*
X235930885Y-19220821D01*
X235934286Y-19222094D01*
X235937760Y-19223208D01*
X235941305Y-19224158D01*
X235944916Y-19224939D01*
X235948587Y-19225548D01*
X235952315Y-19225978D01*
X235956096Y-19226227D01*
X235956096Y-19226293D01*
X236197948Y-19226293D01*
X236197948Y-19468144D01*
X236198014Y-19468144D01*
X236198263Y-19471925D01*
X236198693Y-19475653D01*
X236199302Y-19479325D01*
X236200083Y-19482935D01*
X236201033Y-19486480D01*
X236202147Y-19489955D01*
X236203420Y-19493355D01*
X236204849Y-19496677D01*
X236206429Y-19499915D01*
X236208154Y-19503065D01*
X236210022Y-19506123D01*
X236212027Y-19509085D01*
X236214165Y-19511945D01*
X236216432Y-19514699D01*
X236218823Y-19517344D01*
X236221333Y-19519874D01*
X236223959Y-19522285D01*
X236226696Y-19524573D01*
X236229538Y-19526733D01*
X236232483Y-19528761D01*
X236235525Y-19530652D01*
X236238660Y-19532402D01*
X236241884Y-19534007D01*
X236245191Y-19535461D01*
X236248579Y-19536761D01*
X236252041Y-19537902D01*
X236255575Y-19538880D01*
X236259174Y-19539690D01*
X236262836Y-19540327D01*
X236266555Y-19540788D01*
X236270327Y-19541068D01*
X236274147Y-19541162D01*
X236277968Y-19541068D01*
X236281740Y-19540788D01*
X236285459Y-19540327D01*
X236289121Y-19539690D01*
X236292721Y-19538880D01*
X236296254Y-19537902D01*
X236299717Y-19536761D01*
X236303104Y-19535461D01*
X236306412Y-19534007D01*
X236309636Y-19532402D01*
X236312771Y-19530652D01*
X236315813Y-19528761D01*
X236318758Y-19526733D01*
X236321600Y-19524573D01*
X236324337Y-19522285D01*
X236326963Y-19519874D01*
X236329473Y-19517344D01*
X236331864Y-19514699D01*
X236334131Y-19511945D01*
X236336269Y-19509085D01*
X236338274Y-19506123D01*
X236340142Y-19503065D01*
X236341868Y-19499915D01*
X236343447Y-19496677D01*
X236344876Y-19493355D01*
X236346150Y-19489955D01*
X236347264Y-19486480D01*
X236348213Y-19482935D01*
X236348995Y-19479325D01*
X236349603Y-19475653D01*
X236350034Y-19471925D01*
X236350283Y-19468144D01*
X236350347Y-19468144D01*
X236350347Y-19226293D01*
X236592200Y-19226293D01*
X236592200Y-19226227D01*
X236595980Y-19225978D01*
X236599708Y-19225548D01*
X236603380Y-19224939D01*
X236606990Y-19224158D01*
X236610535Y-19223208D01*
X236614010Y-19222094D01*
X236617410Y-19220821D01*
X236620732Y-19219392D01*
X236623970Y-19217813D01*
X236627120Y-19216087D01*
X236630178Y-19214219D01*
X236633140Y-19212214D01*
X236636000Y-19210076D01*
X236638754Y-19207809D01*
X236641399Y-19205418D01*
X236643929Y-19202908D01*
X236646340Y-19200282D01*
X236648628Y-19197545D01*
X236650788Y-19194703D01*
X236652816Y-19191758D01*
X236654707Y-19188716D01*
X236656457Y-19185581D01*
X236658062Y-19182357D01*
X236659516Y-19179049D01*
X236660816Y-19175662D01*
X236661957Y-19172199D01*
X236662935Y-19168666D01*
X236663745Y-19165066D01*
X236664382Y-19161404D01*
X236664843Y-19157685D01*
X236665123Y-19153913D01*
X236665217Y-19150093D01*
X236665123Y-19146272D01*
X236664843Y-19142500D01*
X236664382Y-19138781D01*
X236663745Y-19135119D01*
X236662935Y-19131520D01*
X236661957Y-19127986D01*
X236660816Y-19124524D01*
X236659516Y-19121136D01*
X236658062Y-19117828D01*
X236656457Y-19114605D01*
X236654707Y-19111470D01*
X236652816Y-19108428D01*
X236650789Y-19105483D01*
X236648628Y-19102640D01*
X236646341Y-19099904D01*
X236643929Y-19097278D01*
X236641399Y-19094768D01*
X236638755Y-19092377D01*
X236636000Y-19090110D01*
X236633140Y-19087972D01*
X236630179Y-19085967D01*
X236627120Y-19084099D01*
X236623970Y-19082373D01*
X236620732Y-19080794D01*
X236617411Y-19079365D01*
X236614010Y-19078091D01*
X236610535Y-19076977D01*
X236606991Y-19076028D01*
X236603380Y-19075246D01*
X236599708Y-19074638D01*
X236595980Y-19074207D01*
X236592200Y-19073958D01*
X236592200Y-19073893D01*
X236350347Y-19073893D01*
X236350347Y-18832041D01*
X236350283Y-18832041D01*
X236350034Y-18828260D01*
X236349603Y-18824532D01*
X236348995Y-18820860D01*
X236348213Y-18817250D01*
X236347264Y-18813705D01*
X236346150Y-18810230D01*
X236344876Y-18806830D01*
X236343447Y-18803508D01*
X236341868Y-18800270D01*
X236340142Y-18797120D01*
X236338274Y-18794062D01*
X236336269Y-18791101D01*
X236334131Y-18788240D01*
X236331864Y-18785486D01*
X236329473Y-18782841D01*
X236326963Y-18780311D01*
X236324337Y-18777900D01*
X236321600Y-18775612D01*
X236318758Y-18773452D01*
X236315813Y-18771424D01*
X236312771Y-18769533D01*
X236309636Y-18767783D01*
X236306412Y-18766178D01*
X236303104Y-18764724D01*
X236299717Y-18763424D01*
X236296254Y-18762283D01*
X236292721Y-18761305D01*
X236289121Y-18760495D01*
X236285459Y-18759858D01*
X236281740Y-18759397D01*
X236277968Y-18759117D01*
X236274147Y-18759023D01*
X236270327Y-18759117D01*
X236266555Y-18759397D01*
X236262836Y-18759858D01*
X236259174Y-18760495D01*
X236255575Y-18761305D01*
X236252041Y-18762283D01*
X236248579Y-18763424D01*
X236245191Y-18764724D01*
X236241884Y-18766178D01*
X236238660Y-18767783D01*
X236235525Y-18769533D01*
X236232483Y-18771424D01*
X236229538Y-18773452D01*
X236226695Y-18775612D01*
X236223959Y-18777900D01*
X236221333Y-18780311D01*
X236218823Y-18782841D01*
X236216432Y-18785486D01*
X236214165Y-18788240D01*
X236212027Y-18791101D01*
X236210022Y-18794062D01*
X236208154Y-18797120D01*
X236206428Y-18800270D01*
X236204848Y-18803508D01*
X236203420Y-18806830D01*
X236202146Y-18810230D01*
X236201032Y-18813705D01*
X236200082Y-18817250D01*
X236199301Y-18820860D01*
X236198693Y-18824532D01*
X236198262Y-18828260D01*
X236198013Y-18832041D01*
X236197948Y-18832041D01*
X236197948Y-19073894D01*
X235959184Y-19073894D01*
X235956096Y-19073893D01*
X235956096Y-19073958D01*
X235952315Y-19074207D01*
X235948587Y-19074637D01*
X235944916Y-19075246D01*
X235941305Y-19076027D01*
X235937760Y-19076977D01*
X235934286Y-19078091D01*
X235930885Y-19079364D01*
X235927564Y-19080793D01*
X235924326Y-19082373D01*
X235921175Y-19084098D01*
X235918117Y-19085966D01*
X235915156Y-19087971D01*
X235912296Y-19090109D01*
X235909541Y-19092376D01*
X235906897Y-19094767D01*
X235904366Y-19097277D01*
X235901955Y-19099903D01*
X235899667Y-19102640D01*
X235897507Y-19105482D01*
X235895479Y-19108427D01*
X235893588Y-19111469D01*
X235891838Y-19114604D01*
X235890234Y-19117828D01*
X235888779Y-19121136D01*
X235887479Y-19124523D01*
X235886338Y-19127986D01*
X235885361Y-19131519D01*
X235884551Y-19135119D01*
X235883913Y-19138781D01*
X235883452Y-19142500D01*
X235883172Y-19146272D01*
X235883078Y-19150093D01*
X235307967Y-19150093D01*
X235476732Y-18981327D01*
X235478982Y-18979078D01*
X235478936Y-18979032D01*
X235481434Y-18976182D01*
X235483765Y-18973241D01*
X235485931Y-18970215D01*
X235487932Y-18967110D01*
X235489767Y-18963931D01*
X235491436Y-18960687D01*
X235492940Y-18957382D01*
X235494278Y-18954023D01*
X235495451Y-18950616D01*
X235496458Y-18947168D01*
X235497300Y-18943685D01*
X235497976Y-18940173D01*
X235498487Y-18936639D01*
X235498832Y-18933088D01*
X235499011Y-18929528D01*
X235499025Y-18925963D01*
X235498874Y-18922402D01*
X235498556Y-18918849D01*
X235498074Y-18915311D01*
X235497425Y-18911795D01*
X235496611Y-18908307D01*
X235495632Y-18904853D01*
X235494487Y-18901439D01*
X235493177Y-18898071D01*
X235491700Y-18894757D01*
X235490059Y-18891502D01*
X235488252Y-18888312D01*
X235486279Y-18885194D01*
X235484141Y-18882154D01*
X235481837Y-18879198D01*
X235479367Y-18876333D01*
X235476732Y-18873564D01*
X235473964Y-18870929D01*
X235471099Y-18868460D01*
X235468143Y-18866156D01*
X235465103Y-18864018D01*
X235461985Y-18862045D01*
X235458795Y-18860238D01*
X235455540Y-18858596D01*
X235452225Y-18857120D01*
X235448858Y-18855810D01*
X235445444Y-18854665D01*
X235441990Y-18853685D01*
X235438501Y-18852872D01*
X235434985Y-18852223D01*
X235431448Y-18851741D01*
X235427895Y-18851423D01*
X235424333Y-18851272D01*
X235420769Y-18851286D01*
X235417209Y-18851465D01*
X235413658Y-18851810D01*
X235410124Y-18852321D01*
X235406612Y-18852997D01*
X235403129Y-18853839D01*
X235399681Y-18854846D01*
X235396274Y-18856019D01*
X235392915Y-18857357D01*
X235389610Y-18858861D01*
X235386366Y-18860530D01*
X235383187Y-18862365D01*
X235380082Y-18864366D01*
X235377056Y-18866532D01*
X235374115Y-18868864D01*
X235371266Y-18871361D01*
X235371220Y-18871314D01*
X235368969Y-18873564D01*
X235200204Y-19042330D01*
X235031438Y-18873565D01*
X235031405Y-18873532D01*
X235031389Y-18873515D01*
X235031372Y-18873498D01*
X235029190Y-18871314D01*
X235029143Y-18871361D01*
X235026294Y-18868864D01*
X235023353Y-18866532D01*
X235020326Y-18864366D01*
X235017221Y-18862365D01*
X235014043Y-18860530D01*
X235010798Y-18858861D01*
X235007493Y-18857357D01*
X235004134Y-18856019D01*
X235000727Y-18854846D01*
X234997279Y-18853839D01*
X234993796Y-18852997D01*
X234990284Y-18852321D01*
X234986750Y-18851810D01*
X234983199Y-18851465D01*
X234979639Y-18851286D01*
X234976075Y-18851272D01*
X234972513Y-18851424D01*
X234968960Y-18851741D01*
X234965423Y-18852224D01*
X234961907Y-18852872D01*
X234958418Y-18853686D01*
X234954964Y-18854665D01*
X234951550Y-18855810D01*
X234948183Y-18857121D01*
X234944868Y-18858597D01*
X234941613Y-18860238D01*
X234938423Y-18862046D01*
X234935305Y-18864018D01*
X234932265Y-18866157D01*
X234929309Y-18868461D01*
X234926444Y-18870930D01*
X234923676Y-18873565D01*
X234921041Y-18876333D01*
X234918571Y-18879198D01*
X234916268Y-18882154D01*
X234914129Y-18885194D01*
X234912157Y-18888312D01*
X234910349Y-18891502D01*
X234908708Y-18894757D01*
X234907232Y-18898072D01*
X234905921Y-18901439D01*
X234904776Y-18904853D01*
X234903797Y-18908307D01*
X234902983Y-18911796D01*
X234902335Y-18915312D01*
X234901852Y-18918849D01*
X234901535Y-18922402D01*
X234901383Y-18925964D01*
X234901397Y-18929528D01*
X234901577Y-18933089D01*
X234901922Y-18936639D01*
X234902432Y-18940174D01*
X234903108Y-18943685D01*
X234903950Y-18947168D01*
X234904957Y-18950616D01*
X234906130Y-18954023D01*
X234907468Y-18957382D01*
X234908972Y-18960687D01*
X234910642Y-18963932D01*
X234912477Y-18967110D01*
X234914477Y-18970215D01*
X234916643Y-18973241D01*
X234918975Y-18976182D01*
X234921472Y-18979032D01*
X234921449Y-18979055D01*
X234921437Y-18979066D01*
X234921426Y-18979078D01*
X234923676Y-18981328D01*
X235092442Y-19150093D01*
X234923676Y-19318858D01*
X234921426Y-19321108D01*
X234921472Y-19321155D01*
X234918975Y-19324004D01*
X234916643Y-19326945D01*
X234914477Y-19329971D01*
X234912477Y-19333077D01*
X234910642Y-19336255D01*
X234908972Y-19339500D01*
X234907468Y-19342805D01*
X234906130Y-19346164D01*
X234904957Y-19349570D01*
X234903950Y-19353018D01*
X234903108Y-19356501D01*
X234902432Y-19360013D01*
X234901922Y-19363547D01*
X234901577Y-19367098D01*
X234901397Y-19370659D01*
X234901383Y-19374223D01*
X234217974Y-19374223D01*
X234218325Y-19373182D01*
X234234965Y-19328365D01*
X234252885Y-19284186D01*
X234272063Y-19240668D01*
X234292477Y-19197832D01*
X234314104Y-19155702D01*
X234336921Y-19114300D01*
X234360905Y-19073649D01*
X234386035Y-19033772D01*
X234412286Y-18994691D01*
X234380452Y-18969069D01*
X234350133Y-18941722D01*
X234321403Y-18912723D01*
X234294337Y-18882147D01*
X234269009Y-18850068D01*
X234245493Y-18816561D01*
X234223864Y-18781700D01*
X234204196Y-18745560D01*
X234186564Y-18708214D01*
X234171041Y-18669736D01*
X234157702Y-18630203D01*
X234146622Y-18589687D01*
X234137875Y-18548263D01*
X234131535Y-18506005D01*
X234127677Y-18462989D01*
X234126374Y-18419287D01*
X234127314Y-18382145D01*
X234130104Y-18345488D01*
X234134699Y-18309363D01*
X234141053Y-18273814D01*
X234149121Y-18238886D01*
X234158857Y-18204627D01*
X234170215Y-18171080D01*
X234183150Y-18138292D01*
X234197618Y-18106308D01*
X234213571Y-18075173D01*
X234230965Y-18044933D01*
X234249755Y-18015633D01*
X234269894Y-17987320D01*
X234291337Y-17960037D01*
X234314039Y-17933832D01*
X234337955Y-17908748D01*
X234363038Y-17884833D01*
X234389244Y-17862131D01*
X234416526Y-17840687D01*
X234444840Y-17820548D01*
X234474139Y-17801759D01*
X234504379Y-17784365D01*
X234535514Y-17768411D01*
X234567498Y-17753944D01*
X234600287Y-17741009D01*
X234633833Y-17729650D01*
X234668093Y-17719914D01*
X234703020Y-17711847D01*
X234738569Y-17705493D01*
X234774694Y-17700898D01*
X234811351Y-17698108D01*
X234848493Y-17697167D01*
X234882174Y-17697940D01*
X234915459Y-17700236D01*
X234948315Y-17704021D01*
X234980708Y-17709261D01*
X235012605Y-17715923D01*
X235043971Y-17723972D01*
X235074772Y-17733375D01*
X235104975Y-17744098D01*
X235134545Y-17756107D01*
X235163449Y-17769368D01*
X235191654Y-17783848D01*
X235219124Y-17799511D01*
X235245827Y-17816326D01*
X235271728Y-17834257D01*
X235296794Y-17853271D01*
X235320991Y-17873334D01*
X235344284Y-17894412D01*
X235366641Y-17916472D01*
X235388027Y-17939479D01*
X235408408Y-17963400D01*
X235427750Y-17988200D01*
X235446020Y-18013846D01*
X235463184Y-18040305D01*
X235479208Y-18067541D01*
X235494058Y-18095522D01*
X235507700Y-18124213D01*
X235520100Y-18153581D01*
X235531225Y-18183592D01*
X235541040Y-18214211D01*
X235549512Y-18245406D01*
X235556607Y-18277141D01*
X235562291Y-18309384D01*
X235583876Y-18307197D01*
X235605543Y-18305296D01*
X235627291Y-18303681D01*
X235649118Y-18302356D01*
X235671021Y-18301322D01*
X235693000Y-18300582D01*
X235715052Y-18300136D01*
X235737176Y-18299987D01*
X235760901Y-18300158D01*
X235784543Y-18300671D01*
X235808101Y-18301522D01*
X235831572Y-18302711D01*
X235854954Y-18304233D01*
X235878245Y-18306088D01*
X235901441Y-18308271D01*
X235924541Y-18310782D01*
X235930582Y-18278979D01*
X235937998Y-18247683D01*
X235946757Y-18216927D01*
X235956826Y-18186745D01*
X235968172Y-18157169D01*
X235980761Y-18128232D01*
X235994562Y-18099968D01*
X236009540Y-18072408D01*
X236025664Y-18045587D01*
X236042899Y-18019536D01*
X236061214Y-17994289D01*
X236080575Y-17969879D01*
X236100950Y-17946339D01*
X236122305Y-17923702D01*
X236144608Y-17902000D01*
X236167825Y-17881267D01*
X236191923Y-17861535D01*
X236216871Y-17842837D01*
X236242634Y-17825207D01*
X236269181Y-17808677D01*
X236296477Y-17793280D01*
X236324490Y-17779049D01*
X236353187Y-17766018D01*
X236382535Y-17754218D01*
X236412502Y-17743683D01*
X236443054Y-17734446D01*
X236474158Y-17726540D01*
X236505782Y-17719997D01*
X236537892Y-17714851D01*
X236570456Y-17711135D01*
X236603440Y-17708881D01*
X236636812Y-17708122D01*
X236673954Y-17709062D01*
X236710611Y-17711852D01*
X236746736Y-17716447D01*
X236782285Y-17722801D01*
X236817213Y-17730869D01*
X236851472Y-17740605D01*
X236885019Y-17751963D01*
X236917807Y-17764898D01*
X236949791Y-17779366D01*
X236980926Y-17795319D01*
X237011166Y-17812713D01*
X237040466Y-17831503D01*
X237068779Y-17851642D01*
X237096062Y-17873085D01*
X237122267Y-17895787D01*
X237147351Y-17919703D01*
X237171266Y-17944786D01*
X237193968Y-17970992D01*
X237215412Y-17998274D01*
X237235551Y-18026588D01*
X237254340Y-18055887D01*
X237271734Y-18086127D01*
X237287688Y-18117262D01*
X237302155Y-18149246D01*
X237315091Y-18182035D01*
X237326449Y-18215581D01*
X237336185Y-18249841D01*
X237344252Y-18284768D01*
X237350606Y-18320317D01*
X237355201Y-18356443D01*
X237357991Y-18393099D01*
X237358932Y-18430241D01*
X237358931Y-18430241D01*
X237357617Y-18474131D01*
X237353726Y-18517329D01*
X237347331Y-18559761D01*
X237338510Y-18601352D01*
X237327337Y-18642025D01*
X237313888Y-18681705D01*
X237298237Y-18720318D01*
X237280460Y-18757788D01*
X237260633Y-18794039D01*
X237238831Y-18828997D01*
X237215129Y-18862586D01*
X237189602Y-18894730D01*
X237162326Y-18925354D01*
X237133376Y-18954384D01*
X237102827Y-18981743D01*
X237070755Y-19007357D01*
X237096126Y-19045890D01*
X237120414Y-19085180D01*
X237143596Y-19125206D01*
X237157069Y-19150093D01*
X237165652Y-19165948D01*
X237186561Y-19207382D01*
X237206302Y-19249490D01*
X237224852Y-19292248D01*
X237242190Y-19335635D01*
X237258296Y-19379631D01*
X237273148Y-19424214D01*
X237286724Y-19469363D01*
X237299004Y-19515056D01*
X237309966Y-19561272D01*
X237319589Y-19607990D01*
X237327850Y-19655188D01*
X237334730Y-19702846D01*
X237383389Y-19637607D01*
X237429450Y-19570385D01*
X237472838Y-19501254D01*
X237513478Y-19430290D01*
X237551296Y-19357567D01*
X237586218Y-19283159D01*
X237618168Y-19207141D01*
X237647071Y-19129589D01*
X237672854Y-19050576D01*
X237695442Y-18970177D01*
X237714759Y-18888467D01*
X237730732Y-18805521D01*
X237743285Y-18721413D01*
X237752344Y-18636217D01*
X237757834Y-18550010D01*
X237759680Y-18462864D01*
X237757047Y-18358837D01*
X237749232Y-18256170D01*
X237736363Y-18154989D01*
X237718567Y-18055424D01*
X237695971Y-17957601D01*
X237668703Y-17861647D01*
X237636891Y-17767690D01*
X237600661Y-17675857D01*
X237560141Y-17586275D01*
X237515459Y-17499073D01*
X237466741Y-17414377D01*
X237414116Y-17332315D01*
X237357711Y-17253014D01*
X237297652Y-17176602D01*
X237234068Y-17103206D01*
X237167086Y-17032953D01*
X237096833Y-16965971D01*
X237023437Y-16902387D01*
X236947025Y-16842329D01*
X236867724Y-16785923D01*
X236785662Y-16733298D01*
X236700966Y-16684581D01*
X236613764Y-16639898D01*
X236524183Y-16599379D01*
X236432350Y-16563149D01*
X236338393Y-16531336D01*
X236242439Y-16504069D01*
X236144615Y-16481473D01*
X236045050Y-16463677D01*
X235943870Y-16450808D01*
X235841203Y-16442993D01*
X235737176Y-16440359D01*
X235633148Y-16442993D01*
X235530481Y-16450808D01*
X235429301Y-16463677D01*
X235329736Y-16481473D01*
X235231912Y-16504069D01*
X235135958Y-16531336D01*
X235042001Y-16563149D01*
X234950168Y-16599379D01*
X234860587Y-16639898D01*
X234773385Y-16684581D01*
X234688689Y-16733298D01*
X234606627Y-16785923D01*
X234527326Y-16842329D01*
X234450914Y-16902387D01*
X234377518Y-16965971D01*
X234307265Y-17032953D01*
X234240283Y-17103206D01*
X234176699Y-17176602D01*
X234116640Y-17253014D01*
X234060235Y-17332315D01*
X234007610Y-17414377D01*
X233958892Y-17499073D01*
X233914210Y-17586275D01*
X233873690Y-17675857D01*
X233837460Y-17767690D01*
X233805648Y-17861647D01*
X233778380Y-17957601D01*
X233755785Y-18055424D01*
X233737988Y-18154989D01*
X233725119Y-18256170D01*
X233717304Y-18358837D01*
X233714671Y-18462864D01*
X233306317Y-18462864D01*
X233306318Y-17015829D01*
X235737175Y-15612374D01*
X238168035Y-17015830D01*
X238168035Y-18462864D01*
X238168034Y-19822746D01*
X235737177Y-21226202D01*
D11*
X208821330Y-68815443D02*
X207678473Y-68815443D01*
D12*
X221922516Y-16550705D02*
X221922516Y-15550705D01*
X221922516Y-15931658D02*
X221827277Y-15884039D01*
X221636801Y-15884039D01*
X221541563Y-15931658D01*
X221493944Y-15979277D01*
X221446325Y-16074515D01*
X221446325Y-16360229D01*
X221493944Y-16455467D01*
X221541563Y-16503086D01*
X221636801Y-16550705D01*
X221827277Y-16550705D01*
X221922516Y-16503086D01*
X220589182Y-16550705D02*
X220589182Y-16026896D01*
X220636801Y-15931658D01*
X220732039Y-15884039D01*
X220922516Y-15884039D01*
X221017754Y-15931658D01*
X220589182Y-16503086D02*
X220684420Y-16550705D01*
X220922516Y-16550705D01*
X221017754Y-16503086D01*
X221065373Y-16407848D01*
X221065373Y-16312610D01*
X221017754Y-16217372D01*
X220922516Y-16169753D01*
X220684420Y-16169753D01*
X220589182Y-16122134D01*
X220112992Y-16550705D02*
X220112992Y-15550705D01*
X220112992Y-15931658D02*
X220017754Y-15884039D01*
X219827277Y-15884039D01*
X219732039Y-15931658D01*
X219684420Y-15979277D01*
X219636801Y-16074515D01*
X219636801Y-16360229D01*
X219684420Y-16455467D01*
X219732039Y-16503086D01*
X219827277Y-16550705D01*
X220017754Y-16550705D01*
X220112992Y-16503086D01*
X219208230Y-16550705D02*
X219208230Y-15550705D01*
X219208230Y-15931658D02*
X219112992Y-15884039D01*
X218922516Y-15884039D01*
X218827277Y-15931658D01*
X218779658Y-15979277D01*
X218732039Y-16074515D01*
X218732039Y-16360229D01*
X218779658Y-16455467D01*
X218827277Y-16503086D01*
X218922516Y-16550705D01*
X219112992Y-16550705D01*
X219208230Y-16503086D01*
X218303468Y-16550705D02*
X218303468Y-15884039D01*
X218303468Y-15550705D02*
X218351087Y-15598325D01*
X218303468Y-15645944D01*
X218255849Y-15598325D01*
X218303468Y-15550705D01*
X218303468Y-15645944D01*
X217970135Y-15884039D02*
X217589182Y-15884039D01*
X217827277Y-15550705D02*
X217827277Y-16407848D01*
X217779658Y-16503086D01*
X217684420Y-16550705D01*
X217589182Y-16550705D01*
X217351087Y-15550705D02*
X216732039Y-15550705D01*
X217065373Y-15931658D01*
X216922516Y-15931658D01*
X216827277Y-15979277D01*
X216779658Y-16026896D01*
X216732039Y-16122134D01*
X216732039Y-16360229D01*
X216779658Y-16455467D01*
X216827277Y-16503086D01*
X216922516Y-16550705D01*
X217208230Y-16550705D01*
X217303468Y-16503086D01*
X217351087Y-16455467D01*
X215874897Y-15550705D02*
X216065373Y-15550705D01*
X216160611Y-15598325D01*
X216208230Y-15645944D01*
X216303468Y-15788801D01*
X216351087Y-15979277D01*
X216351087Y-16360229D01*
X216303468Y-16455467D01*
X216255849Y-16503086D01*
X216160611Y-16550705D01*
X215970135Y-16550705D01*
X215874897Y-16503086D01*
X215827277Y-16455467D01*
X215779658Y-16360229D01*
X215779658Y-16122134D01*
X215827277Y-16026896D01*
X215874897Y-15979277D01*
X215970135Y-15931658D01*
X216160611Y-15931658D01*
X216255849Y-15979277D01*
X216303468Y-16026896D01*
X216351087Y-16122134D01*
X223327277Y-18160705D02*
X223327277Y-17160705D01*
X223327277Y-17541658D02*
X223232039Y-17494039D01*
X223041563Y-17494039D01*
X222946325Y-17541658D01*
X222898706Y-17589277D01*
X222851087Y-17684515D01*
X222851087Y-17970229D01*
X222898706Y-18065467D01*
X222946325Y-18113086D01*
X223041563Y-18160705D01*
X223232039Y-18160705D01*
X223327277Y-18113086D01*
X222517754Y-17494039D02*
X222279658Y-18160705D01*
X222041563Y-17494039D02*
X222279658Y-18160705D01*
X222374897Y-18398801D01*
X222422516Y-18446420D01*
X222517754Y-18494039D01*
X220946325Y-18113086D02*
X220851087Y-18160705D01*
X220660611Y-18160705D01*
X220565373Y-18113086D01*
X220517754Y-18017848D01*
X220517754Y-17970229D01*
X220565373Y-17874991D01*
X220660611Y-17827372D01*
X220803468Y-17827372D01*
X220898706Y-17779753D01*
X220946325Y-17684515D01*
X220946325Y-17636896D01*
X220898706Y-17541658D01*
X220803468Y-17494039D01*
X220660611Y-17494039D01*
X220565373Y-17541658D01*
X220089182Y-17494039D02*
X220089182Y-18494039D01*
X220089182Y-17541658D02*
X219993944Y-17494039D01*
X219803468Y-17494039D01*
X219708230Y-17541658D01*
X219660611Y-17589277D01*
X219612992Y-17684515D01*
X219612992Y-17970229D01*
X219660611Y-18065467D01*
X219708230Y-18113086D01*
X219803468Y-18160705D01*
X219993944Y-18160705D01*
X220089182Y-18113086D01*
X219041563Y-18160705D02*
X219136801Y-18113086D01*
X219184420Y-18065467D01*
X219232039Y-17970229D01*
X219232039Y-17684515D01*
X219184420Y-17589277D01*
X219136801Y-17541658D01*
X219041563Y-17494039D01*
X218898706Y-17494039D01*
X218803468Y-17541658D01*
X218755849Y-17589277D01*
X218708230Y-17684515D01*
X218708230Y-17970229D01*
X218755849Y-18065467D01*
X218803468Y-18113086D01*
X218898706Y-18160705D01*
X219041563Y-18160705D01*
X218279658Y-18160705D02*
X218279658Y-17494039D01*
X218279658Y-17684515D02*
X218232039Y-17589277D01*
X218184420Y-17541658D01*
X218089182Y-17494039D01*
X217993944Y-17494039D01*
X217279658Y-18113086D02*
X217374897Y-18160705D01*
X217565373Y-18160705D01*
X217660611Y-18113086D01*
X217708230Y-18017848D01*
X217708230Y-17636896D01*
X217660611Y-17541658D01*
X217565373Y-17494039D01*
X217374897Y-17494039D01*
X217279658Y-17541658D01*
X217232039Y-17636896D01*
X217232039Y-17732134D01*
X217708230Y-17827372D01*
X216898706Y-17494039D02*
X216708230Y-18160705D01*
X216517754Y-17684515D01*
X216327277Y-18160705D01*
X216136801Y-17494039D01*
X215612992Y-18160705D02*
X215708230Y-18113086D01*
X215755849Y-18065467D01*
X215803468Y-17970229D01*
X215803468Y-17684515D01*
X215755849Y-17589277D01*
X215708230Y-17541658D01*
X215612992Y-17494039D01*
X215470135Y-17494039D01*
X215374897Y-17541658D01*
X215327277Y-17589277D01*
X215279658Y-17684515D01*
X215279658Y-17970229D01*
X215327277Y-18065467D01*
X215374897Y-18113086D01*
X215470135Y-18160705D01*
X215612992Y-18160705D01*
X214851087Y-18160705D02*
X214851087Y-17160705D01*
X214422516Y-18160705D02*
X214422516Y-17636896D01*
X214470135Y-17541658D01*
X214565373Y-17494039D01*
X214708230Y-17494039D01*
X214803468Y-17541658D01*
X214851087Y-17589277D01*
X220303468Y-19104039D02*
X220065373Y-19770705D01*
X219827277Y-19104039D01*
X219255849Y-18770705D02*
X219160611Y-18770705D01*
X219065373Y-18818325D01*
X219017754Y-18865944D01*
X218970135Y-18961182D01*
X218922516Y-19151658D01*
X218922516Y-19389753D01*
X218970135Y-19580229D01*
X219017754Y-19675467D01*
X219065373Y-19723086D01*
X219160611Y-19770705D01*
X219255849Y-19770705D01*
X219351087Y-19723086D01*
X219398706Y-19675467D01*
X219446325Y-19580229D01*
X219493944Y-19389753D01*
X219493944Y-19151658D01*
X219446325Y-18961182D01*
X219398706Y-18865944D01*
X219351087Y-18818325D01*
X219255849Y-18770705D01*
X218493944Y-19675467D02*
X218446325Y-19723086D01*
X218493944Y-19770705D01*
X218541563Y-19723086D01*
X218493944Y-19675467D01*
X218493944Y-19770705D01*
X217827277Y-18770705D02*
X217732039Y-18770705D01*
X217636801Y-18818325D01*
X217589182Y-18865944D01*
X217541563Y-18961182D01*
X217493944Y-19151658D01*
X217493944Y-19389753D01*
X217541563Y-19580229D01*
X217589182Y-19675467D01*
X217636801Y-19723086D01*
X217732039Y-19770705D01*
X217827277Y-19770705D01*
X217922516Y-19723086D01*
X217970135Y-19675467D01*
X218017754Y-19580229D01*
X218065373Y-19389753D01*
X218065373Y-19151658D01*
X218017754Y-18961182D01*
X217970135Y-18865944D01*
X217922516Y-18818325D01*
X217827277Y-18770705D01*
D11*
X208821330Y-75898773D02*
X207678473Y-75898773D01*
X208821330Y-72357108D02*
X207678473Y-72357108D01*
X208249902Y-72928537D02*
X208249902Y-71785680D01*
X208821330Y-78732105D02*
X207678473Y-78732105D01*
X208249902Y-79303534D02*
X208249902Y-78160677D01*
X211571335Y-16655714D02*
X210333240Y-16655714D01*
X210523716Y-17036666D01*
X210714192Y-17322380D01*
X210904668Y-17512857D01*
X211285620Y-17227142D02*
X210999906Y-17512857D01*
X210904668Y-17703333D01*
X210714192Y-17989047D01*
X208809430Y-16846190D02*
X208809430Y-18274761D01*
X208333240Y-16179523D02*
X208523716Y-16465238D01*
X208809430Y-16846190D01*
X209190382Y-17131904D01*
X209476097Y-17322380D01*
X207095144Y-16750952D02*
X206047525Y-16750952D01*
X206999906Y-16084285D02*
X207095144Y-16465238D01*
X207285620Y-16941428D01*
X207380859Y-17227142D01*
X206523716Y-16750952D02*
X206523716Y-17227142D01*
X206618954Y-17512857D01*
X206809430Y-17798571D01*
X207095144Y-18179523D01*
X204999906Y-16370000D02*
X204999906Y-17131904D01*
X205095144Y-17512857D01*
X205190382Y-17798571D01*
X205285620Y-18084285D01*
X204618954Y-16179523D02*
X204618954Y-18084285D01*
X204428478Y-17893809D01*
X204238001Y-17608095D01*
X204047525Y-17227142D01*
X203095144Y-16274761D02*
X202904668Y-16846190D01*
X202047525Y-16274761D02*
X202047525Y-16846190D01*
X202142763Y-17227142D01*
X202238001Y-17512857D01*
X202428478Y-17798571D01*
X202904668Y-18084285D01*
X200999906Y-16465238D02*
X199952287Y-16465238D01*
X199952287Y-16941428D01*
X200047525Y-17417619D01*
X200238001Y-17703333D01*
X200523716Y-17893809D01*
X200904668Y-18084285D01*
X198333240Y-16084285D02*
X198333240Y-18179523D01*
X198333240Y-16941428D02*
X197761811Y-17417619D01*
X196333240Y-17227142D02*
X196142763Y-17227142D01*
X196047525Y-17322380D01*
X196047525Y-17512857D01*
X196142763Y-17608095D01*
X196333240Y-17608095D01*
X196428478Y-17512857D01*
X196428478Y-17322380D01*
X196333240Y-17227142D01*
X194714192Y-16274761D02*
X194714192Y-18084285D01*
X193571335Y-18084285D01*
X193666573Y-16655714D02*
X194047525Y-16941428D01*
X194333240Y-17036666D01*
X194618954Y-17131904D01*
X193666573Y-16465238D02*
X193476097Y-16655714D01*
X193380859Y-16370000D02*
X193190382Y-16560476D01*
X192618954Y-16465238D02*
X192238001Y-16846190D01*
X192618954Y-17989047D02*
X192142763Y-17893809D01*
X191857049Y-17608095D01*
X191666573Y-17322380D01*
X191476097Y-16655714D01*
X190523716Y-16750952D02*
X189380859Y-16750952D01*
X189952287Y-16179523D02*
X189952287Y-18179523D01*
X190238001Y-18084285D01*
X189666573Y-17131904D02*
X189380859Y-17893809D01*
X190333240Y-17131904D02*
X190428478Y-17417619D01*
X190523716Y-17608095D01*
X190618954Y-17893809D01*
X189476097Y-16370000D02*
X189285620Y-16560476D01*
X189190382Y-16274761D02*
X188999906Y-16465238D01*
X187857049Y-16084285D02*
X187857049Y-16465238D01*
X188428478Y-17131904D02*
X188428478Y-16465238D01*
X187285620Y-16465238D01*
X187380859Y-17036666D01*
X187476097Y-17322380D01*
X187666573Y-17703333D01*
X187857049Y-17989047D01*
X188238001Y-18179523D01*
X186333240Y-16274761D02*
X185476097Y-16274761D01*
X185571335Y-16846190D01*
X185761811Y-17131904D01*
X185952287Y-17512857D01*
X186142763Y-17798571D01*
X186428478Y-18084285D01*
X185761811Y-17322380D02*
X185571335Y-17608095D01*
X185285620Y-18084285D01*
X185285620Y-16179523D02*
X185095144Y-16370000D01*
X184999906Y-16084285D02*
X184809430Y-16274761D01*
D12*
%TO.C,SW25*%
X147684452Y-55779734D02*
X147541595Y-55827353D01*
X147303500Y-55827353D01*
X147208262Y-55779734D01*
X147160643Y-55732115D01*
X147113024Y-55636877D01*
X147113024Y-55541639D01*
X147160643Y-55446401D01*
X147208262Y-55398782D01*
X147303500Y-55351163D01*
X147493976Y-55303544D01*
X147589214Y-55255925D01*
X147636833Y-55208306D01*
X147684452Y-55113068D01*
X147684452Y-55017830D01*
X147636833Y-54922592D01*
X147589214Y-54874973D01*
X147493976Y-54827353D01*
X147255881Y-54827353D01*
X147113024Y-54874973D01*
X146779690Y-54827353D02*
X146541595Y-55827353D01*
X146351119Y-55113068D01*
X146160643Y-55827353D01*
X145922548Y-54827353D01*
X145589214Y-54922592D02*
X145541595Y-54874973D01*
X145446357Y-54827353D01*
X145208262Y-54827353D01*
X145113024Y-54874973D01*
X145065405Y-54922592D01*
X145017786Y-55017830D01*
X145017786Y-55113068D01*
X145065405Y-55255925D01*
X145636833Y-55827353D01*
X145017786Y-55827353D01*
X144113024Y-54827353D02*
X144589214Y-54827353D01*
X144636833Y-55303544D01*
X144589214Y-55255925D01*
X144493976Y-55208306D01*
X144255881Y-55208306D01*
X144160643Y-55255925D01*
X144113024Y-55303544D01*
X144065405Y-55398782D01*
X144065405Y-55636877D01*
X144113024Y-55732115D01*
X144160643Y-55779734D01*
X144255881Y-55827353D01*
X144493976Y-55827353D01*
X144589214Y-55779734D01*
X144636833Y-55732115D01*
%TO.C,SW17*%
X181684436Y-38779742D02*
X181541579Y-38827361D01*
X181303484Y-38827361D01*
X181208246Y-38779742D01*
X181160627Y-38732123D01*
X181113008Y-38636885D01*
X181113008Y-38541647D01*
X181160627Y-38446409D01*
X181208246Y-38398790D01*
X181303484Y-38351171D01*
X181493960Y-38303552D01*
X181589198Y-38255933D01*
X181636817Y-38208314D01*
X181684436Y-38113076D01*
X181684436Y-38017838D01*
X181636817Y-37922600D01*
X181589198Y-37874981D01*
X181493960Y-37827361D01*
X181255865Y-37827361D01*
X181113008Y-37874981D01*
X180779674Y-37827361D02*
X180541579Y-38827361D01*
X180351103Y-38113076D01*
X180160627Y-38827361D01*
X179922532Y-37827361D01*
X179017770Y-38827361D02*
X179589198Y-38827361D01*
X179303484Y-38827361D02*
X179303484Y-37827361D01*
X179398722Y-37970219D01*
X179493960Y-38065457D01*
X179589198Y-38113076D01*
X178684436Y-37827361D02*
X178017770Y-37827361D01*
X178446341Y-38827361D01*
%TO.C,SW23*%
X113684468Y-55779734D02*
X113541611Y-55827353D01*
X113303516Y-55827353D01*
X113208278Y-55779734D01*
X113160659Y-55732115D01*
X113113040Y-55636877D01*
X113113040Y-55541639D01*
X113160659Y-55446401D01*
X113208278Y-55398782D01*
X113303516Y-55351163D01*
X113493992Y-55303544D01*
X113589230Y-55255925D01*
X113636849Y-55208306D01*
X113684468Y-55113068D01*
X113684468Y-55017830D01*
X113636849Y-54922592D01*
X113589230Y-54874973D01*
X113493992Y-54827353D01*
X113255897Y-54827353D01*
X113113040Y-54874973D01*
X112779706Y-54827353D02*
X112541611Y-55827353D01*
X112351135Y-55113068D01*
X112160659Y-55827353D01*
X111922564Y-54827353D01*
X111589230Y-54922592D02*
X111541611Y-54874973D01*
X111446373Y-54827353D01*
X111208278Y-54827353D01*
X111113040Y-54874973D01*
X111065421Y-54922592D01*
X111017802Y-55017830D01*
X111017802Y-55113068D01*
X111065421Y-55255925D01*
X111636849Y-55827353D01*
X111017802Y-55827353D01*
X110684468Y-54827353D02*
X110065421Y-54827353D01*
X110398754Y-55208306D01*
X110255897Y-55208306D01*
X110160659Y-55255925D01*
X110113040Y-55303544D01*
X110065421Y-55398782D01*
X110065421Y-55636877D01*
X110113040Y-55732115D01*
X110160659Y-55779734D01*
X110255897Y-55827353D01*
X110541611Y-55827353D01*
X110636849Y-55779734D01*
X110684468Y-55732115D01*
%TO.C,SW26*%
X164684444Y-55779734D02*
X164541587Y-55827353D01*
X164303492Y-55827353D01*
X164208254Y-55779734D01*
X164160635Y-55732115D01*
X164113016Y-55636877D01*
X164113016Y-55541639D01*
X164160635Y-55446401D01*
X164208254Y-55398782D01*
X164303492Y-55351163D01*
X164493968Y-55303544D01*
X164589206Y-55255925D01*
X164636825Y-55208306D01*
X164684444Y-55113068D01*
X164684444Y-55017830D01*
X164636825Y-54922592D01*
X164589206Y-54874973D01*
X164493968Y-54827353D01*
X164255873Y-54827353D01*
X164113016Y-54874973D01*
X163779682Y-54827353D02*
X163541587Y-55827353D01*
X163351111Y-55113068D01*
X163160635Y-55827353D01*
X162922540Y-54827353D01*
X162589206Y-54922592D02*
X162541587Y-54874973D01*
X162446349Y-54827353D01*
X162208254Y-54827353D01*
X162113016Y-54874973D01*
X162065397Y-54922592D01*
X162017778Y-55017830D01*
X162017778Y-55113068D01*
X162065397Y-55255925D01*
X162636825Y-55827353D01*
X162017778Y-55827353D01*
X161160635Y-54827353D02*
X161351111Y-54827353D01*
X161446349Y-54874973D01*
X161493968Y-54922592D01*
X161589206Y-55065449D01*
X161636825Y-55255925D01*
X161636825Y-55636877D01*
X161589206Y-55732115D01*
X161541587Y-55779734D01*
X161446349Y-55827353D01*
X161255873Y-55827353D01*
X161160635Y-55779734D01*
X161113016Y-55732115D01*
X161065397Y-55636877D01*
X161065397Y-55398782D01*
X161113016Y-55303544D01*
X161160635Y-55255925D01*
X161255873Y-55208306D01*
X161446349Y-55208306D01*
X161541587Y-55255925D01*
X161589206Y-55303544D01*
X161636825Y-55398782D01*
%TO.C,SW13*%
X113684468Y-38779742D02*
X113541611Y-38827361D01*
X113303516Y-38827361D01*
X113208278Y-38779742D01*
X113160659Y-38732123D01*
X113113040Y-38636885D01*
X113113040Y-38541647D01*
X113160659Y-38446409D01*
X113208278Y-38398790D01*
X113303516Y-38351171D01*
X113493992Y-38303552D01*
X113589230Y-38255933D01*
X113636849Y-38208314D01*
X113684468Y-38113076D01*
X113684468Y-38017838D01*
X113636849Y-37922600D01*
X113589230Y-37874981D01*
X113493992Y-37827361D01*
X113255897Y-37827361D01*
X113113040Y-37874981D01*
X112779706Y-37827361D02*
X112541611Y-38827361D01*
X112351135Y-38113076D01*
X112160659Y-38827361D01*
X111922564Y-37827361D01*
X111017802Y-38827361D02*
X111589230Y-38827361D01*
X111303516Y-38827361D02*
X111303516Y-37827361D01*
X111398754Y-37970219D01*
X111493992Y-38065457D01*
X111589230Y-38113076D01*
X110684468Y-37827361D02*
X110065421Y-37827361D01*
X110398754Y-38208314D01*
X110255897Y-38208314D01*
X110160659Y-38255933D01*
X110113040Y-38303552D01*
X110065421Y-38398790D01*
X110065421Y-38636885D01*
X110113040Y-38732123D01*
X110160659Y-38779742D01*
X110255897Y-38827361D01*
X110541611Y-38827361D01*
X110636849Y-38779742D01*
X110684468Y-38732123D01*
%TO.C,SW20*%
X232684412Y-38779742D02*
X232541555Y-38827361D01*
X232303460Y-38827361D01*
X232208222Y-38779742D01*
X232160603Y-38732123D01*
X232112984Y-38636885D01*
X232112984Y-38541647D01*
X232160603Y-38446409D01*
X232208222Y-38398790D01*
X232303460Y-38351171D01*
X232493936Y-38303552D01*
X232589174Y-38255933D01*
X232636793Y-38208314D01*
X232684412Y-38113076D01*
X232684412Y-38017838D01*
X232636793Y-37922600D01*
X232589174Y-37874981D01*
X232493936Y-37827361D01*
X232255841Y-37827361D01*
X232112984Y-37874981D01*
X231779650Y-37827361D02*
X231541555Y-38827361D01*
X231351079Y-38113076D01*
X231160603Y-38827361D01*
X230922508Y-37827361D01*
X230589174Y-37922600D02*
X230541555Y-37874981D01*
X230446317Y-37827361D01*
X230208222Y-37827361D01*
X230112984Y-37874981D01*
X230065365Y-37922600D01*
X230017746Y-38017838D01*
X230017746Y-38113076D01*
X230065365Y-38255933D01*
X230636793Y-38827361D01*
X230017746Y-38827361D01*
X229398698Y-37827361D02*
X229303460Y-37827361D01*
X229208222Y-37874981D01*
X229160603Y-37922600D01*
X229112984Y-38017838D01*
X229065365Y-38208314D01*
X229065365Y-38446409D01*
X229112984Y-38636885D01*
X229160603Y-38732123D01*
X229208222Y-38779742D01*
X229303460Y-38827361D01*
X229398698Y-38827361D01*
X229493936Y-38779742D01*
X229541555Y-38732123D01*
X229589174Y-38636885D01*
X229636793Y-38446409D01*
X229636793Y-38208314D01*
X229589174Y-38017838D01*
X229541555Y-37922600D01*
X229493936Y-37874981D01*
X229398698Y-37827361D01*
%TO.C,SW16*%
X164684444Y-38779742D02*
X164541587Y-38827361D01*
X164303492Y-38827361D01*
X164208254Y-38779742D01*
X164160635Y-38732123D01*
X164113016Y-38636885D01*
X164113016Y-38541647D01*
X164160635Y-38446409D01*
X164208254Y-38398790D01*
X164303492Y-38351171D01*
X164493968Y-38303552D01*
X164589206Y-38255933D01*
X164636825Y-38208314D01*
X164684444Y-38113076D01*
X164684444Y-38017838D01*
X164636825Y-37922600D01*
X164589206Y-37874981D01*
X164493968Y-37827361D01*
X164255873Y-37827361D01*
X164113016Y-37874981D01*
X163779682Y-37827361D02*
X163541587Y-38827361D01*
X163351111Y-38113076D01*
X163160635Y-38827361D01*
X162922540Y-37827361D01*
X162017778Y-38827361D02*
X162589206Y-38827361D01*
X162303492Y-38827361D02*
X162303492Y-37827361D01*
X162398730Y-37970219D01*
X162493968Y-38065457D01*
X162589206Y-38113076D01*
X161160635Y-37827361D02*
X161351111Y-37827361D01*
X161446349Y-37874981D01*
X161493968Y-37922600D01*
X161589206Y-38065457D01*
X161636825Y-38255933D01*
X161636825Y-38636885D01*
X161589206Y-38732123D01*
X161541587Y-38779742D01*
X161446349Y-38827361D01*
X161255873Y-38827361D01*
X161160635Y-38779742D01*
X161113016Y-38732123D01*
X161065397Y-38636885D01*
X161065397Y-38398790D01*
X161113016Y-38303552D01*
X161160635Y-38255933D01*
X161255873Y-38208314D01*
X161446349Y-38208314D01*
X161541587Y-38255933D01*
X161589206Y-38303552D01*
X161636825Y-38398790D01*
%TO.C,SW4*%
X130208270Y-21779750D02*
X130065413Y-21827369D01*
X129827317Y-21827369D01*
X129732079Y-21779750D01*
X129684460Y-21732131D01*
X129636841Y-21636893D01*
X129636841Y-21541655D01*
X129684460Y-21446417D01*
X129732079Y-21398798D01*
X129827317Y-21351179D01*
X130017794Y-21303560D01*
X130113032Y-21255941D01*
X130160651Y-21208322D01*
X130208270Y-21113084D01*
X130208270Y-21017846D01*
X130160651Y-20922608D01*
X130113032Y-20874989D01*
X130017794Y-20827369D01*
X129779698Y-20827369D01*
X129636841Y-20874989D01*
X129303508Y-20827369D02*
X129065413Y-21827369D01*
X128874937Y-21113084D01*
X128684460Y-21827369D01*
X128446365Y-20827369D01*
X127636841Y-21160703D02*
X127636841Y-21827369D01*
X127874937Y-20779750D02*
X128113032Y-21494036D01*
X127493984Y-21494036D01*
%TO.C,SW1*%
X89208294Y-25779750D02*
X89065437Y-25827369D01*
X88827341Y-25827369D01*
X88732103Y-25779750D01*
X88684484Y-25732131D01*
X88636865Y-25636893D01*
X88636865Y-25541655D01*
X88684484Y-25446417D01*
X88732103Y-25398798D01*
X88827341Y-25351179D01*
X89017818Y-25303560D01*
X89113056Y-25255941D01*
X89160675Y-25208322D01*
X89208294Y-25113084D01*
X89208294Y-25017846D01*
X89160675Y-24922608D01*
X89113056Y-24874989D01*
X89017818Y-24827369D01*
X88779722Y-24827369D01*
X88636865Y-24874989D01*
X88303532Y-24827369D02*
X88065437Y-25827369D01*
X87874961Y-25113084D01*
X87684484Y-25827369D01*
X87446389Y-24827369D01*
X86541627Y-25827369D02*
X87113056Y-25827369D01*
X86827341Y-25827369D02*
X86827341Y-24827369D01*
X86922580Y-24970227D01*
X87017818Y-25065465D01*
X87113056Y-25113084D01*
%TO.C,SW29*%
X215684420Y-55779734D02*
X215541563Y-55827353D01*
X215303468Y-55827353D01*
X215208230Y-55779734D01*
X215160611Y-55732115D01*
X215112992Y-55636877D01*
X215112992Y-55541639D01*
X215160611Y-55446401D01*
X215208230Y-55398782D01*
X215303468Y-55351163D01*
X215493944Y-55303544D01*
X215589182Y-55255925D01*
X215636801Y-55208306D01*
X215684420Y-55113068D01*
X215684420Y-55017830D01*
X215636801Y-54922592D01*
X215589182Y-54874973D01*
X215493944Y-54827353D01*
X215255849Y-54827353D01*
X215112992Y-54874973D01*
X214779658Y-54827353D02*
X214541563Y-55827353D01*
X214351087Y-55113068D01*
X214160611Y-55827353D01*
X213922516Y-54827353D01*
X213589182Y-54922592D02*
X213541563Y-54874973D01*
X213446325Y-54827353D01*
X213208230Y-54827353D01*
X213112992Y-54874973D01*
X213065373Y-54922592D01*
X213017754Y-55017830D01*
X213017754Y-55113068D01*
X213065373Y-55255925D01*
X213636801Y-55827353D01*
X213017754Y-55827353D01*
X212541563Y-55827353D02*
X212351087Y-55827353D01*
X212255849Y-55779734D01*
X212208230Y-55732115D01*
X212112992Y-55589258D01*
X212065373Y-55398782D01*
X212065373Y-55017830D01*
X212112992Y-54922592D01*
X212160611Y-54874973D01*
X212255849Y-54827353D01*
X212446325Y-54827353D01*
X212541563Y-54874973D01*
X212589182Y-54922592D01*
X212636801Y-55017830D01*
X212636801Y-55255925D01*
X212589182Y-55351163D01*
X212541563Y-55398782D01*
X212446325Y-55446401D01*
X212255849Y-55446401D01*
X212160611Y-55398782D01*
X212112992Y-55351163D01*
X212065373Y-55255925D01*
%TO.C,SW15*%
X147684452Y-38779742D02*
X147541595Y-38827361D01*
X147303500Y-38827361D01*
X147208262Y-38779742D01*
X147160643Y-38732123D01*
X147113024Y-38636885D01*
X147113024Y-38541647D01*
X147160643Y-38446409D01*
X147208262Y-38398790D01*
X147303500Y-38351171D01*
X147493976Y-38303552D01*
X147589214Y-38255933D01*
X147636833Y-38208314D01*
X147684452Y-38113076D01*
X147684452Y-38017838D01*
X147636833Y-37922600D01*
X147589214Y-37874981D01*
X147493976Y-37827361D01*
X147255881Y-37827361D01*
X147113024Y-37874981D01*
X146779690Y-37827361D02*
X146541595Y-38827361D01*
X146351119Y-38113076D01*
X146160643Y-38827361D01*
X145922548Y-37827361D01*
X145017786Y-38827361D02*
X145589214Y-38827361D01*
X145303500Y-38827361D02*
X145303500Y-37827361D01*
X145398738Y-37970219D01*
X145493976Y-38065457D01*
X145589214Y-38113076D01*
X144113024Y-37827361D02*
X144589214Y-37827361D01*
X144636833Y-38303552D01*
X144589214Y-38255933D01*
X144493976Y-38208314D01*
X144255881Y-38208314D01*
X144160643Y-38255933D01*
X144113024Y-38303552D01*
X144065405Y-38398790D01*
X144065405Y-38636885D01*
X144113024Y-38732123D01*
X144160643Y-38779742D01*
X144255881Y-38827361D01*
X144493976Y-38827361D01*
X144589214Y-38779742D01*
X144636833Y-38732123D01*
%TO.C,SW34*%
X130684460Y-72779726D02*
X130541603Y-72827345D01*
X130303508Y-72827345D01*
X130208270Y-72779726D01*
X130160651Y-72732107D01*
X130113032Y-72636869D01*
X130113032Y-72541631D01*
X130160651Y-72446393D01*
X130208270Y-72398774D01*
X130303508Y-72351155D01*
X130493984Y-72303536D01*
X130589222Y-72255917D01*
X130636841Y-72208298D01*
X130684460Y-72113060D01*
X130684460Y-72017822D01*
X130636841Y-71922584D01*
X130589222Y-71874965D01*
X130493984Y-71827345D01*
X130255889Y-71827345D01*
X130113032Y-71874965D01*
X129779698Y-71827345D02*
X129541603Y-72827345D01*
X129351127Y-72113060D01*
X129160651Y-72827345D01*
X128922556Y-71827345D01*
X128636841Y-71827345D02*
X128017794Y-71827345D01*
X128351127Y-72208298D01*
X128208270Y-72208298D01*
X128113032Y-72255917D01*
X128065413Y-72303536D01*
X128017794Y-72398774D01*
X128017794Y-72636869D01*
X128065413Y-72732107D01*
X128113032Y-72779726D01*
X128208270Y-72827345D01*
X128493984Y-72827345D01*
X128589222Y-72779726D01*
X128636841Y-72732107D01*
X127160651Y-72160679D02*
X127160651Y-72827345D01*
X127398746Y-71779726D02*
X127636841Y-72494012D01*
X127017794Y-72494012D01*
%TO.C,SW6*%
X164208254Y-21779750D02*
X164065397Y-21827369D01*
X163827301Y-21827369D01*
X163732063Y-21779750D01*
X163684444Y-21732131D01*
X163636825Y-21636893D01*
X163636825Y-21541655D01*
X163684444Y-21446417D01*
X163732063Y-21398798D01*
X163827301Y-21351179D01*
X164017778Y-21303560D01*
X164113016Y-21255941D01*
X164160635Y-21208322D01*
X164208254Y-21113084D01*
X164208254Y-21017846D01*
X164160635Y-20922608D01*
X164113016Y-20874989D01*
X164017778Y-20827369D01*
X163779682Y-20827369D01*
X163636825Y-20874989D01*
X163303492Y-20827369D02*
X163065397Y-21827369D01*
X162874921Y-21113084D01*
X162684444Y-21827369D01*
X162446349Y-20827369D01*
X161636825Y-20827369D02*
X161827301Y-20827369D01*
X161922540Y-20874989D01*
X161970159Y-20922608D01*
X162065397Y-21065465D01*
X162113016Y-21255941D01*
X162113016Y-21636893D01*
X162065397Y-21732131D01*
X162017778Y-21779750D01*
X161922540Y-21827369D01*
X161732063Y-21827369D01*
X161636825Y-21779750D01*
X161589206Y-21732131D01*
X161541587Y-21636893D01*
X161541587Y-21398798D01*
X161589206Y-21303560D01*
X161636825Y-21255941D01*
X161732063Y-21208322D01*
X161922540Y-21208322D01*
X162017778Y-21255941D01*
X162065397Y-21303560D01*
X162113016Y-21398798D01*
%TO.C,SW10*%
X232684412Y-21779750D02*
X232541555Y-21827369D01*
X232303460Y-21827369D01*
X232208222Y-21779750D01*
X232160603Y-21732131D01*
X232112984Y-21636893D01*
X232112984Y-21541655D01*
X232160603Y-21446417D01*
X232208222Y-21398798D01*
X232303460Y-21351179D01*
X232493936Y-21303560D01*
X232589174Y-21255941D01*
X232636793Y-21208322D01*
X232684412Y-21113084D01*
X232684412Y-21017846D01*
X232636793Y-20922608D01*
X232589174Y-20874989D01*
X232493936Y-20827369D01*
X232255841Y-20827369D01*
X232112984Y-20874989D01*
X231779650Y-20827369D02*
X231541555Y-21827369D01*
X231351079Y-21113084D01*
X231160603Y-21827369D01*
X230922508Y-20827369D01*
X230017746Y-21827369D02*
X230589174Y-21827369D01*
X230303460Y-21827369D02*
X230303460Y-20827369D01*
X230398698Y-20970227D01*
X230493936Y-21065465D01*
X230589174Y-21113084D01*
X229398698Y-20827369D02*
X229303460Y-20827369D01*
X229208222Y-20874989D01*
X229160603Y-20922608D01*
X229112984Y-21017846D01*
X229065365Y-21208322D01*
X229065365Y-21446417D01*
X229112984Y-21636893D01*
X229160603Y-21732131D01*
X229208222Y-21779750D01*
X229303460Y-21827369D01*
X229398698Y-21827369D01*
X229493936Y-21779750D01*
X229541555Y-21732131D01*
X229589174Y-21636893D01*
X229636793Y-21446417D01*
X229636793Y-21208322D01*
X229589174Y-21017846D01*
X229541555Y-20922608D01*
X229493936Y-20874989D01*
X229398698Y-20827369D01*
%TO.C,SW33*%
X113684468Y-72779726D02*
X113541611Y-72827345D01*
X113303516Y-72827345D01*
X113208278Y-72779726D01*
X113160659Y-72732107D01*
X113113040Y-72636869D01*
X113113040Y-72541631D01*
X113160659Y-72446393D01*
X113208278Y-72398774D01*
X113303516Y-72351155D01*
X113493992Y-72303536D01*
X113589230Y-72255917D01*
X113636849Y-72208298D01*
X113684468Y-72113060D01*
X113684468Y-72017822D01*
X113636849Y-71922584D01*
X113589230Y-71874965D01*
X113493992Y-71827345D01*
X113255897Y-71827345D01*
X113113040Y-71874965D01*
X112779706Y-71827345D02*
X112541611Y-72827345D01*
X112351135Y-72113060D01*
X112160659Y-72827345D01*
X111922564Y-71827345D01*
X111636849Y-71827345D02*
X111017802Y-71827345D01*
X111351135Y-72208298D01*
X111208278Y-72208298D01*
X111113040Y-72255917D01*
X111065421Y-72303536D01*
X111017802Y-72398774D01*
X111017802Y-72636869D01*
X111065421Y-72732107D01*
X111113040Y-72779726D01*
X111208278Y-72827345D01*
X111493992Y-72827345D01*
X111589230Y-72779726D01*
X111636849Y-72732107D01*
X110684468Y-71827345D02*
X110065421Y-71827345D01*
X110398754Y-72208298D01*
X110255897Y-72208298D01*
X110160659Y-72255917D01*
X110113040Y-72303536D01*
X110065421Y-72398774D01*
X110065421Y-72636869D01*
X110113040Y-72732107D01*
X110160659Y-72779726D01*
X110255897Y-72827345D01*
X110541611Y-72827345D01*
X110636849Y-72779726D01*
X110684468Y-72732107D01*
%TO.C,SW27*%
X181684436Y-55779734D02*
X181541579Y-55827353D01*
X181303484Y-55827353D01*
X181208246Y-55779734D01*
X181160627Y-55732115D01*
X181113008Y-55636877D01*
X181113008Y-55541639D01*
X181160627Y-55446401D01*
X181208246Y-55398782D01*
X181303484Y-55351163D01*
X181493960Y-55303544D01*
X181589198Y-55255925D01*
X181636817Y-55208306D01*
X181684436Y-55113068D01*
X181684436Y-55017830D01*
X181636817Y-54922592D01*
X181589198Y-54874973D01*
X181493960Y-54827353D01*
X181255865Y-54827353D01*
X181113008Y-54874973D01*
X180779674Y-54827353D02*
X180541579Y-55827353D01*
X180351103Y-55113068D01*
X180160627Y-55827353D01*
X179922532Y-54827353D01*
X179589198Y-54922592D02*
X179541579Y-54874973D01*
X179446341Y-54827353D01*
X179208246Y-54827353D01*
X179113008Y-54874973D01*
X179065389Y-54922592D01*
X179017770Y-55017830D01*
X179017770Y-55113068D01*
X179065389Y-55255925D01*
X179636817Y-55827353D01*
X179017770Y-55827353D01*
X178684436Y-54827353D02*
X178017770Y-54827353D01*
X178446341Y-55827353D01*
%TO.C,SW30*%
X232684412Y-55779734D02*
X232541555Y-55827353D01*
X232303460Y-55827353D01*
X232208222Y-55779734D01*
X232160603Y-55732115D01*
X232112984Y-55636877D01*
X232112984Y-55541639D01*
X232160603Y-55446401D01*
X232208222Y-55398782D01*
X232303460Y-55351163D01*
X232493936Y-55303544D01*
X232589174Y-55255925D01*
X232636793Y-55208306D01*
X232684412Y-55113068D01*
X232684412Y-55017830D01*
X232636793Y-54922592D01*
X232589174Y-54874973D01*
X232493936Y-54827353D01*
X232255841Y-54827353D01*
X232112984Y-54874973D01*
X231779650Y-54827353D02*
X231541555Y-55827353D01*
X231351079Y-55113068D01*
X231160603Y-55827353D01*
X230922508Y-54827353D01*
X230636793Y-54827353D02*
X230017746Y-54827353D01*
X230351079Y-55208306D01*
X230208222Y-55208306D01*
X230112984Y-55255925D01*
X230065365Y-55303544D01*
X230017746Y-55398782D01*
X230017746Y-55636877D01*
X230065365Y-55732115D01*
X230112984Y-55779734D01*
X230208222Y-55827353D01*
X230493936Y-55827353D01*
X230589174Y-55779734D01*
X230636793Y-55732115D01*
X229398698Y-54827353D02*
X229303460Y-54827353D01*
X229208222Y-54874973D01*
X229160603Y-54922592D01*
X229112984Y-55017830D01*
X229065365Y-55208306D01*
X229065365Y-55446401D01*
X229112984Y-55636877D01*
X229160603Y-55732115D01*
X229208222Y-55779734D01*
X229303460Y-55827353D01*
X229398698Y-55827353D01*
X229493936Y-55779734D01*
X229541555Y-55732115D01*
X229589174Y-55636877D01*
X229636793Y-55446401D01*
X229636793Y-55208306D01*
X229589174Y-55017830D01*
X229541555Y-54922592D01*
X229493936Y-54874973D01*
X229398698Y-54827353D01*
%TO.C,SW7*%
X181208246Y-21779750D02*
X181065389Y-21827369D01*
X180827293Y-21827369D01*
X180732055Y-21779750D01*
X180684436Y-21732131D01*
X180636817Y-21636893D01*
X180636817Y-21541655D01*
X180684436Y-21446417D01*
X180732055Y-21398798D01*
X180827293Y-21351179D01*
X181017770Y-21303560D01*
X181113008Y-21255941D01*
X181160627Y-21208322D01*
X181208246Y-21113084D01*
X181208246Y-21017846D01*
X181160627Y-20922608D01*
X181113008Y-20874989D01*
X181017770Y-20827369D01*
X180779674Y-20827369D01*
X180636817Y-20874989D01*
X180303484Y-20827369D02*
X180065389Y-21827369D01*
X179874913Y-21113084D01*
X179684436Y-21827369D01*
X179446341Y-20827369D01*
X179160627Y-20827369D02*
X178493960Y-20827369D01*
X178922532Y-21827369D01*
%TO.C,SW19*%
X215684420Y-38779742D02*
X215541563Y-38827361D01*
X215303468Y-38827361D01*
X215208230Y-38779742D01*
X215160611Y-38732123D01*
X215112992Y-38636885D01*
X215112992Y-38541647D01*
X215160611Y-38446409D01*
X215208230Y-38398790D01*
X215303468Y-38351171D01*
X215493944Y-38303552D01*
X215589182Y-38255933D01*
X215636801Y-38208314D01*
X215684420Y-38113076D01*
X215684420Y-38017838D01*
X215636801Y-37922600D01*
X215589182Y-37874981D01*
X215493944Y-37827361D01*
X215255849Y-37827361D01*
X215112992Y-37874981D01*
X214779658Y-37827361D02*
X214541563Y-38827361D01*
X214351087Y-38113076D01*
X214160611Y-38827361D01*
X213922516Y-37827361D01*
X213017754Y-38827361D02*
X213589182Y-38827361D01*
X213303468Y-38827361D02*
X213303468Y-37827361D01*
X213398706Y-37970219D01*
X213493944Y-38065457D01*
X213589182Y-38113076D01*
X212541563Y-38827361D02*
X212351087Y-38827361D01*
X212255849Y-38779742D01*
X212208230Y-38732123D01*
X212112992Y-38589266D01*
X212065373Y-38398790D01*
X212065373Y-38017838D01*
X212112992Y-37922600D01*
X212160611Y-37874981D01*
X212255849Y-37827361D01*
X212446325Y-37827361D01*
X212541563Y-37874981D01*
X212589182Y-37922600D01*
X212636801Y-38017838D01*
X212636801Y-38255933D01*
X212589182Y-38351171D01*
X212541563Y-38398790D01*
X212446325Y-38446409D01*
X212255849Y-38446409D01*
X212160611Y-38398790D01*
X212112992Y-38351171D01*
X212065373Y-38255933D01*
%TO.C,SW24*%
X130684460Y-55779734D02*
X130541603Y-55827353D01*
X130303508Y-55827353D01*
X130208270Y-55779734D01*
X130160651Y-55732115D01*
X130113032Y-55636877D01*
X130113032Y-55541639D01*
X130160651Y-55446401D01*
X130208270Y-55398782D01*
X130303508Y-55351163D01*
X130493984Y-55303544D01*
X130589222Y-55255925D01*
X130636841Y-55208306D01*
X130684460Y-55113068D01*
X130684460Y-55017830D01*
X130636841Y-54922592D01*
X130589222Y-54874973D01*
X130493984Y-54827353D01*
X130255889Y-54827353D01*
X130113032Y-54874973D01*
X129779698Y-54827353D02*
X129541603Y-55827353D01*
X129351127Y-55113068D01*
X129160651Y-55827353D01*
X128922556Y-54827353D01*
X128589222Y-54922592D02*
X128541603Y-54874973D01*
X128446365Y-54827353D01*
X128208270Y-54827353D01*
X128113032Y-54874973D01*
X128065413Y-54922592D01*
X128017794Y-55017830D01*
X128017794Y-55113068D01*
X128065413Y-55255925D01*
X128636841Y-55827353D01*
X128017794Y-55827353D01*
X127160651Y-55160687D02*
X127160651Y-55827353D01*
X127398746Y-54779734D02*
X127636841Y-55494020D01*
X127017794Y-55494020D01*
%TO.C,SW5*%
X147208262Y-21779750D02*
X147065405Y-21827369D01*
X146827309Y-21827369D01*
X146732071Y-21779750D01*
X146684452Y-21732131D01*
X146636833Y-21636893D01*
X146636833Y-21541655D01*
X146684452Y-21446417D01*
X146732071Y-21398798D01*
X146827309Y-21351179D01*
X147017786Y-21303560D01*
X147113024Y-21255941D01*
X147160643Y-21208322D01*
X147208262Y-21113084D01*
X147208262Y-21017846D01*
X147160643Y-20922608D01*
X147113024Y-20874989D01*
X147017786Y-20827369D01*
X146779690Y-20827369D01*
X146636833Y-20874989D01*
X146303500Y-20827369D02*
X146065405Y-21827369D01*
X145874929Y-21113084D01*
X145684452Y-21827369D01*
X145446357Y-20827369D01*
X144589214Y-20827369D02*
X145065405Y-20827369D01*
X145113024Y-21303560D01*
X145065405Y-21255941D01*
X144970167Y-21208322D01*
X144732071Y-21208322D01*
X144636833Y-21255941D01*
X144589214Y-21303560D01*
X144541595Y-21398798D01*
X144541595Y-21636893D01*
X144589214Y-21732131D01*
X144636833Y-21779750D01*
X144732071Y-21827369D01*
X144970167Y-21827369D01*
X145065405Y-21779750D01*
X145113024Y-21732131D01*
%TO.C,SW38*%
X198684428Y-72779726D02*
X198541571Y-72827345D01*
X198303476Y-72827345D01*
X198208238Y-72779726D01*
X198160619Y-72732107D01*
X198113000Y-72636869D01*
X198113000Y-72541631D01*
X198160619Y-72446393D01*
X198208238Y-72398774D01*
X198303476Y-72351155D01*
X198493952Y-72303536D01*
X198589190Y-72255917D01*
X198636809Y-72208298D01*
X198684428Y-72113060D01*
X198684428Y-72017822D01*
X198636809Y-71922584D01*
X198589190Y-71874965D01*
X198493952Y-71827345D01*
X198255857Y-71827345D01*
X198113000Y-71874965D01*
X197779666Y-71827345D02*
X197541571Y-72827345D01*
X197351095Y-72113060D01*
X197160619Y-72827345D01*
X196922524Y-71827345D01*
X196636809Y-71827345D02*
X196017762Y-71827345D01*
X196351095Y-72208298D01*
X196208238Y-72208298D01*
X196113000Y-72255917D01*
X196065381Y-72303536D01*
X196017762Y-72398774D01*
X196017762Y-72636869D01*
X196065381Y-72732107D01*
X196113000Y-72779726D01*
X196208238Y-72827345D01*
X196493952Y-72827345D01*
X196589190Y-72779726D01*
X196636809Y-72732107D01*
X195446333Y-72255917D02*
X195541571Y-72208298D01*
X195589190Y-72160679D01*
X195636809Y-72065441D01*
X195636809Y-72017822D01*
X195589190Y-71922584D01*
X195541571Y-71874965D01*
X195446333Y-71827345D01*
X195255857Y-71827345D01*
X195160619Y-71874965D01*
X195113000Y-71922584D01*
X195065381Y-72017822D01*
X195065381Y-72065441D01*
X195113000Y-72160679D01*
X195160619Y-72208298D01*
X195255857Y-72255917D01*
X195446333Y-72255917D01*
X195541571Y-72303536D01*
X195589190Y-72351155D01*
X195636809Y-72446393D01*
X195636809Y-72636869D01*
X195589190Y-72732107D01*
X195541571Y-72779726D01*
X195446333Y-72827345D01*
X195255857Y-72827345D01*
X195160619Y-72779726D01*
X195113000Y-72732107D01*
X195065381Y-72636869D01*
X195065381Y-72446393D01*
X195113000Y-72351155D01*
X195160619Y-72303536D01*
X195255857Y-72255917D01*
%TO.C,SW35*%
X147684452Y-72779726D02*
X147541595Y-72827345D01*
X147303500Y-72827345D01*
X147208262Y-72779726D01*
X147160643Y-72732107D01*
X147113024Y-72636869D01*
X147113024Y-72541631D01*
X147160643Y-72446393D01*
X147208262Y-72398774D01*
X147303500Y-72351155D01*
X147493976Y-72303536D01*
X147589214Y-72255917D01*
X147636833Y-72208298D01*
X147684452Y-72113060D01*
X147684452Y-72017822D01*
X147636833Y-71922584D01*
X147589214Y-71874965D01*
X147493976Y-71827345D01*
X147255881Y-71827345D01*
X147113024Y-71874965D01*
X146779690Y-71827345D02*
X146541595Y-72827345D01*
X146351119Y-72113060D01*
X146160643Y-72827345D01*
X145922548Y-71827345D01*
X145636833Y-71827345D02*
X145017786Y-71827345D01*
X145351119Y-72208298D01*
X145208262Y-72208298D01*
X145113024Y-72255917D01*
X145065405Y-72303536D01*
X145017786Y-72398774D01*
X145017786Y-72636869D01*
X145065405Y-72732107D01*
X145113024Y-72779726D01*
X145208262Y-72827345D01*
X145493976Y-72827345D01*
X145589214Y-72779726D01*
X145636833Y-72732107D01*
X144113024Y-71827345D02*
X144589214Y-71827345D01*
X144636833Y-72303536D01*
X144589214Y-72255917D01*
X144493976Y-72208298D01*
X144255881Y-72208298D01*
X144160643Y-72255917D01*
X144113024Y-72303536D01*
X144065405Y-72398774D01*
X144065405Y-72636869D01*
X144113024Y-72732107D01*
X144160643Y-72779726D01*
X144255881Y-72827345D01*
X144493976Y-72827345D01*
X144589214Y-72779726D01*
X144636833Y-72732107D01*
%TO.C,SW18*%
X198684428Y-38779742D02*
X198541571Y-38827361D01*
X198303476Y-38827361D01*
X198208238Y-38779742D01*
X198160619Y-38732123D01*
X198113000Y-38636885D01*
X198113000Y-38541647D01*
X198160619Y-38446409D01*
X198208238Y-38398790D01*
X198303476Y-38351171D01*
X198493952Y-38303552D01*
X198589190Y-38255933D01*
X198636809Y-38208314D01*
X198684428Y-38113076D01*
X198684428Y-38017838D01*
X198636809Y-37922600D01*
X198589190Y-37874981D01*
X198493952Y-37827361D01*
X198255857Y-37827361D01*
X198113000Y-37874981D01*
X197779666Y-37827361D02*
X197541571Y-38827361D01*
X197351095Y-38113076D01*
X197160619Y-38827361D01*
X196922524Y-37827361D01*
X196017762Y-38827361D02*
X196589190Y-38827361D01*
X196303476Y-38827361D02*
X196303476Y-37827361D01*
X196398714Y-37970219D01*
X196493952Y-38065457D01*
X196589190Y-38113076D01*
X195446333Y-38255933D02*
X195541571Y-38208314D01*
X195589190Y-38160695D01*
X195636809Y-38065457D01*
X195636809Y-38017838D01*
X195589190Y-37922600D01*
X195541571Y-37874981D01*
X195446333Y-37827361D01*
X195255857Y-37827361D01*
X195160619Y-37874981D01*
X195113000Y-37922600D01*
X195065381Y-38017838D01*
X195065381Y-38065457D01*
X195113000Y-38160695D01*
X195160619Y-38208314D01*
X195255857Y-38255933D01*
X195446333Y-38255933D01*
X195541571Y-38303552D01*
X195589190Y-38351171D01*
X195636809Y-38446409D01*
X195636809Y-38636885D01*
X195589190Y-38732123D01*
X195541571Y-38779742D01*
X195446333Y-38827361D01*
X195255857Y-38827361D01*
X195160619Y-38779742D01*
X195113000Y-38732123D01*
X195065381Y-38636885D01*
X195065381Y-38446409D01*
X195113000Y-38351171D01*
X195160619Y-38303552D01*
X195255857Y-38255933D01*
%TO.C,SW3*%
X113208278Y-21779750D02*
X113065421Y-21827369D01*
X112827325Y-21827369D01*
X112732087Y-21779750D01*
X112684468Y-21732131D01*
X112636849Y-21636893D01*
X112636849Y-21541655D01*
X112684468Y-21446417D01*
X112732087Y-21398798D01*
X112827325Y-21351179D01*
X113017802Y-21303560D01*
X113113040Y-21255941D01*
X113160659Y-21208322D01*
X113208278Y-21113084D01*
X113208278Y-21017846D01*
X113160659Y-20922608D01*
X113113040Y-20874989D01*
X113017802Y-20827369D01*
X112779706Y-20827369D01*
X112636849Y-20874989D01*
X112303516Y-20827369D02*
X112065421Y-21827369D01*
X111874945Y-21113084D01*
X111684468Y-21827369D01*
X111446373Y-20827369D01*
X111160659Y-20827369D02*
X110541611Y-20827369D01*
X110874945Y-21208322D01*
X110732087Y-21208322D01*
X110636849Y-21255941D01*
X110589230Y-21303560D01*
X110541611Y-21398798D01*
X110541611Y-21636893D01*
X110589230Y-21732131D01*
X110636849Y-21779750D01*
X110732087Y-21827369D01*
X111017802Y-21827369D01*
X111113040Y-21779750D01*
X111160659Y-21732131D01*
%TO.C,SW9*%
X215208230Y-21779750D02*
X215065373Y-21827369D01*
X214827277Y-21827369D01*
X214732039Y-21779750D01*
X214684420Y-21732131D01*
X214636801Y-21636893D01*
X214636801Y-21541655D01*
X214684420Y-21446417D01*
X214732039Y-21398798D01*
X214827277Y-21351179D01*
X215017754Y-21303560D01*
X215112992Y-21255941D01*
X215160611Y-21208322D01*
X215208230Y-21113084D01*
X215208230Y-21017846D01*
X215160611Y-20922608D01*
X215112992Y-20874989D01*
X215017754Y-20827369D01*
X214779658Y-20827369D01*
X214636801Y-20874989D01*
X214303468Y-20827369D02*
X214065373Y-21827369D01*
X213874897Y-21113084D01*
X213684420Y-21827369D01*
X213446325Y-20827369D01*
X213017754Y-21827369D02*
X212827277Y-21827369D01*
X212732039Y-21779750D01*
X212684420Y-21732131D01*
X212589182Y-21589274D01*
X212541563Y-21398798D01*
X212541563Y-21017846D01*
X212589182Y-20922608D01*
X212636801Y-20874989D01*
X212732039Y-20827369D01*
X212922516Y-20827369D01*
X213017754Y-20874989D01*
X213065373Y-20922608D01*
X213112992Y-21017846D01*
X213112992Y-21255941D01*
X213065373Y-21351179D01*
X213017754Y-21398798D01*
X212922516Y-21446417D01*
X212732039Y-21446417D01*
X212636801Y-21398798D01*
X212589182Y-21351179D01*
X212541563Y-21255941D01*
%TO.C,SW14*%
X130684460Y-38779742D02*
X130541603Y-38827361D01*
X130303508Y-38827361D01*
X130208270Y-38779742D01*
X130160651Y-38732123D01*
X130113032Y-38636885D01*
X130113032Y-38541647D01*
X130160651Y-38446409D01*
X130208270Y-38398790D01*
X130303508Y-38351171D01*
X130493984Y-38303552D01*
X130589222Y-38255933D01*
X130636841Y-38208314D01*
X130684460Y-38113076D01*
X130684460Y-38017838D01*
X130636841Y-37922600D01*
X130589222Y-37874981D01*
X130493984Y-37827361D01*
X130255889Y-37827361D01*
X130113032Y-37874981D01*
X129779698Y-37827361D02*
X129541603Y-38827361D01*
X129351127Y-38113076D01*
X129160651Y-38827361D01*
X128922556Y-37827361D01*
X128017794Y-38827361D02*
X128589222Y-38827361D01*
X128303508Y-38827361D02*
X128303508Y-37827361D01*
X128398746Y-37970219D01*
X128493984Y-38065457D01*
X128589222Y-38113076D01*
X127160651Y-38160695D02*
X127160651Y-38827361D01*
X127398746Y-37779742D02*
X127636841Y-38494028D01*
X127017794Y-38494028D01*
%TO.C,SW21*%
X89684484Y-59779734D02*
X89541627Y-59827353D01*
X89303532Y-59827353D01*
X89208294Y-59779734D01*
X89160675Y-59732115D01*
X89113056Y-59636877D01*
X89113056Y-59541639D01*
X89160675Y-59446401D01*
X89208294Y-59398782D01*
X89303532Y-59351163D01*
X89494008Y-59303544D01*
X89589246Y-59255925D01*
X89636865Y-59208306D01*
X89684484Y-59113068D01*
X89684484Y-59017830D01*
X89636865Y-58922592D01*
X89589246Y-58874973D01*
X89494008Y-58827353D01*
X89255913Y-58827353D01*
X89113056Y-58874973D01*
X88779722Y-58827353D02*
X88541627Y-59827353D01*
X88351151Y-59113068D01*
X88160675Y-59827353D01*
X87922580Y-58827353D01*
X87589246Y-58922592D02*
X87541627Y-58874973D01*
X87446389Y-58827353D01*
X87208294Y-58827353D01*
X87113056Y-58874973D01*
X87065437Y-58922592D01*
X87017818Y-59017830D01*
X87017818Y-59113068D01*
X87065437Y-59255925D01*
X87636865Y-59827353D01*
X87017818Y-59827353D01*
X86065437Y-59827353D02*
X86636865Y-59827353D01*
X86351151Y-59827353D02*
X86351151Y-58827353D01*
X86446389Y-58970211D01*
X86541627Y-59065449D01*
X86636865Y-59113068D01*
%TO.C,SW2*%
X96208286Y-21779750D02*
X96065429Y-21827369D01*
X95827333Y-21827369D01*
X95732095Y-21779750D01*
X95684476Y-21732131D01*
X95636857Y-21636893D01*
X95636857Y-21541655D01*
X95684476Y-21446417D01*
X95732095Y-21398798D01*
X95827333Y-21351179D01*
X96017810Y-21303560D01*
X96113048Y-21255941D01*
X96160667Y-21208322D01*
X96208286Y-21113084D01*
X96208286Y-21017846D01*
X96160667Y-20922608D01*
X96113048Y-20874989D01*
X96017810Y-20827369D01*
X95779714Y-20827369D01*
X95636857Y-20874989D01*
X95303524Y-20827369D02*
X95065429Y-21827369D01*
X94874953Y-21113084D01*
X94684476Y-21827369D01*
X94446381Y-20827369D01*
X94113048Y-20922608D02*
X94065429Y-20874989D01*
X93970191Y-20827369D01*
X93732095Y-20827369D01*
X93636857Y-20874989D01*
X93589238Y-20922608D01*
X93541619Y-21017846D01*
X93541619Y-21113084D01*
X93589238Y-21255941D01*
X94160667Y-21827369D01*
X93541619Y-21827369D01*
%TO.C,SW12*%
X96684476Y-38779742D02*
X96541619Y-38827361D01*
X96303524Y-38827361D01*
X96208286Y-38779742D01*
X96160667Y-38732123D01*
X96113048Y-38636885D01*
X96113048Y-38541647D01*
X96160667Y-38446409D01*
X96208286Y-38398790D01*
X96303524Y-38351171D01*
X96494000Y-38303552D01*
X96589238Y-38255933D01*
X96636857Y-38208314D01*
X96684476Y-38113076D01*
X96684476Y-38017838D01*
X96636857Y-37922600D01*
X96589238Y-37874981D01*
X96494000Y-37827361D01*
X96255905Y-37827361D01*
X96113048Y-37874981D01*
X95779714Y-37827361D02*
X95541619Y-38827361D01*
X95351143Y-38113076D01*
X95160667Y-38827361D01*
X94922572Y-37827361D01*
X94017810Y-38827361D02*
X94589238Y-38827361D01*
X94303524Y-38827361D02*
X94303524Y-37827361D01*
X94398762Y-37970219D01*
X94494000Y-38065457D01*
X94589238Y-38113076D01*
X93636857Y-37922600D02*
X93589238Y-37874981D01*
X93494000Y-37827361D01*
X93255905Y-37827361D01*
X93160667Y-37874981D01*
X93113048Y-37922600D01*
X93065429Y-38017838D01*
X93065429Y-38113076D01*
X93113048Y-38255933D01*
X93684476Y-38827361D01*
X93065429Y-38827361D01*
%TO.C,SW36*%
X164684444Y-72779726D02*
X164541587Y-72827345D01*
X164303492Y-72827345D01*
X164208254Y-72779726D01*
X164160635Y-72732107D01*
X164113016Y-72636869D01*
X164113016Y-72541631D01*
X164160635Y-72446393D01*
X164208254Y-72398774D01*
X164303492Y-72351155D01*
X164493968Y-72303536D01*
X164589206Y-72255917D01*
X164636825Y-72208298D01*
X164684444Y-72113060D01*
X164684444Y-72017822D01*
X164636825Y-71922584D01*
X164589206Y-71874965D01*
X164493968Y-71827345D01*
X164255873Y-71827345D01*
X164113016Y-71874965D01*
X163779682Y-71827345D02*
X163541587Y-72827345D01*
X163351111Y-72113060D01*
X163160635Y-72827345D01*
X162922540Y-71827345D01*
X162636825Y-71827345D02*
X162017778Y-71827345D01*
X162351111Y-72208298D01*
X162208254Y-72208298D01*
X162113016Y-72255917D01*
X162065397Y-72303536D01*
X162017778Y-72398774D01*
X162017778Y-72636869D01*
X162065397Y-72732107D01*
X162113016Y-72779726D01*
X162208254Y-72827345D01*
X162493968Y-72827345D01*
X162589206Y-72779726D01*
X162636825Y-72732107D01*
X161160635Y-71827345D02*
X161351111Y-71827345D01*
X161446349Y-71874965D01*
X161493968Y-71922584D01*
X161589206Y-72065441D01*
X161636825Y-72255917D01*
X161636825Y-72636869D01*
X161589206Y-72732107D01*
X161541587Y-72779726D01*
X161446349Y-72827345D01*
X161255873Y-72827345D01*
X161160635Y-72779726D01*
X161113016Y-72732107D01*
X161065397Y-72636869D01*
X161065397Y-72398774D01*
X161113016Y-72303536D01*
X161160635Y-72255917D01*
X161255873Y-72208298D01*
X161446349Y-72208298D01*
X161541587Y-72255917D01*
X161589206Y-72303536D01*
X161636825Y-72398774D01*
%TO.C,SW22*%
X106684476Y-59779734D02*
X106541619Y-59827353D01*
X106303524Y-59827353D01*
X106208286Y-59779734D01*
X106160667Y-59732115D01*
X106113048Y-59636877D01*
X106113048Y-59541639D01*
X106160667Y-59446401D01*
X106208286Y-59398782D01*
X106303524Y-59351163D01*
X106494000Y-59303544D01*
X106589238Y-59255925D01*
X106636857Y-59208306D01*
X106684476Y-59113068D01*
X106684476Y-59017830D01*
X106636857Y-58922592D01*
X106589238Y-58874973D01*
X106494000Y-58827353D01*
X106255905Y-58827353D01*
X106113048Y-58874973D01*
X105779714Y-58827353D02*
X105541619Y-59827353D01*
X105351143Y-59113068D01*
X105160667Y-59827353D01*
X104922572Y-58827353D01*
X104589238Y-58922592D02*
X104541619Y-58874973D01*
X104446381Y-58827353D01*
X104208286Y-58827353D01*
X104113048Y-58874973D01*
X104065429Y-58922592D01*
X104017810Y-59017830D01*
X104017810Y-59113068D01*
X104065429Y-59255925D01*
X104636857Y-59827353D01*
X104017810Y-59827353D01*
X103636857Y-58922592D02*
X103589238Y-58874973D01*
X103494000Y-58827353D01*
X103255905Y-58827353D01*
X103160667Y-58874973D01*
X103113048Y-58922592D01*
X103065429Y-59017830D01*
X103065429Y-59113068D01*
X103113048Y-59255925D01*
X103684476Y-59827353D01*
X103065429Y-59827353D01*
%TO.C,SW28*%
X198684428Y-55779734D02*
X198541571Y-55827353D01*
X198303476Y-55827353D01*
X198208238Y-55779734D01*
X198160619Y-55732115D01*
X198113000Y-55636877D01*
X198113000Y-55541639D01*
X198160619Y-55446401D01*
X198208238Y-55398782D01*
X198303476Y-55351163D01*
X198493952Y-55303544D01*
X198589190Y-55255925D01*
X198636809Y-55208306D01*
X198684428Y-55113068D01*
X198684428Y-55017830D01*
X198636809Y-54922592D01*
X198589190Y-54874973D01*
X198493952Y-54827353D01*
X198255857Y-54827353D01*
X198113000Y-54874973D01*
X197779666Y-54827353D02*
X197541571Y-55827353D01*
X197351095Y-55113068D01*
X197160619Y-55827353D01*
X196922524Y-54827353D01*
X196589190Y-54922592D02*
X196541571Y-54874973D01*
X196446333Y-54827353D01*
X196208238Y-54827353D01*
X196113000Y-54874973D01*
X196065381Y-54922592D01*
X196017762Y-55017830D01*
X196017762Y-55113068D01*
X196065381Y-55255925D01*
X196636809Y-55827353D01*
X196017762Y-55827353D01*
X195446333Y-55255925D02*
X195541571Y-55208306D01*
X195589190Y-55160687D01*
X195636809Y-55065449D01*
X195636809Y-55017830D01*
X195589190Y-54922592D01*
X195541571Y-54874973D01*
X195446333Y-54827353D01*
X195255857Y-54827353D01*
X195160619Y-54874973D01*
X195113000Y-54922592D01*
X195065381Y-55017830D01*
X195065381Y-55065449D01*
X195113000Y-55160687D01*
X195160619Y-55208306D01*
X195255857Y-55255925D01*
X195446333Y-55255925D01*
X195541571Y-55303544D01*
X195589190Y-55351163D01*
X195636809Y-55446401D01*
X195636809Y-55636877D01*
X195589190Y-55732115D01*
X195541571Y-55779734D01*
X195446333Y-55827353D01*
X195255857Y-55827353D01*
X195160619Y-55779734D01*
X195113000Y-55732115D01*
X195065381Y-55636877D01*
X195065381Y-55446401D01*
X195113000Y-55351163D01*
X195160619Y-55303544D01*
X195255857Y-55255925D01*
%TO.C,SW37*%
X181684436Y-72779726D02*
X181541579Y-72827345D01*
X181303484Y-72827345D01*
X181208246Y-72779726D01*
X181160627Y-72732107D01*
X181113008Y-72636869D01*
X181113008Y-72541631D01*
X181160627Y-72446393D01*
X181208246Y-72398774D01*
X181303484Y-72351155D01*
X181493960Y-72303536D01*
X181589198Y-72255917D01*
X181636817Y-72208298D01*
X181684436Y-72113060D01*
X181684436Y-72017822D01*
X181636817Y-71922584D01*
X181589198Y-71874965D01*
X181493960Y-71827345D01*
X181255865Y-71827345D01*
X181113008Y-71874965D01*
X180779674Y-71827345D02*
X180541579Y-72827345D01*
X180351103Y-72113060D01*
X180160627Y-72827345D01*
X179922532Y-71827345D01*
X179636817Y-71827345D02*
X179017770Y-71827345D01*
X179351103Y-72208298D01*
X179208246Y-72208298D01*
X179113008Y-72255917D01*
X179065389Y-72303536D01*
X179017770Y-72398774D01*
X179017770Y-72636869D01*
X179065389Y-72732107D01*
X179113008Y-72779726D01*
X179208246Y-72827345D01*
X179493960Y-72827345D01*
X179589198Y-72779726D01*
X179636817Y-72732107D01*
X178684436Y-71827345D02*
X178017770Y-71827345D01*
X178446341Y-72827345D01*
%TO.C,SW11*%
X89684484Y-42779742D02*
X89541627Y-42827361D01*
X89303532Y-42827361D01*
X89208294Y-42779742D01*
X89160675Y-42732123D01*
X89113056Y-42636885D01*
X89113056Y-42541647D01*
X89160675Y-42446409D01*
X89208294Y-42398790D01*
X89303532Y-42351171D01*
X89494008Y-42303552D01*
X89589246Y-42255933D01*
X89636865Y-42208314D01*
X89684484Y-42113076D01*
X89684484Y-42017838D01*
X89636865Y-41922600D01*
X89589246Y-41874981D01*
X89494008Y-41827361D01*
X89255913Y-41827361D01*
X89113056Y-41874981D01*
X88779722Y-41827361D02*
X88541627Y-42827361D01*
X88351151Y-42113076D01*
X88160675Y-42827361D01*
X87922580Y-41827361D01*
X87017818Y-42827361D02*
X87589246Y-42827361D01*
X87303532Y-42827361D02*
X87303532Y-41827361D01*
X87398770Y-41970219D01*
X87494008Y-42065457D01*
X87589246Y-42113076D01*
X86065437Y-42827361D02*
X86636865Y-42827361D01*
X86351151Y-42827361D02*
X86351151Y-41827361D01*
X86446389Y-41970219D01*
X86541627Y-42065457D01*
X86636865Y-42113076D01*
%TO.C,SW8*%
X198208238Y-21779750D02*
X198065381Y-21827369D01*
X197827285Y-21827369D01*
X197732047Y-21779750D01*
X197684428Y-21732131D01*
X197636809Y-21636893D01*
X197636809Y-21541655D01*
X197684428Y-21446417D01*
X197732047Y-21398798D01*
X197827285Y-21351179D01*
X198017762Y-21303560D01*
X198113000Y-21255941D01*
X198160619Y-21208322D01*
X198208238Y-21113084D01*
X198208238Y-21017846D01*
X198160619Y-20922608D01*
X198113000Y-20874989D01*
X198017762Y-20827369D01*
X197779666Y-20827369D01*
X197636809Y-20874989D01*
X197303476Y-20827369D02*
X197065381Y-21827369D01*
X196874905Y-21113084D01*
X196684428Y-21827369D01*
X196446333Y-20827369D01*
X195922524Y-21255941D02*
X196017762Y-21208322D01*
X196065381Y-21160703D01*
X196113000Y-21065465D01*
X196113000Y-21017846D01*
X196065381Y-20922608D01*
X196017762Y-20874989D01*
X195922524Y-20827369D01*
X195732047Y-20827369D01*
X195636809Y-20874989D01*
X195589190Y-20922608D01*
X195541571Y-21017846D01*
X195541571Y-21065465D01*
X195589190Y-21160703D01*
X195636809Y-21208322D01*
X195732047Y-21255941D01*
X195922524Y-21255941D01*
X196017762Y-21303560D01*
X196065381Y-21351179D01*
X196113000Y-21446417D01*
X196113000Y-21636893D01*
X196065381Y-21732131D01*
X196017762Y-21779750D01*
X195922524Y-21827369D01*
X195732047Y-21827369D01*
X195636809Y-21779750D01*
X195589190Y-21732131D01*
X195541571Y-21636893D01*
X195541571Y-21446417D01*
X195589190Y-21351179D01*
X195636809Y-21303560D01*
X195732047Y-21255941D01*
%TO.C,D35*%
X152089214Y-72327347D02*
X152089214Y-71327347D01*
X151851119Y-71327347D01*
X151708262Y-71374967D01*
X151613024Y-71470205D01*
X151565405Y-71565443D01*
X151517786Y-71755919D01*
X151517786Y-71898776D01*
X151565405Y-72089252D01*
X151613024Y-72184490D01*
X151708262Y-72279728D01*
X151851119Y-72327347D01*
X152089214Y-72327347D01*
X151184452Y-71327347D02*
X150565405Y-71327347D01*
X150898738Y-71708300D01*
X150755881Y-71708300D01*
X150660643Y-71755919D01*
X150613024Y-71803538D01*
X150565405Y-71898776D01*
X150565405Y-72136871D01*
X150613024Y-72232109D01*
X150660643Y-72279728D01*
X150755881Y-72327347D01*
X151041595Y-72327347D01*
X151136833Y-72279728D01*
X151184452Y-72232109D01*
X149660643Y-71327347D02*
X150136833Y-71327347D01*
X150184452Y-71803538D01*
X150136833Y-71755919D01*
X150041595Y-71708300D01*
X149803500Y-71708300D01*
X149708262Y-71755919D01*
X149660643Y-71803538D01*
X149613024Y-71898776D01*
X149613024Y-72136871D01*
X149660643Y-72232109D01*
X149708262Y-72279728D01*
X149803500Y-72327347D01*
X150041595Y-72327347D01*
X150136833Y-72279728D01*
X150184452Y-72232109D01*
%TO.C,D30*%
X237089174Y-56035688D02*
X237089174Y-55035688D01*
X236851079Y-55035688D01*
X236708222Y-55083308D01*
X236612984Y-55178546D01*
X236565365Y-55273784D01*
X236517746Y-55464260D01*
X236517746Y-55607117D01*
X236565365Y-55797593D01*
X236612984Y-55892831D01*
X236708222Y-55988069D01*
X236851079Y-56035688D01*
X237089174Y-56035688D01*
X236184412Y-55035688D02*
X235565365Y-55035688D01*
X235898698Y-55416641D01*
X235755841Y-55416641D01*
X235660603Y-55464260D01*
X235612984Y-55511879D01*
X235565365Y-55607117D01*
X235565365Y-55845212D01*
X235612984Y-55940450D01*
X235660603Y-55988069D01*
X235755841Y-56035688D01*
X236041555Y-56035688D01*
X236136793Y-55988069D01*
X236184412Y-55940450D01*
X234946317Y-55035688D02*
X234851079Y-55035688D01*
X234755841Y-55083308D01*
X234708222Y-55130927D01*
X234660603Y-55226165D01*
X234612984Y-55416641D01*
X234612984Y-55654736D01*
X234660603Y-55845212D01*
X234708222Y-55940450D01*
X234755841Y-55988069D01*
X234851079Y-56035688D01*
X234946317Y-56035688D01*
X235041555Y-55988069D01*
X235089174Y-55940450D01*
X235136793Y-55845212D01*
X235184412Y-55654736D01*
X235184412Y-55416641D01*
X235136793Y-55226165D01*
X235089174Y-55130927D01*
X235041555Y-55083308D01*
X234946317Y-55035688D01*
%TO.C,D34*%
X135089222Y-72327347D02*
X135089222Y-71327347D01*
X134851127Y-71327347D01*
X134708270Y-71374967D01*
X134613032Y-71470205D01*
X134565413Y-71565443D01*
X134517794Y-71755919D01*
X134517794Y-71898776D01*
X134565413Y-72089252D01*
X134613032Y-72184490D01*
X134708270Y-72279728D01*
X134851127Y-72327347D01*
X135089222Y-72327347D01*
X134184460Y-71327347D02*
X133565413Y-71327347D01*
X133898746Y-71708300D01*
X133755889Y-71708300D01*
X133660651Y-71755919D01*
X133613032Y-71803538D01*
X133565413Y-71898776D01*
X133565413Y-72136871D01*
X133613032Y-72232109D01*
X133660651Y-72279728D01*
X133755889Y-72327347D01*
X134041603Y-72327347D01*
X134136841Y-72279728D01*
X134184460Y-72232109D01*
X132708270Y-71660681D02*
X132708270Y-72327347D01*
X132946365Y-71279728D02*
X133184460Y-71994014D01*
X132565413Y-71994014D01*
%TO.C,D11*%
X84089246Y-48952358D02*
X84089246Y-47952358D01*
X83851151Y-47952358D01*
X83708294Y-47999978D01*
X83613056Y-48095216D01*
X83565437Y-48190454D01*
X83517818Y-48380930D01*
X83517818Y-48523787D01*
X83565437Y-48714263D01*
X83613056Y-48809501D01*
X83708294Y-48904739D01*
X83851151Y-48952358D01*
X84089246Y-48952358D01*
X82565437Y-48952358D02*
X83136865Y-48952358D01*
X82851151Y-48952358D02*
X82851151Y-47952358D01*
X82946389Y-48095216D01*
X83041627Y-48190454D01*
X83136865Y-48238073D01*
X81613056Y-48952358D02*
X82184484Y-48952358D01*
X81898770Y-48952358D02*
X81898770Y-47952358D01*
X81994008Y-48095216D01*
X82089246Y-48190454D01*
X82184484Y-48238073D01*
%TO.C,D8*%
X202613000Y-36202364D02*
X202613000Y-35202364D01*
X202374905Y-35202364D01*
X202232047Y-35249984D01*
X202136809Y-35345222D01*
X202089190Y-35440460D01*
X202041571Y-35630936D01*
X202041571Y-35773793D01*
X202089190Y-35964269D01*
X202136809Y-36059507D01*
X202232047Y-36154745D01*
X202374905Y-36202364D01*
X202613000Y-36202364D01*
X201470143Y-35630936D02*
X201565381Y-35583317D01*
X201613000Y-35535698D01*
X201660619Y-35440460D01*
X201660619Y-35392841D01*
X201613000Y-35297603D01*
X201565381Y-35249984D01*
X201470143Y-35202364D01*
X201279666Y-35202364D01*
X201184428Y-35249984D01*
X201136809Y-35297603D01*
X201089190Y-35392841D01*
X201089190Y-35440460D01*
X201136809Y-35535698D01*
X201184428Y-35583317D01*
X201279666Y-35630936D01*
X201470143Y-35630936D01*
X201565381Y-35678555D01*
X201613000Y-35726174D01*
X201660619Y-35821412D01*
X201660619Y-36011888D01*
X201613000Y-36107126D01*
X201565381Y-36154745D01*
X201470143Y-36202364D01*
X201279666Y-36202364D01*
X201184428Y-36154745D01*
X201136809Y-36107126D01*
X201089190Y-36011888D01*
X201089190Y-35821412D01*
X201136809Y-35726174D01*
X201184428Y-35678555D01*
X201279666Y-35630936D01*
%TO.C,D22*%
X101089238Y-62410685D02*
X101089238Y-61410685D01*
X100851143Y-61410685D01*
X100708286Y-61458305D01*
X100613048Y-61553543D01*
X100565429Y-61648781D01*
X100517810Y-61839257D01*
X100517810Y-61982114D01*
X100565429Y-62172590D01*
X100613048Y-62267828D01*
X100708286Y-62363066D01*
X100851143Y-62410685D01*
X101089238Y-62410685D01*
X100136857Y-61505924D02*
X100089238Y-61458305D01*
X99994000Y-61410685D01*
X99755905Y-61410685D01*
X99660667Y-61458305D01*
X99613048Y-61505924D01*
X99565429Y-61601162D01*
X99565429Y-61696400D01*
X99613048Y-61839257D01*
X100184476Y-62410685D01*
X99565429Y-62410685D01*
X99184476Y-61505924D02*
X99136857Y-61458305D01*
X99041619Y-61410685D01*
X98803524Y-61410685D01*
X98708286Y-61458305D01*
X98660667Y-61505924D01*
X98613048Y-61601162D01*
X98613048Y-61696400D01*
X98660667Y-61839257D01*
X99232095Y-62410685D01*
X98613048Y-62410685D01*
%TO.C,D24*%
X135089222Y-56035688D02*
X135089222Y-55035688D01*
X134851127Y-55035688D01*
X134708270Y-55083308D01*
X134613032Y-55178546D01*
X134565413Y-55273784D01*
X134517794Y-55464260D01*
X134517794Y-55607117D01*
X134565413Y-55797593D01*
X134613032Y-55892831D01*
X134708270Y-55988069D01*
X134851127Y-56035688D01*
X135089222Y-56035688D01*
X134136841Y-55130927D02*
X134089222Y-55083308D01*
X133993984Y-55035688D01*
X133755889Y-55035688D01*
X133660651Y-55083308D01*
X133613032Y-55130927D01*
X133565413Y-55226165D01*
X133565413Y-55321403D01*
X133613032Y-55464260D01*
X134184460Y-56035688D01*
X133565413Y-56035688D01*
X132708270Y-55369022D02*
X132708270Y-56035688D01*
X132946365Y-54988069D02*
X133184460Y-55702355D01*
X132565413Y-55702355D01*
%TO.C,D27*%
X186089198Y-56035688D02*
X186089198Y-55035688D01*
X185851103Y-55035688D01*
X185708246Y-55083308D01*
X185613008Y-55178546D01*
X185565389Y-55273784D01*
X185517770Y-55464260D01*
X185517770Y-55607117D01*
X185565389Y-55797593D01*
X185613008Y-55892831D01*
X185708246Y-55988069D01*
X185851103Y-56035688D01*
X186089198Y-56035688D01*
X185136817Y-55130927D02*
X185089198Y-55083308D01*
X184993960Y-55035688D01*
X184755865Y-55035688D01*
X184660627Y-55083308D01*
X184613008Y-55130927D01*
X184565389Y-55226165D01*
X184565389Y-55321403D01*
X184613008Y-55464260D01*
X185184436Y-56035688D01*
X184565389Y-56035688D01*
X184232055Y-55035688D02*
X183565389Y-55035688D01*
X183993960Y-56035688D01*
%TO.C,D4*%
X134613032Y-36202364D02*
X134613032Y-35202364D01*
X134374937Y-35202364D01*
X134232079Y-35249984D01*
X134136841Y-35345222D01*
X134089222Y-35440460D01*
X134041603Y-35630936D01*
X134041603Y-35773793D01*
X134089222Y-35964269D01*
X134136841Y-36059507D01*
X134232079Y-36154745D01*
X134374937Y-36202364D01*
X134613032Y-36202364D01*
X133184460Y-35535698D02*
X133184460Y-36202364D01*
X133422556Y-35154745D02*
X133660651Y-35869031D01*
X133041603Y-35869031D01*
%TO.C,U2*%
X95552332Y-71488061D02*
X96361856Y-71488061D01*
X96457094Y-71535680D01*
X96504713Y-71583299D01*
X96552332Y-71678537D01*
X96552332Y-71869013D01*
X96504713Y-71964251D01*
X96457094Y-72011870D01*
X96361856Y-72059489D01*
X95552332Y-72059489D01*
X95647571Y-72488061D02*
X95599952Y-72535680D01*
X95552332Y-72630918D01*
X95552332Y-72869013D01*
X95599952Y-72964251D01*
X95647571Y-73011870D01*
X95742809Y-73059489D01*
X95838047Y-73059489D01*
X95980904Y-73011870D01*
X96552332Y-72440442D01*
X96552332Y-73059489D01*
%TO.C,J2*%
X210708234Y-73055677D02*
X210708234Y-73769963D01*
X210755853Y-73912820D01*
X210851091Y-74008058D01*
X210993948Y-74055677D01*
X211089186Y-74055677D01*
X210279662Y-73150916D02*
X210232043Y-73103297D01*
X210136805Y-73055677D01*
X209898710Y-73055677D01*
X209803472Y-73103297D01*
X209755853Y-73150916D01*
X209708234Y-73246154D01*
X209708234Y-73341392D01*
X209755853Y-73484249D01*
X210327281Y-74055677D01*
X209708234Y-74055677D01*
%TO.C,D29*%
X220089182Y-56035688D02*
X220089182Y-55035688D01*
X219851087Y-55035688D01*
X219708230Y-55083308D01*
X219612992Y-55178546D01*
X219565373Y-55273784D01*
X219517754Y-55464260D01*
X219517754Y-55607117D01*
X219565373Y-55797593D01*
X219612992Y-55892831D01*
X219708230Y-55988069D01*
X219851087Y-56035688D01*
X220089182Y-56035688D01*
X219136801Y-55130927D02*
X219089182Y-55083308D01*
X218993944Y-55035688D01*
X218755849Y-55035688D01*
X218660611Y-55083308D01*
X218612992Y-55130927D01*
X218565373Y-55226165D01*
X218565373Y-55321403D01*
X218612992Y-55464260D01*
X219184420Y-56035688D01*
X218565373Y-56035688D01*
X218089182Y-56035688D02*
X217898706Y-56035688D01*
X217803468Y-55988069D01*
X217755849Y-55940450D01*
X217660611Y-55797593D01*
X217612992Y-55607117D01*
X217612992Y-55226165D01*
X217660611Y-55130927D01*
X217708230Y-55083308D01*
X217803468Y-55035688D01*
X217993944Y-55035688D01*
X218089182Y-55083308D01*
X218136801Y-55130927D01*
X218184420Y-55226165D01*
X218184420Y-55464260D01*
X218136801Y-55559498D01*
X218089182Y-55607117D01*
X217993944Y-55654736D01*
X217803468Y-55654736D01*
X217708230Y-55607117D01*
X217660611Y-55559498D01*
X217612992Y-55464260D01*
%TO.C,D28*%
X203089190Y-56035688D02*
X203089190Y-55035688D01*
X202851095Y-55035688D01*
X202708238Y-55083308D01*
X202613000Y-55178546D01*
X202565381Y-55273784D01*
X202517762Y-55464260D01*
X202517762Y-55607117D01*
X202565381Y-55797593D01*
X202613000Y-55892831D01*
X202708238Y-55988069D01*
X202851095Y-56035688D01*
X203089190Y-56035688D01*
X202136809Y-55130927D02*
X202089190Y-55083308D01*
X201993952Y-55035688D01*
X201755857Y-55035688D01*
X201660619Y-55083308D01*
X201613000Y-55130927D01*
X201565381Y-55226165D01*
X201565381Y-55321403D01*
X201613000Y-55464260D01*
X202184428Y-56035688D01*
X201565381Y-56035688D01*
X200993952Y-55464260D02*
X201089190Y-55416641D01*
X201136809Y-55369022D01*
X201184428Y-55273784D01*
X201184428Y-55226165D01*
X201136809Y-55130927D01*
X201089190Y-55083308D01*
X200993952Y-55035688D01*
X200803476Y-55035688D01*
X200708238Y-55083308D01*
X200660619Y-55130927D01*
X200613000Y-55226165D01*
X200613000Y-55273784D01*
X200660619Y-55369022D01*
X200708238Y-55416641D01*
X200803476Y-55464260D01*
X200993952Y-55464260D01*
X201089190Y-55511879D01*
X201136809Y-55559498D01*
X201184428Y-55654736D01*
X201184428Y-55845212D01*
X201136809Y-55940450D01*
X201089190Y-55988069D01*
X200993952Y-56035688D01*
X200803476Y-56035688D01*
X200708238Y-55988069D01*
X200660619Y-55940450D01*
X200613000Y-55845212D01*
X200613000Y-55654736D01*
X200660619Y-55559498D01*
X200708238Y-55511879D01*
X200803476Y-55464260D01*
%TO.C,D33*%
X118089230Y-72327347D02*
X118089230Y-71327347D01*
X117851135Y-71327347D01*
X117708278Y-71374967D01*
X117613040Y-71470205D01*
X117565421Y-71565443D01*
X117517802Y-71755919D01*
X117517802Y-71898776D01*
X117565421Y-72089252D01*
X117613040Y-72184490D01*
X117708278Y-72279728D01*
X117851135Y-72327347D01*
X118089230Y-72327347D01*
X117184468Y-71327347D02*
X116565421Y-71327347D01*
X116898754Y-71708300D01*
X116755897Y-71708300D01*
X116660659Y-71755919D01*
X116613040Y-71803538D01*
X116565421Y-71898776D01*
X116565421Y-72136871D01*
X116613040Y-72232109D01*
X116660659Y-72279728D01*
X116755897Y-72327347D01*
X117041611Y-72327347D01*
X117136849Y-72279728D01*
X117184468Y-72232109D01*
X116232087Y-71327347D02*
X115613040Y-71327347D01*
X115946373Y-71708300D01*
X115803516Y-71708300D01*
X115708278Y-71755919D01*
X115660659Y-71803538D01*
X115613040Y-71898776D01*
X115613040Y-72136871D01*
X115660659Y-72232109D01*
X115708278Y-72279728D01*
X115803516Y-72327347D01*
X116089230Y-72327347D01*
X116184468Y-72279728D01*
X116232087Y-72232109D01*
%TO.C,D15*%
X152089214Y-53202356D02*
X152089214Y-52202356D01*
X151851119Y-52202356D01*
X151708262Y-52249976D01*
X151613024Y-52345214D01*
X151565405Y-52440452D01*
X151517786Y-52630928D01*
X151517786Y-52773785D01*
X151565405Y-52964261D01*
X151613024Y-53059499D01*
X151708262Y-53154737D01*
X151851119Y-53202356D01*
X152089214Y-53202356D01*
X150565405Y-53202356D02*
X151136833Y-53202356D01*
X150851119Y-53202356D02*
X150851119Y-52202356D01*
X150946357Y-52345214D01*
X151041595Y-52440452D01*
X151136833Y-52488071D01*
X149660643Y-52202356D02*
X150136833Y-52202356D01*
X150184452Y-52678547D01*
X150136833Y-52630928D01*
X150041595Y-52583309D01*
X149803500Y-52583309D01*
X149708262Y-52630928D01*
X149660643Y-52678547D01*
X149613024Y-52773785D01*
X149613024Y-53011880D01*
X149660643Y-53107118D01*
X149708262Y-53154737D01*
X149803500Y-53202356D01*
X150041595Y-53202356D01*
X150136833Y-53154737D01*
X150184452Y-53107118D01*
%TO.C,D9*%
X219612992Y-36202364D02*
X219612992Y-35202364D01*
X219374897Y-35202364D01*
X219232039Y-35249984D01*
X219136801Y-35345222D01*
X219089182Y-35440460D01*
X219041563Y-35630936D01*
X219041563Y-35773793D01*
X219089182Y-35964269D01*
X219136801Y-36059507D01*
X219232039Y-36154745D01*
X219374897Y-36202364D01*
X219612992Y-36202364D01*
X218565373Y-36202364D02*
X218374897Y-36202364D01*
X218279658Y-36154745D01*
X218232039Y-36107126D01*
X218136801Y-35964269D01*
X218089182Y-35773793D01*
X218089182Y-35392841D01*
X218136801Y-35297603D01*
X218184420Y-35249984D01*
X218279658Y-35202364D01*
X218470135Y-35202364D01*
X218565373Y-35249984D01*
X218612992Y-35297603D01*
X218660611Y-35392841D01*
X218660611Y-35630936D01*
X218612992Y-35726174D01*
X218565373Y-35773793D01*
X218470135Y-35821412D01*
X218279658Y-35821412D01*
X218184420Y-35773793D01*
X218136801Y-35726174D01*
X218089182Y-35630936D01*
%TO.C,D21*%
X84089246Y-62410685D02*
X84089246Y-61410685D01*
X83851151Y-61410685D01*
X83708294Y-61458305D01*
X83613056Y-61553543D01*
X83565437Y-61648781D01*
X83517818Y-61839257D01*
X83517818Y-61982114D01*
X83565437Y-62172590D01*
X83613056Y-62267828D01*
X83708294Y-62363066D01*
X83851151Y-62410685D01*
X84089246Y-62410685D01*
X83136865Y-61505924D02*
X83089246Y-61458305D01*
X82994008Y-61410685D01*
X82755913Y-61410685D01*
X82660675Y-61458305D01*
X82613056Y-61505924D01*
X82565437Y-61601162D01*
X82565437Y-61696400D01*
X82613056Y-61839257D01*
X83184484Y-62410685D01*
X82565437Y-62410685D01*
X81613056Y-62410685D02*
X82184484Y-62410685D01*
X81898770Y-62410685D02*
X81898770Y-61410685D01*
X81994008Y-61553543D01*
X82089246Y-61648781D01*
X82184484Y-61696400D01*
%TO.C,D19*%
X220089182Y-53202356D02*
X220089182Y-52202356D01*
X219851087Y-52202356D01*
X219708230Y-52249976D01*
X219612992Y-52345214D01*
X219565373Y-52440452D01*
X219517754Y-52630928D01*
X219517754Y-52773785D01*
X219565373Y-52964261D01*
X219612992Y-53059499D01*
X219708230Y-53154737D01*
X219851087Y-53202356D01*
X220089182Y-53202356D01*
X218565373Y-53202356D02*
X219136801Y-53202356D01*
X218851087Y-53202356D02*
X218851087Y-52202356D01*
X218946325Y-52345214D01*
X219041563Y-52440452D01*
X219136801Y-52488071D01*
X218089182Y-53202356D02*
X217898706Y-53202356D01*
X217803468Y-53154737D01*
X217755849Y-53107118D01*
X217660611Y-52964261D01*
X217612992Y-52773785D01*
X217612992Y-52392833D01*
X217660611Y-52297595D01*
X217708230Y-52249976D01*
X217803468Y-52202356D01*
X217993944Y-52202356D01*
X218089182Y-52249976D01*
X218136801Y-52297595D01*
X218184420Y-52392833D01*
X218184420Y-52630928D01*
X218136801Y-52726166D01*
X218089182Y-52773785D01*
X217993944Y-52821404D01*
X217803468Y-52821404D01*
X217708230Y-52773785D01*
X217660611Y-52726166D01*
X217612992Y-52630928D01*
%TO.C,SW41*%
X101059477Y-20604753D02*
X100916620Y-20652372D01*
X100678525Y-20652372D01*
X100583287Y-20604753D01*
X100535668Y-20557134D01*
X100488049Y-20461896D01*
X100488049Y-20366658D01*
X100535668Y-20271420D01*
X100583287Y-20223801D01*
X100678525Y-20176182D01*
X100869001Y-20128563D01*
X100964239Y-20080944D01*
X101011858Y-20033325D01*
X101059477Y-19938087D01*
X101059477Y-19842849D01*
X101011858Y-19747611D01*
X100964239Y-19699992D01*
X100869001Y-19652372D01*
X100630906Y-19652372D01*
X100488049Y-19699992D01*
X100154715Y-19652372D02*
X99916620Y-20652372D01*
X99726144Y-19938087D01*
X99535668Y-20652372D01*
X99297573Y-19652372D01*
X98488049Y-19985706D02*
X98488049Y-20652372D01*
X98726144Y-19604753D02*
X98964239Y-20319039D01*
X98345192Y-20319039D01*
X97440430Y-20652372D02*
X98011858Y-20652372D01*
X97726144Y-20652372D02*
X97726144Y-19652372D01*
X97821382Y-19795230D01*
X97916620Y-19890468D01*
X98011858Y-19938087D01*
%TO.C,D10*%
X237089174Y-36202364D02*
X237089174Y-35202364D01*
X236851079Y-35202364D01*
X236708222Y-35249984D01*
X236612984Y-35345222D01*
X236565365Y-35440460D01*
X236517746Y-35630936D01*
X236517746Y-35773793D01*
X236565365Y-35964269D01*
X236612984Y-36059507D01*
X236708222Y-36154745D01*
X236851079Y-36202364D01*
X237089174Y-36202364D01*
X235565365Y-36202364D02*
X236136793Y-36202364D01*
X235851079Y-36202364D02*
X235851079Y-35202364D01*
X235946317Y-35345222D01*
X236041555Y-35440460D01*
X236136793Y-35488079D01*
X234946317Y-35202364D02*
X234851079Y-35202364D01*
X234755841Y-35249984D01*
X234708222Y-35297603D01*
X234660603Y-35392841D01*
X234612984Y-35583317D01*
X234612984Y-35821412D01*
X234660603Y-36011888D01*
X234708222Y-36107126D01*
X234755841Y-36154745D01*
X234851079Y-36202364D01*
X234946317Y-36202364D01*
X235041555Y-36154745D01*
X235089174Y-36107126D01*
X235136793Y-36011888D01*
X235184412Y-35821412D01*
X235184412Y-35583317D01*
X235136793Y-35392841D01*
X235089174Y-35297603D01*
X235041555Y-35249984D01*
X234946317Y-35202364D01*
%TO.C,D14*%
X135089222Y-53202356D02*
X135089222Y-52202356D01*
X134851127Y-52202356D01*
X134708270Y-52249976D01*
X134613032Y-52345214D01*
X134565413Y-52440452D01*
X134517794Y-52630928D01*
X134517794Y-52773785D01*
X134565413Y-52964261D01*
X134613032Y-53059499D01*
X134708270Y-53154737D01*
X134851127Y-53202356D01*
X135089222Y-53202356D01*
X133565413Y-53202356D02*
X134136841Y-53202356D01*
X133851127Y-53202356D02*
X133851127Y-52202356D01*
X133946365Y-52345214D01*
X134041603Y-52440452D01*
X134136841Y-52488071D01*
X132708270Y-52535690D02*
X132708270Y-53202356D01*
X132946365Y-52154737D02*
X133184460Y-52869023D01*
X132565413Y-52869023D01*
%TO.C,D6*%
X168613016Y-36202364D02*
X168613016Y-35202364D01*
X168374921Y-35202364D01*
X168232063Y-35249984D01*
X168136825Y-35345222D01*
X168089206Y-35440460D01*
X168041587Y-35630936D01*
X168041587Y-35773793D01*
X168089206Y-35964269D01*
X168136825Y-36059507D01*
X168232063Y-36154745D01*
X168374921Y-36202364D01*
X168613016Y-36202364D01*
X167184444Y-35202364D02*
X167374921Y-35202364D01*
X167470159Y-35249984D01*
X167517778Y-35297603D01*
X167613016Y-35440460D01*
X167660635Y-35630936D01*
X167660635Y-36011888D01*
X167613016Y-36107126D01*
X167565397Y-36154745D01*
X167470159Y-36202364D01*
X167279682Y-36202364D01*
X167184444Y-36154745D01*
X167136825Y-36107126D01*
X167089206Y-36011888D01*
X167089206Y-35773793D01*
X167136825Y-35678555D01*
X167184444Y-35630936D01*
X167279682Y-35583317D01*
X167470159Y-35583317D01*
X167565397Y-35630936D01*
X167613016Y-35678555D01*
X167660635Y-35773793D01*
%TO.C,D18*%
X203089190Y-53202356D02*
X203089190Y-52202356D01*
X202851095Y-52202356D01*
X202708238Y-52249976D01*
X202613000Y-52345214D01*
X202565381Y-52440452D01*
X202517762Y-52630928D01*
X202517762Y-52773785D01*
X202565381Y-52964261D01*
X202613000Y-53059499D01*
X202708238Y-53154737D01*
X202851095Y-53202356D01*
X203089190Y-53202356D01*
X201565381Y-53202356D02*
X202136809Y-53202356D01*
X201851095Y-53202356D02*
X201851095Y-52202356D01*
X201946333Y-52345214D01*
X202041571Y-52440452D01*
X202136809Y-52488071D01*
X200993952Y-52630928D02*
X201089190Y-52583309D01*
X201136809Y-52535690D01*
X201184428Y-52440452D01*
X201184428Y-52392833D01*
X201136809Y-52297595D01*
X201089190Y-52249976D01*
X200993952Y-52202356D01*
X200803476Y-52202356D01*
X200708238Y-52249976D01*
X200660619Y-52297595D01*
X200613000Y-52392833D01*
X200613000Y-52440452D01*
X200660619Y-52535690D01*
X200708238Y-52583309D01*
X200803476Y-52630928D01*
X200993952Y-52630928D01*
X201089190Y-52678547D01*
X201136809Y-52726166D01*
X201184428Y-52821404D01*
X201184428Y-53011880D01*
X201136809Y-53107118D01*
X201089190Y-53154737D01*
X200993952Y-53202356D01*
X200803476Y-53202356D01*
X200708238Y-53154737D01*
X200660619Y-53107118D01*
X200613000Y-53011880D01*
X200613000Y-52821404D01*
X200660619Y-52726166D01*
X200708238Y-52678547D01*
X200803476Y-52630928D01*
%TO.C,D16*%
X169089206Y-53202356D02*
X169089206Y-52202356D01*
X168851111Y-52202356D01*
X168708254Y-52249976D01*
X168613016Y-52345214D01*
X168565397Y-52440452D01*
X168517778Y-52630928D01*
X168517778Y-52773785D01*
X168565397Y-52964261D01*
X168613016Y-53059499D01*
X168708254Y-53154737D01*
X168851111Y-53202356D01*
X169089206Y-53202356D01*
X167565397Y-53202356D02*
X168136825Y-53202356D01*
X167851111Y-53202356D02*
X167851111Y-52202356D01*
X167946349Y-52345214D01*
X168041587Y-52440452D01*
X168136825Y-52488071D01*
X166708254Y-52202356D02*
X166898730Y-52202356D01*
X166993968Y-52249976D01*
X167041587Y-52297595D01*
X167136825Y-52440452D01*
X167184444Y-52630928D01*
X167184444Y-53011880D01*
X167136825Y-53107118D01*
X167089206Y-53154737D01*
X166993968Y-53202356D01*
X166803492Y-53202356D01*
X166708254Y-53154737D01*
X166660635Y-53107118D01*
X166613016Y-53011880D01*
X166613016Y-52773785D01*
X166660635Y-52678547D01*
X166708254Y-52630928D01*
X166803492Y-52583309D01*
X166993968Y-52583309D01*
X167089206Y-52630928D01*
X167136825Y-52678547D01*
X167184444Y-52773785D01*
%TO.C,D13*%
X118089230Y-53202356D02*
X118089230Y-52202356D01*
X117851135Y-52202356D01*
X117708278Y-52249976D01*
X117613040Y-52345214D01*
X117565421Y-52440452D01*
X117517802Y-52630928D01*
X117517802Y-52773785D01*
X117565421Y-52964261D01*
X117613040Y-53059499D01*
X117708278Y-53154737D01*
X117851135Y-53202356D01*
X118089230Y-53202356D01*
X116565421Y-53202356D02*
X117136849Y-53202356D01*
X116851135Y-53202356D02*
X116851135Y-52202356D01*
X116946373Y-52345214D01*
X117041611Y-52440452D01*
X117136849Y-52488071D01*
X116232087Y-52202356D02*
X115613040Y-52202356D01*
X115946373Y-52583309D01*
X115803516Y-52583309D01*
X115708278Y-52630928D01*
X115660659Y-52678547D01*
X115613040Y-52773785D01*
X115613040Y-53011880D01*
X115660659Y-53107118D01*
X115708278Y-53154737D01*
X115803516Y-53202356D01*
X116089230Y-53202356D01*
X116184468Y-53154737D01*
X116232087Y-53107118D01*
%TO.C,D25*%
X152089214Y-56035688D02*
X152089214Y-55035688D01*
X151851119Y-55035688D01*
X151708262Y-55083308D01*
X151613024Y-55178546D01*
X151565405Y-55273784D01*
X151517786Y-55464260D01*
X151517786Y-55607117D01*
X151565405Y-55797593D01*
X151613024Y-55892831D01*
X151708262Y-55988069D01*
X151851119Y-56035688D01*
X152089214Y-56035688D01*
X151136833Y-55130927D02*
X151089214Y-55083308D01*
X150993976Y-55035688D01*
X150755881Y-55035688D01*
X150660643Y-55083308D01*
X150613024Y-55130927D01*
X150565405Y-55226165D01*
X150565405Y-55321403D01*
X150613024Y-55464260D01*
X151184452Y-56035688D01*
X150565405Y-56035688D01*
X149660643Y-55035688D02*
X150136833Y-55035688D01*
X150184452Y-55511879D01*
X150136833Y-55464260D01*
X150041595Y-55416641D01*
X149803500Y-55416641D01*
X149708262Y-55464260D01*
X149660643Y-55511879D01*
X149613024Y-55607117D01*
X149613024Y-55845212D01*
X149660643Y-55940450D01*
X149708262Y-55988069D01*
X149803500Y-56035688D01*
X150041595Y-56035688D01*
X150136833Y-55988069D01*
X150184452Y-55940450D01*
%TO.C,D26*%
X169089206Y-56035688D02*
X169089206Y-55035688D01*
X168851111Y-55035688D01*
X168708254Y-55083308D01*
X168613016Y-55178546D01*
X168565397Y-55273784D01*
X168517778Y-55464260D01*
X168517778Y-55607117D01*
X168565397Y-55797593D01*
X168613016Y-55892831D01*
X168708254Y-55988069D01*
X168851111Y-56035688D01*
X169089206Y-56035688D01*
X168136825Y-55130927D02*
X168089206Y-55083308D01*
X167993968Y-55035688D01*
X167755873Y-55035688D01*
X167660635Y-55083308D01*
X167613016Y-55130927D01*
X167565397Y-55226165D01*
X167565397Y-55321403D01*
X167613016Y-55464260D01*
X168184444Y-56035688D01*
X167565397Y-56035688D01*
X166708254Y-55035688D02*
X166898730Y-55035688D01*
X166993968Y-55083308D01*
X167041587Y-55130927D01*
X167136825Y-55273784D01*
X167184444Y-55464260D01*
X167184444Y-55845212D01*
X167136825Y-55940450D01*
X167089206Y-55988069D01*
X166993968Y-56035688D01*
X166803492Y-56035688D01*
X166708254Y-55988069D01*
X166660635Y-55940450D01*
X166613016Y-55845212D01*
X166613016Y-55607117D01*
X166660635Y-55511879D01*
X166708254Y-55464260D01*
X166803492Y-55416641D01*
X166993968Y-55416641D01*
X167089206Y-55464260D01*
X167136825Y-55511879D01*
X167184444Y-55607117D01*
%TO.C,D1*%
X83613056Y-31952366D02*
X83613056Y-30952366D01*
X83374961Y-30952366D01*
X83232103Y-30999986D01*
X83136865Y-31095224D01*
X83089246Y-31190462D01*
X83041627Y-31380938D01*
X83041627Y-31523795D01*
X83089246Y-31714271D01*
X83136865Y-31809509D01*
X83232103Y-31904747D01*
X83374961Y-31952366D01*
X83613056Y-31952366D01*
X82089246Y-31952366D02*
X82660675Y-31952366D01*
X82374961Y-31952366D02*
X82374961Y-30952366D01*
X82470199Y-31095224D01*
X82565437Y-31190462D01*
X82660675Y-31238081D01*
%TO.C,D3*%
X117613040Y-36202364D02*
X117613040Y-35202364D01*
X117374945Y-35202364D01*
X117232087Y-35249984D01*
X117136849Y-35345222D01*
X117089230Y-35440460D01*
X117041611Y-35630936D01*
X117041611Y-35773793D01*
X117089230Y-35964269D01*
X117136849Y-36059507D01*
X117232087Y-36154745D01*
X117374945Y-36202364D01*
X117613040Y-36202364D01*
X116708278Y-35202364D02*
X116089230Y-35202364D01*
X116422564Y-35583317D01*
X116279706Y-35583317D01*
X116184468Y-35630936D01*
X116136849Y-35678555D01*
X116089230Y-35773793D01*
X116089230Y-36011888D01*
X116136849Y-36107126D01*
X116184468Y-36154745D01*
X116279706Y-36202364D01*
X116565421Y-36202364D01*
X116660659Y-36154745D01*
X116708278Y-36107126D01*
%TO.C,D7*%
X185613008Y-36202364D02*
X185613008Y-35202364D01*
X185374913Y-35202364D01*
X185232055Y-35249984D01*
X185136817Y-35345222D01*
X185089198Y-35440460D01*
X185041579Y-35630936D01*
X185041579Y-35773793D01*
X185089198Y-35964269D01*
X185136817Y-36059507D01*
X185232055Y-36154745D01*
X185374913Y-36202364D01*
X185613008Y-36202364D01*
X184708246Y-35202364D02*
X184041579Y-35202364D01*
X184470151Y-36202364D01*
%TO.C,D23*%
X118089230Y-56035688D02*
X118089230Y-55035688D01*
X117851135Y-55035688D01*
X117708278Y-55083308D01*
X117613040Y-55178546D01*
X117565421Y-55273784D01*
X117517802Y-55464260D01*
X117517802Y-55607117D01*
X117565421Y-55797593D01*
X117613040Y-55892831D01*
X117708278Y-55988069D01*
X117851135Y-56035688D01*
X118089230Y-56035688D01*
X117136849Y-55130927D02*
X117089230Y-55083308D01*
X116993992Y-55035688D01*
X116755897Y-55035688D01*
X116660659Y-55083308D01*
X116613040Y-55130927D01*
X116565421Y-55226165D01*
X116565421Y-55321403D01*
X116613040Y-55464260D01*
X117184468Y-56035688D01*
X116565421Y-56035688D01*
X116232087Y-55035688D02*
X115613040Y-55035688D01*
X115946373Y-55416641D01*
X115803516Y-55416641D01*
X115708278Y-55464260D01*
X115660659Y-55511879D01*
X115613040Y-55607117D01*
X115613040Y-55845212D01*
X115660659Y-55940450D01*
X115708278Y-55988069D01*
X115803516Y-56035688D01*
X116089230Y-56035688D01*
X116184468Y-55988069D01*
X116232087Y-55940450D01*
%TO.C,D17*%
X186089198Y-53202356D02*
X186089198Y-52202356D01*
X185851103Y-52202356D01*
X185708246Y-52249976D01*
X185613008Y-52345214D01*
X185565389Y-52440452D01*
X185517770Y-52630928D01*
X185517770Y-52773785D01*
X185565389Y-52964261D01*
X185613008Y-53059499D01*
X185708246Y-53154737D01*
X185851103Y-53202356D01*
X186089198Y-53202356D01*
X184565389Y-53202356D02*
X185136817Y-53202356D01*
X184851103Y-53202356D02*
X184851103Y-52202356D01*
X184946341Y-52345214D01*
X185041579Y-52440452D01*
X185136817Y-52488071D01*
X184232055Y-52202356D02*
X183565389Y-52202356D01*
X183993960Y-53202356D01*
%TO.C,J1*%
X207502380Y-69791633D02*
X208216666Y-69791633D01*
X208359523Y-69744014D01*
X208454761Y-69648776D01*
X208502380Y-69505919D01*
X208502380Y-69410681D01*
X208502380Y-70791633D02*
X208502380Y-70220205D01*
X208502380Y-70505919D02*
X207502380Y-70505919D01*
X207645238Y-70410681D01*
X207740476Y-70315443D01*
X207788095Y-70220205D01*
%TO.C,D12*%
X101089238Y-39035696D02*
X101089238Y-38035696D01*
X100851143Y-38035696D01*
X100708286Y-38083316D01*
X100613048Y-38178554D01*
X100565429Y-38273792D01*
X100517810Y-38464268D01*
X100517810Y-38607125D01*
X100565429Y-38797601D01*
X100613048Y-38892839D01*
X100708286Y-38988077D01*
X100851143Y-39035696D01*
X101089238Y-39035696D01*
X99565429Y-39035696D02*
X100136857Y-39035696D01*
X99851143Y-39035696D02*
X99851143Y-38035696D01*
X99946381Y-38178554D01*
X100041619Y-38273792D01*
X100136857Y-38321411D01*
X99184476Y-38130935D02*
X99136857Y-38083316D01*
X99041619Y-38035696D01*
X98803524Y-38035696D01*
X98708286Y-38083316D01*
X98660667Y-38130935D01*
X98613048Y-38226173D01*
X98613048Y-38321411D01*
X98660667Y-38464268D01*
X99232095Y-39035696D01*
X98613048Y-39035696D01*
%TO.C,D5*%
X151613024Y-36202364D02*
X151613024Y-35202364D01*
X151374929Y-35202364D01*
X151232071Y-35249984D01*
X151136833Y-35345222D01*
X151089214Y-35440460D01*
X151041595Y-35630936D01*
X151041595Y-35773793D01*
X151089214Y-35964269D01*
X151136833Y-36059507D01*
X151232071Y-36154745D01*
X151374929Y-36202364D01*
X151613024Y-36202364D01*
X150136833Y-35202364D02*
X150613024Y-35202364D01*
X150660643Y-35678555D01*
X150613024Y-35630936D01*
X150517786Y-35583317D01*
X150279690Y-35583317D01*
X150184452Y-35630936D01*
X150136833Y-35678555D01*
X150089214Y-35773793D01*
X150089214Y-36011888D01*
X150136833Y-36107126D01*
X150184452Y-36154745D01*
X150279690Y-36202364D01*
X150517786Y-36202364D01*
X150613024Y-36154745D01*
X150660643Y-36107126D01*
%TO.C,D37*%
X186089198Y-72327347D02*
X186089198Y-71327347D01*
X185851103Y-71327347D01*
X185708246Y-71374967D01*
X185613008Y-71470205D01*
X185565389Y-71565443D01*
X185517770Y-71755919D01*
X185517770Y-71898776D01*
X185565389Y-72089252D01*
X185613008Y-72184490D01*
X185708246Y-72279728D01*
X185851103Y-72327347D01*
X186089198Y-72327347D01*
X185184436Y-71327347D02*
X184565389Y-71327347D01*
X184898722Y-71708300D01*
X184755865Y-71708300D01*
X184660627Y-71755919D01*
X184613008Y-71803538D01*
X184565389Y-71898776D01*
X184565389Y-72136871D01*
X184613008Y-72232109D01*
X184660627Y-72279728D01*
X184755865Y-72327347D01*
X185041579Y-72327347D01*
X185136817Y-72279728D01*
X185184436Y-72232109D01*
X184232055Y-71327347D02*
X183565389Y-71327347D01*
X183993960Y-72327347D01*
%TO.C,D36*%
X169089206Y-72327347D02*
X169089206Y-71327347D01*
X168851111Y-71327347D01*
X168708254Y-71374967D01*
X168613016Y-71470205D01*
X168565397Y-71565443D01*
X168517778Y-71755919D01*
X168517778Y-71898776D01*
X168565397Y-72089252D01*
X168613016Y-72184490D01*
X168708254Y-72279728D01*
X168851111Y-72327347D01*
X169089206Y-72327347D01*
X168184444Y-71327347D02*
X167565397Y-71327347D01*
X167898730Y-71708300D01*
X167755873Y-71708300D01*
X167660635Y-71755919D01*
X167613016Y-71803538D01*
X167565397Y-71898776D01*
X167565397Y-72136871D01*
X167613016Y-72232109D01*
X167660635Y-72279728D01*
X167755873Y-72327347D01*
X168041587Y-72327347D01*
X168136825Y-72279728D01*
X168184444Y-72232109D01*
X166708254Y-71327347D02*
X166898730Y-71327347D01*
X166993968Y-71374967D01*
X167041587Y-71422586D01*
X167136825Y-71565443D01*
X167184444Y-71755919D01*
X167184444Y-72136871D01*
X167136825Y-72232109D01*
X167089206Y-72279728D01*
X166993968Y-72327347D01*
X166803492Y-72327347D01*
X166708254Y-72279728D01*
X166660635Y-72232109D01*
X166613016Y-72136871D01*
X166613016Y-71898776D01*
X166660635Y-71803538D01*
X166708254Y-71755919D01*
X166803492Y-71708300D01*
X166993968Y-71708300D01*
X167089206Y-71755919D01*
X167136825Y-71803538D01*
X167184444Y-71898776D01*
%TO.C,D20*%
X237089174Y-53202356D02*
X237089174Y-52202356D01*
X236851079Y-52202356D01*
X236708222Y-52249976D01*
X236612984Y-52345214D01*
X236565365Y-52440452D01*
X236517746Y-52630928D01*
X236517746Y-52773785D01*
X236565365Y-52964261D01*
X236612984Y-53059499D01*
X236708222Y-53154737D01*
X236851079Y-53202356D01*
X237089174Y-53202356D01*
X236136793Y-52297595D02*
X236089174Y-52249976D01*
X235993936Y-52202356D01*
X235755841Y-52202356D01*
X235660603Y-52249976D01*
X235612984Y-52297595D01*
X235565365Y-52392833D01*
X235565365Y-52488071D01*
X235612984Y-52630928D01*
X236184412Y-53202356D01*
X235565365Y-53202356D01*
X234946317Y-52202356D02*
X234851079Y-52202356D01*
X234755841Y-52249976D01*
X234708222Y-52297595D01*
X234660603Y-52392833D01*
X234612984Y-52583309D01*
X234612984Y-52821404D01*
X234660603Y-53011880D01*
X234708222Y-53107118D01*
X234755841Y-53154737D01*
X234851079Y-53202356D01*
X234946317Y-53202356D01*
X235041555Y-53154737D01*
X235089174Y-53107118D01*
X235136793Y-53011880D01*
X235184412Y-52821404D01*
X235184412Y-52583309D01*
X235136793Y-52392833D01*
X235089174Y-52297595D01*
X235041555Y-52249976D01*
X234946317Y-52202356D01*
%TO.C,D38*%
X203089190Y-72327347D02*
X203089190Y-71327347D01*
X202851095Y-71327347D01*
X202708238Y-71374967D01*
X202613000Y-71470205D01*
X202565381Y-71565443D01*
X202517762Y-71755919D01*
X202517762Y-71898776D01*
X202565381Y-72089252D01*
X202613000Y-72184490D01*
X202708238Y-72279728D01*
X202851095Y-72327347D01*
X203089190Y-72327347D01*
X202184428Y-71327347D02*
X201565381Y-71327347D01*
X201898714Y-71708300D01*
X201755857Y-71708300D01*
X201660619Y-71755919D01*
X201613000Y-71803538D01*
X201565381Y-71898776D01*
X201565381Y-72136871D01*
X201613000Y-72232109D01*
X201660619Y-72279728D01*
X201755857Y-72327347D01*
X202041571Y-72327347D01*
X202136809Y-72279728D01*
X202184428Y-72232109D01*
X200993952Y-71755919D02*
X201089190Y-71708300D01*
X201136809Y-71660681D01*
X201184428Y-71565443D01*
X201184428Y-71517824D01*
X201136809Y-71422586D01*
X201089190Y-71374967D01*
X200993952Y-71327347D01*
X200803476Y-71327347D01*
X200708238Y-71374967D01*
X200660619Y-71422586D01*
X200613000Y-71517824D01*
X200613000Y-71565443D01*
X200660619Y-71660681D01*
X200708238Y-71708300D01*
X200803476Y-71755919D01*
X200993952Y-71755919D01*
X201089190Y-71803538D01*
X201136809Y-71851157D01*
X201184428Y-71946395D01*
X201184428Y-72136871D01*
X201136809Y-72232109D01*
X201089190Y-72279728D01*
X200993952Y-72327347D01*
X200803476Y-72327347D01*
X200708238Y-72279728D01*
X200660619Y-72232109D01*
X200613000Y-72136871D01*
X200613000Y-71946395D01*
X200660619Y-71851157D01*
X200708238Y-71803538D01*
X200803476Y-71755919D01*
%TO.C,D2*%
X100613048Y-36202364D02*
X100613048Y-35202364D01*
X100374953Y-35202364D01*
X100232095Y-35249984D01*
X100136857Y-35345222D01*
X100089238Y-35440460D01*
X100041619Y-35630936D01*
X100041619Y-35773793D01*
X100089238Y-35964269D01*
X100136857Y-36059507D01*
X100232095Y-36154745D01*
X100374953Y-36202364D01*
X100613048Y-36202364D01*
X99660667Y-35297603D02*
X99613048Y-35249984D01*
X99517810Y-35202364D01*
X99279714Y-35202364D01*
X99184476Y-35249984D01*
X99136857Y-35297603D01*
X99089238Y-35392841D01*
X99089238Y-35488079D01*
X99136857Y-35630936D01*
X99708286Y-36202364D01*
X99089238Y-36202364D01*
%TO.C,SW25*%
X148374929Y-59574973D02*
X148374929Y-58874973D01*
X143874929Y-58874973D02*
X143874929Y-59374973D01*
X148374929Y-58874973D02*
X143874929Y-58874973D01*
X143874929Y-62974973D02*
X143874929Y-63574973D01*
X143874929Y-63574973D02*
X148374929Y-63574973D01*
X152374929Y-61074973D02*
X149874929Y-61074973D01*
X152874929Y-61574973D02*
X152374929Y-61074973D01*
X152374929Y-65574973D02*
X149374929Y-65574973D01*
X149374929Y-65574973D02*
X148874929Y-65074973D01*
X148874929Y-64074973D02*
X148874929Y-65074973D01*
X152874929Y-65074973D02*
X152374929Y-65574973D01*
X148874929Y-64074973D02*
G75*
G03*
X148374929Y-63574973I-500001J-1D01*
G01*
X148374929Y-59574973D02*
G75*
G03*
X149874929Y-61074973I1500001J1D01*
G01*
%TO.C,SW17*%
X186874913Y-44574981D02*
X186374913Y-44074981D01*
X186874913Y-48074981D02*
X186374913Y-48574981D01*
X183374913Y-48574981D02*
X182874913Y-48074981D01*
X182874913Y-47074981D02*
X182874913Y-48074981D01*
X177874913Y-45974981D02*
X177874913Y-46574981D01*
X182374913Y-42574981D02*
X182374913Y-41874981D01*
X182374913Y-41874981D02*
X177874913Y-41874981D01*
X186374913Y-48574981D02*
X183374913Y-48574981D01*
X177874913Y-41874981D02*
X177874913Y-42374981D01*
X177874913Y-46574981D02*
X182374913Y-46574981D01*
X186374913Y-44074981D02*
X183874913Y-44074981D01*
X182874913Y-47074981D02*
G75*
G03*
X182374913Y-46574981I-500001J-1D01*
G01*
X182374913Y-42574981D02*
G75*
G03*
X183874913Y-44074981I1500001J1D01*
G01*
%TO.C,SW23*%
X109874945Y-58874973D02*
X109874945Y-59374973D01*
X109874945Y-62974973D02*
X109874945Y-63574973D01*
X115374945Y-65574973D02*
X114874945Y-65074973D01*
X118874945Y-65074973D02*
X118374945Y-65574973D01*
X114374945Y-58874973D02*
X109874945Y-58874973D01*
X114874945Y-64074973D02*
X114874945Y-65074973D01*
X109874945Y-63574973D02*
X114374945Y-63574973D01*
X118374945Y-61074973D02*
X115874945Y-61074973D01*
X114374945Y-59574973D02*
X114374945Y-58874973D01*
X118874945Y-61574973D02*
X118374945Y-61074973D01*
X118374945Y-65574973D02*
X115374945Y-65574973D01*
X114374945Y-59574973D02*
G75*
G03*
X115874945Y-61074973I1500001J1D01*
G01*
X114874945Y-64074973D02*
G75*
G03*
X114374945Y-63574973I-500001J-1D01*
G01*
%TO.C,SW26*%
X160874921Y-62974973D02*
X160874921Y-63574973D01*
X160874921Y-63574973D02*
X165374921Y-63574973D01*
X160874921Y-58874973D02*
X160874921Y-59374973D01*
X169374921Y-65574973D02*
X166374921Y-65574973D01*
X165374921Y-58874973D02*
X160874921Y-58874973D01*
X169874921Y-65074973D02*
X169374921Y-65574973D01*
X165374921Y-59574973D02*
X165374921Y-58874973D01*
X169874921Y-61574973D02*
X169374921Y-61074973D01*
X166374921Y-65574973D02*
X165874921Y-65074973D01*
X169374921Y-61074973D02*
X166874921Y-61074973D01*
X165874921Y-64074973D02*
X165874921Y-65074973D01*
X165874921Y-64074973D02*
G75*
G03*
X165374921Y-63574973I-500001J-1D01*
G01*
X165374921Y-59574973D02*
G75*
G03*
X166874921Y-61074973I1500001J1D01*
G01*
%TO.C,SW13*%
X109874945Y-45974981D02*
X109874945Y-46574981D01*
X118374945Y-48574981D02*
X115374945Y-48574981D01*
X118874945Y-48074981D02*
X118374945Y-48574981D01*
X114374945Y-42574981D02*
X114374945Y-41874981D01*
X109874945Y-41874981D02*
X109874945Y-42374981D01*
X109874945Y-46574981D02*
X114374945Y-46574981D01*
X115374945Y-48574981D02*
X114874945Y-48074981D01*
X114374945Y-41874981D02*
X109874945Y-41874981D01*
X118374945Y-44074981D02*
X115874945Y-44074981D01*
X118874945Y-44574981D02*
X118374945Y-44074981D01*
X114874945Y-47074981D02*
X114874945Y-48074981D01*
X114874945Y-47074981D02*
G75*
G03*
X114374945Y-46574981I-500001J-1D01*
G01*
X114374945Y-42574981D02*
G75*
G03*
X115874945Y-44074981I1500001J1D01*
G01*
%TO.C,SW20*%
X233874889Y-47074981D02*
X233874889Y-48074981D01*
X233374889Y-41874981D02*
X228874889Y-41874981D01*
X237874889Y-48074981D02*
X237374889Y-48574981D01*
X228874889Y-45974981D02*
X228874889Y-46574981D01*
X237374889Y-44074981D02*
X234874889Y-44074981D01*
X233374889Y-42574981D02*
X233374889Y-41874981D01*
X237374889Y-48574981D02*
X234374889Y-48574981D01*
X228874889Y-41874981D02*
X228874889Y-42374981D01*
X228874889Y-46574981D02*
X233374889Y-46574981D01*
X237874889Y-44574981D02*
X237374889Y-44074981D01*
X234374889Y-48574981D02*
X233874889Y-48074981D01*
X233874889Y-47074981D02*
G75*
G03*
X233374889Y-46574981I-500001J-1D01*
G01*
X233374889Y-42574981D02*
G75*
G03*
X234874889Y-44074981I1500001J1D01*
G01*
%TO.C,SW16*%
X160874921Y-41874981D02*
X160874921Y-42374981D01*
X169874921Y-48074981D02*
X169374921Y-48574981D01*
X166374921Y-48574981D02*
X165874921Y-48074981D01*
X169874921Y-44574981D02*
X169374921Y-44074981D01*
X160874921Y-46574981D02*
X165374921Y-46574981D01*
X165374921Y-42574981D02*
X165374921Y-41874981D01*
X165874921Y-47074981D02*
X165874921Y-48074981D01*
X160874921Y-45974981D02*
X160874921Y-46574981D01*
X165374921Y-41874981D02*
X160874921Y-41874981D01*
X169374921Y-48574981D02*
X166374921Y-48574981D01*
X169374921Y-44074981D02*
X166874921Y-44074981D01*
X165874921Y-47074981D02*
G75*
G03*
X165374921Y-46574981I-500001J-1D01*
G01*
X165374921Y-42574981D02*
G75*
G03*
X166874921Y-44074981I1500001J1D01*
G01*
%TO.C,SW4*%
X135874937Y-31074989D02*
X135374937Y-31574989D01*
X126874937Y-29574989D02*
X131374937Y-29574989D01*
X126874937Y-24874989D02*
X126874937Y-25374989D01*
X126874937Y-28974989D02*
X126874937Y-29574989D01*
X131374937Y-25574989D02*
X131374937Y-24874989D01*
X135374937Y-31574989D02*
X132374937Y-31574989D01*
X132374937Y-31574989D02*
X131874937Y-31074989D01*
X131374937Y-24874989D02*
X126874937Y-24874989D01*
X135874937Y-27574989D02*
X135374937Y-27074989D01*
X131874937Y-30074989D02*
X131874937Y-31074989D01*
X135374937Y-27074989D02*
X132874937Y-27074989D01*
X131874937Y-30074989D02*
G75*
G03*
X131374937Y-29574989I-500001J-1D01*
G01*
X131374937Y-25574989D02*
G75*
G03*
X132874937Y-27074989I1500001J1D01*
G01*
%TO.C,SW1*%
X89874961Y-17774989D02*
X89874961Y-17174989D01*
X81374961Y-15174989D02*
X84374961Y-15174989D01*
X84374961Y-15174989D02*
X84874961Y-15674989D01*
X81374961Y-19674989D02*
X83874961Y-19674989D01*
X89874961Y-21874989D02*
X89874961Y-21374989D01*
X84874961Y-16674989D02*
X84874961Y-15674989D01*
X89874961Y-17174989D02*
X85374961Y-17174989D01*
X80874961Y-15674989D02*
X81374961Y-15174989D01*
X85374961Y-21174989D02*
X85374961Y-21874989D01*
X80874961Y-19174989D02*
X81374961Y-19674989D01*
X85374961Y-21874989D02*
X89874961Y-21874989D01*
X85374961Y-21174989D02*
G75*
G03*
X83874961Y-19674989I-1500001J-1D01*
G01*
X84874961Y-16674989D02*
G75*
G03*
X85374961Y-17174989I500001J1D01*
G01*
%TO.C,SW29*%
X211874897Y-63574973D02*
X216374897Y-63574973D01*
X211874897Y-62974973D02*
X211874897Y-63574973D01*
X216874897Y-64074973D02*
X216874897Y-65074973D01*
X211874897Y-58874973D02*
X211874897Y-59374973D01*
X216374897Y-58874973D02*
X211874897Y-58874973D01*
X220874897Y-65074973D02*
X220374897Y-65574973D01*
X220874897Y-61574973D02*
X220374897Y-61074973D01*
X217374897Y-65574973D02*
X216874897Y-65074973D01*
X220374897Y-61074973D02*
X217874897Y-61074973D01*
X216374897Y-59574973D02*
X216374897Y-58874973D01*
X220374897Y-65574973D02*
X217374897Y-65574973D01*
X216874897Y-64074973D02*
G75*
G03*
X216374897Y-63574973I-500001J-1D01*
G01*
X216374897Y-59574973D02*
G75*
G03*
X217874897Y-61074973I1500001J1D01*
G01*
%TO.C,SW15*%
X152374929Y-44074981D02*
X149874929Y-44074981D01*
X148374929Y-41874981D02*
X143874929Y-41874981D01*
X152374929Y-48574981D02*
X149374929Y-48574981D01*
X148874929Y-47074981D02*
X148874929Y-48074981D01*
X143874929Y-45974981D02*
X143874929Y-46574981D01*
X143874929Y-41874981D02*
X143874929Y-42374981D01*
X143874929Y-46574981D02*
X148374929Y-46574981D01*
X148374929Y-42574981D02*
X148374929Y-41874981D01*
X152874929Y-44574981D02*
X152374929Y-44074981D01*
X149374929Y-48574981D02*
X148874929Y-48074981D01*
X152874929Y-48074981D02*
X152374929Y-48574981D01*
X148374929Y-42574981D02*
G75*
G03*
X149874929Y-44074981I1500001J1D01*
G01*
X148874929Y-47074981D02*
G75*
G03*
X148374929Y-46574981I-500001J-1D01*
G01*
%TO.C,SW34*%
X126874937Y-75874965D02*
X126874937Y-76374965D01*
X126874937Y-80574965D02*
X131374937Y-80574965D01*
X131374937Y-76574965D02*
X131374937Y-75874965D01*
X131374937Y-75874965D02*
X126874937Y-75874965D01*
X135374937Y-78074965D02*
X132874937Y-78074965D01*
X132374937Y-82574965D02*
X131874937Y-82074965D01*
X135374937Y-82574965D02*
X132374937Y-82574965D01*
X131874937Y-81074965D02*
X131874937Y-82074965D01*
X126874937Y-79974965D02*
X126874937Y-80574965D01*
X135874937Y-82074965D02*
X135374937Y-82574965D01*
X135874937Y-78574965D02*
X135374937Y-78074965D01*
X131874937Y-81074965D02*
G75*
G03*
X131374937Y-80574965I-500001J-1D01*
G01*
X131374937Y-76574965D02*
G75*
G03*
X132874937Y-78074965I1500001J1D01*
G01*
%TO.C,SW6*%
X165374921Y-25574989D02*
X165374921Y-24874989D01*
X169374921Y-31574989D02*
X166374921Y-31574989D01*
X165874921Y-30074989D02*
X165874921Y-31074989D01*
X165374921Y-24874989D02*
X160874921Y-24874989D01*
X169374921Y-27074989D02*
X166874921Y-27074989D01*
X160874921Y-29574989D02*
X165374921Y-29574989D01*
X160874921Y-28974989D02*
X160874921Y-29574989D01*
X160874921Y-24874989D02*
X160874921Y-25374989D01*
X169874921Y-31074989D02*
X169374921Y-31574989D01*
X166374921Y-31574989D02*
X165874921Y-31074989D01*
X169874921Y-27574989D02*
X169374921Y-27074989D01*
X165874921Y-30074989D02*
G75*
G03*
X165374921Y-29574989I-500001J-1D01*
G01*
X165374921Y-25574989D02*
G75*
G03*
X166874921Y-27074989I1500001J1D01*
G01*
%TO.C,SW10*%
X228874889Y-29574989D02*
X233374889Y-29574989D01*
X237874889Y-27574989D02*
X237374889Y-27074989D01*
X233374889Y-24874989D02*
X228874889Y-24874989D01*
X228874889Y-28974989D02*
X228874889Y-29574989D01*
X237374889Y-27074989D02*
X234874889Y-27074989D01*
X237874889Y-31074989D02*
X237374889Y-31574989D01*
X228874889Y-24874989D02*
X228874889Y-25374989D01*
X233874889Y-30074989D02*
X233874889Y-31074989D01*
X234374889Y-31574989D02*
X233874889Y-31074989D01*
X237374889Y-31574989D02*
X234374889Y-31574989D01*
X233374889Y-25574989D02*
X233374889Y-24874989D01*
X233374889Y-25574989D02*
G75*
G03*
X234874889Y-27074989I1500001J1D01*
G01*
X233874889Y-30074989D02*
G75*
G03*
X233374889Y-29574989I-500001J-1D01*
G01*
%TO.C,SW33*%
X114874945Y-81074965D02*
X114874945Y-82074965D01*
X114374945Y-76574965D02*
X114374945Y-75874965D01*
X114374945Y-75874965D02*
X109874945Y-75874965D01*
X118374945Y-78074965D02*
X115874945Y-78074965D01*
X109874945Y-75874965D02*
X109874945Y-76374965D01*
X118874945Y-78574965D02*
X118374945Y-78074965D01*
X115374945Y-82574965D02*
X114874945Y-82074965D01*
X109874945Y-79974965D02*
X109874945Y-80574965D01*
X109874945Y-80574965D02*
X114374945Y-80574965D01*
X118874945Y-82074965D02*
X118374945Y-82574965D01*
X118374945Y-82574965D02*
X115374945Y-82574965D01*
X114374945Y-76574965D02*
G75*
G03*
X115874945Y-78074965I1500001J1D01*
G01*
X114874945Y-81074965D02*
G75*
G03*
X114374945Y-80574965I-500001J-1D01*
G01*
%TO.C,SW27*%
X186874913Y-65074973D02*
X186374913Y-65574973D01*
X186374913Y-61074973D02*
X183874913Y-61074973D01*
X186874913Y-61574973D02*
X186374913Y-61074973D01*
X182374913Y-59574973D02*
X182374913Y-58874973D01*
X177874913Y-62974973D02*
X177874913Y-63574973D01*
X183374913Y-65574973D02*
X182874913Y-65074973D01*
X186374913Y-65574973D02*
X183374913Y-65574973D01*
X182874913Y-64074973D02*
X182874913Y-65074973D01*
X177874913Y-58874973D02*
X177874913Y-59374973D01*
X182374913Y-58874973D02*
X177874913Y-58874973D01*
X177874913Y-63574973D02*
X182374913Y-63574973D01*
X182874913Y-64074973D02*
G75*
G03*
X182374913Y-63574973I-500001J-1D01*
G01*
X182374913Y-59574973D02*
G75*
G03*
X183874913Y-61074973I1500001J1D01*
G01*
%TO.C,SW30*%
X233374889Y-59574973D02*
X233374889Y-58874973D01*
X237874889Y-61574973D02*
X237374889Y-61074973D01*
X237374889Y-65574973D02*
X234374889Y-65574973D01*
X237374889Y-61074973D02*
X234874889Y-61074973D01*
X237874889Y-65074973D02*
X237374889Y-65574973D01*
X233374889Y-58874973D02*
X228874889Y-58874973D01*
X233874889Y-64074973D02*
X233874889Y-65074973D01*
X234374889Y-65574973D02*
X233874889Y-65074973D01*
X228874889Y-58874973D02*
X228874889Y-59374973D01*
X228874889Y-62974973D02*
X228874889Y-63574973D01*
X228874889Y-63574973D02*
X233374889Y-63574973D01*
X233374889Y-59574973D02*
G75*
G03*
X234874889Y-61074973I1500001J1D01*
G01*
X233874889Y-64074973D02*
G75*
G03*
X233374889Y-63574973I-500001J-1D01*
G01*
%TO.C,SW7*%
X182374913Y-24874989D02*
X177874913Y-24874989D01*
X177874913Y-24874989D02*
X177874913Y-25374989D01*
X183374913Y-31574989D02*
X182874913Y-31074989D01*
X186374913Y-31574989D02*
X183374913Y-31574989D01*
X186374913Y-27074989D02*
X183874913Y-27074989D01*
X182874913Y-30074989D02*
X182874913Y-31074989D01*
X182374913Y-25574989D02*
X182374913Y-24874989D01*
X186874913Y-27574989D02*
X186374913Y-27074989D01*
X186874913Y-31074989D02*
X186374913Y-31574989D01*
X177874913Y-29574989D02*
X182374913Y-29574989D01*
X177874913Y-28974989D02*
X177874913Y-29574989D01*
X182874913Y-30074989D02*
G75*
G03*
X182374913Y-29574989I-500001J-1D01*
G01*
X182374913Y-25574989D02*
G75*
G03*
X183874913Y-27074989I1500001J1D01*
G01*
%TO.C,SW19*%
X216374897Y-41874981D02*
X211874897Y-41874981D01*
X220374897Y-48574981D02*
X217374897Y-48574981D01*
X220374897Y-44074981D02*
X217874897Y-44074981D01*
X211874897Y-41874981D02*
X211874897Y-42374981D01*
X216874897Y-47074981D02*
X216874897Y-48074981D01*
X220874897Y-44574981D02*
X220374897Y-44074981D01*
X211874897Y-45974981D02*
X211874897Y-46574981D01*
X217374897Y-48574981D02*
X216874897Y-48074981D01*
X211874897Y-46574981D02*
X216374897Y-46574981D01*
X216374897Y-42574981D02*
X216374897Y-41874981D01*
X220874897Y-48074981D02*
X220374897Y-48574981D01*
X216874897Y-47074981D02*
G75*
G03*
X216374897Y-46574981I-500001J-1D01*
G01*
X216374897Y-42574981D02*
G75*
G03*
X217874897Y-44074981I1500001J1D01*
G01*
%TO.C,SW24*%
X135874937Y-61574973D02*
X135374937Y-61074973D01*
X126874937Y-63574973D02*
X131374937Y-63574973D01*
X131874937Y-64074973D02*
X131874937Y-65074973D01*
X131374937Y-59574973D02*
X131374937Y-58874973D01*
X135374937Y-65574973D02*
X132374937Y-65574973D01*
X135374937Y-61074973D02*
X132874937Y-61074973D01*
X135874937Y-65074973D02*
X135374937Y-65574973D01*
X126874937Y-62974973D02*
X126874937Y-63574973D01*
X131374937Y-58874973D02*
X126874937Y-58874973D01*
X126874937Y-58874973D02*
X126874937Y-59374973D01*
X132374937Y-65574973D02*
X131874937Y-65074973D01*
X131374937Y-59574973D02*
G75*
G03*
X132874937Y-61074973I1500001J1D01*
G01*
X131874937Y-64074973D02*
G75*
G03*
X131374937Y-63574973I-500001J-1D01*
G01*
%TO.C,SW5*%
X143874929Y-24874989D02*
X143874929Y-25374989D01*
X152374929Y-31574989D02*
X149374929Y-31574989D01*
X143874929Y-28974989D02*
X143874929Y-29574989D01*
X152374929Y-27074989D02*
X149874929Y-27074989D01*
X148874929Y-30074989D02*
X148874929Y-31074989D01*
X152874929Y-31074989D02*
X152374929Y-31574989D01*
X148374929Y-24874989D02*
X143874929Y-24874989D01*
X152874929Y-27574989D02*
X152374929Y-27074989D01*
X143874929Y-29574989D02*
X148374929Y-29574989D01*
X148374929Y-25574989D02*
X148374929Y-24874989D01*
X149374929Y-31574989D02*
X148874929Y-31074989D01*
X148874929Y-30074989D02*
G75*
G03*
X148374929Y-29574989I-500001J-1D01*
G01*
X148374929Y-25574989D02*
G75*
G03*
X149874929Y-27074989I1500001J1D01*
G01*
%TO.C,SW38*%
X203874905Y-82074965D02*
X203374905Y-82574965D01*
X194874905Y-80574965D02*
X199374905Y-80574965D01*
X203374905Y-82574965D02*
X200374905Y-82574965D01*
X194874905Y-75874965D02*
X194874905Y-76374965D01*
X199874905Y-81074965D02*
X199874905Y-82074965D01*
X194874905Y-79974965D02*
X194874905Y-80574965D01*
X199374905Y-76574965D02*
X199374905Y-75874965D01*
X203874905Y-78574965D02*
X203374905Y-78074965D01*
X199374905Y-75874965D02*
X194874905Y-75874965D01*
X200374905Y-82574965D02*
X199874905Y-82074965D01*
X203374905Y-78074965D02*
X200874905Y-78074965D01*
X199374905Y-76574965D02*
G75*
G03*
X200874905Y-78074965I1500001J1D01*
G01*
X199874905Y-81074965D02*
G75*
G03*
X199374905Y-80574965I-500001J-1D01*
G01*
%TO.C,SW35*%
X152874929Y-78574965D02*
X152374929Y-78074965D01*
X152874929Y-82074965D02*
X152374929Y-82574965D01*
X143874929Y-75874965D02*
X143874929Y-76374965D01*
X148874929Y-81074965D02*
X148874929Y-82074965D01*
X149374929Y-82574965D02*
X148874929Y-82074965D01*
X143874929Y-79974965D02*
X143874929Y-80574965D01*
X148374929Y-75874965D02*
X143874929Y-75874965D01*
X148374929Y-76574965D02*
X148374929Y-75874965D01*
X143874929Y-80574965D02*
X148374929Y-80574965D01*
X152374929Y-78074965D02*
X149874929Y-78074965D01*
X152374929Y-82574965D02*
X149374929Y-82574965D01*
X148874929Y-81074965D02*
G75*
G03*
X148374929Y-80574965I-500001J-1D01*
G01*
X148374929Y-76574965D02*
G75*
G03*
X149874929Y-78074965I1500001J1D01*
G01*
%TO.C,SW18*%
X194874905Y-46574981D02*
X199374905Y-46574981D01*
X203874905Y-48074981D02*
X203374905Y-48574981D01*
X194874905Y-41874981D02*
X194874905Y-42374981D01*
X199374905Y-41874981D02*
X194874905Y-41874981D01*
X203374905Y-48574981D02*
X200374905Y-48574981D01*
X200374905Y-48574981D02*
X199874905Y-48074981D01*
X199874905Y-47074981D02*
X199874905Y-48074981D01*
X199374905Y-42574981D02*
X199374905Y-41874981D01*
X203874905Y-44574981D02*
X203374905Y-44074981D01*
X203374905Y-44074981D02*
X200874905Y-44074981D01*
X194874905Y-45974981D02*
X194874905Y-46574981D01*
X199874905Y-47074981D02*
G75*
G03*
X199374905Y-46574981I-500001J-1D01*
G01*
X199374905Y-42574981D02*
G75*
G03*
X200874905Y-44074981I1500001J1D01*
G01*
%TO.C,SW3*%
X118874945Y-31074989D02*
X118374945Y-31574989D01*
X118874945Y-27574989D02*
X118374945Y-27074989D01*
X118374945Y-31574989D02*
X115374945Y-31574989D01*
X114374945Y-24874989D02*
X109874945Y-24874989D01*
X114874945Y-30074989D02*
X114874945Y-31074989D01*
X109874945Y-29574989D02*
X114374945Y-29574989D01*
X109874945Y-28974989D02*
X109874945Y-29574989D01*
X109874945Y-24874989D02*
X109874945Y-25374989D01*
X118374945Y-27074989D02*
X115874945Y-27074989D01*
X114374945Y-25574989D02*
X114374945Y-24874989D01*
X115374945Y-31574989D02*
X114874945Y-31074989D01*
X114874945Y-30074989D02*
G75*
G03*
X114374945Y-29574989I-500001J-1D01*
G01*
X114374945Y-25574989D02*
G75*
G03*
X115874945Y-27074989I1500001J1D01*
G01*
%TO.C,SW9*%
X220874897Y-27574989D02*
X220374897Y-27074989D01*
X216874897Y-30074989D02*
X216874897Y-31074989D01*
X216374897Y-25574989D02*
X216374897Y-24874989D01*
X217374897Y-31574989D02*
X216874897Y-31074989D01*
X211874897Y-24874989D02*
X211874897Y-25374989D01*
X220374897Y-31574989D02*
X217374897Y-31574989D01*
X211874897Y-28974989D02*
X211874897Y-29574989D01*
X216374897Y-24874989D02*
X211874897Y-24874989D01*
X211874897Y-29574989D02*
X216374897Y-29574989D01*
X220374897Y-27074989D02*
X217874897Y-27074989D01*
X220874897Y-31074989D02*
X220374897Y-31574989D01*
X216874897Y-30074989D02*
G75*
G03*
X216374897Y-29574989I-500001J-1D01*
G01*
X216374897Y-25574989D02*
G75*
G03*
X217874897Y-27074989I1500001J1D01*
G01*
%TO.C,SW14*%
X126874937Y-46574981D02*
X131374937Y-46574981D01*
X132374937Y-48574981D02*
X131874937Y-48074981D01*
X131374937Y-41874981D02*
X126874937Y-41874981D01*
X135874937Y-44574981D02*
X135374937Y-44074981D01*
X131874937Y-47074981D02*
X131874937Y-48074981D01*
X135874937Y-48074981D02*
X135374937Y-48574981D01*
X135374937Y-48574981D02*
X132374937Y-48574981D01*
X131374937Y-42574981D02*
X131374937Y-41874981D01*
X126874937Y-41874981D02*
X126874937Y-42374981D01*
X135374937Y-44074981D02*
X132874937Y-44074981D01*
X126874937Y-45974981D02*
X126874937Y-46574981D01*
X131874937Y-47074981D02*
G75*
G03*
X131374937Y-46574981I-500001J-1D01*
G01*
X131374937Y-42574981D02*
G75*
G03*
X132874937Y-44074981I1500001J1D01*
G01*
%TO.C,SW21*%
X89874961Y-51774973D02*
X89874961Y-51174973D01*
X84374961Y-49174973D02*
X84874961Y-49674973D01*
X85374961Y-55874973D02*
X89874961Y-55874973D01*
X85374961Y-55174973D02*
X85374961Y-55874973D01*
X89874961Y-55874973D02*
X89874961Y-55374973D01*
X81374961Y-49174973D02*
X84374961Y-49174973D01*
X81374961Y-53674973D02*
X83874961Y-53674973D01*
X84874961Y-50674973D02*
X84874961Y-49674973D01*
X80874961Y-53174973D02*
X81374961Y-53674973D01*
X89874961Y-51174973D02*
X85374961Y-51174973D01*
X80874961Y-49674973D02*
X81374961Y-49174973D01*
X85374961Y-55174973D02*
G75*
G03*
X83874961Y-53674973I-1500001J-1D01*
G01*
X84874961Y-50674973D02*
G75*
G03*
X85374961Y-51174973I500001J1D01*
G01*
%TO.C,SW2*%
X92874953Y-28974989D02*
X92874953Y-29574989D01*
X101874953Y-27574989D02*
X101374953Y-27074989D01*
X92874953Y-29574989D02*
X97374953Y-29574989D01*
X97374953Y-25574989D02*
X97374953Y-24874989D01*
X92874953Y-24874989D02*
X92874953Y-25374989D01*
X101874953Y-31074989D02*
X101374953Y-31574989D01*
X101374953Y-27074989D02*
X98874953Y-27074989D01*
X101374953Y-31574989D02*
X98374953Y-31574989D01*
X97374953Y-24874989D02*
X92874953Y-24874989D01*
X98374953Y-31574989D02*
X97874953Y-31074989D01*
X97874953Y-30074989D02*
X97874953Y-31074989D01*
X97374953Y-25574989D02*
G75*
G03*
X98874953Y-27074989I1500001J1D01*
G01*
X97874953Y-30074989D02*
G75*
G03*
X97374953Y-29574989I-500001J-1D01*
G01*
%TO.C,SW12*%
X97374953Y-41874981D02*
X92874953Y-41874981D01*
X97374953Y-42574981D02*
X97374953Y-41874981D01*
X101874953Y-44574981D02*
X101374953Y-44074981D01*
X101374953Y-44074981D02*
X98874953Y-44074981D01*
X97874953Y-47074981D02*
X97874953Y-48074981D01*
X92874953Y-45974981D02*
X92874953Y-46574981D01*
X92874953Y-41874981D02*
X92874953Y-42374981D01*
X101874953Y-48074981D02*
X101374953Y-48574981D01*
X98374953Y-48574981D02*
X97874953Y-48074981D01*
X101374953Y-48574981D02*
X98374953Y-48574981D01*
X92874953Y-46574981D02*
X97374953Y-46574981D01*
X97374953Y-42574981D02*
G75*
G03*
X98874953Y-44074981I1500001J1D01*
G01*
X97874953Y-47074981D02*
G75*
G03*
X97374953Y-46574981I-500001J-1D01*
G01*
%TO.C,SW36*%
X169874921Y-78574965D02*
X169374921Y-78074965D01*
X169374921Y-78074965D02*
X166874921Y-78074965D01*
X165874921Y-81074965D02*
X165874921Y-82074965D01*
X169374921Y-82574965D02*
X166374921Y-82574965D01*
X160874921Y-75874965D02*
X160874921Y-76374965D01*
X160874921Y-80574965D02*
X165374921Y-80574965D01*
X165374921Y-76574965D02*
X165374921Y-75874965D01*
X160874921Y-79974965D02*
X160874921Y-80574965D01*
X166374921Y-82574965D02*
X165874921Y-82074965D01*
X169874921Y-82074965D02*
X169374921Y-82574965D01*
X165374921Y-75874965D02*
X160874921Y-75874965D01*
X165874921Y-81074965D02*
G75*
G03*
X165374921Y-80574965I-500001J-1D01*
G01*
X165374921Y-76574965D02*
G75*
G03*
X166874921Y-78074965I1500001J1D01*
G01*
%TO.C,SW22*%
X98374953Y-49174973D02*
X101374953Y-49174973D01*
X106874953Y-51774973D02*
X106874953Y-51174973D01*
X97874953Y-49674973D02*
X98374953Y-49174973D01*
X101374953Y-49174973D02*
X101874953Y-49674973D01*
X106874953Y-51174973D02*
X102374953Y-51174973D01*
X97874953Y-53174973D02*
X98374953Y-53674973D01*
X101874953Y-50674973D02*
X101874953Y-49674973D01*
X102374953Y-55874973D02*
X106874953Y-55874973D01*
X102374953Y-55174973D02*
X102374953Y-55874973D01*
X98374953Y-53674973D02*
X100874953Y-53674973D01*
X106874953Y-55874973D02*
X106874953Y-55374973D01*
X102374953Y-55174973D02*
G75*
G03*
X100874953Y-53674973I-1500001J-1D01*
G01*
X101874953Y-50674973D02*
G75*
G03*
X102374953Y-51174973I500001J1D01*
G01*
%TO.C,SW28*%
X203874905Y-61574973D02*
X203374905Y-61074973D01*
X203874905Y-65074973D02*
X203374905Y-65574973D01*
X203374905Y-61074973D02*
X200874905Y-61074973D01*
X199374905Y-59574973D02*
X199374905Y-58874973D01*
X194874905Y-58874973D02*
X194874905Y-59374973D01*
X200374905Y-65574973D02*
X199874905Y-65074973D01*
X194874905Y-62974973D02*
X194874905Y-63574973D01*
X199374905Y-58874973D02*
X194874905Y-58874973D01*
X194874905Y-63574973D02*
X199374905Y-63574973D01*
X199874905Y-64074973D02*
X199874905Y-65074973D01*
X203374905Y-65574973D02*
X200374905Y-65574973D01*
X199874905Y-64074973D02*
G75*
G03*
X199374905Y-63574973I-500001J-1D01*
G01*
X199374905Y-59574973D02*
G75*
G03*
X200874905Y-61074973I1500001J1D01*
G01*
%TO.C,SW37*%
X186874913Y-82074965D02*
X186374913Y-82574965D01*
X182874913Y-81074965D02*
X182874913Y-82074965D01*
X182374913Y-75874965D02*
X177874913Y-75874965D01*
X186874913Y-78574965D02*
X186374913Y-78074965D01*
X186374913Y-78074965D02*
X183874913Y-78074965D01*
X177874913Y-80574965D02*
X182374913Y-80574965D01*
X177874913Y-75874965D02*
X177874913Y-76374965D01*
X183374913Y-82574965D02*
X182874913Y-82074965D01*
X186374913Y-82574965D02*
X183374913Y-82574965D01*
X182374913Y-76574965D02*
X182374913Y-75874965D01*
X177874913Y-79974965D02*
X177874913Y-80574965D01*
X182874913Y-81074965D02*
G75*
G03*
X182374913Y-80574965I-500001J-1D01*
G01*
X182374913Y-76574965D02*
G75*
G03*
X183874913Y-78074965I1500001J1D01*
G01*
%TO.C,SW11*%
X85374961Y-38174981D02*
X85374961Y-38874981D01*
X84874961Y-33674981D02*
X84874961Y-32674981D01*
X84374961Y-32174981D02*
X84874961Y-32674981D01*
X81374961Y-36674981D02*
X83874961Y-36674981D01*
X80874961Y-32674981D02*
X81374961Y-32174981D01*
X89874961Y-34774981D02*
X89874961Y-34174981D01*
X81374961Y-32174981D02*
X84374961Y-32174981D01*
X89874961Y-38874981D02*
X89874961Y-38374981D01*
X85374961Y-38874981D02*
X89874961Y-38874981D01*
X89874961Y-34174981D02*
X85374961Y-34174981D01*
X80874961Y-36174981D02*
X81374961Y-36674981D01*
X85374961Y-38174981D02*
G75*
G03*
X83874961Y-36674981I-1500001J-1D01*
G01*
X84874961Y-33674981D02*
G75*
G03*
X85374961Y-34174981I500001J1D01*
G01*
%TO.C,SW8*%
X203374905Y-31574989D02*
X200374905Y-31574989D01*
X194874905Y-28974989D02*
X194874905Y-29574989D01*
X200374905Y-31574989D02*
X199874905Y-31074989D01*
X203374905Y-27074989D02*
X200874905Y-27074989D01*
X199374905Y-24874989D02*
X194874905Y-24874989D01*
X194874905Y-29574989D02*
X199374905Y-29574989D01*
X203874905Y-31074989D02*
X203374905Y-31574989D01*
X194874905Y-24874989D02*
X194874905Y-25374989D01*
X203874905Y-27574989D02*
X203374905Y-27074989D01*
X199374905Y-25574989D02*
X199374905Y-24874989D01*
X199874905Y-30074989D02*
X199874905Y-31074989D01*
X199874905Y-30074989D02*
G75*
G03*
X199374905Y-29574989I-500001J-1D01*
G01*
X199374905Y-25574989D02*
G75*
G03*
X200874905Y-27074989I1500001J1D01*
G01*
D13*
%TO.C,D35*%
X146324929Y-69124967D02*
X153624929Y-69124967D01*
X146324929Y-71124967D02*
X146324929Y-69124967D01*
X153624929Y-71124967D02*
X146324929Y-71124967D01*
%TO.C,D30*%
X231324889Y-54833308D02*
X231324889Y-52833308D01*
X231324889Y-52833308D02*
X238624889Y-52833308D01*
X238624889Y-54833308D02*
X231324889Y-54833308D01*
%TO.C,D34*%
X129324937Y-69124967D02*
X136624937Y-69124967D01*
X129324937Y-71124967D02*
X129324937Y-69124967D01*
X136624937Y-71124967D02*
X129324937Y-71124967D01*
%TO.C,D11*%
X78324961Y-47749978D02*
X78324961Y-45749978D01*
X78324961Y-45749978D02*
X85624961Y-45749978D01*
X85624961Y-47749978D02*
X78324961Y-47749978D01*
%TO.C,D8*%
X197324905Y-34999984D02*
X197324905Y-32999984D01*
X204624905Y-34999984D02*
X197324905Y-34999984D01*
X197324905Y-32999984D02*
X204624905Y-32999984D01*
%TO.C,D22*%
X95324953Y-59208305D02*
X102624953Y-59208305D01*
X102624953Y-61208305D02*
X95324953Y-61208305D01*
X95324953Y-61208305D02*
X95324953Y-59208305D01*
%TO.C,D24*%
X129324937Y-52833308D02*
X136624937Y-52833308D01*
X136624937Y-54833308D02*
X129324937Y-54833308D01*
X129324937Y-54833308D02*
X129324937Y-52833308D01*
%TO.C,D27*%
X187624913Y-54833308D02*
X180324913Y-54833308D01*
X180324913Y-54833308D02*
X180324913Y-52833308D01*
X180324913Y-52833308D02*
X187624913Y-52833308D01*
%TO.C,D4*%
X136624937Y-34999984D02*
X129324937Y-34999984D01*
X129324937Y-34999984D02*
X129324937Y-32999984D01*
X129324937Y-32999984D02*
X136624937Y-32999984D01*
%TO.C,U2*%
X107059952Y-72249966D02*
X107059952Y-70299966D01*
X107059952Y-72249966D02*
X107059952Y-74199966D01*
X96939952Y-72249966D02*
X96939952Y-68799966D01*
X96939952Y-72249966D02*
X96939952Y-74199966D01*
%TO.C,J2*%
X209044901Y-77203297D02*
X209044901Y-79803297D01*
X211704901Y-75933297D02*
X211704901Y-74603297D01*
X211704901Y-79803297D02*
X209044901Y-79803297D01*
X211704901Y-77203297D02*
X211704901Y-79803297D01*
X211704901Y-77203297D02*
X209044901Y-77203297D01*
X211704901Y-74603297D02*
X210374901Y-74603297D01*
%TO.C,D29*%
X221624897Y-54833308D02*
X214324897Y-54833308D01*
X214324897Y-54833308D02*
X214324897Y-52833308D01*
X214324897Y-52833308D02*
X221624897Y-52833308D01*
%TO.C,D28*%
X197324905Y-52833308D02*
X204624905Y-52833308D01*
X204624905Y-54833308D02*
X197324905Y-54833308D01*
X197324905Y-54833308D02*
X197324905Y-52833308D01*
%TO.C,D33*%
X112324945Y-69124967D02*
X119624945Y-69124967D01*
X119624945Y-71124967D02*
X112324945Y-71124967D01*
X112324945Y-71124967D02*
X112324945Y-69124967D01*
%TO.C,D15*%
X153624929Y-51999976D02*
X146324929Y-51999976D01*
X146324929Y-51999976D02*
X146324929Y-49999976D01*
X146324929Y-49999976D02*
X153624929Y-49999976D01*
%TO.C,D9*%
X214324897Y-34999984D02*
X214324897Y-32999984D01*
X221624897Y-34999984D02*
X214324897Y-34999984D01*
X214324897Y-32999984D02*
X221624897Y-32999984D01*
%TO.C,D21*%
X85624961Y-61208305D02*
X78324961Y-61208305D01*
X78324961Y-59208305D02*
X85624961Y-59208305D01*
X78324961Y-61208305D02*
X78324961Y-59208305D01*
%TO.C,D19*%
X214324897Y-51999976D02*
X214324897Y-49999976D01*
X214324897Y-49999976D02*
X221624897Y-49999976D01*
X221624897Y-51999976D02*
X214324897Y-51999976D01*
%TO.C,SW41*%
X98049954Y-13769992D02*
X98949954Y-13769992D01*
X97849954Y-15269992D02*
X97849954Y-13979992D01*
X102699954Y-16279992D02*
X102699954Y-17069992D01*
X95799954Y-17069992D02*
X95799954Y-16279992D01*
X97649954Y-18119992D02*
X99349954Y-18119992D01*
X96399954Y-15269992D02*
X102099954Y-15269992D01*
X100649954Y-18119992D02*
X100849954Y-18119992D01*
X99149954Y-13979992D02*
X98949954Y-13769992D01*
X99149954Y-13979992D02*
X99149954Y-15269992D01*
X97849954Y-13979992D02*
X98049954Y-13769992D01*
%TO.C,D10*%
X238624889Y-34999984D02*
X231324889Y-34999984D01*
X231324889Y-32999984D02*
X238624889Y-32999984D01*
X231324889Y-34999984D02*
X231324889Y-32999984D01*
%TO.C,D14*%
X129324937Y-51999976D02*
X129324937Y-49999976D01*
X136624937Y-51999976D02*
X129324937Y-51999976D01*
X129324937Y-49999976D02*
X136624937Y-49999976D01*
%TO.C,D6*%
X163324921Y-32999984D02*
X170624921Y-32999984D01*
X163324921Y-34999984D02*
X163324921Y-32999984D01*
X170624921Y-34999984D02*
X163324921Y-34999984D01*
%TO.C,D18*%
X197324905Y-49999976D02*
X204624905Y-49999976D01*
X204624905Y-51999976D02*
X197324905Y-51999976D01*
X197324905Y-51999976D02*
X197324905Y-49999976D01*
%TO.C,D16*%
X163324921Y-49999976D02*
X170624921Y-49999976D01*
X163324921Y-51999976D02*
X163324921Y-49999976D01*
X170624921Y-51999976D02*
X163324921Y-51999976D01*
%TO.C,D13*%
X112324945Y-49999976D02*
X119624945Y-49999976D01*
X112324945Y-51999976D02*
X112324945Y-49999976D01*
X119624945Y-51999976D02*
X112324945Y-51999976D01*
%TO.C,D25*%
X146324929Y-52833308D02*
X153624929Y-52833308D01*
X153624929Y-54833308D02*
X146324929Y-54833308D01*
X146324929Y-54833308D02*
X146324929Y-52833308D01*
%TO.C,D26*%
X170624921Y-54833308D02*
X163324921Y-54833308D01*
X163324921Y-54833308D02*
X163324921Y-52833308D01*
X163324921Y-52833308D02*
X170624921Y-52833308D01*
%TO.C,D1*%
X78324961Y-30749986D02*
X78324961Y-28749986D01*
X78324961Y-28749986D02*
X85624961Y-28749986D01*
X85624961Y-30749986D02*
X78324961Y-30749986D01*
%TO.C,D3*%
X112324945Y-32999984D02*
X119624945Y-32999984D01*
X119624945Y-34999984D02*
X112324945Y-34999984D01*
X112324945Y-34999984D02*
X112324945Y-32999984D01*
%TO.C,D7*%
X187624913Y-34999984D02*
X180324913Y-34999984D01*
X180324913Y-32999984D02*
X187624913Y-32999984D01*
X180324913Y-34999984D02*
X180324913Y-32999984D01*
%TO.C,D23*%
X112324945Y-52833308D02*
X119624945Y-52833308D01*
X112324945Y-54833308D02*
X112324945Y-52833308D01*
X119624945Y-54833308D02*
X112324945Y-54833308D01*
%TO.C,D17*%
X180324913Y-49999976D02*
X187624913Y-49999976D01*
X187624913Y-51999976D02*
X180324913Y-51999976D01*
X180324913Y-51999976D02*
X180324913Y-49999976D01*
%TO.C,J1*%
X214700000Y-71424967D02*
X213100000Y-71424967D01*
X210740000Y-72264967D02*
X210740000Y-71984967D01*
X209140000Y-73184967D02*
X209140000Y-72264967D01*
X216960000Y-73184967D02*
X209140000Y-73184967D01*
X216960000Y-67064967D02*
X216960000Y-73184967D01*
X214700000Y-72424967D02*
X214700000Y-71424967D01*
X214700000Y-68824967D02*
X216960000Y-68824967D01*
X213100000Y-67824967D02*
X214700000Y-67824967D01*
X212600000Y-70624967D02*
X216960000Y-70624967D01*
X210740000Y-68264967D02*
X209525000Y-68264967D01*
X214700000Y-68824967D02*
X213100000Y-68824967D01*
X209140000Y-72264967D02*
X210740000Y-72264967D01*
X210740000Y-68264967D02*
X210740000Y-67984967D01*
X213100000Y-72424967D02*
X214700000Y-72424967D01*
X214700000Y-68324967D02*
X216960000Y-68324967D01*
X213100000Y-71424967D02*
X213100000Y-72424967D01*
X209140000Y-67984967D02*
X209140000Y-67064967D01*
X210740000Y-73184967D02*
X210740000Y-72264967D01*
X210740000Y-67064967D02*
X210740000Y-67984967D01*
X214700000Y-67824967D02*
X214700000Y-68824967D01*
X210740000Y-67984967D02*
X209140000Y-67984967D01*
X213100000Y-68824967D02*
X213100000Y-67824967D01*
X216960000Y-69624967D02*
X212600000Y-69624967D01*
X212600000Y-69624967D02*
X212600000Y-70624967D01*
X209140000Y-67064967D02*
X216960000Y-67064967D01*
%TO.C,D12*%
X95324953Y-35833316D02*
X102624953Y-35833316D01*
X102624953Y-37833316D02*
X95324953Y-37833316D01*
X95324953Y-37833316D02*
X95324953Y-35833316D01*
%TO.C,D5*%
X146324929Y-32999984D02*
X153624929Y-32999984D01*
X153624929Y-34999984D02*
X146324929Y-34999984D01*
X146324929Y-34999984D02*
X146324929Y-32999984D01*
%TO.C,D37*%
X180324913Y-71124967D02*
X180324913Y-69124967D01*
X187624913Y-71124967D02*
X180324913Y-71124967D01*
X180324913Y-69124967D02*
X187624913Y-69124967D01*
%TO.C,D36*%
X170624921Y-71124967D02*
X163324921Y-71124967D01*
X163324921Y-71124967D02*
X163324921Y-69124967D01*
X163324921Y-69124967D02*
X170624921Y-69124967D01*
%TO.C,D20*%
X231324889Y-49999976D02*
X238624889Y-49999976D01*
X231324889Y-51999976D02*
X231324889Y-49999976D01*
X238624889Y-51999976D02*
X231324889Y-51999976D01*
%TO.C,D38*%
X197324905Y-69124967D02*
X204624905Y-69124967D01*
X204624905Y-71124967D02*
X197324905Y-71124967D01*
X197324905Y-71124967D02*
X197324905Y-69124967D01*
%TO.C,D2*%
X95324953Y-34999984D02*
X95324953Y-32999984D01*
X95324953Y-32999984D02*
X102624953Y-32999984D01*
X102624953Y-34999984D02*
X95324953Y-34999984D01*
%TD*%
M02*
