%TF.GenerationSoftware,KiCad,Pcbnew,(6.0.4-0)*%
%TF.CreationDate,2023-01-08T13:58:21-06:00*%
%TF.ProjectId,bancouver40_cfx,62616e63-6f75-4766-9572-34305f636678,rev?*%
%TF.SameCoordinates,Original*%
%TF.FileFunction,Legend,Top*%
%TF.FilePolarity,Positive*%
%FSLAX46Y46*%
G04 Gerber Fmt 4.6, Leading zero omitted, Abs format (unit mm)*
G04 Created by KiCad (PCBNEW (6.0.4-0)) date 2023-01-08 13:58:21*
%MOMM*%
%LPD*%
G01*
G04 APERTURE LIST*
%ADD10C,0.010000*%
%ADD11C,0.280000*%
%ADD12C,0.150000*%
G04 APERTURE END LIST*
D10*
G36*
X86876667Y-68568130D02*
G01*
X92278571Y-71686921D01*
X92278574Y-77924511D01*
X86876662Y-81043303D01*
X81474757Y-77924512D01*
X81474756Y-74902553D01*
X82382210Y-74902553D01*
X82386314Y-75096210D01*
X82398514Y-75287783D01*
X82418645Y-75477106D01*
X82446540Y-75664013D01*
X82482035Y-75848338D01*
X82524962Y-76029915D01*
X82575157Y-76208579D01*
X82632452Y-76384164D01*
X82696682Y-76556503D01*
X82767682Y-76725431D01*
X82845285Y-76890781D01*
X82929326Y-77052388D01*
X83019638Y-77210087D01*
X83116055Y-77363710D01*
X83218412Y-77513092D01*
X83326543Y-77658068D01*
X83341832Y-77552162D01*
X83360192Y-77447277D01*
X83381575Y-77343460D01*
X83405935Y-77240757D01*
X83433223Y-77139217D01*
X83463393Y-77038887D01*
X83496397Y-76939813D01*
X83532188Y-76842045D01*
X83570718Y-76745628D01*
X83611941Y-76650610D01*
X83655808Y-76557038D01*
X83702272Y-76464961D01*
X83721347Y-76429728D01*
X84814350Y-76429728D01*
X84814559Y-76438218D01*
X84815181Y-76446600D01*
X84816205Y-76454865D01*
X84817622Y-76463002D01*
X84819422Y-76471002D01*
X84821595Y-76478854D01*
X84824131Y-76486548D01*
X84827019Y-76494076D01*
X84830251Y-76501427D01*
X84833817Y-76508590D01*
X84837706Y-76515557D01*
X84841908Y-76522317D01*
X84846415Y-76528861D01*
X84851215Y-76535178D01*
X84856299Y-76541259D01*
X84861657Y-76547094D01*
X84867280Y-76552673D01*
X84873157Y-76557986D01*
X84879278Y-76563023D01*
X84885634Y-76567775D01*
X84892215Y-76572231D01*
X84899010Y-76576381D01*
X84906011Y-76580216D01*
X84913207Y-76583726D01*
X84920588Y-76586902D01*
X84928144Y-76589732D01*
X84935866Y-76592207D01*
X84943743Y-76594318D01*
X84951767Y-76596054D01*
X84959926Y-76597406D01*
X84968211Y-76598363D01*
X84976612Y-76598916D01*
X84976612Y-76599061D01*
X85514061Y-76599061D01*
X85514061Y-77136509D01*
X85514205Y-77136509D01*
X85514758Y-77144911D01*
X85515716Y-77153196D01*
X85517067Y-77161355D01*
X85518803Y-77169378D01*
X85520914Y-77177256D01*
X85523389Y-77184978D01*
X85526220Y-77192534D01*
X85529395Y-77199915D01*
X85532905Y-77207111D01*
X85536740Y-77214111D01*
X85540891Y-77220907D01*
X85545347Y-77227488D01*
X85550098Y-77233844D01*
X85555135Y-77239965D01*
X85560448Y-77245842D01*
X85566027Y-77251464D01*
X85571862Y-77256823D01*
X85577943Y-77261907D01*
X85584260Y-77266707D01*
X85590804Y-77271213D01*
X85597564Y-77275416D01*
X85604531Y-77279305D01*
X85611695Y-77282870D01*
X85619046Y-77286102D01*
X85626573Y-77288991D01*
X85634268Y-77291526D01*
X85642120Y-77293699D01*
X85650120Y-77295499D01*
X85658257Y-77296916D01*
X85666521Y-77297940D01*
X85674904Y-77298562D01*
X85683394Y-77298771D01*
X85691884Y-77298562D01*
X85700267Y-77297940D01*
X85708531Y-77296916D01*
X85716668Y-77295499D01*
X85724667Y-77293699D01*
X85732519Y-77291526D01*
X85740214Y-77288991D01*
X85747741Y-77286102D01*
X85755092Y-77282870D01*
X85762255Y-77279305D01*
X85769222Y-77275416D01*
X85775982Y-77271213D01*
X85782526Y-77266707D01*
X85788843Y-77261907D01*
X85794924Y-77256823D01*
X85800759Y-77251464D01*
X85806338Y-77245842D01*
X85811650Y-77239965D01*
X85816688Y-77233844D01*
X85821439Y-77227488D01*
X85825895Y-77220907D01*
X85830045Y-77214111D01*
X85833881Y-77207111D01*
X85837391Y-77199915D01*
X85840566Y-77192534D01*
X85843396Y-77184978D01*
X85845871Y-77177256D01*
X85847982Y-77169378D01*
X85849718Y-77161355D01*
X85851070Y-77153196D01*
X85852027Y-77144911D01*
X85852581Y-77136509D01*
X85852726Y-77136509D01*
X85852726Y-76927795D01*
X87405888Y-76927795D01*
X87406225Y-76935709D01*
X87406930Y-76943604D01*
X87408003Y-76951466D01*
X87409443Y-76959279D01*
X87411252Y-76967031D01*
X87413429Y-76974707D01*
X87415973Y-76982294D01*
X87418885Y-76989777D01*
X87422165Y-76997142D01*
X87425813Y-77004376D01*
X87429829Y-77011465D01*
X87434213Y-77018394D01*
X87438965Y-77025150D01*
X87444085Y-77031718D01*
X87449572Y-77038085D01*
X87455428Y-77044236D01*
X87461580Y-77050092D01*
X87467947Y-77055579D01*
X87474515Y-77060699D01*
X87481270Y-77065451D01*
X87488200Y-77069834D01*
X87495288Y-77073850D01*
X87502522Y-77077498D01*
X87509888Y-77080778D01*
X87517371Y-77083691D01*
X87524957Y-77086235D01*
X87532633Y-77088411D01*
X87540385Y-77090220D01*
X87548199Y-77091660D01*
X87556060Y-77092733D01*
X87563955Y-77093438D01*
X87571870Y-77093775D01*
X87579790Y-77093744D01*
X87587703Y-77093345D01*
X87595593Y-77092578D01*
X87603447Y-77091444D01*
X87611251Y-77089941D01*
X87618992Y-77088071D01*
X87626654Y-77085832D01*
X87634224Y-77083226D01*
X87641688Y-77080252D01*
X87649032Y-77076910D01*
X87656243Y-77073200D01*
X87663305Y-77069122D01*
X87670206Y-77064677D01*
X87676931Y-77059863D01*
X87683467Y-77054682D01*
X87689798Y-77049132D01*
X87689850Y-77049184D01*
X87689901Y-77049236D01*
X88069936Y-76669203D01*
X88444970Y-77044236D01*
X88449968Y-77049236D01*
X88449995Y-77049210D01*
X88450021Y-77049184D01*
X88450046Y-77049158D01*
X88450058Y-77049145D01*
X88450071Y-77049132D01*
X88456403Y-77054682D01*
X88462938Y-77059863D01*
X88469663Y-77064677D01*
X88476564Y-77069122D01*
X88483627Y-77073200D01*
X88490838Y-77076910D01*
X88498182Y-77080252D01*
X88505647Y-77083226D01*
X88513217Y-77085832D01*
X88520879Y-77088071D01*
X88528619Y-77089941D01*
X88536423Y-77091444D01*
X88544278Y-77092578D01*
X88552168Y-77093345D01*
X88560080Y-77093744D01*
X88568001Y-77093775D01*
X88575916Y-77093438D01*
X88583811Y-77092733D01*
X88591672Y-77091660D01*
X88599485Y-77090220D01*
X88607237Y-77088411D01*
X88614913Y-77086235D01*
X88622500Y-77083691D01*
X88629983Y-77080778D01*
X88637349Y-77077498D01*
X88644582Y-77073850D01*
X88651671Y-77069834D01*
X88658600Y-77065451D01*
X88665356Y-77060699D01*
X88671924Y-77055579D01*
X88678291Y-77050092D01*
X88684443Y-77044236D01*
X88690298Y-77038085D01*
X88695785Y-77031718D01*
X88700905Y-77025150D01*
X88705657Y-77018394D01*
X88710041Y-77011465D01*
X88714056Y-77004376D01*
X88717704Y-76997142D01*
X88720985Y-76989777D01*
X88723897Y-76982294D01*
X88726441Y-76974707D01*
X88728618Y-76967031D01*
X88730426Y-76959279D01*
X88731867Y-76951466D01*
X88732940Y-76943604D01*
X88733645Y-76935709D01*
X88733982Y-76927795D01*
X88733951Y-76919874D01*
X88733552Y-76911962D01*
X88732785Y-76904072D01*
X88731650Y-76896217D01*
X88730148Y-76888413D01*
X88728278Y-76880673D01*
X88726039Y-76873011D01*
X88723433Y-76865441D01*
X88720459Y-76857977D01*
X88717117Y-76850632D01*
X88713407Y-76843422D01*
X88709329Y-76836359D01*
X88704884Y-76829458D01*
X88700070Y-76822733D01*
X88694888Y-76816198D01*
X88689339Y-76809866D01*
X88689443Y-76809762D01*
X88684443Y-76804763D01*
X88309407Y-76429729D01*
X88684443Y-76054696D01*
X88689443Y-76049696D01*
X88689417Y-76049669D01*
X88689391Y-76049644D01*
X88689339Y-76049592D01*
X88694888Y-76043260D01*
X88700070Y-76036725D01*
X88704884Y-76030000D01*
X88709329Y-76023099D01*
X88713407Y-76016036D01*
X88717117Y-76008826D01*
X88720459Y-76001482D01*
X88723433Y-75994017D01*
X88726039Y-75986447D01*
X88728278Y-75978785D01*
X88730148Y-75971045D01*
X88731650Y-75963241D01*
X88732785Y-75955387D01*
X88733552Y-75947496D01*
X88733951Y-75939584D01*
X88733982Y-75931663D01*
X88733645Y-75923749D01*
X88732940Y-75915854D01*
X88731867Y-75907992D01*
X88730426Y-75900179D01*
X88728618Y-75892427D01*
X88726441Y-75884751D01*
X88723897Y-75877164D01*
X88720985Y-75869681D01*
X88717704Y-75862316D01*
X88714056Y-75855082D01*
X88710041Y-75847993D01*
X88705657Y-75841064D01*
X88700905Y-75834309D01*
X88695785Y-75827740D01*
X88690298Y-75821373D01*
X88684443Y-75815222D01*
X88678291Y-75809366D01*
X88671924Y-75803879D01*
X88665355Y-75798759D01*
X88658600Y-75794007D01*
X88651670Y-75789623D01*
X88644582Y-75785607D01*
X88637348Y-75781959D01*
X88629982Y-75778679D01*
X88622499Y-75775767D01*
X88614913Y-75773222D01*
X88607237Y-75771046D01*
X88599485Y-75769237D01*
X88591671Y-75767797D01*
X88583810Y-75766724D01*
X88575915Y-75766019D01*
X88568000Y-75765682D01*
X88560080Y-75765713D01*
X88552168Y-75766112D01*
X88544277Y-75766878D01*
X88536423Y-75768013D01*
X88528619Y-75769516D01*
X88520879Y-75771386D01*
X88513217Y-75773624D01*
X88505646Y-75776230D01*
X88498182Y-75779204D01*
X88490838Y-75782546D01*
X88483627Y-75786256D01*
X88476564Y-75790334D01*
X88469663Y-75794780D01*
X88462938Y-75799593D01*
X88456403Y-75804774D01*
X88450071Y-75810324D01*
X88450020Y-75810272D01*
X88449994Y-75810246D01*
X88449980Y-75810233D01*
X88449967Y-75810221D01*
X88445118Y-75815074D01*
X88445080Y-75815111D01*
X88445044Y-75815148D01*
X88444971Y-75815222D01*
X88069936Y-76190255D01*
X87694902Y-75815220D01*
X87689901Y-75810221D01*
X87689798Y-75810324D01*
X87683467Y-75804774D01*
X87676931Y-75799593D01*
X87670206Y-75794779D01*
X87663305Y-75790334D01*
X87656243Y-75786256D01*
X87649032Y-75782546D01*
X87641688Y-75779204D01*
X87634224Y-75776230D01*
X87626654Y-75773624D01*
X87618992Y-75771385D01*
X87611251Y-75769515D01*
X87603447Y-75768012D01*
X87595593Y-75766878D01*
X87587703Y-75766111D01*
X87579790Y-75765712D01*
X87571870Y-75765681D01*
X87563955Y-75766018D01*
X87556060Y-75766723D01*
X87548199Y-75767796D01*
X87540385Y-75769237D01*
X87532633Y-75771045D01*
X87524957Y-75773222D01*
X87517371Y-75775766D01*
X87509888Y-75778678D01*
X87502522Y-75781958D01*
X87495288Y-75785606D01*
X87488200Y-75789622D01*
X87481270Y-75794006D01*
X87474515Y-75798758D01*
X87467947Y-75803877D01*
X87461580Y-75809365D01*
X87455428Y-75815220D01*
X87449572Y-75821372D01*
X87444085Y-75827739D01*
X87438965Y-75834307D01*
X87434213Y-75841063D01*
X87429829Y-75847992D01*
X87425813Y-75855081D01*
X87422165Y-75862315D01*
X87418885Y-75869680D01*
X87415973Y-75877164D01*
X87413429Y-75884750D01*
X87411252Y-75892426D01*
X87409443Y-75900178D01*
X87408003Y-75907992D01*
X87406930Y-75915853D01*
X87406225Y-75923748D01*
X87405888Y-75931663D01*
X87405919Y-75939583D01*
X87406318Y-75947496D01*
X87407085Y-75955386D01*
X87408219Y-75963240D01*
X87409722Y-75971044D01*
X87411592Y-75978784D01*
X87413830Y-75986446D01*
X87416437Y-75994017D01*
X87419411Y-76001481D01*
X87422753Y-76008825D01*
X87426462Y-76016036D01*
X87430540Y-76023099D01*
X87434986Y-76030000D01*
X87439799Y-76036725D01*
X87444981Y-76043260D01*
X87450530Y-76049592D01*
X87450428Y-76049694D01*
X87455428Y-76054694D01*
X87830462Y-76429729D01*
X87450429Y-76809762D01*
X87450530Y-76809866D01*
X87444981Y-76816198D01*
X87439799Y-76822733D01*
X87434986Y-76829458D01*
X87430540Y-76836359D01*
X87426462Y-76843422D01*
X87422753Y-76850632D01*
X87419411Y-76857977D01*
X87416437Y-76865441D01*
X87413830Y-76873011D01*
X87411592Y-76880673D01*
X87409722Y-76888413D01*
X87408219Y-76896217D01*
X87407085Y-76904072D01*
X87406318Y-76911962D01*
X87405919Y-76919874D01*
X87405888Y-76927795D01*
X85852726Y-76927795D01*
X85852726Y-76599061D01*
X86390175Y-76599061D01*
X86390175Y-76598916D01*
X86398576Y-76598363D01*
X86406861Y-76597406D01*
X86415020Y-76596054D01*
X86423044Y-76594318D01*
X86430921Y-76592207D01*
X86438643Y-76589732D01*
X86446199Y-76586902D01*
X86453580Y-76583726D01*
X86460776Y-76580216D01*
X86467777Y-76576381D01*
X86474572Y-76572231D01*
X86481153Y-76567775D01*
X86487509Y-76563023D01*
X86493630Y-76557986D01*
X86499507Y-76552673D01*
X86505130Y-76547094D01*
X86510488Y-76541259D01*
X86515572Y-76535178D01*
X86520372Y-76528861D01*
X86524879Y-76522317D01*
X86529081Y-76515557D01*
X86532970Y-76508590D01*
X86536536Y-76501427D01*
X86539768Y-76494076D01*
X86542656Y-76486548D01*
X86545192Y-76478854D01*
X86547365Y-76471002D01*
X86549164Y-76463002D01*
X86550581Y-76454865D01*
X86551606Y-76446600D01*
X86552228Y-76438218D01*
X86552437Y-76429728D01*
X86552228Y-76421237D01*
X86551606Y-76412855D01*
X86550581Y-76404590D01*
X86549164Y-76396453D01*
X86547365Y-76388454D01*
X86545192Y-76380602D01*
X86542656Y-76372907D01*
X86539768Y-76365379D01*
X86536536Y-76358029D01*
X86532970Y-76350865D01*
X86529081Y-76343898D01*
X86524879Y-76337138D01*
X86520372Y-76330594D01*
X86515572Y-76324277D01*
X86510488Y-76318196D01*
X86505130Y-76312361D01*
X86499507Y-76306782D01*
X86493630Y-76301469D01*
X86487509Y-76296432D01*
X86481153Y-76291680D01*
X86474572Y-76287224D01*
X86467777Y-76283074D01*
X86460776Y-76279239D01*
X86453580Y-76275729D01*
X86446199Y-76272554D01*
X86438643Y-76269723D01*
X86430921Y-76267248D01*
X86423044Y-76265137D01*
X86415020Y-76263401D01*
X86406861Y-76262050D01*
X86398576Y-76261092D01*
X86390175Y-76260539D01*
X86390175Y-76260395D01*
X86383313Y-76260397D01*
X85852726Y-76260397D01*
X85852726Y-75722946D01*
X85852582Y-75722946D01*
X85852029Y-75714545D01*
X85851071Y-75706260D01*
X85849720Y-75698101D01*
X85847984Y-75690077D01*
X85845873Y-75682200D01*
X85843397Y-75674478D01*
X85840567Y-75666922D01*
X85837392Y-75659541D01*
X85833882Y-75652345D01*
X85830047Y-75645344D01*
X85825896Y-75638549D01*
X85821440Y-75631968D01*
X85816689Y-75625612D01*
X85811651Y-75619490D01*
X85806338Y-75613613D01*
X85800760Y-75607991D01*
X85794925Y-75602633D01*
X85788844Y-75597548D01*
X85782526Y-75592748D01*
X85775983Y-75588242D01*
X85769222Y-75584039D01*
X85762255Y-75580150D01*
X85755092Y-75576585D01*
X85747741Y-75573353D01*
X85740214Y-75570464D01*
X85732519Y-75567928D01*
X85724667Y-75565756D01*
X85716668Y-75563956D01*
X85708531Y-75562539D01*
X85700267Y-75561514D01*
X85691884Y-75560893D01*
X85683394Y-75560683D01*
X85674904Y-75560893D01*
X85666521Y-75561514D01*
X85658257Y-75562539D01*
X85650120Y-75563956D01*
X85642120Y-75565756D01*
X85634268Y-75567928D01*
X85626573Y-75570464D01*
X85619046Y-75573353D01*
X85611695Y-75576585D01*
X85604531Y-75580150D01*
X85597564Y-75584039D01*
X85590804Y-75588242D01*
X85584260Y-75592748D01*
X85577943Y-75597548D01*
X85571862Y-75602633D01*
X85566027Y-75607991D01*
X85560448Y-75613613D01*
X85555135Y-75619490D01*
X85550098Y-75625612D01*
X85545347Y-75631968D01*
X85540891Y-75638549D01*
X85536740Y-75645344D01*
X85532905Y-75652345D01*
X85529395Y-75659541D01*
X85526220Y-75666922D01*
X85523389Y-75674478D01*
X85520914Y-75682200D01*
X85518803Y-75690077D01*
X85517067Y-75698101D01*
X85515716Y-75706260D01*
X85514758Y-75714545D01*
X85514205Y-75722946D01*
X85514061Y-75722946D01*
X85514061Y-76260395D01*
X84976612Y-76260395D01*
X84976612Y-76260540D01*
X84968210Y-76261094D01*
X84959925Y-76262051D01*
X84951766Y-76263403D01*
X84943743Y-76265139D01*
X84935865Y-76267250D01*
X84928143Y-76269725D01*
X84920587Y-76272555D01*
X84913206Y-76275730D01*
X84906010Y-76279240D01*
X84899010Y-76283075D01*
X84892214Y-76287226D01*
X84885633Y-76291682D01*
X84879277Y-76296433D01*
X84873156Y-76301470D01*
X84867279Y-76306783D01*
X84861657Y-76312362D01*
X84856298Y-76318197D01*
X84851214Y-76324278D01*
X84846414Y-76330595D01*
X84841908Y-76337139D01*
X84837705Y-76343899D01*
X84833816Y-76350866D01*
X84830251Y-76358029D01*
X84827019Y-76365380D01*
X84824130Y-76372908D01*
X84821595Y-76380602D01*
X84819422Y-76388454D01*
X84817622Y-76396454D01*
X84816205Y-76404590D01*
X84815181Y-76412855D01*
X84814559Y-76421237D01*
X84814350Y-76429728D01*
X83721347Y-76429728D01*
X83751286Y-76374425D01*
X83802803Y-76285477D01*
X83856775Y-76198166D01*
X83913155Y-76112538D01*
X83841884Y-76055618D01*
X83773998Y-75994820D01*
X83709664Y-75930310D01*
X83649051Y-75862255D01*
X83592325Y-75790823D01*
X83539653Y-75716182D01*
X83491203Y-75638498D01*
X83447143Y-75557940D01*
X83407640Y-75474673D01*
X83372860Y-75388867D01*
X83342973Y-75300688D01*
X83318144Y-75210303D01*
X83298541Y-75117880D01*
X83284332Y-75023587D01*
X83275683Y-74927590D01*
X83272763Y-74830058D01*
X83274852Y-74747520D01*
X83281053Y-74666061D01*
X83291263Y-74585782D01*
X83305383Y-74506784D01*
X83323311Y-74429168D01*
X83344946Y-74353036D01*
X83370187Y-74278488D01*
X83398933Y-74205625D01*
X83431082Y-74134549D01*
X83466535Y-74065360D01*
X83505188Y-73998160D01*
X83546942Y-73933050D01*
X83591696Y-73870131D01*
X83639348Y-73809503D01*
X83689797Y-73751269D01*
X83742943Y-73695528D01*
X83798683Y-73642383D01*
X83856918Y-73591933D01*
X83917545Y-73544281D01*
X83980465Y-73499528D01*
X84045575Y-73457774D01*
X84112775Y-73419120D01*
X84181964Y-73383668D01*
X84253040Y-73351519D01*
X84325902Y-73322773D01*
X84400451Y-73297532D01*
X84476583Y-73275897D01*
X84554199Y-73257969D01*
X84633196Y-73243849D01*
X84713475Y-73233638D01*
X84794934Y-73227438D01*
X84877472Y-73225348D01*
X84951633Y-73227034D01*
X85024931Y-73232043D01*
X85097295Y-73240302D01*
X85168651Y-73251738D01*
X85238926Y-73266277D01*
X85308047Y-73283847D01*
X85375940Y-73304373D01*
X85442532Y-73327784D01*
X85507751Y-73354006D01*
X85571522Y-73382965D01*
X85633774Y-73414589D01*
X85694432Y-73448804D01*
X85753423Y-73485537D01*
X85810675Y-73524716D01*
X85866114Y-73566266D01*
X85919667Y-73610114D01*
X85971261Y-73656189D01*
X86020822Y-73704415D01*
X86068278Y-73754720D01*
X86113554Y-73807032D01*
X86156579Y-73861276D01*
X86197279Y-73917380D01*
X86235581Y-73975270D01*
X86271411Y-74034873D01*
X86304696Y-74096116D01*
X86335364Y-74158927D01*
X86363340Y-74223230D01*
X86388553Y-74288955D01*
X86410928Y-74356027D01*
X86430392Y-74424372D01*
X86446873Y-74493919D01*
X86460297Y-74564594D01*
X86511631Y-74559014D01*
X86563178Y-74554161D01*
X86614934Y-74550040D01*
X86666894Y-74546657D01*
X86719052Y-74544016D01*
X86771403Y-74542124D01*
X86823942Y-74540984D01*
X86876664Y-74540603D01*
X86876665Y-74540603D01*
X86925828Y-74540935D01*
X86974832Y-74541925D01*
X87023674Y-74543572D01*
X87072349Y-74545869D01*
X87120853Y-74548814D01*
X87169182Y-74552401D01*
X87217332Y-74556627D01*
X87265297Y-74561487D01*
X87277929Y-74489836D01*
X87293695Y-74419312D01*
X87312522Y-74349991D01*
X87334334Y-74281948D01*
X87359056Y-74215257D01*
X87386612Y-74149996D01*
X87416927Y-74086237D01*
X87449927Y-74024058D01*
X87485535Y-73963532D01*
X87523677Y-73904736D01*
X87564277Y-73847744D01*
X87607260Y-73792632D01*
X87652551Y-73739475D01*
X87700075Y-73688349D01*
X87749756Y-73639327D01*
X87801520Y-73592487D01*
X87855290Y-73547902D01*
X87910992Y-73505649D01*
X87968550Y-73465802D01*
X88027890Y-73428436D01*
X88088936Y-73393628D01*
X88151612Y-73361451D01*
X88215844Y-73331982D01*
X88281556Y-73305296D01*
X88348674Y-73281467D01*
X88417121Y-73260571D01*
X88486822Y-73242684D01*
X88557703Y-73227880D01*
X88629688Y-73216235D01*
X88702702Y-73207824D01*
X88776670Y-73202723D01*
X88851516Y-73201005D01*
X88934053Y-73203095D01*
X89015512Y-73209295D01*
X89095791Y-73219506D01*
X89174789Y-73233626D01*
X89252405Y-73251554D01*
X89328537Y-73273189D01*
X89403085Y-73298430D01*
X89475948Y-73327175D01*
X89547024Y-73359325D01*
X89616212Y-73394777D01*
X89683412Y-73433431D01*
X89748522Y-73475185D01*
X89811442Y-73519938D01*
X89872069Y-73567590D01*
X89930304Y-73618040D01*
X89986045Y-73671185D01*
X90039190Y-73726925D01*
X90089639Y-73785160D01*
X90137291Y-73845788D01*
X90182045Y-73908707D01*
X90223799Y-73973817D01*
X90262453Y-74041017D01*
X90297905Y-74110206D01*
X90330054Y-74181282D01*
X90358800Y-74254145D01*
X90384041Y-74328693D01*
X90405676Y-74404825D01*
X90423604Y-74482441D01*
X90437724Y-74561439D01*
X90447934Y-74641718D01*
X90454135Y-74723177D01*
X90456224Y-74805715D01*
X90453330Y-74902830D01*
X90444755Y-74998423D01*
X90430666Y-75092328D01*
X90411228Y-75184382D01*
X90386605Y-75274417D01*
X90356964Y-75362270D01*
X90322469Y-75447774D01*
X90283286Y-75530765D01*
X90239580Y-75611078D01*
X90191515Y-75688547D01*
X90139258Y-75763007D01*
X90082974Y-75834293D01*
X90022827Y-75902240D01*
X89958982Y-75966682D01*
X89891606Y-76027454D01*
X89820864Y-76084391D01*
X89879201Y-76171238D01*
X89935044Y-76259854D01*
X89988343Y-76350189D01*
X90039047Y-76442193D01*
X90087107Y-76535815D01*
X90132471Y-76631006D01*
X90175089Y-76727714D01*
X90214912Y-76825889D01*
X90251888Y-76925482D01*
X90285967Y-77026441D01*
X90317098Y-77128716D01*
X90345233Y-77232256D01*
X90370319Y-77337013D01*
X90392307Y-77442934D01*
X90411146Y-77549969D01*
X90426786Y-77658069D01*
X90534917Y-77513094D01*
X90637274Y-77363711D01*
X90733691Y-77210088D01*
X90824004Y-77052390D01*
X90908044Y-76890782D01*
X90985647Y-76725432D01*
X91056647Y-76556504D01*
X91120878Y-76384165D01*
X91178173Y-76208580D01*
X91228368Y-76029916D01*
X91271295Y-75848338D01*
X91306790Y-75664013D01*
X91334685Y-75477106D01*
X91354816Y-75287783D01*
X91367016Y-75096210D01*
X91371120Y-74902553D01*
X91365268Y-74671382D01*
X91347902Y-74443232D01*
X91319303Y-74218387D01*
X91279756Y-73997131D01*
X91229544Y-73779746D01*
X91168949Y-73566515D01*
X91098254Y-73357721D01*
X91017743Y-73153648D01*
X90927700Y-72954578D01*
X90828406Y-72760796D01*
X90720145Y-72572583D01*
X90603200Y-72390223D01*
X90477855Y-72213999D01*
X90344392Y-72044193D01*
X90203094Y-71881091D01*
X90054245Y-71724973D01*
X89898127Y-71576124D01*
X89735024Y-71434826D01*
X89565219Y-71301363D01*
X89388995Y-71176018D01*
X89206635Y-71059073D01*
X89018422Y-70950812D01*
X88824639Y-70851518D01*
X88625570Y-70761475D01*
X88421497Y-70680964D01*
X88212703Y-70610270D01*
X87999472Y-70549675D01*
X87782087Y-70499462D01*
X87560831Y-70459915D01*
X87335986Y-70431317D01*
X87107837Y-70413950D01*
X86876665Y-70408098D01*
X86645494Y-70413950D01*
X86417344Y-70431317D01*
X86192500Y-70459915D01*
X85971243Y-70499462D01*
X85753858Y-70549675D01*
X85540627Y-70610270D01*
X85331834Y-70680964D01*
X85127761Y-70761475D01*
X84928691Y-70851518D01*
X84734908Y-70950812D01*
X84546695Y-71059073D01*
X84364335Y-71176018D01*
X84188111Y-71301363D01*
X84018306Y-71434826D01*
X83855203Y-71576124D01*
X83699086Y-71724973D01*
X83550236Y-71881091D01*
X83408939Y-72044193D01*
X83275476Y-72213999D01*
X83150130Y-72390223D01*
X83033185Y-72572583D01*
X82924924Y-72760796D01*
X82825631Y-72954578D01*
X82735587Y-73153648D01*
X82655076Y-73357721D01*
X82584382Y-73566515D01*
X82523787Y-73779746D01*
X82473574Y-73997131D01*
X82434027Y-74218387D01*
X82405429Y-74443232D01*
X82388062Y-74671382D01*
X82382210Y-74902553D01*
X81474756Y-74902553D01*
X81474755Y-71686923D01*
X86876667Y-68568130D01*
G37*
X86876667Y-68568130D02*
X92278571Y-71686921D01*
X92278574Y-77924511D01*
X86876662Y-81043303D01*
X81474757Y-77924512D01*
X81474756Y-74902553D01*
X82382210Y-74902553D01*
X82386314Y-75096210D01*
X82398514Y-75287783D01*
X82418645Y-75477106D01*
X82446540Y-75664013D01*
X82482035Y-75848338D01*
X82524962Y-76029915D01*
X82575157Y-76208579D01*
X82632452Y-76384164D01*
X82696682Y-76556503D01*
X82767682Y-76725431D01*
X82845285Y-76890781D01*
X82929326Y-77052388D01*
X83019638Y-77210087D01*
X83116055Y-77363710D01*
X83218412Y-77513092D01*
X83326543Y-77658068D01*
X83341832Y-77552162D01*
X83360192Y-77447277D01*
X83381575Y-77343460D01*
X83405935Y-77240757D01*
X83433223Y-77139217D01*
X83463393Y-77038887D01*
X83496397Y-76939813D01*
X83532188Y-76842045D01*
X83570718Y-76745628D01*
X83611941Y-76650610D01*
X83655808Y-76557038D01*
X83702272Y-76464961D01*
X83721347Y-76429728D01*
X84814350Y-76429728D01*
X84814559Y-76438218D01*
X84815181Y-76446600D01*
X84816205Y-76454865D01*
X84817622Y-76463002D01*
X84819422Y-76471002D01*
X84821595Y-76478854D01*
X84824131Y-76486548D01*
X84827019Y-76494076D01*
X84830251Y-76501427D01*
X84833817Y-76508590D01*
X84837706Y-76515557D01*
X84841908Y-76522317D01*
X84846415Y-76528861D01*
X84851215Y-76535178D01*
X84856299Y-76541259D01*
X84861657Y-76547094D01*
X84867280Y-76552673D01*
X84873157Y-76557986D01*
X84879278Y-76563023D01*
X84885634Y-76567775D01*
X84892215Y-76572231D01*
X84899010Y-76576381D01*
X84906011Y-76580216D01*
X84913207Y-76583726D01*
X84920588Y-76586902D01*
X84928144Y-76589732D01*
X84935866Y-76592207D01*
X84943743Y-76594318D01*
X84951767Y-76596054D01*
X84959926Y-76597406D01*
X84968211Y-76598363D01*
X84976612Y-76598916D01*
X84976612Y-76599061D01*
X85514061Y-76599061D01*
X85514061Y-77136509D01*
X85514205Y-77136509D01*
X85514758Y-77144911D01*
X85515716Y-77153196D01*
X85517067Y-77161355D01*
X85518803Y-77169378D01*
X85520914Y-77177256D01*
X85523389Y-77184978D01*
X85526220Y-77192534D01*
X85529395Y-77199915D01*
X85532905Y-77207111D01*
X85536740Y-77214111D01*
X85540891Y-77220907D01*
X85545347Y-77227488D01*
X85550098Y-77233844D01*
X85555135Y-77239965D01*
X85560448Y-77245842D01*
X85566027Y-77251464D01*
X85571862Y-77256823D01*
X85577943Y-77261907D01*
X85584260Y-77266707D01*
X85590804Y-77271213D01*
X85597564Y-77275416D01*
X85604531Y-77279305D01*
X85611695Y-77282870D01*
X85619046Y-77286102D01*
X85626573Y-77288991D01*
X85634268Y-77291526D01*
X85642120Y-77293699D01*
X85650120Y-77295499D01*
X85658257Y-77296916D01*
X85666521Y-77297940D01*
X85674904Y-77298562D01*
X85683394Y-77298771D01*
X85691884Y-77298562D01*
X85700267Y-77297940D01*
X85708531Y-77296916D01*
X85716668Y-77295499D01*
X85724667Y-77293699D01*
X85732519Y-77291526D01*
X85740214Y-77288991D01*
X85747741Y-77286102D01*
X85755092Y-77282870D01*
X85762255Y-77279305D01*
X85769222Y-77275416D01*
X85775982Y-77271213D01*
X85782526Y-77266707D01*
X85788843Y-77261907D01*
X85794924Y-77256823D01*
X85800759Y-77251464D01*
X85806338Y-77245842D01*
X85811650Y-77239965D01*
X85816688Y-77233844D01*
X85821439Y-77227488D01*
X85825895Y-77220907D01*
X85830045Y-77214111D01*
X85833881Y-77207111D01*
X85837391Y-77199915D01*
X85840566Y-77192534D01*
X85843396Y-77184978D01*
X85845871Y-77177256D01*
X85847982Y-77169378D01*
X85849718Y-77161355D01*
X85851070Y-77153196D01*
X85852027Y-77144911D01*
X85852581Y-77136509D01*
X85852726Y-77136509D01*
X85852726Y-76927795D01*
X87405888Y-76927795D01*
X87406225Y-76935709D01*
X87406930Y-76943604D01*
X87408003Y-76951466D01*
X87409443Y-76959279D01*
X87411252Y-76967031D01*
X87413429Y-76974707D01*
X87415973Y-76982294D01*
X87418885Y-76989777D01*
X87422165Y-76997142D01*
X87425813Y-77004376D01*
X87429829Y-77011465D01*
X87434213Y-77018394D01*
X87438965Y-77025150D01*
X87444085Y-77031718D01*
X87449572Y-77038085D01*
X87455428Y-77044236D01*
X87461580Y-77050092D01*
X87467947Y-77055579D01*
X87474515Y-77060699D01*
X87481270Y-77065451D01*
X87488200Y-77069834D01*
X87495288Y-77073850D01*
X87502522Y-77077498D01*
X87509888Y-77080778D01*
X87517371Y-77083691D01*
X87524957Y-77086235D01*
X87532633Y-77088411D01*
X87540385Y-77090220D01*
X87548199Y-77091660D01*
X87556060Y-77092733D01*
X87563955Y-77093438D01*
X87571870Y-77093775D01*
X87579790Y-77093744D01*
X87587703Y-77093345D01*
X87595593Y-77092578D01*
X87603447Y-77091444D01*
X87611251Y-77089941D01*
X87618992Y-77088071D01*
X87626654Y-77085832D01*
X87634224Y-77083226D01*
X87641688Y-77080252D01*
X87649032Y-77076910D01*
X87656243Y-77073200D01*
X87663305Y-77069122D01*
X87670206Y-77064677D01*
X87676931Y-77059863D01*
X87683467Y-77054682D01*
X87689798Y-77049132D01*
X87689850Y-77049184D01*
X87689901Y-77049236D01*
X88069936Y-76669203D01*
X88444970Y-77044236D01*
X88449968Y-77049236D01*
X88449995Y-77049210D01*
X88450021Y-77049184D01*
X88450046Y-77049158D01*
X88450058Y-77049145D01*
X88450071Y-77049132D01*
X88456403Y-77054682D01*
X88462938Y-77059863D01*
X88469663Y-77064677D01*
X88476564Y-77069122D01*
X88483627Y-77073200D01*
X88490838Y-77076910D01*
X88498182Y-77080252D01*
X88505647Y-77083226D01*
X88513217Y-77085832D01*
X88520879Y-77088071D01*
X88528619Y-77089941D01*
X88536423Y-77091444D01*
X88544278Y-77092578D01*
X88552168Y-77093345D01*
X88560080Y-77093744D01*
X88568001Y-77093775D01*
X88575916Y-77093438D01*
X88583811Y-77092733D01*
X88591672Y-77091660D01*
X88599485Y-77090220D01*
X88607237Y-77088411D01*
X88614913Y-77086235D01*
X88622500Y-77083691D01*
X88629983Y-77080778D01*
X88637349Y-77077498D01*
X88644582Y-77073850D01*
X88651671Y-77069834D01*
X88658600Y-77065451D01*
X88665356Y-77060699D01*
X88671924Y-77055579D01*
X88678291Y-77050092D01*
X88684443Y-77044236D01*
X88690298Y-77038085D01*
X88695785Y-77031718D01*
X88700905Y-77025150D01*
X88705657Y-77018394D01*
X88710041Y-77011465D01*
X88714056Y-77004376D01*
X88717704Y-76997142D01*
X88720985Y-76989777D01*
X88723897Y-76982294D01*
X88726441Y-76974707D01*
X88728618Y-76967031D01*
X88730426Y-76959279D01*
X88731867Y-76951466D01*
X88732940Y-76943604D01*
X88733645Y-76935709D01*
X88733982Y-76927795D01*
X88733951Y-76919874D01*
X88733552Y-76911962D01*
X88732785Y-76904072D01*
X88731650Y-76896217D01*
X88730148Y-76888413D01*
X88728278Y-76880673D01*
X88726039Y-76873011D01*
X88723433Y-76865441D01*
X88720459Y-76857977D01*
X88717117Y-76850632D01*
X88713407Y-76843422D01*
X88709329Y-76836359D01*
X88704884Y-76829458D01*
X88700070Y-76822733D01*
X88694888Y-76816198D01*
X88689339Y-76809866D01*
X88689443Y-76809762D01*
X88684443Y-76804763D01*
X88309407Y-76429729D01*
X88684443Y-76054696D01*
X88689443Y-76049696D01*
X88689417Y-76049669D01*
X88689391Y-76049644D01*
X88689339Y-76049592D01*
X88694888Y-76043260D01*
X88700070Y-76036725D01*
X88704884Y-76030000D01*
X88709329Y-76023099D01*
X88713407Y-76016036D01*
X88717117Y-76008826D01*
X88720459Y-76001482D01*
X88723433Y-75994017D01*
X88726039Y-75986447D01*
X88728278Y-75978785D01*
X88730148Y-75971045D01*
X88731650Y-75963241D01*
X88732785Y-75955387D01*
X88733552Y-75947496D01*
X88733951Y-75939584D01*
X88733982Y-75931663D01*
X88733645Y-75923749D01*
X88732940Y-75915854D01*
X88731867Y-75907992D01*
X88730426Y-75900179D01*
X88728618Y-75892427D01*
X88726441Y-75884751D01*
X88723897Y-75877164D01*
X88720985Y-75869681D01*
X88717704Y-75862316D01*
X88714056Y-75855082D01*
X88710041Y-75847993D01*
X88705657Y-75841064D01*
X88700905Y-75834309D01*
X88695785Y-75827740D01*
X88690298Y-75821373D01*
X88684443Y-75815222D01*
X88678291Y-75809366D01*
X88671924Y-75803879D01*
X88665355Y-75798759D01*
X88658600Y-75794007D01*
X88651670Y-75789623D01*
X88644582Y-75785607D01*
X88637348Y-75781959D01*
X88629982Y-75778679D01*
X88622499Y-75775767D01*
X88614913Y-75773222D01*
X88607237Y-75771046D01*
X88599485Y-75769237D01*
X88591671Y-75767797D01*
X88583810Y-75766724D01*
X88575915Y-75766019D01*
X88568000Y-75765682D01*
X88560080Y-75765713D01*
X88552168Y-75766112D01*
X88544277Y-75766878D01*
X88536423Y-75768013D01*
X88528619Y-75769516D01*
X88520879Y-75771386D01*
X88513217Y-75773624D01*
X88505646Y-75776230D01*
X88498182Y-75779204D01*
X88490838Y-75782546D01*
X88483627Y-75786256D01*
X88476564Y-75790334D01*
X88469663Y-75794780D01*
X88462938Y-75799593D01*
X88456403Y-75804774D01*
X88450071Y-75810324D01*
X88450020Y-75810272D01*
X88449994Y-75810246D01*
X88449980Y-75810233D01*
X88449967Y-75810221D01*
X88445118Y-75815074D01*
X88445080Y-75815111D01*
X88445044Y-75815148D01*
X88444971Y-75815222D01*
X88069936Y-76190255D01*
X87694902Y-75815220D01*
X87689901Y-75810221D01*
X87689798Y-75810324D01*
X87683467Y-75804774D01*
X87676931Y-75799593D01*
X87670206Y-75794779D01*
X87663305Y-75790334D01*
X87656243Y-75786256D01*
X87649032Y-75782546D01*
X87641688Y-75779204D01*
X87634224Y-75776230D01*
X87626654Y-75773624D01*
X87618992Y-75771385D01*
X87611251Y-75769515D01*
X87603447Y-75768012D01*
X87595593Y-75766878D01*
X87587703Y-75766111D01*
X87579790Y-75765712D01*
X87571870Y-75765681D01*
X87563955Y-75766018D01*
X87556060Y-75766723D01*
X87548199Y-75767796D01*
X87540385Y-75769237D01*
X87532633Y-75771045D01*
X87524957Y-75773222D01*
X87517371Y-75775766D01*
X87509888Y-75778678D01*
X87502522Y-75781958D01*
X87495288Y-75785606D01*
X87488200Y-75789622D01*
X87481270Y-75794006D01*
X87474515Y-75798758D01*
X87467947Y-75803877D01*
X87461580Y-75809365D01*
X87455428Y-75815220D01*
X87449572Y-75821372D01*
X87444085Y-75827739D01*
X87438965Y-75834307D01*
X87434213Y-75841063D01*
X87429829Y-75847992D01*
X87425813Y-75855081D01*
X87422165Y-75862315D01*
X87418885Y-75869680D01*
X87415973Y-75877164D01*
X87413429Y-75884750D01*
X87411252Y-75892426D01*
X87409443Y-75900178D01*
X87408003Y-75907992D01*
X87406930Y-75915853D01*
X87406225Y-75923748D01*
X87405888Y-75931663D01*
X87405919Y-75939583D01*
X87406318Y-75947496D01*
X87407085Y-75955386D01*
X87408219Y-75963240D01*
X87409722Y-75971044D01*
X87411592Y-75978784D01*
X87413830Y-75986446D01*
X87416437Y-75994017D01*
X87419411Y-76001481D01*
X87422753Y-76008825D01*
X87426462Y-76016036D01*
X87430540Y-76023099D01*
X87434986Y-76030000D01*
X87439799Y-76036725D01*
X87444981Y-76043260D01*
X87450530Y-76049592D01*
X87450428Y-76049694D01*
X87455428Y-76054694D01*
X87830462Y-76429729D01*
X87450429Y-76809762D01*
X87450530Y-76809866D01*
X87444981Y-76816198D01*
X87439799Y-76822733D01*
X87434986Y-76829458D01*
X87430540Y-76836359D01*
X87426462Y-76843422D01*
X87422753Y-76850632D01*
X87419411Y-76857977D01*
X87416437Y-76865441D01*
X87413830Y-76873011D01*
X87411592Y-76880673D01*
X87409722Y-76888413D01*
X87408219Y-76896217D01*
X87407085Y-76904072D01*
X87406318Y-76911962D01*
X87405919Y-76919874D01*
X87405888Y-76927795D01*
X85852726Y-76927795D01*
X85852726Y-76599061D01*
X86390175Y-76599061D01*
X86390175Y-76598916D01*
X86398576Y-76598363D01*
X86406861Y-76597406D01*
X86415020Y-76596054D01*
X86423044Y-76594318D01*
X86430921Y-76592207D01*
X86438643Y-76589732D01*
X86446199Y-76586902D01*
X86453580Y-76583726D01*
X86460776Y-76580216D01*
X86467777Y-76576381D01*
X86474572Y-76572231D01*
X86481153Y-76567775D01*
X86487509Y-76563023D01*
X86493630Y-76557986D01*
X86499507Y-76552673D01*
X86505130Y-76547094D01*
X86510488Y-76541259D01*
X86515572Y-76535178D01*
X86520372Y-76528861D01*
X86524879Y-76522317D01*
X86529081Y-76515557D01*
X86532970Y-76508590D01*
X86536536Y-76501427D01*
X86539768Y-76494076D01*
X86542656Y-76486548D01*
X86545192Y-76478854D01*
X86547365Y-76471002D01*
X86549164Y-76463002D01*
X86550581Y-76454865D01*
X86551606Y-76446600D01*
X86552228Y-76438218D01*
X86552437Y-76429728D01*
X86552228Y-76421237D01*
X86551606Y-76412855D01*
X86550581Y-76404590D01*
X86549164Y-76396453D01*
X86547365Y-76388454D01*
X86545192Y-76380602D01*
X86542656Y-76372907D01*
X86539768Y-76365379D01*
X86536536Y-76358029D01*
X86532970Y-76350865D01*
X86529081Y-76343898D01*
X86524879Y-76337138D01*
X86520372Y-76330594D01*
X86515572Y-76324277D01*
X86510488Y-76318196D01*
X86505130Y-76312361D01*
X86499507Y-76306782D01*
X86493630Y-76301469D01*
X86487509Y-76296432D01*
X86481153Y-76291680D01*
X86474572Y-76287224D01*
X86467777Y-76283074D01*
X86460776Y-76279239D01*
X86453580Y-76275729D01*
X86446199Y-76272554D01*
X86438643Y-76269723D01*
X86430921Y-76267248D01*
X86423044Y-76265137D01*
X86415020Y-76263401D01*
X86406861Y-76262050D01*
X86398576Y-76261092D01*
X86390175Y-76260539D01*
X86390175Y-76260395D01*
X86383313Y-76260397D01*
X85852726Y-76260397D01*
X85852726Y-75722946D01*
X85852582Y-75722946D01*
X85852029Y-75714545D01*
X85851071Y-75706260D01*
X85849720Y-75698101D01*
X85847984Y-75690077D01*
X85845873Y-75682200D01*
X85843397Y-75674478D01*
X85840567Y-75666922D01*
X85837392Y-75659541D01*
X85833882Y-75652345D01*
X85830047Y-75645344D01*
X85825896Y-75638549D01*
X85821440Y-75631968D01*
X85816689Y-75625612D01*
X85811651Y-75619490D01*
X85806338Y-75613613D01*
X85800760Y-75607991D01*
X85794925Y-75602633D01*
X85788844Y-75597548D01*
X85782526Y-75592748D01*
X85775983Y-75588242D01*
X85769222Y-75584039D01*
X85762255Y-75580150D01*
X85755092Y-75576585D01*
X85747741Y-75573353D01*
X85740214Y-75570464D01*
X85732519Y-75567928D01*
X85724667Y-75565756D01*
X85716668Y-75563956D01*
X85708531Y-75562539D01*
X85700267Y-75561514D01*
X85691884Y-75560893D01*
X85683394Y-75560683D01*
X85674904Y-75560893D01*
X85666521Y-75561514D01*
X85658257Y-75562539D01*
X85650120Y-75563956D01*
X85642120Y-75565756D01*
X85634268Y-75567928D01*
X85626573Y-75570464D01*
X85619046Y-75573353D01*
X85611695Y-75576585D01*
X85604531Y-75580150D01*
X85597564Y-75584039D01*
X85590804Y-75588242D01*
X85584260Y-75592748D01*
X85577943Y-75597548D01*
X85571862Y-75602633D01*
X85566027Y-75607991D01*
X85560448Y-75613613D01*
X85555135Y-75619490D01*
X85550098Y-75625612D01*
X85545347Y-75631968D01*
X85540891Y-75638549D01*
X85536740Y-75645344D01*
X85532905Y-75652345D01*
X85529395Y-75659541D01*
X85526220Y-75666922D01*
X85523389Y-75674478D01*
X85520914Y-75682200D01*
X85518803Y-75690077D01*
X85517067Y-75698101D01*
X85515716Y-75706260D01*
X85514758Y-75714545D01*
X85514205Y-75722946D01*
X85514061Y-75722946D01*
X85514061Y-76260395D01*
X84976612Y-76260395D01*
X84976612Y-76260540D01*
X84968210Y-76261094D01*
X84959925Y-76262051D01*
X84951766Y-76263403D01*
X84943743Y-76265139D01*
X84935865Y-76267250D01*
X84928143Y-76269725D01*
X84920587Y-76272555D01*
X84913206Y-76275730D01*
X84906010Y-76279240D01*
X84899010Y-76283075D01*
X84892214Y-76287226D01*
X84885633Y-76291682D01*
X84879277Y-76296433D01*
X84873156Y-76301470D01*
X84867279Y-76306783D01*
X84861657Y-76312362D01*
X84856298Y-76318197D01*
X84851214Y-76324278D01*
X84846414Y-76330595D01*
X84841908Y-76337139D01*
X84837705Y-76343899D01*
X84833816Y-76350866D01*
X84830251Y-76358029D01*
X84827019Y-76365380D01*
X84824130Y-76372908D01*
X84821595Y-76380602D01*
X84819422Y-76388454D01*
X84817622Y-76396454D01*
X84816205Y-76404590D01*
X84815181Y-76412855D01*
X84814559Y-76421237D01*
X84814350Y-76429728D01*
X83721347Y-76429728D01*
X83751286Y-76374425D01*
X83802803Y-76285477D01*
X83856775Y-76198166D01*
X83913155Y-76112538D01*
X83841884Y-76055618D01*
X83773998Y-75994820D01*
X83709664Y-75930310D01*
X83649051Y-75862255D01*
X83592325Y-75790823D01*
X83539653Y-75716182D01*
X83491203Y-75638498D01*
X83447143Y-75557940D01*
X83407640Y-75474673D01*
X83372860Y-75388867D01*
X83342973Y-75300688D01*
X83318144Y-75210303D01*
X83298541Y-75117880D01*
X83284332Y-75023587D01*
X83275683Y-74927590D01*
X83272763Y-74830058D01*
X83274852Y-74747520D01*
X83281053Y-74666061D01*
X83291263Y-74585782D01*
X83305383Y-74506784D01*
X83323311Y-74429168D01*
X83344946Y-74353036D01*
X83370187Y-74278488D01*
X83398933Y-74205625D01*
X83431082Y-74134549D01*
X83466535Y-74065360D01*
X83505188Y-73998160D01*
X83546942Y-73933050D01*
X83591696Y-73870131D01*
X83639348Y-73809503D01*
X83689797Y-73751269D01*
X83742943Y-73695528D01*
X83798683Y-73642383D01*
X83856918Y-73591933D01*
X83917545Y-73544281D01*
X83980465Y-73499528D01*
X84045575Y-73457774D01*
X84112775Y-73419120D01*
X84181964Y-73383668D01*
X84253040Y-73351519D01*
X84325902Y-73322773D01*
X84400451Y-73297532D01*
X84476583Y-73275897D01*
X84554199Y-73257969D01*
X84633196Y-73243849D01*
X84713475Y-73233638D01*
X84794934Y-73227438D01*
X84877472Y-73225348D01*
X84951633Y-73227034D01*
X85024931Y-73232043D01*
X85097295Y-73240302D01*
X85168651Y-73251738D01*
X85238926Y-73266277D01*
X85308047Y-73283847D01*
X85375940Y-73304373D01*
X85442532Y-73327784D01*
X85507751Y-73354006D01*
X85571522Y-73382965D01*
X85633774Y-73414589D01*
X85694432Y-73448804D01*
X85753423Y-73485537D01*
X85810675Y-73524716D01*
X85866114Y-73566266D01*
X85919667Y-73610114D01*
X85971261Y-73656189D01*
X86020822Y-73704415D01*
X86068278Y-73754720D01*
X86113554Y-73807032D01*
X86156579Y-73861276D01*
X86197279Y-73917380D01*
X86235581Y-73975270D01*
X86271411Y-74034873D01*
X86304696Y-74096116D01*
X86335364Y-74158927D01*
X86363340Y-74223230D01*
X86388553Y-74288955D01*
X86410928Y-74356027D01*
X86430392Y-74424372D01*
X86446873Y-74493919D01*
X86460297Y-74564594D01*
X86511631Y-74559014D01*
X86563178Y-74554161D01*
X86614934Y-74550040D01*
X86666894Y-74546657D01*
X86719052Y-74544016D01*
X86771403Y-74542124D01*
X86823942Y-74540984D01*
X86876664Y-74540603D01*
X86876665Y-74540603D01*
X86925828Y-74540935D01*
X86974832Y-74541925D01*
X87023674Y-74543572D01*
X87072349Y-74545869D01*
X87120853Y-74548814D01*
X87169182Y-74552401D01*
X87217332Y-74556627D01*
X87265297Y-74561487D01*
X87277929Y-74489836D01*
X87293695Y-74419312D01*
X87312522Y-74349991D01*
X87334334Y-74281948D01*
X87359056Y-74215257D01*
X87386612Y-74149996D01*
X87416927Y-74086237D01*
X87449927Y-74024058D01*
X87485535Y-73963532D01*
X87523677Y-73904736D01*
X87564277Y-73847744D01*
X87607260Y-73792632D01*
X87652551Y-73739475D01*
X87700075Y-73688349D01*
X87749756Y-73639327D01*
X87801520Y-73592487D01*
X87855290Y-73547902D01*
X87910992Y-73505649D01*
X87968550Y-73465802D01*
X88027890Y-73428436D01*
X88088936Y-73393628D01*
X88151612Y-73361451D01*
X88215844Y-73331982D01*
X88281556Y-73305296D01*
X88348674Y-73281467D01*
X88417121Y-73260571D01*
X88486822Y-73242684D01*
X88557703Y-73227880D01*
X88629688Y-73216235D01*
X88702702Y-73207824D01*
X88776670Y-73202723D01*
X88851516Y-73201005D01*
X88934053Y-73203095D01*
X89015512Y-73209295D01*
X89095791Y-73219506D01*
X89174789Y-73233626D01*
X89252405Y-73251554D01*
X89328537Y-73273189D01*
X89403085Y-73298430D01*
X89475948Y-73327175D01*
X89547024Y-73359325D01*
X89616212Y-73394777D01*
X89683412Y-73433431D01*
X89748522Y-73475185D01*
X89811442Y-73519938D01*
X89872069Y-73567590D01*
X89930304Y-73618040D01*
X89986045Y-73671185D01*
X90039190Y-73726925D01*
X90089639Y-73785160D01*
X90137291Y-73845788D01*
X90182045Y-73908707D01*
X90223799Y-73973817D01*
X90262453Y-74041017D01*
X90297905Y-74110206D01*
X90330054Y-74181282D01*
X90358800Y-74254145D01*
X90384041Y-74328693D01*
X90405676Y-74404825D01*
X90423604Y-74482441D01*
X90437724Y-74561439D01*
X90447934Y-74641718D01*
X90454135Y-74723177D01*
X90456224Y-74805715D01*
X90453330Y-74902830D01*
X90444755Y-74998423D01*
X90430666Y-75092328D01*
X90411228Y-75184382D01*
X90386605Y-75274417D01*
X90356964Y-75362270D01*
X90322469Y-75447774D01*
X90283286Y-75530765D01*
X90239580Y-75611078D01*
X90191515Y-75688547D01*
X90139258Y-75763007D01*
X90082974Y-75834293D01*
X90022827Y-75902240D01*
X89958982Y-75966682D01*
X89891606Y-76027454D01*
X89820864Y-76084391D01*
X89879201Y-76171238D01*
X89935044Y-76259854D01*
X89988343Y-76350189D01*
X90039047Y-76442193D01*
X90087107Y-76535815D01*
X90132471Y-76631006D01*
X90175089Y-76727714D01*
X90214912Y-76825889D01*
X90251888Y-76925482D01*
X90285967Y-77026441D01*
X90317098Y-77128716D01*
X90345233Y-77232256D01*
X90370319Y-77337013D01*
X90392307Y-77442934D01*
X90411146Y-77549969D01*
X90426786Y-77658069D01*
X90534917Y-77513094D01*
X90637274Y-77363711D01*
X90733691Y-77210088D01*
X90824004Y-77052390D01*
X90908044Y-76890782D01*
X90985647Y-76725432D01*
X91056647Y-76556504D01*
X91120878Y-76384165D01*
X91178173Y-76208580D01*
X91228368Y-76029916D01*
X91271295Y-75848338D01*
X91306790Y-75664013D01*
X91334685Y-75477106D01*
X91354816Y-75287783D01*
X91367016Y-75096210D01*
X91371120Y-74902553D01*
X91365268Y-74671382D01*
X91347902Y-74443232D01*
X91319303Y-74218387D01*
X91279756Y-73997131D01*
X91229544Y-73779746D01*
X91168949Y-73566515D01*
X91098254Y-73357721D01*
X91017743Y-73153648D01*
X90927700Y-72954578D01*
X90828406Y-72760796D01*
X90720145Y-72572583D01*
X90603200Y-72390223D01*
X90477855Y-72213999D01*
X90344392Y-72044193D01*
X90203094Y-71881091D01*
X90054245Y-71724973D01*
X89898127Y-71576124D01*
X89735024Y-71434826D01*
X89565219Y-71301363D01*
X89388995Y-71176018D01*
X89206635Y-71059073D01*
X89018422Y-70950812D01*
X88824639Y-70851518D01*
X88625570Y-70761475D01*
X88421497Y-70680964D01*
X88212703Y-70610270D01*
X87999472Y-70549675D01*
X87782087Y-70499462D01*
X87560831Y-70459915D01*
X87335986Y-70431317D01*
X87107837Y-70413950D01*
X86876665Y-70408098D01*
X86645494Y-70413950D01*
X86417344Y-70431317D01*
X86192500Y-70459915D01*
X85971243Y-70499462D01*
X85753858Y-70549675D01*
X85540627Y-70610270D01*
X85331834Y-70680964D01*
X85127761Y-70761475D01*
X84928691Y-70851518D01*
X84734908Y-70950812D01*
X84546695Y-71059073D01*
X84364335Y-71176018D01*
X84188111Y-71301363D01*
X84018306Y-71434826D01*
X83855203Y-71576124D01*
X83699086Y-71724973D01*
X83550236Y-71881091D01*
X83408939Y-72044193D01*
X83275476Y-72213999D01*
X83150130Y-72390223D01*
X83033185Y-72572583D01*
X82924924Y-72760796D01*
X82825631Y-72954578D01*
X82735587Y-73153648D01*
X82655076Y-73357721D01*
X82584382Y-73566515D01*
X82523787Y-73779746D01*
X82473574Y-73997131D01*
X82434027Y-74218387D01*
X82405429Y-74443232D01*
X82388062Y-74671382D01*
X82382210Y-74902553D01*
X81474756Y-74902553D01*
X81474755Y-71686923D01*
X86876667Y-68568130D01*
D11*
X94874953Y-73482107D02*
X95446381Y-74910679D01*
X94160667Y-73482107D02*
X94017810Y-74077345D01*
X93732095Y-74553536D01*
X93446381Y-74910679D01*
X95160667Y-73124965D02*
X95303524Y-73124965D01*
X95446381Y-73244012D01*
X95446381Y-73363060D01*
X95303524Y-73482107D01*
X95160667Y-73482107D01*
X95017810Y-73363060D01*
X95017810Y-73244012D01*
X95160667Y-73124965D01*
X96732095Y-73601155D02*
X98446381Y-73601155D01*
X96446381Y-75029726D02*
X98732095Y-75029726D01*
X99874953Y-73720203D02*
X100160667Y-74315441D01*
X100589238Y-73601155D02*
X100732095Y-74196393D01*
X101446381Y-73720203D02*
X101446381Y-74315441D01*
X101303524Y-74672584D01*
X100874953Y-75029726D01*
X100446381Y-75267822D01*
X103732095Y-72767822D02*
X103589238Y-73363060D01*
X103303524Y-73720203D01*
X103017810Y-74196393D01*
X103732095Y-73244012D02*
X104589238Y-73244012D01*
X104589238Y-73720203D01*
X104446381Y-74196393D01*
X104160667Y-74672584D01*
X103874953Y-75029726D01*
X103303524Y-75386869D01*
X106160667Y-75267822D02*
X106303524Y-75386869D01*
X106160667Y-75505917D01*
X106017810Y-75386869D01*
X106160667Y-75267822D01*
X106160667Y-75505917D01*
X106160667Y-74553536D02*
X106017810Y-73124965D01*
X106160667Y-73005917D01*
X106303524Y-73124965D01*
X106160667Y-74553536D01*
X106160667Y-73005917D01*
D12*
%TO.C,H4*%
X226612988Y-44327357D02*
X226612988Y-43327357D01*
X226612988Y-43803548D02*
X227184416Y-43803548D01*
X227184416Y-44327357D02*
X227184416Y-43327357D01*
X228089178Y-43660691D02*
X228089178Y-44327357D01*
X227851083Y-43279738D02*
X227612988Y-43994024D01*
X228232035Y-43994024D01*
%TO.C,H5*%
X124613036Y-61327349D02*
X124613036Y-60327349D01*
X124613036Y-60803540D02*
X125184464Y-60803540D01*
X125184464Y-61327349D02*
X125184464Y-60327349D01*
X126136845Y-60327349D02*
X125660655Y-60327349D01*
X125613036Y-60803540D01*
X125660655Y-60755921D01*
X125755893Y-60708302D01*
X125993988Y-60708302D01*
X126089226Y-60755921D01*
X126136845Y-60803540D01*
X126184464Y-60898778D01*
X126184464Y-61136873D01*
X126136845Y-61232111D01*
X126089226Y-61279730D01*
X125993988Y-61327349D01*
X125755893Y-61327349D01*
X125660655Y-61279730D01*
X125613036Y-61232111D01*
%TO.C,H2*%
X192613004Y-27327365D02*
X192613004Y-26327365D01*
X192613004Y-26803556D02*
X193184432Y-26803556D01*
X193184432Y-27327365D02*
X193184432Y-26327365D01*
X193613004Y-26422604D02*
X193660623Y-26374985D01*
X193755861Y-26327365D01*
X193993956Y-26327365D01*
X194089194Y-26374985D01*
X194136813Y-26422604D01*
X194184432Y-26517842D01*
X194184432Y-26613080D01*
X194136813Y-26755937D01*
X193565385Y-27327365D01*
X194184432Y-27327365D01*
%TO.C,H6*%
X192613004Y-61327349D02*
X192613004Y-60327349D01*
X192613004Y-60803540D02*
X193184432Y-60803540D01*
X193184432Y-61327349D02*
X193184432Y-60327349D01*
X194089194Y-60327349D02*
X193898718Y-60327349D01*
X193803480Y-60374969D01*
X193755861Y-60422588D01*
X193660623Y-60565445D01*
X193613004Y-60755921D01*
X193613004Y-61136873D01*
X193660623Y-61232111D01*
X193708242Y-61279730D01*
X193803480Y-61327349D01*
X193993956Y-61327349D01*
X194089194Y-61279730D01*
X194136813Y-61232111D01*
X194184432Y-61136873D01*
X194184432Y-60898778D01*
X194136813Y-60803540D01*
X194089194Y-60755921D01*
X193993956Y-60708302D01*
X193803480Y-60708302D01*
X193708242Y-60755921D01*
X193660623Y-60803540D01*
X193613004Y-60898778D01*
%TO.C,H3*%
X90613052Y-44327357D02*
X90613052Y-43327357D01*
X90613052Y-43803548D02*
X91184480Y-43803548D01*
X91184480Y-44327357D02*
X91184480Y-43327357D01*
X91565433Y-43327357D02*
X92184480Y-43327357D01*
X91851147Y-43708310D01*
X91994004Y-43708310D01*
X92089242Y-43755929D01*
X92136861Y-43803548D01*
X92184480Y-43898786D01*
X92184480Y-44136881D01*
X92136861Y-44232119D01*
X92089242Y-44279738D01*
X91994004Y-44327357D01*
X91708290Y-44327357D01*
X91613052Y-44279738D01*
X91565433Y-44232119D01*
%TO.C,H1*%
X124613036Y-27327365D02*
X124613036Y-26327365D01*
X124613036Y-26803556D02*
X125184464Y-26803556D01*
X125184464Y-27327365D02*
X125184464Y-26327365D01*
X126184464Y-27327365D02*
X125613036Y-27327365D01*
X125898750Y-27327365D02*
X125898750Y-26327365D01*
X125803512Y-26470223D01*
X125708274Y-26565461D01*
X125613036Y-26613080D01*
%TO.C,SW25*%
X157874929Y-63374973D02*
X157874929Y-64374973D01*
X143874929Y-64374973D02*
X144874929Y-64374973D01*
X156874929Y-64374973D02*
X157874929Y-64374973D01*
X157874929Y-50374973D02*
X156874929Y-50374973D01*
X157874929Y-50374973D02*
X157874929Y-51374973D01*
X144874929Y-50374973D02*
X143874929Y-50374973D01*
X143874929Y-51374973D02*
X143874929Y-50374973D01*
X143874929Y-64374973D02*
X143874929Y-63374973D01*
X157874929Y-64374973D02*
X156874929Y-64374973D01*
%TO.C,SW17*%
X177874913Y-47374981D02*
X177874913Y-46374981D01*
X178874913Y-33374981D02*
X177874913Y-33374981D01*
X191874913Y-47374981D02*
X190874913Y-47374981D01*
X191874913Y-33374981D02*
X190874913Y-33374981D01*
X191874913Y-33374981D02*
X191874913Y-34374981D01*
X177874913Y-34374981D02*
X177874913Y-33374981D01*
X191874913Y-46374981D02*
X191874913Y-47374981D01*
X190874913Y-47374981D02*
X191874913Y-47374981D01*
X177874913Y-47374981D02*
X178874913Y-47374981D01*
%TO.C,SW23*%
X109874945Y-64374973D02*
X109874945Y-63374973D01*
X123874945Y-64374973D02*
X122874945Y-64374973D01*
X109874945Y-64374973D02*
X110874945Y-64374973D01*
X123874945Y-50374973D02*
X122874945Y-50374973D01*
X123874945Y-63374973D02*
X123874945Y-64374973D01*
X109874945Y-51374973D02*
X109874945Y-50374973D01*
X110874945Y-50374973D02*
X109874945Y-50374973D01*
X123874945Y-50374973D02*
X123874945Y-51374973D01*
X122874945Y-64374973D02*
X123874945Y-64374973D01*
%TO.C,SW26*%
X161874921Y-50374973D02*
X160874921Y-50374973D01*
X160874921Y-64374973D02*
X160874921Y-63374973D01*
X160874921Y-51374973D02*
X160874921Y-50374973D01*
X173874921Y-64374973D02*
X174874921Y-64374973D01*
X174874921Y-50374973D02*
X174874921Y-51374973D01*
X160874921Y-64374973D02*
X161874921Y-64374973D01*
X174874921Y-64374973D02*
X173874921Y-64374973D01*
X174874921Y-50374973D02*
X173874921Y-50374973D01*
X174874921Y-63374973D02*
X174874921Y-64374973D01*
%TO.C,SW13*%
X109874945Y-47374981D02*
X109874945Y-46374981D01*
X123874945Y-33374981D02*
X122874945Y-33374981D01*
X109874945Y-47374981D02*
X110874945Y-47374981D01*
X123874945Y-46374981D02*
X123874945Y-47374981D01*
X110874945Y-33374981D02*
X109874945Y-33374981D01*
X123874945Y-47374981D02*
X122874945Y-47374981D01*
X109874945Y-34374981D02*
X109874945Y-33374981D01*
X122874945Y-47374981D02*
X123874945Y-47374981D01*
X123874945Y-33374981D02*
X123874945Y-34374981D01*
%TO.C,SW20*%
X242874889Y-46374981D02*
X242874889Y-47374981D01*
X241874889Y-47374981D02*
X242874889Y-47374981D01*
X228874889Y-47374981D02*
X229874889Y-47374981D01*
X242874889Y-33374981D02*
X241874889Y-33374981D01*
X228874889Y-47374981D02*
X228874889Y-46374981D01*
X228874889Y-34374981D02*
X228874889Y-33374981D01*
X229874889Y-33374981D02*
X228874889Y-33374981D01*
X242874889Y-33374981D02*
X242874889Y-34374981D01*
X242874889Y-47374981D02*
X241874889Y-47374981D01*
%TO.C,SW16*%
X161874921Y-33374981D02*
X160874921Y-33374981D01*
X160874921Y-34374981D02*
X160874921Y-33374981D01*
X160874921Y-47374981D02*
X160874921Y-46374981D01*
X174874921Y-33374981D02*
X173874921Y-33374981D01*
X174874921Y-47374981D02*
X173874921Y-47374981D01*
X174874921Y-33374981D02*
X174874921Y-34374981D01*
X174874921Y-46374981D02*
X174874921Y-47374981D01*
X160874921Y-47374981D02*
X161874921Y-47374981D01*
X173874921Y-47374981D02*
X174874921Y-47374981D01*
%TO.C,SW4*%
X126874937Y-17374989D02*
X126874937Y-16374989D01*
X140874937Y-16374989D02*
X140874937Y-17374989D01*
X127874937Y-16374989D02*
X126874937Y-16374989D01*
X126874937Y-30374989D02*
X126874937Y-29374989D01*
X139874937Y-30374989D02*
X140874937Y-30374989D01*
X140874937Y-30374989D02*
X139874937Y-30374989D01*
X126874937Y-30374989D02*
X127874937Y-30374989D01*
X140874937Y-29374989D02*
X140874937Y-30374989D01*
X140874937Y-16374989D02*
X139874937Y-16374989D01*
%TO.C,SW1*%
X75874961Y-16374989D02*
X76874961Y-16374989D01*
X89874961Y-16374989D02*
X89874961Y-17374989D01*
X75874961Y-17374989D02*
X75874961Y-16374989D01*
X89874961Y-29374989D02*
X89874961Y-30374989D01*
X75874961Y-30374989D02*
X76874961Y-30374989D01*
X88874961Y-30374989D02*
X89874961Y-30374989D01*
X75874961Y-30374989D02*
X75874961Y-29374989D01*
X89874961Y-16374989D02*
X88874961Y-16374989D01*
X76874961Y-16374989D02*
X75874961Y-16374989D01*
%TO.C,SW29*%
X211874897Y-64374973D02*
X212874897Y-64374973D01*
X225874897Y-50374973D02*
X224874897Y-50374973D01*
X212874897Y-50374973D02*
X211874897Y-50374973D01*
X225874897Y-50374973D02*
X225874897Y-51374973D01*
X211874897Y-51374973D02*
X211874897Y-50374973D01*
X224874897Y-64374973D02*
X225874897Y-64374973D01*
X225874897Y-64374973D02*
X224874897Y-64374973D01*
X211874897Y-64374973D02*
X211874897Y-63374973D01*
X225874897Y-63374973D02*
X225874897Y-64374973D01*
%TO.C,SW15*%
X157874929Y-33374981D02*
X157874929Y-34374981D01*
X157874929Y-33374981D02*
X156874929Y-33374981D01*
X156874929Y-47374981D02*
X157874929Y-47374981D01*
X144874929Y-33374981D02*
X143874929Y-33374981D01*
X143874929Y-47374981D02*
X144874929Y-47374981D01*
X157874929Y-46374981D02*
X157874929Y-47374981D01*
X143874929Y-47374981D02*
X143874929Y-46374981D01*
X157874929Y-47374981D02*
X156874929Y-47374981D01*
X143874929Y-34374981D02*
X143874929Y-33374981D01*
%TO.C,SW34*%
X126874937Y-68374965D02*
X126874937Y-67374965D01*
X126874937Y-81374965D02*
X127874937Y-81374965D01*
X140874937Y-81374965D02*
X139874937Y-81374965D01*
X140874937Y-67374965D02*
X140874937Y-68374965D01*
X140874937Y-80374965D02*
X140874937Y-81374965D01*
X140874937Y-67374965D02*
X139874937Y-67374965D01*
X126874937Y-81374965D02*
X126874937Y-80374965D01*
X139874937Y-81374965D02*
X140874937Y-81374965D01*
X127874937Y-67374965D02*
X126874937Y-67374965D01*
%TO.C,SW6*%
X160874921Y-30374989D02*
X161874921Y-30374989D01*
X160874921Y-30374989D02*
X160874921Y-29374989D01*
X161874921Y-16374989D02*
X160874921Y-16374989D01*
X174874921Y-29374989D02*
X174874921Y-30374989D01*
X173874921Y-30374989D02*
X174874921Y-30374989D01*
X160874921Y-17374989D02*
X160874921Y-16374989D01*
X174874921Y-16374989D02*
X174874921Y-17374989D01*
X174874921Y-16374989D02*
X173874921Y-16374989D01*
X174874921Y-30374989D02*
X173874921Y-30374989D01*
%TO.C,SW10*%
X242874889Y-29374989D02*
X242874889Y-30374989D01*
X241874889Y-30374989D02*
X242874889Y-30374989D01*
X228874889Y-30374989D02*
X229874889Y-30374989D01*
X242874889Y-30374989D02*
X241874889Y-30374989D01*
X228874889Y-17374989D02*
X228874889Y-16374989D01*
X229874889Y-16374989D02*
X228874889Y-16374989D01*
X228874889Y-30374989D02*
X228874889Y-29374989D01*
X242874889Y-16374989D02*
X241874889Y-16374989D01*
X242874889Y-16374989D02*
X242874889Y-17374989D01*
%TO.C,SW33*%
X123874945Y-81374965D02*
X122874945Y-81374965D01*
X109874945Y-81374965D02*
X110874945Y-81374965D01*
X110874945Y-67374965D02*
X109874945Y-67374965D01*
X123874945Y-80374965D02*
X123874945Y-81374965D01*
X122874945Y-81374965D02*
X123874945Y-81374965D01*
X109874945Y-68374965D02*
X109874945Y-67374965D01*
X123874945Y-67374965D02*
X122874945Y-67374965D01*
X123874945Y-67374965D02*
X123874945Y-68374965D01*
X109874945Y-81374965D02*
X109874945Y-80374965D01*
%TO.C,SW27*%
X191874913Y-50374973D02*
X190874913Y-50374973D01*
X191874913Y-64374973D02*
X190874913Y-64374973D01*
X177874913Y-64374973D02*
X178874913Y-64374973D01*
X191874913Y-63374973D02*
X191874913Y-64374973D01*
X177874913Y-51374973D02*
X177874913Y-50374973D01*
X190874913Y-64374973D02*
X191874913Y-64374973D01*
X191874913Y-50374973D02*
X191874913Y-51374973D01*
X178874913Y-50374973D02*
X177874913Y-50374973D01*
X177874913Y-64374973D02*
X177874913Y-63374973D01*
%TO.C,SW30*%
X229874889Y-50374973D02*
X228874889Y-50374973D01*
X242874889Y-50374973D02*
X241874889Y-50374973D01*
X241874889Y-64374973D02*
X242874889Y-64374973D01*
X242874889Y-50374973D02*
X242874889Y-51374973D01*
X228874889Y-64374973D02*
X228874889Y-63374973D01*
X228874889Y-51374973D02*
X228874889Y-50374973D01*
X242874889Y-63374973D02*
X242874889Y-64374973D01*
X242874889Y-64374973D02*
X241874889Y-64374973D01*
X228874889Y-64374973D02*
X229874889Y-64374973D01*
%TO.C,SW7*%
X178874913Y-16374989D02*
X177874913Y-16374989D01*
X191874913Y-30374989D02*
X190874913Y-30374989D01*
X191874913Y-16374989D02*
X191874913Y-17374989D01*
X191874913Y-16374989D02*
X190874913Y-16374989D01*
X190874913Y-30374989D02*
X191874913Y-30374989D01*
X177874913Y-17374989D02*
X177874913Y-16374989D01*
X191874913Y-29374989D02*
X191874913Y-30374989D01*
X177874913Y-30374989D02*
X177874913Y-29374989D01*
X177874913Y-30374989D02*
X178874913Y-30374989D01*
%TO.C,SW19*%
X225874897Y-46374981D02*
X225874897Y-47374981D01*
X211874897Y-34374981D02*
X211874897Y-33374981D01*
X225874897Y-33374981D02*
X225874897Y-34374981D01*
X224874897Y-47374981D02*
X225874897Y-47374981D01*
X225874897Y-33374981D02*
X224874897Y-33374981D01*
X225874897Y-47374981D02*
X224874897Y-47374981D01*
X211874897Y-47374981D02*
X211874897Y-46374981D01*
X211874897Y-47374981D02*
X212874897Y-47374981D01*
X212874897Y-33374981D02*
X211874897Y-33374981D01*
%TO.C,SW24*%
X127874937Y-50374973D02*
X126874937Y-50374973D01*
X126874937Y-51374973D02*
X126874937Y-50374973D01*
X126874937Y-64374973D02*
X127874937Y-64374973D01*
X140874937Y-50374973D02*
X139874937Y-50374973D01*
X140874937Y-63374973D02*
X140874937Y-64374973D01*
X139874937Y-64374973D02*
X140874937Y-64374973D01*
X140874937Y-50374973D02*
X140874937Y-51374973D01*
X126874937Y-64374973D02*
X126874937Y-63374973D01*
X140874937Y-64374973D02*
X139874937Y-64374973D01*
%TO.C,SW5*%
X144874929Y-16374989D02*
X143874929Y-16374989D01*
X143874929Y-30374989D02*
X143874929Y-29374989D01*
X156874929Y-30374989D02*
X157874929Y-30374989D01*
X143874929Y-17374989D02*
X143874929Y-16374989D01*
X157874929Y-16374989D02*
X157874929Y-17374989D01*
X157874929Y-30374989D02*
X156874929Y-30374989D01*
X157874929Y-29374989D02*
X157874929Y-30374989D01*
X157874929Y-16374989D02*
X156874929Y-16374989D01*
X143874929Y-30374989D02*
X144874929Y-30374989D01*
%TO.C,SW38*%
X208874905Y-80374965D02*
X208874905Y-81374965D01*
X194874905Y-81374965D02*
X194874905Y-80374965D01*
X208874905Y-67374965D02*
X208874905Y-68374965D01*
X208874905Y-67374965D02*
X207874905Y-67374965D01*
X195874905Y-67374965D02*
X194874905Y-67374965D01*
X208874905Y-81374965D02*
X207874905Y-81374965D01*
X207874905Y-81374965D02*
X208874905Y-81374965D01*
X194874905Y-68374965D02*
X194874905Y-67374965D01*
X194874905Y-81374965D02*
X195874905Y-81374965D01*
%TO.C,SW35*%
X157874929Y-67374965D02*
X156874929Y-67374965D01*
X143874929Y-81374965D02*
X144874929Y-81374965D01*
X157874929Y-81374965D02*
X156874929Y-81374965D01*
X143874929Y-68374965D02*
X143874929Y-67374965D01*
X144874929Y-67374965D02*
X143874929Y-67374965D01*
X157874929Y-67374965D02*
X157874929Y-68374965D01*
X157874929Y-80374965D02*
X157874929Y-81374965D01*
X143874929Y-81374965D02*
X143874929Y-80374965D01*
X156874929Y-81374965D02*
X157874929Y-81374965D01*
%TO.C,SW18*%
X208874905Y-47374981D02*
X207874905Y-47374981D01*
X208874905Y-33374981D02*
X208874905Y-34374981D01*
X208874905Y-46374981D02*
X208874905Y-47374981D01*
X194874905Y-34374981D02*
X194874905Y-33374981D01*
X194874905Y-47374981D02*
X195874905Y-47374981D01*
X195874905Y-33374981D02*
X194874905Y-33374981D01*
X208874905Y-33374981D02*
X207874905Y-33374981D01*
X194874905Y-47374981D02*
X194874905Y-46374981D01*
X207874905Y-47374981D02*
X208874905Y-47374981D01*
%TO.C,SW3*%
X123874945Y-29374989D02*
X123874945Y-30374989D01*
X109874945Y-30374989D02*
X109874945Y-29374989D01*
X109874945Y-30374989D02*
X110874945Y-30374989D01*
X110874945Y-16374989D02*
X109874945Y-16374989D01*
X109874945Y-17374989D02*
X109874945Y-16374989D01*
X122874945Y-30374989D02*
X123874945Y-30374989D01*
X123874945Y-16374989D02*
X123874945Y-17374989D01*
X123874945Y-16374989D02*
X122874945Y-16374989D01*
X123874945Y-30374989D02*
X122874945Y-30374989D01*
%TO.C,SW9*%
X212874897Y-16374989D02*
X211874897Y-16374989D01*
X225874897Y-16374989D02*
X224874897Y-16374989D01*
X225874897Y-16374989D02*
X225874897Y-17374989D01*
X211874897Y-17374989D02*
X211874897Y-16374989D01*
X211874897Y-30374989D02*
X212874897Y-30374989D01*
X211874897Y-30374989D02*
X211874897Y-29374989D01*
X225874897Y-29374989D02*
X225874897Y-30374989D01*
X224874897Y-30374989D02*
X225874897Y-30374989D01*
X225874897Y-30374989D02*
X224874897Y-30374989D01*
%TO.C,SW14*%
X126874937Y-34374981D02*
X126874937Y-33374981D01*
X126874937Y-47374981D02*
X126874937Y-46374981D01*
X126874937Y-47374981D02*
X127874937Y-47374981D01*
X140874937Y-46374981D02*
X140874937Y-47374981D01*
X140874937Y-33374981D02*
X139874937Y-33374981D01*
X140874937Y-33374981D02*
X140874937Y-34374981D01*
X127874937Y-33374981D02*
X126874937Y-33374981D01*
X139874937Y-47374981D02*
X140874937Y-47374981D01*
X140874937Y-47374981D02*
X139874937Y-47374981D01*
%TO.C,SW21*%
X76874961Y-50374973D02*
X75874961Y-50374973D01*
X75874961Y-64374973D02*
X76874961Y-64374973D01*
X89874961Y-50374973D02*
X89874961Y-51374973D01*
X75874961Y-64374973D02*
X75874961Y-63374973D01*
X89874961Y-63374973D02*
X89874961Y-64374973D01*
X75874961Y-50374973D02*
X76874961Y-50374973D01*
X89874961Y-50374973D02*
X88874961Y-50374973D01*
X88874961Y-64374973D02*
X89874961Y-64374973D01*
X75874961Y-51374973D02*
X75874961Y-50374973D01*
%TO.C,SW2*%
X92874953Y-17374989D02*
X92874953Y-16374989D01*
X106874953Y-16374989D02*
X105874953Y-16374989D01*
X92874953Y-30374989D02*
X92874953Y-29374989D01*
X93874953Y-16374989D02*
X92874953Y-16374989D01*
X92874953Y-30374989D02*
X93874953Y-30374989D01*
X106874953Y-29374989D02*
X106874953Y-30374989D01*
X106874953Y-30374989D02*
X105874953Y-30374989D01*
X105874953Y-30374989D02*
X106874953Y-30374989D01*
X106874953Y-16374989D02*
X106874953Y-17374989D01*
%TO.C,SW12*%
X92874953Y-47374981D02*
X93874953Y-47374981D01*
X93874953Y-33374981D02*
X92874953Y-33374981D01*
X106874953Y-33374981D02*
X106874953Y-34374981D01*
X106874953Y-33374981D02*
X105874953Y-33374981D01*
X105874953Y-47374981D02*
X106874953Y-47374981D01*
X106874953Y-47374981D02*
X105874953Y-47374981D01*
X106874953Y-46374981D02*
X106874953Y-47374981D01*
X92874953Y-47374981D02*
X92874953Y-46374981D01*
X92874953Y-34374981D02*
X92874953Y-33374981D01*
%TO.C,SW36*%
X174874921Y-67374965D02*
X174874921Y-68374965D01*
X161874921Y-67374965D02*
X160874921Y-67374965D01*
X174874921Y-80374965D02*
X174874921Y-81374965D01*
X160874921Y-68374965D02*
X160874921Y-67374965D01*
X173874921Y-81374965D02*
X174874921Y-81374965D01*
X174874921Y-67374965D02*
X173874921Y-67374965D01*
X174874921Y-81374965D02*
X173874921Y-81374965D01*
X160874921Y-81374965D02*
X161874921Y-81374965D01*
X160874921Y-81374965D02*
X160874921Y-80374965D01*
%TO.C,SW22*%
X106874953Y-63374973D02*
X106874953Y-64374973D01*
X92874953Y-64374973D02*
X93874953Y-64374973D01*
X93874953Y-50374973D02*
X92874953Y-50374973D01*
X92874953Y-50374973D02*
X93874953Y-50374973D01*
X106874953Y-50374973D02*
X105874953Y-50374973D01*
X92874953Y-51374973D02*
X92874953Y-50374973D01*
X92874953Y-64374973D02*
X92874953Y-63374973D01*
X105874953Y-64374973D02*
X106874953Y-64374973D01*
X106874953Y-50374973D02*
X106874953Y-51374973D01*
%TO.C,SW28*%
X208874905Y-64374973D02*
X207874905Y-64374973D01*
X208874905Y-50374973D02*
X207874905Y-50374973D01*
X208874905Y-50374973D02*
X208874905Y-51374973D01*
X195874905Y-50374973D02*
X194874905Y-50374973D01*
X194874905Y-64374973D02*
X195874905Y-64374973D01*
X194874905Y-64374973D02*
X194874905Y-63374973D01*
X194874905Y-51374973D02*
X194874905Y-50374973D01*
X208874905Y-63374973D02*
X208874905Y-64374973D01*
X207874905Y-64374973D02*
X208874905Y-64374973D01*
%TO.C,SW37*%
X191874913Y-67374965D02*
X190874913Y-67374965D01*
X191874913Y-80374965D02*
X191874913Y-81374965D01*
X177874913Y-68374965D02*
X177874913Y-67374965D01*
X190874913Y-81374965D02*
X191874913Y-81374965D01*
X178874913Y-67374965D02*
X177874913Y-67374965D01*
X177874913Y-81374965D02*
X178874913Y-81374965D01*
X191874913Y-67374965D02*
X191874913Y-68374965D01*
X191874913Y-81374965D02*
X190874913Y-81374965D01*
X177874913Y-81374965D02*
X177874913Y-80374965D01*
%TO.C,SW11*%
X76874961Y-33374981D02*
X75874961Y-33374981D01*
X75874961Y-33374981D02*
X76874961Y-33374981D01*
X75874961Y-34374981D02*
X75874961Y-33374981D01*
X89874961Y-46374981D02*
X89874961Y-47374981D01*
X89874961Y-33374981D02*
X88874961Y-33374981D01*
X89874961Y-33374981D02*
X89874961Y-34374981D01*
X75874961Y-47374981D02*
X75874961Y-46374981D01*
X75874961Y-47374981D02*
X76874961Y-47374981D01*
X88874961Y-47374981D02*
X89874961Y-47374981D01*
%TO.C,SW8*%
X208874905Y-16374989D02*
X207874905Y-16374989D01*
X208874905Y-30374989D02*
X207874905Y-30374989D01*
X194874905Y-30374989D02*
X194874905Y-29374989D01*
X194874905Y-17374989D02*
X194874905Y-16374989D01*
X207874905Y-30374989D02*
X208874905Y-30374989D01*
X194874905Y-30374989D02*
X195874905Y-30374989D01*
X208874905Y-16374989D02*
X208874905Y-17374989D01*
X195874905Y-16374989D02*
X194874905Y-16374989D01*
X208874905Y-29374989D02*
X208874905Y-30374989D01*
%TD*%
M02*
