%TF.GenerationSoftware,KiCad,Pcbnew,(6.0.4-0)*%
%TF.CreationDate,2023-01-08T13:58:21-06:00*%
%TF.ProjectId,bancouver40_cfx,62616e63-6f75-4766-9572-34305f636678,rev?*%
%TF.SameCoordinates,Original*%
%TF.FileFunction,Copper,L1,Top*%
%TF.FilePolarity,Positive*%
%FSLAX46Y46*%
G04 Gerber Fmt 4.6, Leading zero omitted, Abs format (unit mm)*
G04 Created by KiCad (PCBNEW (6.0.4-0)) date 2023-01-08 13:58:21*
%MOMM*%
%LPD*%
G01*
G04 APERTURE LIST*
G04 Aperture macros list*
%AMRoundRect*
0 Rectangle with rounded corners*
0 $1 Rounding radius*
0 $2 $3 $4 $5 $6 $7 $8 $9 X,Y pos of 4 corners*
0 Add a 4 corners polygon primitive as box body*
4,1,4,$2,$3,$4,$5,$6,$7,$8,$9,$2,$3,0*
0 Add four circle primitives for the rounded corners*
1,1,$1+$1,$2,$3*
1,1,$1+$1,$4,$5*
1,1,$1+$1,$6,$7*
1,1,$1+$1,$8,$9*
0 Add four rect primitives between the rounded corners*
20,1,$1+$1,$2,$3,$4,$5,0*
20,1,$1+$1,$4,$5,$6,$7,0*
20,1,$1+$1,$6,$7,$8,$9,0*
20,1,$1+$1,$8,$9,$2,$3,0*%
G04 Aperture macros list end*
%TA.AperFunction,ComponentPad*%
%ADD10R,1.700000X1.700000*%
%TD*%
%TA.AperFunction,ComponentPad*%
%ADD11O,1.700000X1.700000*%
%TD*%
%TA.AperFunction,ComponentPad*%
%ADD12C,1.397000*%
%TD*%
%TA.AperFunction,ComponentPad*%
%ADD13RoundRect,0.250000X-0.625000X0.350000X-0.625000X-0.350000X0.625000X-0.350000X0.625000X0.350000X0*%
%TD*%
%TA.AperFunction,ComponentPad*%
%ADD14O,1.750000X1.200000*%
%TD*%
%TA.AperFunction,ViaPad*%
%ADD15C,0.800000*%
%TD*%
%TA.AperFunction,Conductor*%
%ADD16C,0.250000*%
%TD*%
G04 APERTURE END LIST*
D10*
%TO.P,J2,1,Pin_1*%
%TO.N,gnd*%
X210374901Y-75933297D03*
D11*
%TO.P,J2,2,Pin_2*%
%TO.N,vbat*%
X210374901Y-78473297D03*
%TD*%
D12*
%TO.P,U1,15,A31_SWDIO*%
%TO.N,unconnected-(U1-Pad15)*%
X77136293Y-70979966D03*
%TO.P,U1,16,A30_SWCLK*%
%TO.N,unconnected-(U1-Pad16)*%
X77136293Y-73519966D03*
%TO.P,U1,17,RESET*%
%TO.N,reset*%
X79676293Y-70979966D03*
%TO.P,U1,18,GND*%
%TO.N,unconnected-(U1-Pad18)*%
X79676293Y-73519966D03*
%TO.P,U1,19,BAT*%
%TO.N,bat+*%
X85391293Y-67804966D03*
%TO.P,U1,20,GND*%
%TO.N,gnd*%
X83486293Y-67804966D03*
%TO.P,U1,21,NFC1/0.09_H*%
%TO.N,unconnected-(U1-Pad21)*%
X94916293Y-76059966D03*
%TO.P,U1,22,NFC2/0.10_H*%
%TO.N,unconnected-(U1-Pad22)*%
X94916293Y-77964966D03*
%TD*%
D13*
%TO.P,J1,1,Pin_1*%
%TO.N,gnd*%
X210600000Y-69124967D03*
D14*
%TO.P,J1,2,Pin_2*%
%TO.N,vbat*%
X210600000Y-71124967D03*
%TD*%
D15*
%TO.N,row1*%
X167874921Y-33999984D03*
X99874953Y-33999984D03*
X235874889Y-33999984D03*
X133874937Y-33999984D03*
X76499964Y-29749986D03*
X218874897Y-33999984D03*
X150874929Y-33999984D03*
X116874945Y-33999984D03*
X82874961Y-29749986D03*
X201874905Y-33999984D03*
X184874913Y-33999984D03*
%TO.N,row2*%
X201874905Y-50999976D03*
X94208289Y-36833316D03*
X167874921Y-50999976D03*
X235874889Y-50999976D03*
X80041629Y-58083306D03*
X97041621Y-48874977D03*
X80041629Y-43208313D03*
X80041629Y-62333304D03*
X184874913Y-50999976D03*
X150874929Y-50999976D03*
X133874937Y-50999976D03*
X116874945Y-50999976D03*
X218874897Y-50999976D03*
%TO.N,row3*%
X83375459Y-60208305D03*
X99874953Y-60208305D03*
X218874897Y-53833308D03*
X235874889Y-53833308D03*
X133874937Y-53833308D03*
X184874913Y-53833308D03*
X150874929Y-53833308D03*
X201874905Y-53833308D03*
X114041613Y-59499972D03*
X167874921Y-53833308D03*
X116874945Y-53833308D03*
%TO.N,row4*%
X114041613Y-65874969D03*
X116874945Y-70124967D03*
X133874937Y-70124967D03*
X201874905Y-70124967D03*
X150874929Y-70124967D03*
X184874913Y-70124967D03*
X87124959Y-65874969D03*
X167874921Y-70124967D03*
%TO.N,col2*%
X93499956Y-55958307D03*
X108374949Y-55958307D03*
X91374957Y-46041645D03*
X108374949Y-46041645D03*
%TO.N,col3*%
X106249950Y-60208305D03*
X97749954Y-62333304D03*
%TO.N,col4*%
X99166620Y-63782304D03*
X123820774Y-62904136D03*
%TO.N,col5*%
X142599929Y-59274976D03*
X98458287Y-63057804D03*
%TO.N,col6*%
X159599921Y-63266633D03*
X100583286Y-64506804D03*
%TO.N,col7*%
X176599913Y-55733311D03*
X123958275Y-55958307D03*
X101999952Y-65231304D03*
X122275920Y-65923994D03*
%TO.N,col8*%
X102866418Y-66741435D03*
X195749430Y-68249490D03*
%TO.N,col9*%
X104124951Y-71541633D03*
X210374901Y-63749970D03*
%TO.N,col10*%
X105622903Y-72266133D03*
X227374893Y-63749970D03*
%TO.N,gnd*%
X101291619Y-81458295D03*
X80699304Y-77865972D03*
X208958235Y-82166628D03*
X106249950Y-81458295D03*
%TO.N,vbat*%
X208233735Y-70833300D03*
X100583286Y-20541657D03*
X206833236Y-77916630D03*
X208958235Y-20541657D03*
%TO.N,bat+*%
X75083298Y-19124991D03*
X96451966Y-16455265D03*
X75083298Y-66583302D03*
%TO.N,vcc*%
X84999960Y-77916630D03*
X97749954Y-76499964D03*
X105541617Y-76499964D03*
%TO.N,sck*%
X104124951Y-80041629D03*
X92083290Y-78624963D03*
%TO.N,io_cs*%
X102708285Y-79333296D03*
X94916622Y-79333296D03*
%TO.N,mosi*%
X87124959Y-78624963D03*
X99874953Y-80782307D03*
%TD*%
D16*
%TO.N,row1*%
X218874897Y-33999984D02*
X201874905Y-33999984D01*
X133874937Y-33999984D02*
X133625415Y-34249506D01*
X99874953Y-33999984D02*
X87124959Y-33999984D01*
X133625415Y-34249506D02*
X117124467Y-34249506D01*
X167874921Y-33999984D02*
X150874929Y-33999984D01*
X150874929Y-33999984D02*
X133874937Y-33999984D01*
X235874889Y-33999984D02*
X218874897Y-33999984D01*
X116874945Y-33999984D02*
X99874953Y-33999984D01*
X117124467Y-34249506D02*
X116874945Y-33999984D01*
X184874913Y-33999984D02*
X167874921Y-33999984D01*
X76499964Y-29749986D02*
X82874961Y-29749986D01*
X185124435Y-34249506D02*
X184874913Y-33999984D01*
X201874905Y-33999984D02*
X201625383Y-34249506D01*
X87124959Y-33999984D02*
X82874961Y-29749986D01*
X201625383Y-34249506D02*
X185124435Y-34249506D01*
%TO.N,row2*%
X80041629Y-58083306D02*
X80041629Y-62333304D01*
X92542103Y-38499502D02*
X83832814Y-38499502D01*
X150874929Y-50999976D02*
X133874937Y-50999976D01*
X83583294Y-38249982D02*
X80324461Y-38249982D01*
X83832814Y-38499502D02*
X83583294Y-38249982D01*
X116874945Y-50999976D02*
X114749946Y-48874977D01*
X219124419Y-51249498D02*
X218874897Y-50999976D01*
X80324461Y-38249982D02*
X80324461Y-42925481D01*
X94208289Y-36833316D02*
X92542103Y-38499502D01*
X218874897Y-50999976D02*
X201874905Y-50999976D01*
X235625367Y-51249498D02*
X219124419Y-51249498D01*
X235874889Y-50999976D02*
X235625367Y-51249498D01*
X80324461Y-42925481D02*
X80041629Y-43208313D01*
X184874913Y-50999976D02*
X167874921Y-50999976D01*
X114749946Y-48874977D02*
X97041621Y-48874977D01*
X201874905Y-50999976D02*
X184874913Y-50999976D01*
X133874937Y-50999976D02*
X116874945Y-50999976D01*
X167874921Y-50999976D02*
X150874929Y-50999976D01*
%TO.N,row3*%
X166346765Y-52305152D02*
X167874921Y-53833308D01*
X234346733Y-52305152D02*
X235874889Y-53833308D01*
X113792093Y-59250452D02*
X114041613Y-59499972D01*
X201874905Y-53833308D02*
X203403061Y-52305152D01*
X218874897Y-53833308D02*
X220403053Y-52305152D01*
X100832806Y-59250452D02*
X113792093Y-59250452D01*
X132346781Y-52305152D02*
X133874937Y-53833308D01*
X217346741Y-52305152D02*
X218874897Y-53833308D01*
X167874921Y-53833308D02*
X169403077Y-52305152D01*
X135403093Y-52305152D02*
X149346773Y-52305152D01*
X83375459Y-60208305D02*
X99874953Y-60208305D01*
X118403101Y-52305152D02*
X132346781Y-52305152D01*
X203403061Y-52305152D02*
X217346741Y-52305152D01*
X183346757Y-52305152D02*
X184874913Y-53833308D01*
X99874953Y-60208305D02*
X100832806Y-59250452D01*
X186403069Y-52305152D02*
X200346749Y-52305152D01*
X169403077Y-52305152D02*
X183346757Y-52305152D01*
X116874945Y-53833308D02*
X118403101Y-52305152D01*
X220403053Y-52305152D02*
X234346733Y-52305152D01*
X133874937Y-53833308D02*
X135403093Y-52305152D01*
X150874929Y-53833308D02*
X152403085Y-52305152D01*
X184874913Y-53833308D02*
X186403069Y-52305152D01*
X200346749Y-52305152D02*
X201874905Y-53833308D01*
X149346773Y-52305152D02*
X150874929Y-53833308D01*
X152403085Y-52305152D02*
X166346765Y-52305152D01*
%TO.N,row4*%
X168694744Y-69305144D02*
X184055090Y-69305144D01*
X167874921Y-70124967D02*
X168694744Y-69305144D01*
X134694760Y-69305144D02*
X150055106Y-69305144D01*
X184874913Y-70124967D02*
X185694736Y-69305144D01*
X116874945Y-70124967D02*
X117694768Y-69305144D01*
X167055098Y-69305144D02*
X167874921Y-70124967D01*
X150874929Y-70124967D02*
X151694752Y-69305144D01*
X133874937Y-70124967D02*
X134694760Y-69305144D01*
X201055082Y-69305144D02*
X201874905Y-70124967D01*
X185694736Y-69305144D02*
X201055082Y-69305144D01*
X87833292Y-66583302D02*
X87124959Y-65874969D01*
X184055090Y-69305144D02*
X184874913Y-70124967D01*
X117694768Y-69305144D02*
X133055114Y-69305144D01*
X114041613Y-65874969D02*
X102708285Y-65874969D01*
X150055106Y-69305144D02*
X150874929Y-70124967D01*
X151694752Y-69305144D02*
X167055098Y-69305144D01*
X101999952Y-66583302D02*
X87833292Y-66583302D01*
X102708285Y-65874969D02*
X101999952Y-66583302D01*
X133055114Y-69305144D02*
X133874937Y-70124967D01*
%TO.N,col2*%
X95609263Y-46041645D02*
X91374957Y-46041645D01*
X94172311Y-55285952D02*
X103884959Y-55285952D01*
X97200448Y-44450460D02*
X95609263Y-46041645D01*
X93499956Y-55958307D02*
X94172311Y-55285952D01*
X108374949Y-46041645D02*
X106783764Y-44450460D01*
X104557313Y-55958307D02*
X108374949Y-55958307D01*
X106783764Y-44450460D02*
X97200448Y-44450460D01*
X103884959Y-55285952D02*
X104557313Y-55958307D01*
%TO.N,col3*%
X97749954Y-62333304D02*
X104124951Y-62333304D01*
X104124951Y-62333304D02*
X106249950Y-60208305D01*
%TO.N,col4*%
X116632306Y-60916638D02*
X121833276Y-60916638D01*
X113766640Y-63782304D02*
X116632306Y-60916638D01*
X99166620Y-63782304D02*
X113766640Y-63782304D01*
X121833276Y-60916638D02*
X123820774Y-62904136D01*
%TO.N,col5*%
X128208273Y-58791639D02*
X132337280Y-58791639D01*
X132337280Y-58791639D02*
X133009635Y-59463994D01*
X112593088Y-63057804D02*
X116009643Y-59641249D01*
X98458287Y-63057804D02*
X112593088Y-63057804D01*
X116009643Y-59641249D02*
X127358663Y-59641249D01*
X127358663Y-59641249D02*
X128208273Y-58791639D01*
X133009635Y-59463994D02*
X142410911Y-59463994D01*
X142410911Y-59463994D02*
X142599929Y-59274976D01*
%TO.N,col6*%
X148549434Y-62999494D02*
X150632290Y-60916638D01*
X150632290Y-60916638D02*
X157249926Y-60916638D01*
X131507299Y-63041637D02*
X133098484Y-61450452D01*
X124707887Y-63041637D02*
X131507299Y-63041637D01*
X115405802Y-64506804D02*
X116098492Y-65199494D01*
X116098492Y-65199494D02*
X122550030Y-65199494D01*
X100583286Y-64506804D02*
X115405802Y-64506804D01*
X142908747Y-61450452D02*
X144457789Y-62999494D01*
X157249926Y-60916638D02*
X159599921Y-63266633D01*
X133098484Y-61450452D02*
X142908747Y-61450452D01*
X122550030Y-65199494D02*
X124707887Y-63041637D01*
X144457789Y-62999494D02*
X148549434Y-62999494D01*
%TO.N,col7*%
X116166612Y-65874969D02*
X122226895Y-65874969D01*
X124630630Y-55285952D02*
X176152554Y-55285952D01*
X114733768Y-65150458D02*
X115458279Y-65874969D01*
X115458279Y-65874969D02*
X116166612Y-65874969D01*
X101999952Y-65231304D02*
X102080798Y-65150458D01*
X122226895Y-65874969D02*
X122275920Y-65923994D01*
X102080798Y-65150458D02*
X114733768Y-65150458D01*
X123958275Y-55958307D02*
X124630630Y-55285952D01*
X176152554Y-55285952D02*
X176599913Y-55733311D01*
%TO.N,col8*%
X102866418Y-66741435D02*
X121991409Y-66741435D01*
X195290619Y-68708301D02*
X195749430Y-68249490D01*
X121991409Y-66741435D02*
X123958275Y-68708301D01*
X123958275Y-68708301D02*
X195290619Y-68708301D01*
%TO.N,col9*%
X202583238Y-71541633D02*
X210374901Y-63749970D01*
X104124951Y-71541633D02*
X202583238Y-71541633D01*
%TO.N,col10*%
X105622903Y-72266133D02*
X203773623Y-72266133D01*
X203773623Y-72266133D02*
X210840262Y-65199494D01*
X225925369Y-65199494D02*
X227374893Y-63749970D01*
X210840262Y-65199494D02*
X225925369Y-65199494D01*
%TO.N,gnd*%
X106991141Y-82199486D02*
X208925377Y-82199486D01*
X101291619Y-81458295D02*
X106249950Y-81458295D01*
X106249950Y-81458295D02*
X106991141Y-82199486D01*
X86400448Y-78925066D02*
X88982200Y-81506818D01*
X101243096Y-81506818D02*
X101291619Y-81458295D01*
X88982200Y-81506818D02*
X101243096Y-81506818D01*
X208925377Y-82199486D02*
X208958235Y-82166628D01*
X80699304Y-77865972D02*
X81758398Y-78925066D01*
X81758398Y-78925066D02*
X86400448Y-78925066D01*
%TO.N,vbat*%
X206833236Y-77916630D02*
X207389903Y-78473297D01*
X207389903Y-78473297D02*
X210374901Y-78473297D01*
X208525402Y-71124967D02*
X208233735Y-70833300D01*
X210600000Y-71124967D02*
X208525402Y-71124967D01*
X100583286Y-20541657D02*
X208958235Y-20541657D01*
%TO.N,bat+*%
X87669686Y-16455265D02*
X96451966Y-16455265D01*
X84169629Y-66583302D02*
X75083298Y-66583302D01*
X75083298Y-19124991D02*
X75257817Y-19299510D01*
X84825441Y-19299510D02*
X87669686Y-16455265D01*
X85391293Y-67804966D02*
X84169629Y-66583302D01*
X75257817Y-19299510D02*
X84825441Y-19299510D01*
%TO.N,vcc*%
X84999960Y-77916630D02*
X87879635Y-75036955D01*
X87879635Y-75036955D02*
X96286945Y-75036955D01*
X96286945Y-75036955D02*
X97749954Y-76499964D01*
X97749954Y-76499964D02*
X105541617Y-76499964D01*
%TO.N,sck*%
X93516134Y-80057807D02*
X104108773Y-80057807D01*
X92083290Y-78624963D02*
X93516134Y-80057807D01*
X104108773Y-80057807D02*
X104124951Y-80041629D01*
%TO.N,io_cs*%
X94916622Y-79333296D02*
X102708285Y-79333296D01*
%TO.N,mosi*%
X89282303Y-80782307D02*
X87124959Y-78624963D01*
X99874953Y-80782307D02*
X89282303Y-80782307D01*
%TD*%
M02*
