%TF.GenerationSoftware,KiCad,Pcbnew,(6.0.4-0)*%
%TF.CreationDate,2023-01-08T13:58:21-06:00*%
%TF.ProjectId,bancouver40_cfx,62616e63-6f75-4766-9572-34305f636678,rev?*%
%TF.SameCoordinates,Original*%
%TF.FileFunction,Paste,Bot*%
%TF.FilePolarity,Positive*%
%FSLAX46Y46*%
G04 Gerber Fmt 4.6, Leading zero omitted, Abs format (unit mm)*
G04 Created by KiCad (PCBNEW (6.0.4-0)) date 2023-01-08 13:58:21*
%MOMM*%
%LPD*%
G01*
G04 APERTURE LIST*
G04 Aperture macros list*
%AMRoundRect*
0 Rectangle with rounded corners*
0 $1 Rounding radius*
0 $2 $3 $4 $5 $6 $7 $8 $9 X,Y pos of 4 corners*
0 Add a 4 corners polygon primitive as box body*
4,1,4,$2,$3,$4,$5,$6,$7,$8,$9,$2,$3,0*
0 Add four circle primitives for the rounded corners*
1,1,$1+$1,$2,$3*
1,1,$1+$1,$4,$5*
1,1,$1+$1,$6,$7*
1,1,$1+$1,$8,$9*
0 Add four rect primitives between the rounded corners*
20,1,$1+$1,$2,$3,$4,$5,0*
20,1,$1+$1,$4,$5,$6,$7,0*
20,1,$1+$1,$6,$7,$8,$9,0*
20,1,$1+$1,$8,$9,$2,$3,0*%
G04 Aperture macros list end*
%ADD10R,2.600000X2.600000*%
%ADD11R,3.300000X1.700000*%
%ADD12RoundRect,0.150000X-0.150000X0.825000X-0.150000X-0.825000X0.150000X-0.825000X0.150000X0.825000X0*%
%ADD13O,1.800000X2.750000*%
%ADD14R,1.000000X0.800000*%
%ADD15R,0.700000X1.500000*%
G04 APERTURE END LIST*
D10*
%TO.C,SW25*%
X154149929Y-63324973D03*
X142599929Y-61124973D03*
%TD*%
%TO.C,SW17*%
X188149913Y-46324981D03*
X176599913Y-44124981D03*
%TD*%
%TO.C,SW23*%
X120149945Y-63324973D03*
X108599945Y-61124973D03*
%TD*%
%TO.C,SW26*%
X171149921Y-63324973D03*
X159599921Y-61124973D03*
%TD*%
%TO.C,SW13*%
X120149945Y-46324981D03*
X108599945Y-44124981D03*
%TD*%
%TO.C,SW20*%
X239149889Y-46324981D03*
X227599889Y-44124981D03*
%TD*%
%TO.C,SW16*%
X171149921Y-46324981D03*
X159599921Y-44124981D03*
%TD*%
%TO.C,SW4*%
X137149937Y-29324989D03*
X125599937Y-27124989D03*
%TD*%
%TO.C,SW1*%
X79599961Y-17424989D03*
X91149961Y-19624989D03*
%TD*%
%TO.C,SW29*%
X222149897Y-63324973D03*
X210599897Y-61124973D03*
%TD*%
%TO.C,SW15*%
X154149929Y-46324981D03*
X142599929Y-44124981D03*
%TD*%
%TO.C,SW34*%
X137149937Y-80324965D03*
X125599937Y-78124965D03*
%TD*%
%TO.C,SW6*%
X171149921Y-29324989D03*
X159599921Y-27124989D03*
%TD*%
%TO.C,SW10*%
X239149889Y-29324989D03*
X227599889Y-27124989D03*
%TD*%
%TO.C,SW33*%
X120149945Y-80324965D03*
X108599945Y-78124965D03*
%TD*%
%TO.C,SW27*%
X188149913Y-63324973D03*
X176599913Y-61124973D03*
%TD*%
%TO.C,SW30*%
X239149889Y-63324973D03*
X227599889Y-61124973D03*
%TD*%
%TO.C,SW7*%
X188149913Y-29324989D03*
X176599913Y-27124989D03*
%TD*%
%TO.C,SW19*%
X222149897Y-46324981D03*
X210599897Y-44124981D03*
%TD*%
%TO.C,SW24*%
X137149937Y-63324973D03*
X125599937Y-61124973D03*
%TD*%
%TO.C,SW5*%
X154149929Y-29324989D03*
X142599929Y-27124989D03*
%TD*%
%TO.C,SW38*%
X205149905Y-80324965D03*
X193599905Y-78124965D03*
%TD*%
%TO.C,SW35*%
X154149929Y-80324965D03*
X142599929Y-78124965D03*
%TD*%
%TO.C,SW18*%
X205149905Y-46324981D03*
X193599905Y-44124981D03*
%TD*%
%TO.C,SW3*%
X120149945Y-29324989D03*
X108599945Y-27124989D03*
%TD*%
%TO.C,SW9*%
X222149897Y-29324989D03*
X210599897Y-27124989D03*
%TD*%
%TO.C,SW14*%
X137149937Y-46324981D03*
X125599937Y-44124981D03*
%TD*%
%TO.C,SW21*%
X79599961Y-51424973D03*
X91149961Y-53624973D03*
%TD*%
%TO.C,SW2*%
X103149953Y-29324989D03*
X91599953Y-27124989D03*
%TD*%
%TO.C,SW12*%
X103149953Y-46324981D03*
X91599953Y-44124981D03*
%TD*%
%TO.C,SW36*%
X171149921Y-80324965D03*
X159599921Y-78124965D03*
%TD*%
%TO.C,SW22*%
X96599953Y-51424973D03*
X108149953Y-53624973D03*
%TD*%
%TO.C,SW28*%
X205149905Y-63324973D03*
X193599905Y-61124973D03*
%TD*%
%TO.C,SW37*%
X188149913Y-80324965D03*
X176599913Y-78124965D03*
%TD*%
%TO.C,SW11*%
X79599961Y-34424981D03*
X91149961Y-36624981D03*
%TD*%
%TO.C,SW8*%
X205149905Y-29324989D03*
X193599905Y-27124989D03*
%TD*%
D11*
%TO.C,D35*%
X148124929Y-70124967D03*
X153624929Y-70124967D03*
%TD*%
%TO.C,D30*%
X233124889Y-53833308D03*
X238624889Y-53833308D03*
%TD*%
%TO.C,D34*%
X131124937Y-70124967D03*
X136624937Y-70124967D03*
%TD*%
%TO.C,D11*%
X80124961Y-46749978D03*
X85624961Y-46749978D03*
%TD*%
%TO.C,D8*%
X199124905Y-33999984D03*
X204624905Y-33999984D03*
%TD*%
%TO.C,D22*%
X97124953Y-60208305D03*
X102624953Y-60208305D03*
%TD*%
%TO.C,D24*%
X131124937Y-53833308D03*
X136624937Y-53833308D03*
%TD*%
%TO.C,D27*%
X182124913Y-53833308D03*
X187624913Y-53833308D03*
%TD*%
%TO.C,D4*%
X131124937Y-33999984D03*
X136624937Y-33999984D03*
%TD*%
D12*
%TO.C,U2*%
X97554952Y-69774966D03*
X98824952Y-69774966D03*
X100094952Y-69774966D03*
X101364952Y-69774966D03*
X102634952Y-69774966D03*
X103904952Y-69774966D03*
X105174952Y-69774966D03*
X106444952Y-69774966D03*
X106444952Y-74724966D03*
X105174952Y-74724966D03*
X103904952Y-74724966D03*
X102634952Y-74724966D03*
X101364952Y-74724966D03*
X100094952Y-74724966D03*
X98824952Y-74724966D03*
X97554952Y-74724966D03*
%TD*%
D11*
%TO.C,D29*%
X216124897Y-53833308D03*
X221624897Y-53833308D03*
%TD*%
%TO.C,D28*%
X199124905Y-53833308D03*
X204624905Y-53833308D03*
%TD*%
%TO.C,D33*%
X114124945Y-70124967D03*
X119624945Y-70124967D03*
%TD*%
%TO.C,D15*%
X148124929Y-50999976D03*
X153624929Y-50999976D03*
%TD*%
D13*
%TO.C,U1*%
X78088293Y-64155006D03*
X80628293Y-64155006D03*
X83168293Y-64155006D03*
X85708293Y-64155006D03*
X88248293Y-64155006D03*
X90788293Y-64155006D03*
X93328293Y-64155006D03*
X93328293Y-80344926D03*
X90788293Y-80344926D03*
X88248293Y-80344926D03*
X85708293Y-80344926D03*
X83168293Y-80344926D03*
X80628293Y-80344926D03*
X78088293Y-80344926D03*
%TD*%
D11*
%TO.C,D9*%
X216124897Y-33999984D03*
X221624897Y-33999984D03*
%TD*%
%TO.C,D21*%
X80124961Y-60208305D03*
X85624961Y-60208305D03*
%TD*%
%TO.C,D19*%
X216124897Y-50999976D03*
X221624897Y-50999976D03*
%TD*%
D14*
%TO.C,SW41*%
X102899954Y-15569992D03*
X95599954Y-15569992D03*
X102899954Y-17779992D03*
X95599954Y-17779992D03*
D15*
X96999954Y-18429992D03*
X99999954Y-18429992D03*
X101499954Y-18429992D03*
%TD*%
D11*
%TO.C,D10*%
X233124889Y-33999984D03*
X238624889Y-33999984D03*
%TD*%
%TO.C,D14*%
X131124937Y-50999976D03*
X136624937Y-50999976D03*
%TD*%
%TO.C,D6*%
X165124921Y-33999984D03*
X170624921Y-33999984D03*
%TD*%
%TO.C,D18*%
X199124905Y-50999976D03*
X204624905Y-50999976D03*
%TD*%
%TO.C,D16*%
X165124921Y-50999976D03*
X170624921Y-50999976D03*
%TD*%
%TO.C,D13*%
X114124945Y-50999976D03*
X119624945Y-50999976D03*
%TD*%
%TO.C,D25*%
X148124929Y-53833308D03*
X153624929Y-53833308D03*
%TD*%
%TO.C,D26*%
X165124921Y-53833308D03*
X170624921Y-53833308D03*
%TD*%
%TO.C,D1*%
X80124961Y-29749986D03*
X85624961Y-29749986D03*
%TD*%
%TO.C,D3*%
X114124945Y-33999984D03*
X119624945Y-33999984D03*
%TD*%
%TO.C,D7*%
X182124913Y-33999984D03*
X187624913Y-33999984D03*
%TD*%
%TO.C,D23*%
X114124945Y-53833308D03*
X119624945Y-53833308D03*
%TD*%
%TO.C,D17*%
X182124913Y-50999976D03*
X187624913Y-50999976D03*
%TD*%
%TO.C,D12*%
X97124953Y-36833316D03*
X102624953Y-36833316D03*
%TD*%
%TO.C,D5*%
X148124929Y-33999984D03*
X153624929Y-33999984D03*
%TD*%
%TO.C,D37*%
X182124913Y-70124967D03*
X187624913Y-70124967D03*
%TD*%
%TO.C,D36*%
X165124921Y-70124967D03*
X170624921Y-70124967D03*
%TD*%
%TO.C,D20*%
X233124889Y-50999976D03*
X238624889Y-50999976D03*
%TD*%
%TO.C,D38*%
X199124905Y-70124967D03*
X204624905Y-70124967D03*
%TD*%
%TO.C,D2*%
X97124953Y-33999984D03*
X102624953Y-33999984D03*
%TD*%
M02*
