%TF.GenerationSoftware,KiCad,Pcbnew,(6.0.4-0)*%
%TF.CreationDate,2023-01-08T13:58:21-06:00*%
%TF.ProjectId,bancouver40_cfx,62616e63-6f75-4766-9572-34305f636678,rev?*%
%TF.SameCoordinates,Original*%
%TF.FileFunction,Copper,L2,Bot*%
%TF.FilePolarity,Positive*%
%FSLAX46Y46*%
G04 Gerber Fmt 4.6, Leading zero omitted, Abs format (unit mm)*
G04 Created by KiCad (PCBNEW (6.0.4-0)) date 2023-01-08 13:58:21*
%MOMM*%
%LPD*%
G01*
G04 APERTURE LIST*
G04 Aperture macros list*
%AMRoundRect*
0 Rectangle with rounded corners*
0 $1 Rounding radius*
0 $2 $3 $4 $5 $6 $7 $8 $9 X,Y pos of 4 corners*
0 Add a 4 corners polygon primitive as box body*
4,1,4,$2,$3,$4,$5,$6,$7,$8,$9,$2,$3,0*
0 Add four circle primitives for the rounded corners*
1,1,$1+$1,$2,$3*
1,1,$1+$1,$4,$5*
1,1,$1+$1,$6,$7*
1,1,$1+$1,$8,$9*
0 Add four rect primitives between the rounded corners*
20,1,$1+$1,$2,$3,$4,$5,0*
20,1,$1+$1,$4,$5,$6,$7,0*
20,1,$1+$1,$6,$7,$8,$9,0*
20,1,$1+$1,$8,$9,$2,$3,0*%
G04 Aperture macros list end*
%TA.AperFunction,SMDPad,CuDef*%
%ADD10R,2.600000X2.600000*%
%TD*%
%TA.AperFunction,SMDPad,CuDef*%
%ADD11R,3.300000X1.700000*%
%TD*%
%TA.AperFunction,SMDPad,CuDef*%
%ADD12RoundRect,0.150000X-0.150000X0.825000X-0.150000X-0.825000X0.150000X-0.825000X0.150000X0.825000X0*%
%TD*%
%TA.AperFunction,ComponentPad*%
%ADD13R,1.700000X1.700000*%
%TD*%
%TA.AperFunction,ComponentPad*%
%ADD14O,1.700000X1.700000*%
%TD*%
%TA.AperFunction,SMDPad,CuDef*%
%ADD15O,1.800000X2.750000*%
%TD*%
%TA.AperFunction,ComponentPad*%
%ADD16C,1.397000*%
%TD*%
%TA.AperFunction,SMDPad,CuDef*%
%ADD17R,1.000000X0.800000*%
%TD*%
%TA.AperFunction,SMDPad,CuDef*%
%ADD18R,0.700000X1.500000*%
%TD*%
%TA.AperFunction,ComponentPad*%
%ADD19RoundRect,0.250000X-0.625000X0.350000X-0.625000X-0.350000X0.625000X-0.350000X0.625000X0.350000X0*%
%TD*%
%TA.AperFunction,ComponentPad*%
%ADD20O,1.750000X1.200000*%
%TD*%
%TA.AperFunction,ViaPad*%
%ADD21C,0.800000*%
%TD*%
%TA.AperFunction,Conductor*%
%ADD22C,0.250000*%
%TD*%
G04 APERTURE END LIST*
D10*
%TO.P,SW25,1,1*%
%TO.N,Net-(D25-Pad2)*%
X154149929Y-63324973D03*
%TO.P,SW25,2,2*%
%TO.N,col5*%
X142599929Y-61124973D03*
%TD*%
%TO.P,SW17,1,1*%
%TO.N,Net-(D17-Pad2)*%
X188149913Y-46324981D03*
%TO.P,SW17,2,2*%
%TO.N,col7*%
X176599913Y-44124981D03*
%TD*%
%TO.P,SW23,1,1*%
%TO.N,Net-(D23-Pad2)*%
X120149945Y-63324973D03*
%TO.P,SW23,2,2*%
%TO.N,col3*%
X108599945Y-61124973D03*
%TD*%
%TO.P,SW26,1,1*%
%TO.N,Net-(D26-Pad2)*%
X171149921Y-63324973D03*
%TO.P,SW26,2,2*%
%TO.N,col6*%
X159599921Y-61124973D03*
%TD*%
%TO.P,SW13,1,1*%
%TO.N,Net-(D13-Pad2)*%
X120149945Y-46324981D03*
%TO.P,SW13,2,2*%
%TO.N,col3*%
X108599945Y-44124981D03*
%TD*%
%TO.P,SW20,1,1*%
%TO.N,Net-(D20-Pad2)*%
X239149889Y-46324981D03*
%TO.P,SW20,2,2*%
%TO.N,col10*%
X227599889Y-44124981D03*
%TD*%
%TO.P,SW16,1,1*%
%TO.N,Net-(D16-Pad2)*%
X171149921Y-46324981D03*
%TO.P,SW16,2,2*%
%TO.N,col6*%
X159599921Y-44124981D03*
%TD*%
%TO.P,SW4,1,1*%
%TO.N,Net-(D4-Pad2)*%
X137149937Y-29324989D03*
%TO.P,SW4,2,2*%
%TO.N,col4*%
X125599937Y-27124989D03*
%TD*%
%TO.P,SW1,1,1*%
%TO.N,Net-(D1-Pad2)*%
X79599961Y-17424989D03*
%TO.P,SW1,2,2*%
%TO.N,col1*%
X91149961Y-19624989D03*
%TD*%
%TO.P,SW29,1,1*%
%TO.N,Net-(D29-Pad2)*%
X222149897Y-63324973D03*
%TO.P,SW29,2,2*%
%TO.N,col9*%
X210599897Y-61124973D03*
%TD*%
%TO.P,SW15,1,1*%
%TO.N,Net-(D15-Pad2)*%
X154149929Y-46324981D03*
%TO.P,SW15,2,2*%
%TO.N,col5*%
X142599929Y-44124981D03*
%TD*%
%TO.P,SW34,1,1*%
%TO.N,Net-(D34-Pad2)*%
X137149937Y-80324965D03*
%TO.P,SW34,2,2*%
%TO.N,col4*%
X125599937Y-78124965D03*
%TD*%
%TO.P,SW6,1,1*%
%TO.N,Net-(D6-Pad2)*%
X171149921Y-29324989D03*
%TO.P,SW6,2,2*%
%TO.N,col6*%
X159599921Y-27124989D03*
%TD*%
%TO.P,SW10,1,1*%
%TO.N,Net-(D10-Pad2)*%
X239149889Y-29324989D03*
%TO.P,SW10,2,2*%
%TO.N,col10*%
X227599889Y-27124989D03*
%TD*%
%TO.P,SW33,1,1*%
%TO.N,Net-(D33-Pad2)*%
X120149945Y-80324965D03*
%TO.P,SW33,2,2*%
%TO.N,col3*%
X108599945Y-78124965D03*
%TD*%
%TO.P,SW27,1,1*%
%TO.N,Net-(D27-Pad2)*%
X188149913Y-63324973D03*
%TO.P,SW27,2,2*%
%TO.N,col7*%
X176599913Y-61124973D03*
%TD*%
%TO.P,SW30,1,1*%
%TO.N,Net-(D30-Pad2)*%
X239149889Y-63324973D03*
%TO.P,SW30,2,2*%
%TO.N,col10*%
X227599889Y-61124973D03*
%TD*%
%TO.P,SW7,1,1*%
%TO.N,Net-(D7-Pad2)*%
X188149913Y-29324989D03*
%TO.P,SW7,2,2*%
%TO.N,col7*%
X176599913Y-27124989D03*
%TD*%
%TO.P,SW19,1,1*%
%TO.N,Net-(D19-Pad2)*%
X222149897Y-46324981D03*
%TO.P,SW19,2,2*%
%TO.N,col9*%
X210599897Y-44124981D03*
%TD*%
%TO.P,SW24,1,1*%
%TO.N,Net-(D24-Pad2)*%
X137149937Y-63324973D03*
%TO.P,SW24,2,2*%
%TO.N,col4*%
X125599937Y-61124973D03*
%TD*%
%TO.P,SW5,1,1*%
%TO.N,Net-(D5-Pad2)*%
X154149929Y-29324989D03*
%TO.P,SW5,2,2*%
%TO.N,col5*%
X142599929Y-27124989D03*
%TD*%
%TO.P,SW38,1,1*%
%TO.N,Net-(D38-Pad2)*%
X205149905Y-80324965D03*
%TO.P,SW38,2,2*%
%TO.N,col8*%
X193599905Y-78124965D03*
%TD*%
%TO.P,SW35,1,1*%
%TO.N,Net-(D35-Pad2)*%
X154149929Y-80324965D03*
%TO.P,SW35,2,2*%
%TO.N,col5*%
X142599929Y-78124965D03*
%TD*%
%TO.P,SW18,1,1*%
%TO.N,Net-(D18-Pad2)*%
X205149905Y-46324981D03*
%TO.P,SW18,2,2*%
%TO.N,col8*%
X193599905Y-44124981D03*
%TD*%
%TO.P,SW3,1,1*%
%TO.N,Net-(D3-Pad2)*%
X120149945Y-29324989D03*
%TO.P,SW3,2,2*%
%TO.N,col3*%
X108599945Y-27124989D03*
%TD*%
%TO.P,SW9,1,1*%
%TO.N,Net-(D9-Pad2)*%
X222149897Y-29324989D03*
%TO.P,SW9,2,2*%
%TO.N,col9*%
X210599897Y-27124989D03*
%TD*%
%TO.P,SW14,1,1*%
%TO.N,Net-(D14-Pad2)*%
X137149937Y-46324981D03*
%TO.P,SW14,2,2*%
%TO.N,col4*%
X125599937Y-44124981D03*
%TD*%
%TO.P,SW21,1,1*%
%TO.N,Net-(D21-Pad2)*%
X79599961Y-51424973D03*
%TO.P,SW21,2,2*%
%TO.N,col1*%
X91149961Y-53624973D03*
%TD*%
%TO.P,SW2,1,1*%
%TO.N,Net-(D2-Pad2)*%
X103149953Y-29324989D03*
%TO.P,SW2,2,2*%
%TO.N,col2*%
X91599953Y-27124989D03*
%TD*%
%TO.P,SW12,1,1*%
%TO.N,Net-(D12-Pad2)*%
X103149953Y-46324981D03*
%TO.P,SW12,2,2*%
%TO.N,col2*%
X91599953Y-44124981D03*
%TD*%
%TO.P,SW36,1,1*%
%TO.N,Net-(D36-Pad2)*%
X171149921Y-80324965D03*
%TO.P,SW36,2,2*%
%TO.N,col6*%
X159599921Y-78124965D03*
%TD*%
%TO.P,SW22,1,1*%
%TO.N,Net-(D22-Pad2)*%
X96599953Y-51424973D03*
%TO.P,SW22,2,2*%
%TO.N,col2*%
X108149953Y-53624973D03*
%TD*%
%TO.P,SW28,1,1*%
%TO.N,Net-(D28-Pad2)*%
X205149905Y-63324973D03*
%TO.P,SW28,2,2*%
%TO.N,col8*%
X193599905Y-61124973D03*
%TD*%
%TO.P,SW37,1,1*%
%TO.N,Net-(D37-Pad2)*%
X188149913Y-80324965D03*
%TO.P,SW37,2,2*%
%TO.N,col7*%
X176599913Y-78124965D03*
%TD*%
%TO.P,SW11,1,1*%
%TO.N,Net-(D11-Pad2)*%
X79599961Y-34424981D03*
%TO.P,SW11,2,2*%
%TO.N,col1*%
X91149961Y-36624981D03*
%TD*%
%TO.P,SW8,1,1*%
%TO.N,Net-(D8-Pad2)*%
X205149905Y-29324989D03*
%TO.P,SW8,2,2*%
%TO.N,col8*%
X193599905Y-27124989D03*
%TD*%
D11*
%TO.P,D35,1,K*%
%TO.N,row4*%
X148124929Y-70124967D03*
%TO.P,D35,2,A*%
%TO.N,Net-(D35-Pad2)*%
X153624929Y-70124967D03*
%TD*%
%TO.P,D30,1,K*%
%TO.N,row3*%
X233124889Y-53833308D03*
%TO.P,D30,2,A*%
%TO.N,Net-(D30-Pad2)*%
X238624889Y-53833308D03*
%TD*%
%TO.P,D34,1,K*%
%TO.N,row4*%
X131124937Y-70124967D03*
%TO.P,D34,2,A*%
%TO.N,Net-(D34-Pad2)*%
X136624937Y-70124967D03*
%TD*%
%TO.P,D11,1,K*%
%TO.N,row2*%
X80124961Y-46749978D03*
%TO.P,D11,2,A*%
%TO.N,Net-(D11-Pad2)*%
X85624961Y-46749978D03*
%TD*%
%TO.P,D8,1,K*%
%TO.N,row1*%
X199124905Y-33999984D03*
%TO.P,D8,2,A*%
%TO.N,Net-(D8-Pad2)*%
X204624905Y-33999984D03*
%TD*%
%TO.P,D22,1,K*%
%TO.N,row3*%
X97124953Y-60208305D03*
%TO.P,D22,2,A*%
%TO.N,Net-(D22-Pad2)*%
X102624953Y-60208305D03*
%TD*%
%TO.P,D24,1,K*%
%TO.N,row3*%
X131124937Y-53833308D03*
%TO.P,D24,2,A*%
%TO.N,Net-(D24-Pad2)*%
X136624937Y-53833308D03*
%TD*%
%TO.P,D27,1,K*%
%TO.N,row3*%
X182124913Y-53833308D03*
%TO.P,D27,2,A*%
%TO.N,Net-(D27-Pad2)*%
X187624913Y-53833308D03*
%TD*%
%TO.P,D4,1,K*%
%TO.N,row1*%
X131124937Y-33999984D03*
%TO.P,D4,2,A*%
%TO.N,Net-(D4-Pad2)*%
X136624937Y-33999984D03*
%TD*%
D12*
%TO.P,U2,1,QB*%
%TO.N,col3*%
X97554952Y-69774966D03*
%TO.P,U2,2,QC*%
%TO.N,col4*%
X98824952Y-69774966D03*
%TO.P,U2,3,QD*%
%TO.N,col6*%
X100094952Y-69774966D03*
%TO.P,U2,4,QE*%
%TO.N,col7*%
X101364952Y-69774966D03*
%TO.P,U2,5,QF*%
%TO.N,col8*%
X102634952Y-69774966D03*
%TO.P,U2,6,QG*%
%TO.N,col9*%
X103904952Y-69774966D03*
%TO.P,U2,7,QH*%
%TO.N,col10*%
X105174952Y-69774966D03*
%TO.P,U2,8,GND*%
%TO.N,gnd*%
X106444952Y-69774966D03*
%TO.P,U2,9,QH'*%
%TO.N,unconnected-(U2-Pad9)*%
X106444952Y-74724966D03*
%TO.P,U2,10,~{SRCLR}*%
%TO.N,vcc*%
X105174952Y-74724966D03*
%TO.P,U2,11,SRCLK*%
%TO.N,sck*%
X103904952Y-74724966D03*
%TO.P,U2,12,RCLK*%
%TO.N,io_cs*%
X102634952Y-74724966D03*
%TO.P,U2,13,~{OE}*%
%TO.N,gnd*%
X101364952Y-74724966D03*
%TO.P,U2,14,SER*%
%TO.N,mosi*%
X100094952Y-74724966D03*
%TO.P,U2,15,QA*%
%TO.N,col5*%
X98824952Y-74724966D03*
%TO.P,U2,16,VCC*%
%TO.N,vcc*%
X97554952Y-74724966D03*
%TD*%
D13*
%TO.P,J2,1,Pin_1*%
%TO.N,gnd*%
X210374901Y-75933297D03*
D14*
%TO.P,J2,2,Pin_2*%
%TO.N,vbat*%
X210374901Y-78473297D03*
%TD*%
D11*
%TO.P,D29,1,K*%
%TO.N,row3*%
X216124897Y-53833308D03*
%TO.P,D29,2,A*%
%TO.N,Net-(D29-Pad2)*%
X221624897Y-53833308D03*
%TD*%
%TO.P,D28,1,K*%
%TO.N,row3*%
X199124905Y-53833308D03*
%TO.P,D28,2,A*%
%TO.N,Net-(D28-Pad2)*%
X204624905Y-53833308D03*
%TD*%
%TO.P,D33,1,K*%
%TO.N,row4*%
X114124945Y-70124967D03*
%TO.P,D33,2,A*%
%TO.N,Net-(D33-Pad2)*%
X119624945Y-70124967D03*
%TD*%
%TO.P,D15,1,K*%
%TO.N,row2*%
X148124929Y-50999976D03*
%TO.P,D15,2,A*%
%TO.N,Net-(D15-Pad2)*%
X153624929Y-50999976D03*
%TD*%
D15*
%TO.P,U1,1,A2/0.02_H*%
%TO.N,row1*%
X78088293Y-64155006D03*
%TO.P,U1,2,A4/0.03_H*%
%TO.N,row2*%
X80628293Y-64155006D03*
%TO.P,U1,3,A10/0.28*%
%TO.N,row3*%
X83168293Y-64155006D03*
%TO.P,U1,4,A11/0.29*%
%TO.N,row4*%
X85708293Y-64155006D03*
%TO.P,U1,5,A8_SDA/0.04_H*%
%TO.N,col1*%
X88248293Y-64155006D03*
%TO.P,U1,6,A9_SCL/0.05_H*%
%TO.N,col2*%
X90788293Y-64155006D03*
%TO.P,U1,7,B8_TX/1.11*%
%TO.N,unconnected-(U1-Pad7)*%
X93328293Y-64155006D03*
%TO.P,U1,8,B9_RX/1.12*%
%TO.N,io_cs*%
X93328293Y-80344926D03*
%TO.P,U1,9,A7_SCK/1.13*%
%TO.N,sck*%
X90788293Y-80344926D03*
%TO.P,U1,10,A5_MISO/1.14*%
%TO.N,unconnected-(U1-Pad10)*%
X88248293Y-80344926D03*
%TO.P,U1,11,A6_MOSI/1.15*%
%TO.N,mosi*%
X85708293Y-80344926D03*
%TO.P,U1,12,3V3*%
%TO.N,vcc*%
X83168293Y-80344926D03*
%TO.P,U1,13,GND*%
%TO.N,gnd*%
X80628293Y-80344926D03*
%TO.P,U1,14,5V*%
%TO.N,unconnected-(U1-Pad14)*%
X78088293Y-80344926D03*
D16*
%TO.P,U1,15,A31_SWDIO*%
%TO.N,unconnected-(U1-Pad15)*%
X77136293Y-70979966D03*
%TO.P,U1,16,A30_SWCLK*%
%TO.N,unconnected-(U1-Pad16)*%
X77136293Y-73519966D03*
%TO.P,U1,17,RESET*%
%TO.N,reset*%
X79676293Y-70979966D03*
%TO.P,U1,18,GND*%
%TO.N,unconnected-(U1-Pad18)*%
X79676293Y-73519966D03*
%TO.P,U1,19,BAT*%
%TO.N,bat+*%
X85391293Y-67804966D03*
%TO.P,U1,20,GND*%
%TO.N,gnd*%
X83486293Y-67804966D03*
%TO.P,U1,21,NFC1/0.09_H*%
%TO.N,unconnected-(U1-Pad21)*%
X94916293Y-76059966D03*
%TO.P,U1,22,NFC2/0.10_H*%
%TO.N,unconnected-(U1-Pad22)*%
X94916293Y-77964966D03*
%TD*%
D11*
%TO.P,D9,1,K*%
%TO.N,row1*%
X216124897Y-33999984D03*
%TO.P,D9,2,A*%
%TO.N,Net-(D9-Pad2)*%
X221624897Y-33999984D03*
%TD*%
%TO.P,D21,1,K*%
%TO.N,row3*%
X80124961Y-60208305D03*
%TO.P,D21,2,A*%
%TO.N,Net-(D21-Pad2)*%
X85624961Y-60208305D03*
%TD*%
%TO.P,D19,1,K*%
%TO.N,row2*%
X216124897Y-50999976D03*
%TO.P,D19,2,A*%
%TO.N,Net-(D19-Pad2)*%
X221624897Y-50999976D03*
%TD*%
D17*
%TO.P,SW41,*%
%TO.N,*%
X102899954Y-15569992D03*
X95599954Y-15569992D03*
X102899954Y-17779992D03*
X95599954Y-17779992D03*
D18*
%TO.P,SW41,1,A*%
%TO.N,bat+*%
X96999954Y-18429992D03*
%TO.P,SW41,2,B*%
%TO.N,vbat*%
X99999954Y-18429992D03*
%TO.P,SW41,3*%
%TO.N,N/C*%
X101499954Y-18429992D03*
%TD*%
D11*
%TO.P,D10,1,K*%
%TO.N,row1*%
X233124889Y-33999984D03*
%TO.P,D10,2,A*%
%TO.N,Net-(D10-Pad2)*%
X238624889Y-33999984D03*
%TD*%
%TO.P,D14,1,K*%
%TO.N,row2*%
X131124937Y-50999976D03*
%TO.P,D14,2,A*%
%TO.N,Net-(D14-Pad2)*%
X136624937Y-50999976D03*
%TD*%
%TO.P,D6,1,K*%
%TO.N,row1*%
X165124921Y-33999984D03*
%TO.P,D6,2,A*%
%TO.N,Net-(D6-Pad2)*%
X170624921Y-33999984D03*
%TD*%
%TO.P,D18,1,K*%
%TO.N,row2*%
X199124905Y-50999976D03*
%TO.P,D18,2,A*%
%TO.N,Net-(D18-Pad2)*%
X204624905Y-50999976D03*
%TD*%
%TO.P,D16,1,K*%
%TO.N,row2*%
X165124921Y-50999976D03*
%TO.P,D16,2,A*%
%TO.N,Net-(D16-Pad2)*%
X170624921Y-50999976D03*
%TD*%
%TO.P,D13,1,K*%
%TO.N,row2*%
X114124945Y-50999976D03*
%TO.P,D13,2,A*%
%TO.N,Net-(D13-Pad2)*%
X119624945Y-50999976D03*
%TD*%
%TO.P,D25,1,K*%
%TO.N,row3*%
X148124929Y-53833308D03*
%TO.P,D25,2,A*%
%TO.N,Net-(D25-Pad2)*%
X153624929Y-53833308D03*
%TD*%
%TO.P,D26,1,K*%
%TO.N,row3*%
X165124921Y-53833308D03*
%TO.P,D26,2,A*%
%TO.N,Net-(D26-Pad2)*%
X170624921Y-53833308D03*
%TD*%
%TO.P,D1,1,K*%
%TO.N,row1*%
X80124961Y-29749986D03*
%TO.P,D1,2,A*%
%TO.N,Net-(D1-Pad2)*%
X85624961Y-29749986D03*
%TD*%
%TO.P,D3,1,K*%
%TO.N,row1*%
X114124945Y-33999984D03*
%TO.P,D3,2,A*%
%TO.N,Net-(D3-Pad2)*%
X119624945Y-33999984D03*
%TD*%
%TO.P,D7,1,K*%
%TO.N,row1*%
X182124913Y-33999984D03*
%TO.P,D7,2,A*%
%TO.N,Net-(D7-Pad2)*%
X187624913Y-33999984D03*
%TD*%
%TO.P,D23,1,K*%
%TO.N,row3*%
X114124945Y-53833308D03*
%TO.P,D23,2,A*%
%TO.N,Net-(D23-Pad2)*%
X119624945Y-53833308D03*
%TD*%
%TO.P,D17,1,K*%
%TO.N,row2*%
X182124913Y-50999976D03*
%TO.P,D17,2,A*%
%TO.N,Net-(D17-Pad2)*%
X187624913Y-50999976D03*
%TD*%
D19*
%TO.P,J1,1,Pin_1*%
%TO.N,gnd*%
X210600000Y-69124967D03*
D20*
%TO.P,J1,2,Pin_2*%
%TO.N,vbat*%
X210600000Y-71124967D03*
%TD*%
D11*
%TO.P,D12,1,K*%
%TO.N,row2*%
X97124953Y-36833316D03*
%TO.P,D12,2,A*%
%TO.N,Net-(D12-Pad2)*%
X102624953Y-36833316D03*
%TD*%
%TO.P,D5,1,K*%
%TO.N,row1*%
X148124929Y-33999984D03*
%TO.P,D5,2,A*%
%TO.N,Net-(D5-Pad2)*%
X153624929Y-33999984D03*
%TD*%
%TO.P,D37,1,K*%
%TO.N,row4*%
X182124913Y-70124967D03*
%TO.P,D37,2,A*%
%TO.N,Net-(D37-Pad2)*%
X187624913Y-70124967D03*
%TD*%
%TO.P,D36,1,K*%
%TO.N,row4*%
X165124921Y-70124967D03*
%TO.P,D36,2,A*%
%TO.N,Net-(D36-Pad2)*%
X170624921Y-70124967D03*
%TD*%
%TO.P,D20,1,K*%
%TO.N,row2*%
X233124889Y-50999976D03*
%TO.P,D20,2,A*%
%TO.N,Net-(D20-Pad2)*%
X238624889Y-50999976D03*
%TD*%
%TO.P,D38,1,K*%
%TO.N,row4*%
X199124905Y-70124967D03*
%TO.P,D38,2,A*%
%TO.N,Net-(D38-Pad2)*%
X204624905Y-70124967D03*
%TD*%
%TO.P,D2,1,K*%
%TO.N,row1*%
X97124953Y-33999984D03*
%TO.P,D2,2,A*%
%TO.N,Net-(D2-Pad2)*%
X102624953Y-33999984D03*
%TD*%
D21*
%TO.N,row1*%
X167874921Y-33999984D03*
X99874953Y-33999984D03*
X235874889Y-33999984D03*
X133874937Y-33999984D03*
X76499964Y-29749986D03*
X218874897Y-33999984D03*
X150874929Y-33999984D03*
X116874945Y-33999984D03*
X82874961Y-29749986D03*
X201874905Y-33999984D03*
X184874913Y-33999984D03*
%TO.N,row2*%
X201874905Y-50999976D03*
X94208289Y-36833316D03*
X167874921Y-50999976D03*
X235874889Y-50999976D03*
X80041629Y-58083306D03*
X97041621Y-48874977D03*
X80041629Y-43208313D03*
X80041629Y-62333304D03*
X184874913Y-50999976D03*
X150874929Y-50999976D03*
X133874937Y-50999976D03*
X116874945Y-50999976D03*
X218874897Y-50999976D03*
%TO.N,row3*%
X83375459Y-60208305D03*
X99874953Y-60208305D03*
X218874897Y-53833308D03*
X235874889Y-53833308D03*
X133874937Y-53833308D03*
X184874913Y-53833308D03*
X150874929Y-53833308D03*
X201874905Y-53833308D03*
X114041613Y-59499972D03*
X167874921Y-53833308D03*
X116874945Y-53833308D03*
%TO.N,row4*%
X114041613Y-65874969D03*
X116874945Y-70124967D03*
X133874937Y-70124967D03*
X201874905Y-70124967D03*
X150874929Y-70124967D03*
X184874913Y-70124967D03*
X87124959Y-65874969D03*
X167874921Y-70124967D03*
%TO.N,col2*%
X93499956Y-55958307D03*
X108374949Y-55958307D03*
X91374957Y-46041645D03*
X108374949Y-46041645D03*
%TO.N,col3*%
X106249950Y-60208305D03*
X97749954Y-62333304D03*
%TO.N,col4*%
X99166620Y-63782304D03*
X123820774Y-62904136D03*
%TO.N,col5*%
X142599929Y-59274976D03*
X98458287Y-63057804D03*
%TO.N,col6*%
X159599921Y-63266633D03*
X100583286Y-64506804D03*
%TO.N,col7*%
X176599913Y-55733311D03*
X123958275Y-55958307D03*
X101999952Y-65231304D03*
X122275920Y-65923994D03*
%TO.N,col8*%
X102866418Y-66741435D03*
X195749430Y-68249490D03*
%TO.N,col9*%
X104124951Y-71541633D03*
X210374901Y-63749970D03*
%TO.N,col10*%
X105622903Y-72266133D03*
X227374893Y-63749970D03*
%TO.N,gnd*%
X101291619Y-81458295D03*
X80699304Y-77865972D03*
X208958235Y-82166628D03*
X106249950Y-81458295D03*
%TO.N,vbat*%
X208233735Y-70833300D03*
X100583286Y-20541657D03*
X206833236Y-77916630D03*
X208958235Y-20541657D03*
%TO.N,bat+*%
X75083298Y-19124991D03*
X96451966Y-16455265D03*
X75083298Y-66583302D03*
%TO.N,vcc*%
X84999960Y-77916630D03*
X97749954Y-76499964D03*
X105541617Y-76499964D03*
%TO.N,sck*%
X104124951Y-80041629D03*
X92083290Y-78624963D03*
%TO.N,io_cs*%
X102708285Y-79333296D03*
X94916622Y-79333296D03*
%TO.N,mosi*%
X87124959Y-78624963D03*
X99874953Y-80782307D03*
%TD*%
D22*
%TO.N,row1*%
X184874913Y-33999984D02*
X182124913Y-33999984D01*
X116874945Y-33999984D02*
X114124945Y-33999984D01*
X167874921Y-33999984D02*
X165124921Y-33999984D01*
X133874937Y-33999984D02*
X131124937Y-33999984D01*
X150874929Y-33999984D02*
X148124929Y-33999984D01*
X78088293Y-63680006D02*
X76149540Y-61741253D01*
X99874953Y-33999984D02*
X97124953Y-33999984D01*
X233124889Y-33999984D02*
X235874889Y-33999984D01*
X82874961Y-29749986D02*
X80124961Y-29749986D01*
X218874897Y-33999984D02*
X216124897Y-33999984D01*
X76149540Y-61741253D02*
X76149540Y-30100410D01*
X76149540Y-30100410D02*
X76499964Y-29749986D01*
X201874905Y-33999984D02*
X199124905Y-33999984D01*
%TO.N,Net-(D1-Pad2)*%
X79599961Y-23724986D02*
X85624961Y-29749986D01*
X79599961Y-17424989D02*
X79599961Y-23724986D01*
%TO.N,Net-(D2-Pad2)*%
X102624953Y-29849989D02*
X103149953Y-29324989D01*
X102624953Y-33999984D02*
X102624953Y-29849989D01*
%TO.N,Net-(D3-Pad2)*%
X119624945Y-33999984D02*
X119624945Y-29849989D01*
X119624945Y-29849989D02*
X120149945Y-29324989D01*
%TO.N,Net-(D4-Pad2)*%
X136624937Y-33999984D02*
X136624937Y-29849989D01*
X136624937Y-29849989D02*
X137149937Y-29324989D01*
%TO.N,Net-(D5-Pad2)*%
X153624929Y-29849989D02*
X154149929Y-29324989D01*
X153624929Y-33999984D02*
X153624929Y-29849989D01*
%TO.N,Net-(D6-Pad2)*%
X170624921Y-29849989D02*
X171149921Y-29324989D01*
X170624921Y-33999984D02*
X170624921Y-29849989D01*
%TO.N,Net-(D7-Pad2)*%
X187624913Y-33999984D02*
X187624913Y-29849989D01*
X187624913Y-29849989D02*
X188149913Y-29324989D01*
%TO.N,Net-(D8-Pad2)*%
X204624905Y-33999984D02*
X204624905Y-29849989D01*
X204624905Y-29849989D02*
X205149905Y-29324989D01*
%TO.N,Net-(D9-Pad2)*%
X221624897Y-33999984D02*
X221624897Y-29849989D01*
X221624897Y-29849989D02*
X222149897Y-29324989D01*
%TO.N,Net-(D10-Pad2)*%
X238624889Y-33999984D02*
X238624889Y-29849989D01*
X238624889Y-29849989D02*
X239149889Y-29324989D01*
%TO.N,row2*%
X116874945Y-50999976D02*
X114124945Y-50999976D01*
X97124953Y-48791645D02*
X97124953Y-36833316D01*
X167874921Y-50999976D02*
X165124921Y-50999976D01*
X80124961Y-46749978D02*
X77882548Y-48992391D01*
X77882548Y-55924225D02*
X80041629Y-58083306D01*
X133874937Y-50999976D02*
X131124937Y-50999976D01*
X218874897Y-50999976D02*
X216124897Y-50999976D01*
X80124961Y-43291645D02*
X80124961Y-46749978D01*
X77882548Y-48992391D02*
X77882548Y-55924225D01*
X201874905Y-50999976D02*
X199124905Y-50999976D01*
X233124889Y-50999976D02*
X235874889Y-50999976D01*
X184874913Y-50999976D02*
X182124913Y-50999976D01*
X150874929Y-50999976D02*
X148124929Y-50999976D01*
X80041629Y-43208313D02*
X80124961Y-43291645D01*
X97041621Y-48874977D02*
X97124953Y-48791645D01*
X80041629Y-62333304D02*
X80041629Y-63093342D01*
X97124953Y-36833316D02*
X94208289Y-36833316D01*
X80041629Y-63093342D02*
X80628293Y-63680006D01*
%TO.N,Net-(D11-Pad2)*%
X79599961Y-34424981D02*
X79599961Y-40724978D01*
X79599961Y-40724978D02*
X85624961Y-46749978D01*
%TO.N,Net-(D12-Pad2)*%
X102624953Y-36833316D02*
X102624953Y-45799981D01*
X102624953Y-45799981D02*
X103149953Y-46324981D01*
%TO.N,Net-(D13-Pad2)*%
X119624945Y-46849981D02*
X120149945Y-46324981D01*
X119624945Y-50999976D02*
X119624945Y-46849981D01*
%TO.N,Net-(D14-Pad2)*%
X136624937Y-50999976D02*
X136624937Y-46849981D01*
X136624937Y-46849981D02*
X137149937Y-46324981D01*
%TO.N,Net-(D15-Pad2)*%
X153624929Y-50999976D02*
X153624929Y-46849981D01*
X153624929Y-46849981D02*
X154149929Y-46324981D01*
%TO.N,Net-(D16-Pad2)*%
X170624921Y-50999976D02*
X170624921Y-46849981D01*
X170624921Y-46849981D02*
X171149921Y-46324981D01*
%TO.N,Net-(D17-Pad2)*%
X187624913Y-50999976D02*
X187624913Y-46849981D01*
X187624913Y-46849981D02*
X188149913Y-46324981D01*
%TO.N,Net-(D18-Pad2)*%
X204624905Y-46849981D02*
X205149905Y-46324981D01*
X204624905Y-50999976D02*
X204624905Y-46849981D01*
%TO.N,Net-(D19-Pad2)*%
X221624897Y-50999976D02*
X221624897Y-46849981D01*
X221624897Y-46849981D02*
X222149897Y-46324981D01*
%TO.N,Net-(D20-Pad2)*%
X238624889Y-46849981D02*
X239149889Y-46324981D01*
X238624889Y-50999976D02*
X238624889Y-46849981D01*
%TO.N,row3*%
X167874921Y-53833308D02*
X165124921Y-53833308D01*
X83168293Y-63680006D02*
X83168293Y-60415471D01*
X99874953Y-60208305D02*
X97124953Y-60208305D01*
X201874905Y-53833308D02*
X199124905Y-53833308D01*
X150874929Y-53833308D02*
X148124929Y-53833308D01*
X218874897Y-53833308D02*
X216124897Y-53833308D01*
X114124945Y-53833308D02*
X116874945Y-53833308D01*
X83168293Y-60415471D02*
X83375459Y-60208305D01*
X184874913Y-53833308D02*
X182124913Y-53833308D01*
X83375459Y-60208305D02*
X80124961Y-60208305D01*
X114041613Y-59499972D02*
X114124945Y-59416640D01*
X114124945Y-59416640D02*
X114124945Y-53833308D01*
X133874937Y-53833308D02*
X131124937Y-53833308D01*
X235874889Y-53833308D02*
X233124889Y-53833308D01*
%TO.N,Net-(D21-Pad2)*%
X85624961Y-60208305D02*
X85624961Y-56825947D01*
X80223987Y-51424973D02*
X79599961Y-51424973D01*
X85624961Y-56825947D02*
X80223987Y-51424973D01*
%TO.N,Net-(D22-Pad2)*%
X102624953Y-60208305D02*
X102624953Y-57170650D01*
X102624953Y-57170650D02*
X96879276Y-51424973D01*
X96879276Y-51424973D02*
X96599953Y-51424973D01*
%TO.N,Net-(D23-Pad2)*%
X119624945Y-53833308D02*
X119624945Y-62799973D01*
X119624945Y-62799973D02*
X120149945Y-63324973D01*
%TO.N,Net-(D24-Pad2)*%
X136624937Y-62799973D02*
X137149937Y-63324973D01*
X136624937Y-53833308D02*
X136624937Y-62799973D01*
%TO.N,Net-(D25-Pad2)*%
X153624929Y-62799973D02*
X154149929Y-63324973D01*
X153624929Y-53833308D02*
X153624929Y-62799973D01*
%TO.N,Net-(D26-Pad2)*%
X170624921Y-53833308D02*
X170624921Y-62799973D01*
X170624921Y-62799973D02*
X171149921Y-63324973D01*
%TO.N,Net-(D27-Pad2)*%
X187624913Y-53833308D02*
X187624913Y-62799973D01*
X187624913Y-62799973D02*
X188149913Y-63324973D01*
%TO.N,Net-(D28-Pad2)*%
X204624905Y-62799973D02*
X205149905Y-63324973D01*
X204624905Y-53833308D02*
X204624905Y-62799973D01*
%TO.N,Net-(D29-Pad2)*%
X221624897Y-62799973D02*
X222149897Y-63324973D01*
X221624897Y-53833308D02*
X221624897Y-62799973D01*
%TO.N,Net-(D30-Pad2)*%
X238624889Y-53833308D02*
X238624889Y-62799973D01*
X238624889Y-62799973D02*
X239149889Y-63324973D01*
%TO.N,row4*%
X133874937Y-70124967D02*
X131124937Y-70124967D01*
X85708293Y-64458303D02*
X87124959Y-65874969D01*
X114124945Y-65958301D02*
X114124945Y-70124967D01*
X85708293Y-63680006D02*
X85708293Y-64458303D01*
X114124945Y-70124967D02*
X116874945Y-70124967D01*
X201874905Y-70124967D02*
X199124905Y-70124967D01*
X114041613Y-65874969D02*
X114124945Y-65958301D01*
X150874929Y-70124967D02*
X148124929Y-70124967D01*
X184874913Y-70124967D02*
X182124913Y-70124967D01*
X167874921Y-70124967D02*
X165124921Y-70124967D01*
%TO.N,Net-(D33-Pad2)*%
X120149945Y-80324965D02*
X120149945Y-70649967D01*
X120149945Y-70649967D02*
X119624945Y-70124967D01*
%TO.N,Net-(D34-Pad2)*%
X137149937Y-80324965D02*
X137149937Y-70649967D01*
X137149937Y-70649967D02*
X136624937Y-70124967D01*
%TO.N,Net-(D35-Pad2)*%
X154149929Y-80324965D02*
X154149929Y-70649967D01*
X154149929Y-70649967D02*
X153624929Y-70124967D01*
%TO.N,Net-(D36-Pad2)*%
X171149921Y-80324965D02*
X171149921Y-70649967D01*
X171149921Y-70649967D02*
X170624921Y-70124967D01*
%TO.N,Net-(D37-Pad2)*%
X188149913Y-70649967D02*
X187624913Y-70124967D01*
X188149913Y-80324965D02*
X188149913Y-70649967D01*
%TO.N,Net-(D38-Pad2)*%
X205149905Y-70649967D02*
X204624905Y-70124967D01*
X205149905Y-80324965D02*
X205149905Y-70649967D01*
%TO.N,col1*%
X89975442Y-20799508D02*
X91149961Y-19624989D01*
X89000436Y-46724498D02*
X89000436Y-51475448D01*
X88248293Y-63680006D02*
X91149961Y-60778338D01*
X89000436Y-51475448D02*
X91149961Y-53624973D01*
X89975442Y-37799500D02*
X89975442Y-45749492D01*
X91149961Y-36624981D02*
X89975442Y-35450462D01*
X91149961Y-60778338D02*
X91149961Y-53624973D01*
X89975442Y-35450462D02*
X89975442Y-20799508D01*
X91149961Y-36624981D02*
X89975442Y-37799500D01*
X89975442Y-45749492D02*
X89000436Y-46724498D01*
%TO.N,col2*%
X92774472Y-42950462D02*
X91599953Y-44124981D01*
X108374949Y-53849969D02*
X108149953Y-53624973D01*
X93149532Y-61318767D02*
X93149532Y-56308731D01*
X93149532Y-56308731D02*
X93499956Y-55958307D01*
X91374957Y-44349977D02*
X91599953Y-44124981D01*
X108374949Y-55958307D02*
X108374949Y-53849969D01*
X91374957Y-46041645D02*
X91374957Y-44349977D01*
X92774472Y-28299508D02*
X92774472Y-42950462D01*
X90788293Y-63680006D02*
X93149532Y-61318767D01*
X108149953Y-53624973D02*
X108149953Y-46266641D01*
X108149953Y-46266641D02*
X108374949Y-46041645D01*
X91599953Y-27124989D02*
X92774472Y-28299508D01*
%TO.N,col3*%
X107683277Y-60208305D02*
X108599945Y-61124973D01*
X108599945Y-61124973D02*
X109774464Y-59950454D01*
X108599945Y-44124981D02*
X108599945Y-27124989D01*
X108599945Y-78124965D02*
X108599945Y-61124973D01*
X97554952Y-69774966D02*
X97554952Y-62528306D01*
X109774464Y-45299500D02*
X108599945Y-44124981D01*
X97554952Y-62528306D02*
X97749954Y-62333304D01*
X109774464Y-59950454D02*
X109774464Y-45299500D01*
X106249950Y-60208305D02*
X107683277Y-60208305D01*
%TO.N,col4*%
X123000420Y-63724490D02*
X123000420Y-73267432D01*
X125599937Y-61124973D02*
X123820774Y-62904136D01*
X98824952Y-64123972D02*
X99166620Y-63782304D01*
X98824952Y-69774966D02*
X98824952Y-64123972D01*
X125599937Y-61124973D02*
X125599937Y-44124981D01*
X122541609Y-32399734D02*
X122541609Y-30183317D01*
X122541609Y-30183317D02*
X125599937Y-27124989D01*
X123820774Y-62904136D02*
X123000420Y-63724490D01*
X123000420Y-73267432D02*
X125599937Y-75866949D01*
X125599937Y-75866949D02*
X125599937Y-78124965D01*
X125599937Y-44124981D02*
X125599937Y-35458062D01*
X125599937Y-35458062D02*
X122541609Y-32399734D01*
%TO.N,col5*%
X98824952Y-74724966D02*
X98179472Y-74079486D01*
X98179472Y-74079486D02*
X98179472Y-63336619D01*
X98179472Y-63336619D02*
X98458287Y-63057804D01*
X142599929Y-59274976D02*
X142599929Y-61124973D01*
X142599929Y-44124981D02*
X142599929Y-59274976D01*
X142599929Y-44124981D02*
X142599929Y-27124989D01*
X142599929Y-78124965D02*
X142599929Y-61124973D01*
%TO.N,col6*%
X159599921Y-63266633D02*
X159599921Y-78124965D01*
X159599921Y-27124989D02*
X159599921Y-63266633D01*
X100094952Y-64995138D02*
X100583286Y-64506804D01*
X100094952Y-69774966D02*
X100094952Y-64995138D01*
%TO.N,col7*%
X101364952Y-69774966D02*
X101364952Y-65866304D01*
X122275920Y-59207006D02*
X123958275Y-57524651D01*
X176599913Y-27124989D02*
X176599913Y-55733311D01*
X122275920Y-65923994D02*
X122275920Y-59207006D01*
X123958275Y-57524651D02*
X123958275Y-55958307D01*
X101364952Y-65866304D02*
X101999952Y-65231304D01*
X176599913Y-55733311D02*
X176599913Y-78124965D01*
%TO.N,col8*%
X193599905Y-27124989D02*
X195749430Y-29274514D01*
X195749430Y-68249490D02*
X195749430Y-70583778D01*
X193599905Y-40149985D02*
X193599905Y-44124981D01*
X195749430Y-29274514D02*
X195749430Y-38000460D01*
X193599905Y-61124973D02*
X195749430Y-63274498D01*
X195749430Y-63274498D02*
X195749430Y-68249490D01*
X195749430Y-70583778D02*
X193599905Y-72733303D01*
X102634952Y-69774966D02*
X102634952Y-66972901D01*
X102634952Y-66972901D02*
X102866418Y-66741435D01*
X195749430Y-38000460D02*
X193599905Y-40149985D01*
X193599905Y-44124981D02*
X193599905Y-61124973D01*
X193599905Y-72733303D02*
X193599905Y-78124965D01*
%TO.N,col9*%
X103904952Y-71321634D02*
X104124951Y-71541633D01*
X210374901Y-63749970D02*
X210599897Y-63524974D01*
X103904952Y-69774966D02*
X103904952Y-71321634D01*
X210599897Y-61124973D02*
X210599897Y-27124989D01*
X210599897Y-63524974D02*
X210599897Y-61124973D01*
%TO.N,col10*%
X229749414Y-46274506D02*
X229749414Y-55000452D01*
X227599889Y-57149977D02*
X227599889Y-61124973D01*
X105174952Y-69774966D02*
X105174952Y-71818182D01*
X229749414Y-55000452D02*
X227599889Y-57149977D01*
X227599889Y-27124989D02*
X227599889Y-44124981D01*
X227599889Y-63524974D02*
X227599889Y-61124973D01*
X105174952Y-71818182D02*
X105622903Y-72266133D01*
X227599889Y-44124981D02*
X229749414Y-46274506D01*
X227374893Y-63749970D02*
X227599889Y-63524974D01*
%TO.N,gnd*%
X80699304Y-72300624D02*
X80699304Y-70591955D01*
X208958235Y-75083298D02*
X209808234Y-75933297D01*
X208958235Y-69416634D02*
X209249902Y-69124967D01*
X80699304Y-70591955D02*
X83486293Y-67804966D01*
X106266128Y-81442117D02*
X106266128Y-76549862D01*
X208958235Y-75083298D02*
X208958235Y-69416634D01*
X106266128Y-76549862D02*
X107069472Y-75746518D01*
X106249950Y-81458295D02*
X106266128Y-81442117D01*
X80699304Y-80748915D02*
X80699304Y-72300624D01*
X80628293Y-80819926D02*
X80699304Y-80748915D01*
X107069472Y-70399486D02*
X106444952Y-69774966D01*
X101291619Y-81458295D02*
X101291619Y-74798299D01*
X107069472Y-75746518D02*
X107069472Y-70399486D01*
X209249902Y-69124967D02*
X210600000Y-69124967D01*
X208958235Y-82166628D02*
X208958235Y-75083298D01*
X209808234Y-75933297D02*
X210374901Y-75933297D01*
%TO.N,vbat*%
X208958235Y-68780916D02*
X208249902Y-69489249D01*
X206149484Y-77232878D02*
X206833236Y-77916630D01*
X208958235Y-20541657D02*
X208958235Y-68780916D01*
X99999954Y-18429992D02*
X99999954Y-19958325D01*
X206149484Y-73867378D02*
X206149484Y-75816212D01*
X206149484Y-75816212D02*
X206149484Y-77232878D01*
X99999954Y-19958325D02*
X100583286Y-20541657D01*
X208249902Y-69489249D02*
X208249902Y-71766960D01*
X208249902Y-71766960D02*
X206149484Y-73867378D01*
%TO.N,bat+*%
X96451966Y-17882004D02*
X96999954Y-18429992D01*
X75083298Y-66583302D02*
X75083298Y-19124991D01*
X96451966Y-16455265D02*
X96451966Y-17882004D01*
%TO.N,vcc*%
X83168293Y-79748297D02*
X84999960Y-77916630D01*
X97749954Y-76499964D02*
X97749954Y-74919968D01*
X105541617Y-76499964D02*
X105541617Y-75091631D01*
X105541617Y-75091631D02*
X105174952Y-74724966D01*
X97749954Y-74919968D02*
X97554952Y-74724966D01*
X83168293Y-80819926D02*
X83168293Y-79748297D01*
%TO.N,sck*%
X92083290Y-79524929D02*
X92083290Y-78624963D01*
X104124951Y-80041629D02*
X103904952Y-79821630D01*
X90788293Y-80819926D02*
X92083290Y-79524929D01*
X103904952Y-79821630D02*
X103904952Y-74724966D01*
%TO.N,io_cs*%
X93328293Y-80819926D02*
X93429992Y-80819926D01*
X102708285Y-79333296D02*
X102708285Y-74798299D01*
X93429992Y-80819926D02*
X94916622Y-79333296D01*
X102708285Y-74798299D02*
X102634952Y-74724966D01*
%TO.N,mosi*%
X87124959Y-78624963D02*
X85708293Y-80041629D01*
X100094952Y-80562308D02*
X99874953Y-80782307D01*
X100094952Y-74724966D02*
X100094952Y-80562308D01*
X85708293Y-80041629D02*
X85708293Y-80819926D01*
%TD*%
M02*
