M48
METRIC,TZ
T1C0.400
T2C0.750
T3C1.000
T4C1.016
%
G90
G05
T1
X75083Y-19125
X75083Y-66583
X76500Y-29750
X80042Y-43208
X80042Y-58083
X80042Y-62333
X80699Y-77866
X82875Y-29750
X83375Y-60208
X85000Y-77917
X87125Y-65875
X87125Y-78625
X91375Y-46042
X92083Y-78625
X93500Y-55958
X94208Y-36833
X94917Y-79333
X96452Y-16455
X97042Y-48875
X97750Y-62333
X97750Y-76500
X98458Y-63058
X99167Y-63782
X99875Y-34000
X99875Y-60208
X99875Y-80782
X100583Y-20542
X100583Y-64507
X101292Y-81458
X102000Y-65231
X102708Y-79333
X102866Y-66741
X104125Y-71542
X104125Y-80042
X105542Y-76500
X105623Y-72266
X106250Y-60208
X106250Y-81458
X108375Y-46042
X108375Y-55958
X114042Y-59500
X114042Y-65875
X116875Y-34000
X116875Y-51000
X116875Y-53833
X116875Y-70125
X122276Y-65924
X123821Y-62904
X123958Y-55958
X133875Y-34000
X133875Y-51000
X133875Y-53833
X133875Y-70125
X142600Y-59275
X150875Y-34000
X150875Y-51000
X150875Y-53833
X150875Y-70125
X159600Y-63267
X167875Y-34000
X167875Y-51000
X167875Y-53833
X167875Y-70125
X176600Y-55733
X184875Y-34000
X184875Y-51000
X184875Y-53833
X184875Y-70125
X195749Y-68249
X201875Y-34000
X201875Y-51000
X201875Y-53833
X201875Y-70125
X206833Y-77917
X208234Y-70833
X208958Y-20542
X208958Y-82167
X210375Y-63750
X218875Y-34000
X218875Y-51000
X218875Y-53833
X227375Y-63750
X235875Y-34000
X235875Y-51000
X235875Y-53833
T2
X210600Y-69125
X210600Y-71125
T3
X210375Y-75933
X210375Y-78473
T4
X77136Y-70980
X77136Y-73520
X79676Y-70980
X79676Y-73520
X83486Y-67805
X85391Y-67805
X94916Y-76060
X94916Y-77965
T0
M30
