%TF.GenerationSoftware,KiCad,Pcbnew,(6.0.4-0)*%
%TF.CreationDate,2023-01-08T13:58:21-06:00*%
%TF.ProjectId,bancouver40_cfx,62616e63-6f75-4766-9572-34305f636678,rev?*%
%TF.SameCoordinates,Original*%
%TF.FileFunction,Soldermask,Bot*%
%TF.FilePolarity,Negative*%
%FSLAX46Y46*%
G04 Gerber Fmt 4.6, Leading zero omitted, Abs format (unit mm)*
G04 Created by KiCad (PCBNEW (6.0.4-0)) date 2023-01-08 13:58:21*
%MOMM*%
%LPD*%
G01*
G04 APERTURE LIST*
G04 Aperture macros list*
%AMRoundRect*
0 Rectangle with rounded corners*
0 $1 Rounding radius*
0 $2 $3 $4 $5 $6 $7 $8 $9 X,Y pos of 4 corners*
0 Add a 4 corners polygon primitive as box body*
4,1,4,$2,$3,$4,$5,$6,$7,$8,$9,$2,$3,0*
0 Add four circle primitives for the rounded corners*
1,1,$1+$1,$2,$3*
1,1,$1+$1,$4,$5*
1,1,$1+$1,$6,$7*
1,1,$1+$1,$8,$9*
0 Add four rect primitives between the rounded corners*
20,1,$1+$1,$2,$3,$4,$5,0*
20,1,$1+$1,$4,$5,$6,$7,0*
20,1,$1+$1,$6,$7,$8,$9,0*
20,1,$1+$1,$8,$9,$2,$3,0*%
G04 Aperture macros list end*
%ADD10C,3.429000*%
%ADD11C,1.701800*%
%ADD12C,3.000000*%
%ADD13C,0.990600*%
%ADD14R,2.600000X2.600000*%
%ADD15C,4.000000*%
%ADD16R,3.300000X1.700000*%
%ADD17RoundRect,0.150000X-0.150000X0.825000X-0.150000X-0.825000X0.150000X-0.825000X0.150000X0.825000X0*%
%ADD18R,1.700000X1.700000*%
%ADD19O,1.700000X1.700000*%
%ADD20O,1.800000X2.750000*%
%ADD21C,1.397000*%
%ADD22C,0.900000*%
%ADD23R,1.000000X0.800000*%
%ADD24R,0.700000X1.500000*%
%ADD25RoundRect,0.250000X-0.625000X0.350000X-0.625000X-0.350000X0.625000X-0.350000X0.625000X0.350000X0*%
%ADD26O,1.750000X1.200000*%
G04 APERTURE END LIST*
D10*
%TO.C,SW25*%
X150874929Y-57374973D03*
D11*
X156374929Y-57374973D03*
D12*
X150874929Y-63324973D03*
D11*
X145374929Y-57374973D03*
D12*
X145874929Y-61124973D03*
D13*
X156094929Y-53174973D03*
D14*
X154149929Y-63324973D03*
X142599929Y-61124973D03*
%TD*%
D11*
%TO.C,SW17*%
X190374913Y-40374981D03*
D12*
X184874913Y-46324981D03*
D11*
X179374913Y-40374981D03*
D12*
X179874913Y-44124981D03*
D10*
X184874913Y-40374981D03*
D13*
X190094913Y-36174981D03*
D14*
X188149913Y-46324981D03*
X176599913Y-44124981D03*
%TD*%
D12*
%TO.C,SW23*%
X116874945Y-63324973D03*
D10*
X116874945Y-57374973D03*
D11*
X111374945Y-57374973D03*
D12*
X111874945Y-61124973D03*
D11*
X122374945Y-57374973D03*
D13*
X122094945Y-53174973D03*
D14*
X120149945Y-63324973D03*
X108599945Y-61124973D03*
%TD*%
D11*
%TO.C,SW26*%
X173374921Y-57374973D03*
D12*
X167874921Y-63324973D03*
X162874921Y-61124973D03*
D13*
X173094921Y-53174973D03*
D10*
X167874921Y-57374973D03*
D11*
X162374921Y-57374973D03*
D14*
X171149921Y-63324973D03*
X159599921Y-61124973D03*
%TD*%
D10*
%TO.C,SW13*%
X116874945Y-40374981D03*
D11*
X111374945Y-40374981D03*
D13*
X122094945Y-36174981D03*
D12*
X111874945Y-44124981D03*
D11*
X122374945Y-40374981D03*
D12*
X116874945Y-46324981D03*
D14*
X120149945Y-46324981D03*
X108599945Y-44124981D03*
%TD*%
D15*
%TO.C,H4*%
X227374893Y-48874977D03*
%TD*%
D12*
%TO.C,SW20*%
X230874889Y-44124981D03*
D11*
X241374889Y-40374981D03*
X230374889Y-40374981D03*
D12*
X235874889Y-46324981D03*
D10*
X235874889Y-40374981D03*
D13*
X241094889Y-36174981D03*
D14*
X239149889Y-46324981D03*
X227599889Y-44124981D03*
%TD*%
D11*
%TO.C,SW16*%
X162374921Y-40374981D03*
X173374921Y-40374981D03*
D13*
X173094921Y-36174981D03*
D12*
X162874921Y-44124981D03*
X167874921Y-46324981D03*
D10*
X167874921Y-40374981D03*
D14*
X171149921Y-46324981D03*
X159599921Y-44124981D03*
%TD*%
D12*
%TO.C,SW4*%
X128874937Y-27124989D03*
X133874937Y-29324989D03*
D10*
X133874937Y-23374989D03*
D13*
X139094937Y-19174989D03*
D11*
X128374937Y-23374989D03*
X139374937Y-23374989D03*
D14*
X137149937Y-29324989D03*
X125599937Y-27124989D03*
%TD*%
D10*
%TO.C,SW1*%
X82874961Y-23374989D03*
D12*
X82874961Y-17424989D03*
X87874961Y-19624989D03*
D11*
X77374961Y-23374989D03*
X88374961Y-23374989D03*
D13*
X77654961Y-27574989D03*
D14*
X79599961Y-17424989D03*
X91149961Y-19624989D03*
%TD*%
D12*
%TO.C,SW29*%
X218874897Y-63324973D03*
D10*
X218874897Y-57374973D03*
D11*
X224374897Y-57374973D03*
D13*
X224094897Y-53174973D03*
D11*
X213374897Y-57374973D03*
D12*
X213874897Y-61124973D03*
D14*
X222149897Y-63324973D03*
X210599897Y-61124973D03*
%TD*%
D12*
%TO.C,SW15*%
X150874929Y-46324981D03*
D11*
X156374929Y-40374981D03*
D13*
X156094929Y-36174981D03*
D11*
X145374929Y-40374981D03*
D12*
X145874929Y-44124981D03*
D10*
X150874929Y-40374981D03*
D14*
X154149929Y-46324981D03*
X142599929Y-44124981D03*
%TD*%
D11*
%TO.C,SW34*%
X139374937Y-74374965D03*
D13*
X139094937Y-70174965D03*
D10*
X133874937Y-74374965D03*
D11*
X128374937Y-74374965D03*
D12*
X133874937Y-80324965D03*
X128874937Y-78124965D03*
D14*
X137149937Y-80324965D03*
X125599937Y-78124965D03*
%TD*%
D10*
%TO.C,SW6*%
X167874921Y-23374989D03*
D12*
X167874921Y-29324989D03*
D11*
X173374921Y-23374989D03*
D12*
X162874921Y-27124989D03*
D13*
X173094921Y-19174989D03*
D11*
X162374921Y-23374989D03*
D14*
X171149921Y-29324989D03*
X159599921Y-27124989D03*
%TD*%
D13*
%TO.C,SW10*%
X241094889Y-19174989D03*
D12*
X230874889Y-27124989D03*
D10*
X235874889Y-23374989D03*
D12*
X235874889Y-29324989D03*
D11*
X230374889Y-23374989D03*
X241374889Y-23374989D03*
D14*
X239149889Y-29324989D03*
X227599889Y-27124989D03*
%TD*%
D13*
%TO.C,SW33*%
X122094945Y-70174965D03*
D12*
X111874945Y-78124965D03*
D11*
X122374945Y-74374965D03*
D10*
X116874945Y-74374965D03*
D12*
X116874945Y-80324965D03*
D11*
X111374945Y-74374965D03*
D14*
X120149945Y-80324965D03*
X108599945Y-78124965D03*
%TD*%
D13*
%TO.C,SW27*%
X190094913Y-53174973D03*
D11*
X190374913Y-57374973D03*
D12*
X184874913Y-63324973D03*
D11*
X179374913Y-57374973D03*
D10*
X184874913Y-57374973D03*
D12*
X179874913Y-61124973D03*
D14*
X188149913Y-63324973D03*
X176599913Y-61124973D03*
%TD*%
D11*
%TO.C,SW30*%
X230374889Y-57374973D03*
X241374889Y-57374973D03*
D13*
X241094889Y-53174973D03*
D12*
X230874889Y-61124973D03*
X235874889Y-63324973D03*
D10*
X235874889Y-57374973D03*
D14*
X239149889Y-63324973D03*
X227599889Y-61124973D03*
%TD*%
D15*
%TO.C,H5*%
X125374941Y-65874969D03*
%TD*%
%TO.C,H2*%
X193374909Y-31874985D03*
%TD*%
D11*
%TO.C,SW7*%
X190374913Y-23374989D03*
D12*
X184874913Y-29324989D03*
X179874913Y-27124989D03*
D11*
X179374913Y-23374989D03*
D10*
X184874913Y-23374989D03*
D13*
X190094913Y-19174989D03*
D14*
X188149913Y-29324989D03*
X176599913Y-27124989D03*
%TD*%
D12*
%TO.C,SW19*%
X213874897Y-44124981D03*
X218874897Y-46324981D03*
D10*
X218874897Y-40374981D03*
D11*
X213374897Y-40374981D03*
X224374897Y-40374981D03*
D13*
X224094897Y-36174981D03*
D14*
X222149897Y-46324981D03*
X210599897Y-44124981D03*
%TD*%
D15*
%TO.C,H6*%
X193374909Y-65874969D03*
%TD*%
D11*
%TO.C,SW24*%
X139374937Y-57374973D03*
D13*
X139094937Y-53174973D03*
D12*
X128874937Y-61124973D03*
D10*
X133874937Y-57374973D03*
D12*
X133874937Y-63324973D03*
D11*
X128374937Y-57374973D03*
D14*
X137149937Y-63324973D03*
X125599937Y-61124973D03*
%TD*%
D12*
%TO.C,SW5*%
X150874929Y-29324989D03*
D10*
X150874929Y-23374989D03*
D13*
X156094929Y-19174989D03*
D11*
X156374929Y-23374989D03*
X145374929Y-23374989D03*
D12*
X145874929Y-27124989D03*
D14*
X154149929Y-29324989D03*
X142599929Y-27124989D03*
%TD*%
D12*
%TO.C,SW38*%
X201874905Y-80324965D03*
D13*
X207094905Y-70174965D03*
D10*
X201874905Y-74374965D03*
D11*
X196374905Y-74374965D03*
D12*
X196874905Y-78124965D03*
D11*
X207374905Y-74374965D03*
D14*
X205149905Y-80324965D03*
X193599905Y-78124965D03*
%TD*%
D11*
%TO.C,SW35*%
X145374929Y-74374965D03*
D10*
X150874929Y-74374965D03*
D11*
X156374929Y-74374965D03*
D12*
X145874929Y-78124965D03*
X150874929Y-80324965D03*
D13*
X156094929Y-70174965D03*
D14*
X154149929Y-80324965D03*
X142599929Y-78124965D03*
%TD*%
D13*
%TO.C,SW18*%
X207094905Y-36174981D03*
D11*
X196374905Y-40374981D03*
X207374905Y-40374981D03*
D12*
X201874905Y-46324981D03*
D10*
X201874905Y-40374981D03*
D12*
X196874905Y-44124981D03*
D14*
X205149905Y-46324981D03*
X193599905Y-44124981D03*
%TD*%
D12*
%TO.C,SW3*%
X116874945Y-29324989D03*
D11*
X111374945Y-23374989D03*
D12*
X111874945Y-27124989D03*
D11*
X122374945Y-23374989D03*
D13*
X122094945Y-19174989D03*
D10*
X116874945Y-23374989D03*
D14*
X120149945Y-29324989D03*
X108599945Y-27124989D03*
%TD*%
D10*
%TO.C,SW9*%
X218874897Y-23374989D03*
D11*
X224374897Y-23374989D03*
X213374897Y-23374989D03*
D12*
X218874897Y-29324989D03*
X213874897Y-27124989D03*
D13*
X224094897Y-19174989D03*
D14*
X222149897Y-29324989D03*
X210599897Y-27124989D03*
%TD*%
D13*
%TO.C,SW14*%
X139094937Y-36174981D03*
D11*
X128374937Y-40374981D03*
X139374937Y-40374981D03*
D12*
X128874937Y-44124981D03*
D10*
X133874937Y-40374981D03*
D12*
X133874937Y-46324981D03*
D14*
X137149937Y-46324981D03*
X125599937Y-44124981D03*
%TD*%
D12*
%TO.C,SW21*%
X87874961Y-53624973D03*
X82874961Y-51424973D03*
D11*
X77374961Y-57374973D03*
X88374961Y-57374973D03*
D10*
X82874961Y-57374973D03*
D13*
X77654961Y-61574973D03*
D14*
X79599961Y-51424973D03*
X91149961Y-53624973D03*
%TD*%
D12*
%TO.C,SW2*%
X94874953Y-27124989D03*
D10*
X99874953Y-23374989D03*
D13*
X105094953Y-19174989D03*
D12*
X99874953Y-29324989D03*
D11*
X94374953Y-23374989D03*
X105374953Y-23374989D03*
D14*
X103149953Y-29324989D03*
X91599953Y-27124989D03*
%TD*%
D12*
%TO.C,SW12*%
X94874953Y-44124981D03*
D13*
X105094953Y-36174981D03*
D12*
X99874953Y-46324981D03*
D10*
X99874953Y-40374981D03*
D11*
X105374953Y-40374981D03*
X94374953Y-40374981D03*
D14*
X103149953Y-46324981D03*
X91599953Y-44124981D03*
%TD*%
D12*
%TO.C,SW36*%
X162874921Y-78124965D03*
D11*
X173374921Y-74374965D03*
D12*
X167874921Y-80324965D03*
D10*
X167874921Y-74374965D03*
D13*
X173094921Y-70174965D03*
D11*
X162374921Y-74374965D03*
D14*
X171149921Y-80324965D03*
X159599921Y-78124965D03*
%TD*%
D11*
%TO.C,SW22*%
X105374953Y-57374973D03*
D12*
X99874953Y-51424973D03*
D13*
X94654953Y-61574973D03*
D11*
X94374953Y-57374973D03*
D10*
X99874953Y-57374973D03*
D12*
X104874953Y-53624973D03*
D14*
X96599953Y-51424973D03*
X108149953Y-53624973D03*
%TD*%
D11*
%TO.C,SW28*%
X196374905Y-57374973D03*
X207374905Y-57374973D03*
D12*
X201874905Y-63324973D03*
D13*
X207094905Y-53174973D03*
D12*
X196874905Y-61124973D03*
D10*
X201874905Y-57374973D03*
D14*
X205149905Y-63324973D03*
X193599905Y-61124973D03*
%TD*%
D15*
%TO.C,H3*%
X91374957Y-48874977D03*
%TD*%
D11*
%TO.C,SW37*%
X179374913Y-74374965D03*
D10*
X184874913Y-74374965D03*
D12*
X179874913Y-78124965D03*
X184874913Y-80324965D03*
D11*
X190374913Y-74374965D03*
D13*
X190094913Y-70174965D03*
D14*
X188149913Y-80324965D03*
X176599913Y-78124965D03*
%TD*%
D11*
%TO.C,SW11*%
X88374961Y-40374981D03*
X77374961Y-40374981D03*
D12*
X87874961Y-36624981D03*
D13*
X77654961Y-44574981D03*
D12*
X82874961Y-34424981D03*
D10*
X82874961Y-40374981D03*
D14*
X79599961Y-34424981D03*
X91149961Y-36624981D03*
%TD*%
D15*
%TO.C,H1*%
X125374941Y-31874985D03*
%TD*%
D10*
%TO.C,SW8*%
X201874905Y-23374989D03*
D12*
X201874905Y-29324989D03*
D13*
X207094905Y-19174989D03*
D12*
X196874905Y-27124989D03*
D11*
X196374905Y-23374989D03*
X207374905Y-23374989D03*
D14*
X205149905Y-29324989D03*
X193599905Y-27124989D03*
%TD*%
D16*
%TO.C,D35*%
X148124929Y-70124967D03*
X153624929Y-70124967D03*
%TD*%
%TO.C,D30*%
X233124889Y-53833308D03*
X238624889Y-53833308D03*
%TD*%
%TO.C,D34*%
X131124937Y-70124967D03*
X136624937Y-70124967D03*
%TD*%
%TO.C,D11*%
X80124961Y-46749978D03*
X85624961Y-46749978D03*
%TD*%
%TO.C,D8*%
X199124905Y-33999984D03*
X204624905Y-33999984D03*
%TD*%
%TO.C,D22*%
X97124953Y-60208305D03*
X102624953Y-60208305D03*
%TD*%
%TO.C,D24*%
X131124937Y-53833308D03*
X136624937Y-53833308D03*
%TD*%
%TO.C,D27*%
X182124913Y-53833308D03*
X187624913Y-53833308D03*
%TD*%
%TO.C,D4*%
X131124937Y-33999984D03*
X136624937Y-33999984D03*
%TD*%
D17*
%TO.C,U2*%
X97554952Y-69774966D03*
X98824952Y-69774966D03*
X100094952Y-69774966D03*
X101364952Y-69774966D03*
X102634952Y-69774966D03*
X103904952Y-69774966D03*
X105174952Y-69774966D03*
X106444952Y-69774966D03*
X106444952Y-74724966D03*
X105174952Y-74724966D03*
X103904952Y-74724966D03*
X102634952Y-74724966D03*
X101364952Y-74724966D03*
X100094952Y-74724966D03*
X98824952Y-74724966D03*
X97554952Y-74724966D03*
%TD*%
D18*
%TO.C,J2*%
X210374901Y-75933297D03*
D19*
X210374901Y-78473297D03*
%TD*%
D16*
%TO.C,D29*%
X216124897Y-53833308D03*
X221624897Y-53833308D03*
%TD*%
%TO.C,D28*%
X199124905Y-53833308D03*
X204624905Y-53833308D03*
%TD*%
%TO.C,D33*%
X114124945Y-70124967D03*
X119624945Y-70124967D03*
%TD*%
%TO.C,D15*%
X148124929Y-50999976D03*
X153624929Y-50999976D03*
%TD*%
D20*
%TO.C,U1*%
X78088293Y-64155006D03*
X80628293Y-64155006D03*
X83168293Y-64155006D03*
X85708293Y-64155006D03*
X88248293Y-64155006D03*
X90788293Y-64155006D03*
X93328293Y-64155006D03*
X93328293Y-80344926D03*
X90788293Y-80344926D03*
X88248293Y-80344926D03*
X85708293Y-80344926D03*
X83168293Y-80344926D03*
X80628293Y-80344926D03*
X78088293Y-80344926D03*
D21*
X77136293Y-70979966D03*
X77136293Y-73519966D03*
X79676293Y-70979966D03*
X79676293Y-73519966D03*
X85391293Y-67804966D03*
X83486293Y-67804966D03*
X94916293Y-76059966D03*
X94916293Y-77964966D03*
%TD*%
D16*
%TO.C,D9*%
X216124897Y-33999984D03*
X221624897Y-33999984D03*
%TD*%
%TO.C,D21*%
X80124961Y-60208305D03*
X85624961Y-60208305D03*
%TD*%
%TO.C,D19*%
X216124897Y-50999976D03*
X221624897Y-50999976D03*
%TD*%
D22*
%TO.C,SW41*%
X97749954Y-16669992D03*
X100749954Y-16669992D03*
D23*
X102899954Y-15569992D03*
X95599954Y-15569992D03*
X102899954Y-17779992D03*
X95599954Y-17779992D03*
D24*
X96999954Y-18429992D03*
X99999954Y-18429992D03*
X101499954Y-18429992D03*
%TD*%
D16*
%TO.C,D10*%
X233124889Y-33999984D03*
X238624889Y-33999984D03*
%TD*%
%TO.C,D14*%
X131124937Y-50999976D03*
X136624937Y-50999976D03*
%TD*%
%TO.C,D6*%
X165124921Y-33999984D03*
X170624921Y-33999984D03*
%TD*%
%TO.C,D18*%
X199124905Y-50999976D03*
X204624905Y-50999976D03*
%TD*%
%TO.C,D16*%
X165124921Y-50999976D03*
X170624921Y-50999976D03*
%TD*%
%TO.C,D13*%
X114124945Y-50999976D03*
X119624945Y-50999976D03*
%TD*%
%TO.C,D25*%
X148124929Y-53833308D03*
X153624929Y-53833308D03*
%TD*%
%TO.C,D26*%
X165124921Y-53833308D03*
X170624921Y-53833308D03*
%TD*%
%TO.C,D1*%
X80124961Y-29749986D03*
X85624961Y-29749986D03*
%TD*%
%TO.C,D3*%
X114124945Y-33999984D03*
X119624945Y-33999984D03*
%TD*%
%TO.C,D7*%
X182124913Y-33999984D03*
X187624913Y-33999984D03*
%TD*%
%TO.C,D23*%
X114124945Y-53833308D03*
X119624945Y-53833308D03*
%TD*%
%TO.C,D17*%
X182124913Y-50999976D03*
X187624913Y-50999976D03*
%TD*%
D25*
%TO.C,J1*%
X210600000Y-69124967D03*
D26*
X210600000Y-71124967D03*
%TD*%
D16*
%TO.C,D12*%
X97124953Y-36833316D03*
X102624953Y-36833316D03*
%TD*%
%TO.C,D5*%
X148124929Y-33999984D03*
X153624929Y-33999984D03*
%TD*%
%TO.C,D37*%
X182124913Y-70124967D03*
X187624913Y-70124967D03*
%TD*%
%TO.C,D36*%
X165124921Y-70124967D03*
X170624921Y-70124967D03*
%TD*%
%TO.C,D20*%
X233124889Y-50999976D03*
X238624889Y-50999976D03*
%TD*%
%TO.C,D38*%
X199124905Y-70124967D03*
X204624905Y-70124967D03*
%TD*%
%TO.C,D2*%
X97124953Y-33999984D03*
X102624953Y-33999984D03*
%TD*%
M02*
