<?xml version="1.0" standalone="no"?>
 <!DOCTYPE svg PUBLIC "-//W3C//DTD SVG 1.1//EN" 
 "http://www.w3.org/Graphics/SVG/1.1/DTD/svg11.dtd"> 
<svg
  xmlns:svg="http://www.w3.org/2000/svg"
  xmlns="http://www.w3.org/2000/svg"
  xmlns:xlink="http://www.w3.org/1999/xlink"
  version="1.1"
  width="29.700220cm" height="21.000720cm" viewBox="0 0 297002200 210007200">
<title>SVG Picture created as babbit_bottom-F_Cu.svg date 2023/01/22 15:43:12 </title>
  <desc>Picture generated by PCBNEW </desc>
<g style="fill:#000000; fill-opacity:1.000000;stroke:#000000; stroke-opacity:1.000000;
stroke-linecap:round; stroke-linejoin:round;"
 transform="translate(0 0) scale(1 1)">
</g>
<g style="fill:#000000; fill-opacity:0.0; 
stroke:#000000; stroke-width:0.000000; stroke-opacity:1; 
stroke-linecap:round; stroke-linejoin:round;">
</g>
<g style="fill:#000000; fill-opacity:0.0; 
stroke:#000000; stroke-width:21200.000000; stroke-opacity:1; 
stroke-linecap:round; stroke-linejoin:round;">
</g>
<g style="fill:#000000; fill-opacity:0.0; 
stroke:#000000; stroke-width:150000.000000; stroke-opacity:1; 
stroke-linecap:round; stroke-linejoin:round;">
<rect x="177002200.000000" y="166007200.000000" width="108000000.000000" height="32000000.000000" rx="0.000000" />
</g>
<g style="fill:#000000; fill-opacity:0.0; 
stroke:#000000; stroke-width:21200.000000; stroke-opacity:1; 
stroke-linecap:round; stroke-linejoin:round;">
</g>
<g style="fill:#000000; fill-opacity:0.0; 
stroke:#000000; stroke-width:150000.000000; stroke-opacity:1; 
stroke-linecap:round; stroke-linejoin:round;">
<rect x="10000000.000000" y="10000000.000000" width="277002200.000000" height="190007200.000000" rx="0.000000" />
</g>
<g style="fill:#000000; fill-opacity:0.0; 
stroke:#000000; stroke-width:21200.000000; stroke-opacity:1; 
stroke-linecap:round; stroke-linejoin:round;">
</g>
<g style="fill:#000000; fill-opacity:0.0; 
stroke:#000000; stroke-width:150000.000000; stroke-opacity:1; 
stroke-linecap:round; stroke-linejoin:round;">
<rect x="12000000.000000" y="12000000.000000" width="273002200.000000" height="186007200.000000" rx="0.000000" />
</g>
<g style="fill:#000000; fill-opacity:0.0; 
stroke:#000000; stroke-width:21200.000000; stroke-opacity:1; 
stroke-linecap:round; stroke-linejoin:round;">
</g>
<g style="fill:#000000; fill-opacity:0.0; 
stroke:#000000; stroke-width:150000.000000; stroke-opacity:1; 
stroke-linecap:round; stroke-linejoin:round;">
<path d="M60000000 12000000
L60000000 10000000
" />
</g>
<g style="fill:#000000; fill-opacity:0.0; 
stroke:#000000; stroke-width:21200.000000; stroke-opacity:1; 
stroke-linecap:round; stroke-linejoin:round;">
</g>
<g style="fill:#000000; fill-opacity:0.0; 
stroke:#000000; stroke-width:150000.000000; stroke-opacity:1; 
stroke-linecap:round; stroke-linejoin:round;">
<path d="M110000000 12000000
L110000000 10000000
" />
</g>
<g style="fill:#000000; fill-opacity:0.0; 
stroke:#000000; stroke-width:21200.000000; stroke-opacity:1; 
stroke-linecap:round; stroke-linejoin:round;">
</g>
<g style="fill:#000000; fill-opacity:0.0; 
stroke:#000000; stroke-width:150000.000000; stroke-opacity:1; 
stroke-linecap:round; stroke-linejoin:round;">
<path d="M160000000 12000000
L160000000 10000000
" />
</g>
<g style="fill:#000000; fill-opacity:0.0; 
stroke:#000000; stroke-width:21200.000000; stroke-opacity:1; 
stroke-linecap:round; stroke-linejoin:round;">
</g>
<g style="fill:#000000; fill-opacity:0.0; 
stroke:#000000; stroke-width:150000.000000; stroke-opacity:1; 
stroke-linecap:round; stroke-linejoin:round;">
<path d="M210000000 12000000
L210000000 10000000
" />
</g>
<g style="fill:#000000; fill-opacity:0.0; 
stroke:#000000; stroke-width:21200.000000; stroke-opacity:1; 
stroke-linecap:round; stroke-linejoin:round;">
</g>
<g style="fill:#000000; fill-opacity:0.0; 
stroke:#000000; stroke-width:150000.000000; stroke-opacity:1; 
stroke-linecap:round; stroke-linejoin:round;">
<path d="M260000000 12000000
L260000000 10000000
" />
</g>
<g style="fill:#000000; fill-opacity:0.0; 
stroke:#000000; stroke-width:21200.000000; stroke-opacity:1; 
stroke-linecap:round; stroke-linejoin:round;">
</g>
<g style="fill:#000000; fill-opacity:0.0; 
stroke:#000000; stroke-width:150000.000000; stroke-opacity:1; 
stroke-linecap:round; stroke-linejoin:round;">
<text x="35000000.000000" y="11650000.000000"
textLength="1388095.000000" font-size="1733333.000000" lengthAdjust="spacingAndGlyphs"
text-anchor="start" opacity="0">1</text>
<g class="stroked-text"><desc>1</desc>
<path d="M36065476 11588095
L35322619 11588095
" />
<path d="M35694047 11588095
L35694047 10288095
L35570238 10473809
L35446428 10597619
L35322619 10659523
" />
</g></g>
<g style="fill:#000000; fill-opacity:0.0; 
stroke:#000000; stroke-width:21200.000000; stroke-opacity:1; 
stroke-linecap:round; stroke-linejoin:round;">
</g>
<g style="fill:#000000; fill-opacity:0.0; 
stroke:#000000; stroke-width:150000.000000; stroke-opacity:1; 
stroke-linecap:round; stroke-linejoin:round;">
<text x="85000000.000000" y="11650000.000000"
textLength="1388095.000000" font-size="1733333.000000" lengthAdjust="spacingAndGlyphs"
text-anchor="start" opacity="0">2</text>
<g class="stroked-text"><desc>2</desc>
<path d="M85322619 10411904
L85384523 10350000
L85508333 10288095
L85817857 10288095
L85941666 10350000
L86003571 10411904
L86065476 10535714
L86065476 10659523
L86003571 10845238
L85260714 11588095
L86065476 11588095
" />
</g></g>
<g style="fill:#000000; fill-opacity:0.0; 
stroke:#000000; stroke-width:21200.000000; stroke-opacity:1; 
stroke-linecap:round; stroke-linejoin:round;">
</g>
<g style="fill:#000000; fill-opacity:0.0; 
stroke:#000000; stroke-width:150000.000000; stroke-opacity:1; 
stroke-linecap:round; stroke-linejoin:round;">
<text x="135000000.000000" y="11650000.000000"
textLength="1388095.000000" font-size="1733333.000000" lengthAdjust="spacingAndGlyphs"
text-anchor="start" opacity="0">3</text>
<g class="stroked-text"><desc>3</desc>
<path d="M135260714 10288095
L136065476 10288095
L135632142 10783333
L135817857 10783333
L135941666 10845238
L136003571 10907142
L136065476 11030952
L136065476 11340476
L136003571 11464285
L135941666 11526190
L135817857 11588095
L135446428 11588095
L135322619 11526190
L135260714 11464285
" />
</g></g>
<g style="fill:#000000; fill-opacity:0.0; 
stroke:#000000; stroke-width:21200.000000; stroke-opacity:1; 
stroke-linecap:round; stroke-linejoin:round;">
</g>
<g style="fill:#000000; fill-opacity:0.0; 
stroke:#000000; stroke-width:150000.000000; stroke-opacity:1; 
stroke-linecap:round; stroke-linejoin:round;">
<text x="185000000.000000" y="11650000.000000"
textLength="1388095.000000" font-size="1733333.000000" lengthAdjust="spacingAndGlyphs"
text-anchor="start" opacity="0">4</text>
<g class="stroked-text"><desc>4</desc>
<path d="M185941666 10721428
L185941666 11588095
" />
<path d="M185632142 10226190
L185322619 11154761
L186127380 11154761
" />
</g></g>
<g style="fill:#000000; fill-opacity:0.0; 
stroke:#000000; stroke-width:21200.000000; stroke-opacity:1; 
stroke-linecap:round; stroke-linejoin:round;">
</g>
<g style="fill:#000000; fill-opacity:0.0; 
stroke:#000000; stroke-width:150000.000000; stroke-opacity:1; 
stroke-linecap:round; stroke-linejoin:round;">
<text x="235000000.000000" y="11650000.000000"
textLength="1388095.000000" font-size="1733333.000000" lengthAdjust="spacingAndGlyphs"
text-anchor="start" opacity="0">5</text>
<g class="stroked-text"><desc>5</desc>
<path d="M236003571 10288095
L235384523 10288095
L235322619 10907142
L235384523 10845238
L235508333 10783333
L235817857 10783333
L235941666 10845238
L236003571 10907142
L236065476 11030952
L236065476 11340476
L236003571 11464285
L235941666 11526190
L235817857 11588095
L235508333 11588095
L235384523 11526190
L235322619 11464285
" />
</g></g>
<g style="fill:#000000; fill-opacity:0.0; 
stroke:#000000; stroke-width:21200.000000; stroke-opacity:1; 
stroke-linecap:round; stroke-linejoin:round;">
</g>
<g style="fill:#000000; fill-opacity:0.0; 
stroke:#000000; stroke-width:150000.000000; stroke-opacity:1; 
stroke-linecap:round; stroke-linejoin:round;">
<text x="285000000.000000" y="11650000.000000"
textLength="1388095.000000" font-size="1733333.000000" lengthAdjust="spacingAndGlyphs"
text-anchor="start" opacity="0">6</text>
<g class="stroked-text"><desc>6</desc>
<path d="M285941666 10288095
L285694047 10288095
L285570238 10350000
L285508333 10411904
L285384523 10597619
L285322619 10845238
L285322619 11340476
L285384523 11464285
L285446428 11526190
L285570238 11588095
L285817857 11588095
L285941666 11526190
L286003571 11464285
L286065476 11340476
L286065476 11030952
L286003571 10907142
L285941666 10845238
L285817857 10783333
L285570238 10783333
L285446428 10845238
L285384523 10907142
L285322619 11030952
" />
</g></g>
<g style="fill:#000000; fill-opacity:0.0; 
stroke:#000000; stroke-width:21200.000000; stroke-opacity:1; 
stroke-linecap:round; stroke-linejoin:round;">
</g>
<g style="fill:#000000; fill-opacity:0.0; 
stroke:#000000; stroke-width:150000.000000; stroke-opacity:1; 
stroke-linecap:round; stroke-linejoin:round;">
<path d="M60000000 198007200
L60000000 200007200
" />
</g>
<g style="fill:#000000; fill-opacity:0.0; 
stroke:#000000; stroke-width:21200.000000; stroke-opacity:1; 
stroke-linecap:round; stroke-linejoin:round;">
</g>
<g style="fill:#000000; fill-opacity:0.0; 
stroke:#000000; stroke-width:150000.000000; stroke-opacity:1; 
stroke-linecap:round; stroke-linejoin:round;">
<path d="M110000000 198007200
L110000000 200007200
" />
</g>
<g style="fill:#000000; fill-opacity:0.0; 
stroke:#000000; stroke-width:21200.000000; stroke-opacity:1; 
stroke-linecap:round; stroke-linejoin:round;">
</g>
<g style="fill:#000000; fill-opacity:0.0; 
stroke:#000000; stroke-width:150000.000000; stroke-opacity:1; 
stroke-linecap:round; stroke-linejoin:round;">
<path d="M160000000 198007200
L160000000 200007200
" />
</g>
<g style="fill:#000000; fill-opacity:0.0; 
stroke:#000000; stroke-width:21200.000000; stroke-opacity:1; 
stroke-linecap:round; stroke-linejoin:round;">
</g>
<g style="fill:#000000; fill-opacity:0.0; 
stroke:#000000; stroke-width:150000.000000; stroke-opacity:1; 
stroke-linecap:round; stroke-linejoin:round;">
<path d="M210000000 198007200
L210000000 200007200
" />
</g>
<g style="fill:#000000; fill-opacity:0.0; 
stroke:#000000; stroke-width:21200.000000; stroke-opacity:1; 
stroke-linecap:round; stroke-linejoin:round;">
</g>
<g style="fill:#000000; fill-opacity:0.0; 
stroke:#000000; stroke-width:150000.000000; stroke-opacity:1; 
stroke-linecap:round; stroke-linejoin:round;">
<path d="M260000000 198007200
L260000000 200007200
" />
</g>
<g style="fill:#000000; fill-opacity:0.0; 
stroke:#000000; stroke-width:21200.000000; stroke-opacity:1; 
stroke-linecap:round; stroke-linejoin:round;">
</g>
<g style="fill:#000000; fill-opacity:0.0; 
stroke:#000000; stroke-width:150000.000000; stroke-opacity:1; 
stroke-linecap:round; stroke-linejoin:round;">
<text x="35000000.000000" y="199657200.000000"
textLength="1388095.000000" font-size="1733333.000000" lengthAdjust="spacingAndGlyphs"
text-anchor="start" opacity="0">1</text>
<g class="stroked-text"><desc>1</desc>
<path d="M36065476 199595295
L35322619 199595295
" />
<path d="M35694047 199595295
L35694047 198295295
L35570238 198481009
L35446428 198604819
L35322619 198666723
" />
</g></g>
<g style="fill:#000000; fill-opacity:0.0; 
stroke:#000000; stroke-width:21200.000000; stroke-opacity:1; 
stroke-linecap:round; stroke-linejoin:round;">
</g>
<g style="fill:#000000; fill-opacity:0.0; 
stroke:#000000; stroke-width:150000.000000; stroke-opacity:1; 
stroke-linecap:round; stroke-linejoin:round;">
<text x="85000000.000000" y="199657200.000000"
textLength="1388095.000000" font-size="1733333.000000" lengthAdjust="spacingAndGlyphs"
text-anchor="start" opacity="0">2</text>
<g class="stroked-text"><desc>2</desc>
<path d="M85322619 198419104
L85384523 198357200
L85508333 198295295
L85817857 198295295
L85941666 198357200
L86003571 198419104
L86065476 198542914
L86065476 198666723
L86003571 198852438
L85260714 199595295
L86065476 199595295
" />
</g></g>
<g style="fill:#000000; fill-opacity:0.0; 
stroke:#000000; stroke-width:21200.000000; stroke-opacity:1; 
stroke-linecap:round; stroke-linejoin:round;">
</g>
<g style="fill:#000000; fill-opacity:0.0; 
stroke:#000000; stroke-width:150000.000000; stroke-opacity:1; 
stroke-linecap:round; stroke-linejoin:round;">
<text x="135000000.000000" y="199657200.000000"
textLength="1388095.000000" font-size="1733333.000000" lengthAdjust="spacingAndGlyphs"
text-anchor="start" opacity="0">3</text>
<g class="stroked-text"><desc>3</desc>
<path d="M135260714 198295295
L136065476 198295295
L135632142 198790533
L135817857 198790533
L135941666 198852438
L136003571 198914342
L136065476 199038152
L136065476 199347676
L136003571 199471485
L135941666 199533390
L135817857 199595295
L135446428 199595295
L135322619 199533390
L135260714 199471485
" />
</g></g>
<g style="fill:#000000; fill-opacity:0.0; 
stroke:#000000; stroke-width:21200.000000; stroke-opacity:1; 
stroke-linecap:round; stroke-linejoin:round;">
</g>
<g style="fill:#000000; fill-opacity:0.0; 
stroke:#000000; stroke-width:150000.000000; stroke-opacity:1; 
stroke-linecap:round; stroke-linejoin:round;">
<text x="185000000.000000" y="199657200.000000"
textLength="1388095.000000" font-size="1733333.000000" lengthAdjust="spacingAndGlyphs"
text-anchor="start" opacity="0">4</text>
<g class="stroked-text"><desc>4</desc>
<path d="M185941666 198728628
L185941666 199595295
" />
<path d="M185632142 198233390
L185322619 199161961
L186127380 199161961
" />
</g></g>
<g style="fill:#000000; fill-opacity:0.0; 
stroke:#000000; stroke-width:21200.000000; stroke-opacity:1; 
stroke-linecap:round; stroke-linejoin:round;">
</g>
<g style="fill:#000000; fill-opacity:0.0; 
stroke:#000000; stroke-width:150000.000000; stroke-opacity:1; 
stroke-linecap:round; stroke-linejoin:round;">
<text x="235000000.000000" y="199657200.000000"
textLength="1388095.000000" font-size="1733333.000000" lengthAdjust="spacingAndGlyphs"
text-anchor="start" opacity="0">5</text>
<g class="stroked-text"><desc>5</desc>
<path d="M236003571 198295295
L235384523 198295295
L235322619 198914342
L235384523 198852438
L235508333 198790533
L235817857 198790533
L235941666 198852438
L236003571 198914342
L236065476 199038152
L236065476 199347676
L236003571 199471485
L235941666 199533390
L235817857 199595295
L235508333 199595295
L235384523 199533390
L235322619 199471485
" />
</g></g>
<g style="fill:#000000; fill-opacity:0.0; 
stroke:#000000; stroke-width:21200.000000; stroke-opacity:1; 
stroke-linecap:round; stroke-linejoin:round;">
</g>
<g style="fill:#000000; fill-opacity:0.0; 
stroke:#000000; stroke-width:150000.000000; stroke-opacity:1; 
stroke-linecap:round; stroke-linejoin:round;">
<text x="285000000.000000" y="199657200.000000"
textLength="1388095.000000" font-size="1733333.000000" lengthAdjust="spacingAndGlyphs"
text-anchor="start" opacity="0">6</text>
<g class="stroked-text"><desc>6</desc>
<path d="M285941666 198295295
L285694047 198295295
L285570238 198357200
L285508333 198419104
L285384523 198604819
L285322619 198852438
L285322619 199347676
L285384523 199471485
L285446428 199533390
L285570238 199595295
L285817857 199595295
L285941666 199533390
L286003571 199471485
L286065476 199347676
L286065476 199038152
L286003571 198914342
L285941666 198852438
L285817857 198790533
L285570238 198790533
L285446428 198852438
L285384523 198914342
L285322619 199038152
" />
</g></g>
<g style="fill:#000000; fill-opacity:0.0; 
stroke:#000000; stroke-width:21200.000000; stroke-opacity:1; 
stroke-linecap:round; stroke-linejoin:round;">
</g>
<g style="fill:#000000; fill-opacity:0.0; 
stroke:#000000; stroke-width:150000.000000; stroke-opacity:1; 
stroke-linecap:round; stroke-linejoin:round;">
<path d="M10000000 60000000
L12000000 60000000
" />
</g>
<g style="fill:#000000; fill-opacity:0.0; 
stroke:#000000; stroke-width:21200.000000; stroke-opacity:1; 
stroke-linecap:round; stroke-linejoin:round;">
</g>
<g style="fill:#000000; fill-opacity:0.0; 
stroke:#000000; stroke-width:150000.000000; stroke-opacity:1; 
stroke-linecap:round; stroke-linejoin:round;">
<path d="M10000000 110000000
L12000000 110000000
" />
</g>
<g style="fill:#000000; fill-opacity:0.0; 
stroke:#000000; stroke-width:21200.000000; stroke-opacity:1; 
stroke-linecap:round; stroke-linejoin:round;">
</g>
<g style="fill:#000000; fill-opacity:0.0; 
stroke:#000000; stroke-width:150000.000000; stroke-opacity:1; 
stroke-linecap:round; stroke-linejoin:round;">
<path d="M10000000 160000000
L12000000 160000000
" />
</g>
<g style="fill:#000000; fill-opacity:0.0; 
stroke:#000000; stroke-width:21200.000000; stroke-opacity:1; 
stroke-linecap:round; stroke-linejoin:round;">
</g>
<g style="fill:#000000; fill-opacity:0.0; 
stroke:#000000; stroke-width:150000.000000; stroke-opacity:1; 
stroke-linecap:round; stroke-linejoin:round;">
<text x="11000000.000000" y="35650000.000000"
textLength="1264286.000000" font-size="1733333.000000" lengthAdjust="spacingAndGlyphs"
text-anchor="middle" opacity="0">A</text>
<g class="stroked-text"><desc>A</desc>
<path d="M10690476 35216666
L11309523 35216666
" />
<path d="M10566666 35588095
L11000000 34288095
L11433333 35588095
" />
</g></g>
<g style="fill:#000000; fill-opacity:0.0; 
stroke:#000000; stroke-width:21200.000000; stroke-opacity:1; 
stroke-linecap:round; stroke-linejoin:round;">
</g>
<g style="fill:#000000; fill-opacity:0.0; 
stroke:#000000; stroke-width:150000.000000; stroke-opacity:1; 
stroke-linecap:round; stroke-linejoin:round;">
<text x="11000000.000000" y="85650000.000000"
textLength="1450000.000000" font-size="1733333.000000" lengthAdjust="spacingAndGlyphs"
text-anchor="middle" opacity="0">B</text>
<g class="stroked-text"><desc>B</desc>
<path d="M11092857 84907142
L11278571 84969047
L11340476 85030952
L11402380 85154761
L11402380 85340476
L11340476 85464285
L11278571 85526190
L11154761 85588095
L10659523 85588095
L10659523 84288095
L11092857 84288095
L11216666 84350000
L11278571 84411904
L11340476 84535714
L11340476 84659523
L11278571 84783333
L11216666 84845238
L11092857 84907142
L10659523 84907142
" />
</g></g>
<g style="fill:#000000; fill-opacity:0.0; 
stroke:#000000; stroke-width:21200.000000; stroke-opacity:1; 
stroke-linecap:round; stroke-linejoin:round;">
</g>
<g style="fill:#000000; fill-opacity:0.0; 
stroke:#000000; stroke-width:150000.000000; stroke-opacity:1; 
stroke-linecap:round; stroke-linejoin:round;">
<text x="11000000.000000" y="135650000.000000"
textLength="1450000.000000" font-size="1733333.000000" lengthAdjust="spacingAndGlyphs"
text-anchor="middle" opacity="0">C</text>
<g class="stroked-text"><desc>C</desc>
<path d="M11402380 135464285
L11340476 135526190
L11154761 135588095
L11030952 135588095
L10845238 135526190
L10721428 135402380
L10659523 135278571
L10597619 135030952
L10597619 134845238
L10659523 134597619
L10721428 134473809
L10845238 134350000
L11030952 134288095
L11154761 134288095
L11340476 134350000
L11402380 134411904
" />
</g></g>
<g style="fill:#000000; fill-opacity:0.0; 
stroke:#000000; stroke-width:21200.000000; stroke-opacity:1; 
stroke-linecap:round; stroke-linejoin:round;">
</g>
<g style="fill:#000000; fill-opacity:0.0; 
stroke:#000000; stroke-width:150000.000000; stroke-opacity:1; 
stroke-linecap:round; stroke-linejoin:round;">
<text x="11000000.000000" y="185650000.000000"
textLength="1450000.000000" font-size="1733333.000000" lengthAdjust="spacingAndGlyphs"
text-anchor="middle" opacity="0">D</text>
<g class="stroked-text"><desc>D</desc>
<path d="M10659523 185588095
L10659523 184288095
L10969047 184288095
L11154761 184350000
L11278571 184473809
L11340476 184597619
L11402380 184845238
L11402380 185030952
L11340476 185278571
L11278571 185402380
L11154761 185526190
L10969047 185588095
L10659523 185588095
" />
</g></g>
<g style="fill:#000000; fill-opacity:0.0; 
stroke:#000000; stroke-width:21200.000000; stroke-opacity:1; 
stroke-linecap:round; stroke-linejoin:round;">
</g>
<g style="fill:#000000; fill-opacity:0.0; 
stroke:#000000; stroke-width:150000.000000; stroke-opacity:1; 
stroke-linecap:round; stroke-linejoin:round;">
<path d="M287002200 60000000
L285002200 60000000
" />
</g>
<g style="fill:#000000; fill-opacity:0.0; 
stroke:#000000; stroke-width:21200.000000; stroke-opacity:1; 
stroke-linecap:round; stroke-linejoin:round;">
</g>
<g style="fill:#000000; fill-opacity:0.0; 
stroke:#000000; stroke-width:150000.000000; stroke-opacity:1; 
stroke-linecap:round; stroke-linejoin:round;">
<path d="M287002200 110000000
L285002200 110000000
" />
</g>
<g style="fill:#000000; fill-opacity:0.0; 
stroke:#000000; stroke-width:21200.000000; stroke-opacity:1; 
stroke-linecap:round; stroke-linejoin:round;">
</g>
<g style="fill:#000000; fill-opacity:0.0; 
stroke:#000000; stroke-width:150000.000000; stroke-opacity:1; 
stroke-linecap:round; stroke-linejoin:round;">
<path d="M287002200 160000000
L285002200 160000000
" />
</g>
<g style="fill:#000000; fill-opacity:0.0; 
stroke:#000000; stroke-width:21200.000000; stroke-opacity:1; 
stroke-linecap:round; stroke-linejoin:round;">
</g>
<g style="fill:#000000; fill-opacity:0.0; 
stroke:#000000; stroke-width:150000.000000; stroke-opacity:1; 
stroke-linecap:round; stroke-linejoin:round;">
<text x="286002200.000000" y="35650000.000000"
textLength="1264286.000000" font-size="1733333.000000" lengthAdjust="spacingAndGlyphs"
text-anchor="middle" opacity="0">A</text>
<g class="stroked-text"><desc>A</desc>
<path d="M285692676 35216666
L286311723 35216666
" />
<path d="M285568866 35588095
L286002200 34288095
L286435533 35588095
" />
</g></g>
<g style="fill:#000000; fill-opacity:0.0; 
stroke:#000000; stroke-width:21200.000000; stroke-opacity:1; 
stroke-linecap:round; stroke-linejoin:round;">
</g>
<g style="fill:#000000; fill-opacity:0.0; 
stroke:#000000; stroke-width:150000.000000; stroke-opacity:1; 
stroke-linecap:round; stroke-linejoin:round;">
<text x="286002200.000000" y="85650000.000000"
textLength="1450000.000000" font-size="1733333.000000" lengthAdjust="spacingAndGlyphs"
text-anchor="middle" opacity="0">B</text>
<g class="stroked-text"><desc>B</desc>
<path d="M286095057 84907142
L286280771 84969047
L286342676 85030952
L286404580 85154761
L286404580 85340476
L286342676 85464285
L286280771 85526190
L286156961 85588095
L285661723 85588095
L285661723 84288095
L286095057 84288095
L286218866 84350000
L286280771 84411904
L286342676 84535714
L286342676 84659523
L286280771 84783333
L286218866 84845238
L286095057 84907142
L285661723 84907142
" />
</g></g>
<g style="fill:#000000; fill-opacity:0.0; 
stroke:#000000; stroke-width:21200.000000; stroke-opacity:1; 
stroke-linecap:round; stroke-linejoin:round;">
</g>
<g style="fill:#000000; fill-opacity:0.0; 
stroke:#000000; stroke-width:150000.000000; stroke-opacity:1; 
stroke-linecap:round; stroke-linejoin:round;">
<text x="286002200.000000" y="135650000.000000"
textLength="1450000.000000" font-size="1733333.000000" lengthAdjust="spacingAndGlyphs"
text-anchor="middle" opacity="0">C</text>
<g class="stroked-text"><desc>C</desc>
<path d="M286404580 135464285
L286342676 135526190
L286156961 135588095
L286033152 135588095
L285847438 135526190
L285723628 135402380
L285661723 135278571
L285599819 135030952
L285599819 134845238
L285661723 134597619
L285723628 134473809
L285847438 134350000
L286033152 134288095
L286156961 134288095
L286342676 134350000
L286404580 134411904
" />
</g></g>
<g style="fill:#000000; fill-opacity:0.0; 
stroke:#000000; stroke-width:21200.000000; stroke-opacity:1; 
stroke-linecap:round; stroke-linejoin:round;">
</g>
<g style="fill:#000000; fill-opacity:0.0; 
stroke:#000000; stroke-width:150000.000000; stroke-opacity:1; 
stroke-linecap:round; stroke-linejoin:round;">
<text x="286002200.000000" y="185650000.000000"
textLength="1450000.000000" font-size="1733333.000000" lengthAdjust="spacingAndGlyphs"
text-anchor="middle" opacity="0">D</text>
<g class="stroked-text"><desc>D</desc>
<path d="M285661723 185588095
L285661723 184288095
L285971247 184288095
L286156961 184350000
L286280771 184473809
L286342676 184597619
L286404580 184845238
L286404580 185030952
L286342676 185278571
L286280771 185402380
L286156961 185526190
L285971247 185588095
L285661723 185588095
" />
</g></g>
<g style="fill:#000000; fill-opacity:0.0; 
stroke:#000000; stroke-width:21200.000000; stroke-opacity:1; 
stroke-linecap:round; stroke-linejoin:round;">
</g>
<g style="fill:#000000; fill-opacity:0.0; 
stroke:#000000; stroke-width:150000.000000; stroke-opacity:1; 
stroke-linecap:round; stroke-linejoin:round;">
<text x="200002200.000000" y="193857200.000000"
textLength="7007143.000000" font-size="2000000.000000" lengthAdjust="spacingAndGlyphs"
text-anchor="start" opacity="0">Date: </text>
<g class="stroked-text"><desc>Date: </desc>
<path d="M200434342 193785771
L200434342 192285771
L200791485 192285771
L201005771 192357200
L201148628 192500057
L201220057 192642914
L201291485 192928628
L201291485 193142914
L201220057 193428628
L201148628 193571485
L201005771 193714342
L200791485 193785771
L200434342 193785771
" />
<path d="M202577200 193785771
L202577200 193000057
L202505771 192857200
L202362914 192785771
L202077200 192785771
L201934342 192857200
" />
<path d="M202577200 193714342
L202434342 193785771
L202077200 193785771
L201934342 193714342
L201862914 193571485
L201862914 193428628
L201934342 193285771
L202077200 193214342
L202434342 193214342
L202577200 193142914
" />
<path d="M203077200 192785771
L203648628 192785771
" />
<path d="M203291485 192285771
L203291485 193571485
L203362914 193714342
L203505771 193785771
L203648628 193785771
" />
<path d="M204720057 193714342
L204577200 193785771
L204291485 193785771
L204148628 193714342
L204077200 193571485
L204077200 193000057
L204148628 192857200
L204291485 192785771
L204577200 192785771
L204720057 192857200
L204791485 193000057
L204791485 193142914
L204077200 193285771
" />
<path d="M205434342 193642914
L205505771 193714342
L205434342 193785771
L205362914 193714342
L205434342 193642914
L205434342 193785771
" />
<path d="M205434342 192857200
L205505771 192928628
L205434342 193000057
L205362914 192928628
L205434342 192857200
L205434342 193000057
" />
</g></g>
<g style="fill:#000000; fill-opacity:0.0; 
stroke:#000000; stroke-width:21200.000000; stroke-opacity:1; 
stroke-linecap:round; stroke-linejoin:round;">
</g>
<g style="fill:#000000; fill-opacity:0.0; 
stroke:#000000; stroke-width:150000.000000; stroke-opacity:1; 
stroke-linecap:round; stroke-linejoin:round;">
<path d="M177002200 194507200
L285002200 194507200
" />
</g>
<g style="fill:#000000; fill-opacity:0.0; 
stroke:#000000; stroke-width:21200.000000; stroke-opacity:1; 
stroke-linecap:round; stroke-linejoin:round;">
</g>
<g style="fill:#000000; fill-opacity:0.0; 
stroke:#000000; stroke-width:150000.000000; stroke-opacity:1; 
stroke-linecap:round; stroke-linejoin:round;">
<text x="178002200.000000" y="196657200.000000"
textLength="34364286.000000" font-size="2000000.000000" lengthAdjust="spacingAndGlyphs"
text-anchor="start" opacity="0">KiCad E.D.A.  kicad (6.0.4-0)</text>
<g class="stroked-text"><desc>KiCad E.D.A.  kicad (6.0.4-0)</desc>
<path d="M178434342 196585771
L178434342 195085771
" />
<path d="M179291485 196585771
L178648628 195728628
" />
<path d="M179291485 195085771
L178434342 195942914
" />
<path d="M179934342 196585771
L179934342 195585771
" />
<path d="M179934342 195085771
L179862914 195157200
L179934342 195228628
L180005771 195157200
L179934342 195085771
L179934342 195228628
" />
<path d="M181505771 196442914
L181434342 196514342
L181220057 196585771
L181077200 196585771
L180862914 196514342
L180720057 196371485
L180648628 196228628
L180577200 195942914
L180577200 195728628
L180648628 195442914
L180720057 195300057
L180862914 195157200
L181077200 195085771
L181220057 195085771
L181434342 195157200
L181505771 195228628
" />
<path d="M182791485 196585771
L182791485 195800057
L182720057 195657200
L182577200 195585771
L182291485 195585771
L182148628 195657200
" />
<path d="M182791485 196514342
L182648628 196585771
L182291485 196585771
L182148628 196514342
L182077200 196371485
L182077200 196228628
L182148628 196085771
L182291485 196014342
L182648628 196014342
L182791485 195942914
" />
<path d="M184148628 196585771
L184148628 195085771
" />
<path d="M184148628 196514342
L184005771 196585771
L183720057 196585771
L183577200 196514342
L183505771 196442914
L183434342 196300057
L183434342 195871485
L183505771 195728628
L183577200 195657200
L183720057 195585771
L184005771 195585771
L184148628 195657200
" />
<path d="M186005771 195800057
L186505771 195800057
" />
<path d="M186720057 196585771
L186005771 196585771
L186005771 195085771
L186720057 195085771
" />
<path d="M187362914 196442914
L187434342 196514342
L187362914 196585771
L187291485 196514342
L187362914 196442914
L187362914 196585771
" />
<path d="M188077200 196585771
L188077200 195085771
L188434342 195085771
L188648628 195157200
L188791485 195300057
L188862914 195442914
L188934342 195728628
L188934342 195942914
L188862914 196228628
L188791485 196371485
L188648628 196514342
L188434342 196585771
L188077200 196585771
" />
<path d="M189577200 196442914
L189648628 196514342
L189577200 196585771
L189505771 196514342
L189577200 196442914
L189577200 196585771
" />
<path d="M190220057 196157200
L190934342 196157200
" />
<path d="M190077200 196585771
L190577200 195085771
L191077200 196585771
" />
<path d="M191577200 196442914
L191648628 196514342
L191577200 196585771
L191505771 196514342
L191577200 196442914
L191577200 196585771
" />
<path d="M194577200 196585771
L194577200 195085771
" />
<path d="M194720057 196014342
L195148628 196585771
" />
<path d="M195148628 195585771
L194577200 196157200
" />
<path d="M195791485 196585771
L195791485 195585771
" />
<path d="M195791485 195085771
L195720057 195157200
L195791485 195228628
L195862914 195157200
L195791485 195085771
L195791485 195228628
" />
<path d="M197148628 196514342
L197005771 196585771
L196720057 196585771
L196577200 196514342
L196505771 196442914
L196434342 196300057
L196434342 195871485
L196505771 195728628
L196577200 195657200
L196720057 195585771
L197005771 195585771
L197148628 195657200
" />
<path d="M198434342 196585771
L198434342 195800057
L198362914 195657200
L198220057 195585771
L197934342 195585771
L197791485 195657200
" />
<path d="M198434342 196514342
L198291485 196585771
L197934342 196585771
L197791485 196514342
L197720057 196371485
L197720057 196228628
L197791485 196085771
L197934342 196014342
L198291485 196014342
L198434342 195942914
" />
<path d="M199791485 196585771
L199791485 195085771
" />
<path d="M199791485 196514342
L199648628 196585771
L199362914 196585771
L199220057 196514342
L199148628 196442914
L199077200 196300057
L199077200 195871485
L199148628 195728628
L199220057 195657200
L199362914 195585771
L199648628 195585771
L199791485 195657200
" />
<path d="M202077200 197157200
L202005771 197085771
L201862914 196871485
L201791485 196728628
L201720057 196514342
L201648628 196157200
L201648628 195871485
L201720057 195514342
L201791485 195300057
L201862914 195157200
L202005771 194942914
L202077200 194871485
" />
<path d="M203291485 195085771
L203005771 195085771
L202862914 195157200
L202791485 195228628
L202648628 195442914
L202577200 195728628
L202577200 196300057
L202648628 196442914
L202720057 196514342
L202862914 196585771
L203148628 196585771
L203291485 196514342
L203362914 196442914
L203434342 196300057
L203434342 195942914
L203362914 195800057
L203291485 195728628
L203148628 195657200
L202862914 195657200
L202720057 195728628
L202648628 195800057
L202577200 195942914
" />
<path d="M204077200 196442914
L204148628 196514342
L204077200 196585771
L204005771 196514342
L204077200 196442914
L204077200 196585771
" />
<path d="M205077200 195085771
L205220057 195085771
L205362914 195157200
L205434342 195228628
L205505771 195371485
L205577200 195657200
L205577200 196014342
L205505771 196300057
L205434342 196442914
L205362914 196514342
L205220057 196585771
L205077200 196585771
L204934342 196514342
L204862914 196442914
L204791485 196300057
L204720057 196014342
L204720057 195657200
L204791485 195371485
L204862914 195228628
L204934342 195157200
L205077200 195085771
" />
<path d="M206220057 196442914
L206291485 196514342
L206220057 196585771
L206148628 196514342
L206220057 196442914
L206220057 196585771
" />
<path d="M207577200 195585771
L207577200 196585771
" />
<path d="M207220057 195014342
L206862914 196085771
L207791485 196085771
" />
<path d="M208362914 196014342
L209505771 196014342
" />
<path d="M210505771 195085771
L210648628 195085771
L210791485 195157200
L210862914 195228628
L210934342 195371485
L211005771 195657200
L211005771 196014342
L210934342 196300057
L210862914 196442914
L210791485 196514342
L210648628 196585771
L210505771 196585771
L210362914 196514342
L210291485 196442914
L210220057 196300057
L210148628 196014342
L210148628 195657200
L210220057 195371485
L210291485 195228628
L210362914 195157200
L210505771 195085771
" />
<path d="M211505771 197157200
L211577200 197085771
L211720057 196871485
L211791485 196728628
L211862914 196514342
L211934342 196157200
L211934342 195871485
L211862914 195514342
L211791485 195300057
L211720057 195157200
L211577200 194942914
L211505771 194871485
" />
</g></g>
<g style="fill:#000000; fill-opacity:0.0; 
stroke:#000000; stroke-width:21200.000000; stroke-opacity:1; 
stroke-linecap:round; stroke-linejoin:round;">
</g>
<g style="fill:#000000; fill-opacity:0.0; 
stroke:#000000; stroke-width:150000.000000; stroke-opacity:1; 
stroke-linecap:round; stroke-linejoin:round;">
<path d="M177002200 191507200
L285002200 191507200
" />
</g>
<g style="fill:#000000; fill-opacity:0.0; 
stroke:#000000; stroke-width:21200.000000; stroke-opacity:1; 
stroke-linecap:round; stroke-linejoin:round;">
</g>
<g style="fill:#000000; fill-opacity:0.0; 
stroke:#000000; stroke-width:300000.000000; stroke-opacity:1; 
stroke-linecap:round; stroke-linejoin:round;">
<text x="263002200.000000" y="193857200.000000"
textLength="5935714.000000" font-size="2000000.000000" lengthAdjust="spacingAndGlyphs"
text-anchor="start" opacity="0">Rev: </text>
<g class="stroked-text"><desc>Rev: </desc>
<path d="M264411485 193785771
L263911485 193071485
" />
<path d="M263554342 193785771
L263554342 192285771
L264125771 192285771
L264268628 192357200
L264340057 192428628
L264411485 192571485
L264411485 192785771
L264340057 192928628
L264268628 193000057
L264125771 193071485
L263554342 193071485
" />
<path d="M265625771 193714342
L265482914 193785771
L265197200 193785771
L265054342 193714342
L264982914 193571485
L264982914 193000057
L265054342 192857200
L265197200 192785771
L265482914 192785771
L265625771 192857200
L265697200 193000057
L265697200 193142914
L264982914 193285771
" />
<path d="M266197200 192785771
L266554342 193785771
L266911485 192785771
" />
<path d="M267482914 193642914
L267554342 193714342
L267482914 193785771
L267411485 193714342
L267482914 193642914
L267482914 193785771
" />
<path d="M267482914 192857200
L267554342 192928628
L267482914 193000057
L267411485 192928628
L267482914 192857200
L267482914 193000057
" />
</g></g>
<g style="fill:#000000; fill-opacity:0.0; 
stroke:#000000; stroke-width:21200.000000; stroke-opacity:1; 
stroke-linecap:round; stroke-linejoin:round;">
</g>
<g style="fill:#000000; fill-opacity:0.0; 
stroke:#000000; stroke-width:150000.000000; stroke-opacity:1; 
stroke-linecap:round; stroke-linejoin:round;">
<text x="178002200.000000" y="193857200.000000"
textLength="9604286.000000" font-size="2000000.000000" lengthAdjust="spacingAndGlyphs"
text-anchor="start" opacity="0">Size: A4</text>
<g class="stroked-text"><desc>Size: A4</desc>
<path d="M178362914 193714342
L178577200 193785771
L178934342 193785771
L179077200 193714342
L179148628 193642914
L179220057 193500057
L179220057 193357200
L179148628 193214342
L179077200 193142914
L178934342 193071485
L178648628 193000057
L178505771 192928628
L178434342 192857200
L178362914 192714342
L178362914 192571485
L178434342 192428628
L178505771 192357200
L178648628 192285771
L179005771 192285771
L179220057 192357200
" />
<path d="M179862914 193785771
L179862914 192785771
" />
<path d="M179862914 192285771
L179791485 192357200
L179862914 192428628
L179934342 192357200
L179862914 192285771
L179862914 192428628
" />
<path d="M180434342 192785771
L181220057 192785771
L180434342 193785771
L181220057 193785771
" />
<path d="M182362914 193714342
L182220057 193785771
L181934342 193785771
L181791485 193714342
L181720057 193571485
L181720057 193000057
L181791485 192857200
L181934342 192785771
L182220057 192785771
L182362914 192857200
L182434342 193000057
L182434342 193142914
L181720057 193285771
" />
<path d="M183077200 193642914
L183148628 193714342
L183077200 193785771
L183005771 193714342
L183077200 193642914
L183077200 193785771
" />
<path d="M183077200 192857200
L183148628 192928628
L183077200 193000057
L183005771 192928628
L183077200 192857200
L183077200 193000057
" />
<path d="M184862914 193357200
L185577200 193357200
" />
<path d="M184720057 193785771
L185220057 192285771
L185720057 193785771
" />
<path d="M186862914 192785771
L186862914 193785771
" />
<path d="M186505771 192214342
L186148628 193285771
L187077200 193285771
" />
</g></g>
<g style="fill:#000000; fill-opacity:0.0; 
stroke:#000000; stroke-width:21200.000000; stroke-opacity:1; 
stroke-linecap:round; stroke-linejoin:round;">
</g>
<g style="fill:#000000; fill-opacity:0.0; 
stroke:#000000; stroke-width:150000.000000; stroke-opacity:1; 
stroke-linecap:round; stroke-linejoin:round;">
<text x="263002200.000000" y="196657200.000000"
textLength="8507143.000000" font-size="2000000.000000" lengthAdjust="spacingAndGlyphs"
text-anchor="start" opacity="0">Id: 1/1</text>
<g class="stroked-text"><desc>Id: 1/1</desc>
<path d="M263434342 196585771
L263434342 195085771
" />
<path d="M264791485 196585771
L264791485 195085771
" />
<path d="M264791485 196514342
L264648628 196585771
L264362914 196585771
L264220057 196514342
L264148628 196442914
L264077200 196300057
L264077200 195871485
L264148628 195728628
L264220057 195657200
L264362914 195585771
L264648628 195585771
L264791485 195657200
" />
<path d="M265505771 196442914
L265577200 196514342
L265505771 196585771
L265434342 196514342
L265505771 196442914
L265505771 196585771
" />
<path d="M265505771 195657200
L265577200 195728628
L265505771 195800057
L265434342 195728628
L265505771 195657200
L265505771 195800057
" />
<path d="M268148628 196585771
L267291485 196585771
" />
<path d="M267720057 196585771
L267720057 195085771
L267577200 195300057
L267434342 195442914
L267291485 195514342
" />
<path d="M269862914 195014342
L268577200 196942914
" />
<path d="M271148628 196585771
L270291485 196585771
" />
<path d="M270720057 196585771
L270720057 195085771
L270577200 195300057
L270434342 195442914
L270291485 195514342
" />
</g></g>
<g style="fill:#000000; fill-opacity:0.0; 
stroke:#000000; stroke-width:21200.000000; stroke-opacity:1; 
stroke-linecap:round; stroke-linejoin:round;">
</g>
<g style="fill:#000000; fill-opacity:0.0; 
stroke:#000000; stroke-width:150000.000000; stroke-opacity:1; 
stroke-linecap:round; stroke-linejoin:round;">
<path d="M177002200 187507200
L285002200 187507200
" />
</g>
<g style="fill:#000000; fill-opacity:0.0; 
stroke:#000000; stroke-width:21200.000000; stroke-opacity:1; 
stroke-linecap:round; stroke-linejoin:round;">
</g>
<g style="fill:#000000; fill-opacity:0.0; 
stroke:#000000; stroke-width:400000.000000; stroke-opacity:1; 
stroke-linecap:round; stroke-linejoin:round;">
<text x="178002200.000000" y="190307200.000000"
textLength="9409643.000000" font-size="2666666.000000" lengthAdjust="spacingAndGlyphs"
text-anchor="start" opacity="0">Title: </text>
<g class="stroked-text"><desc>Title: </desc>
<path d="M178714580 188211961
L179857438 188211961
" />
<path d="M179036009 190211961
L179286009 188211961
" />
<path d="M180274104 190211961
L180440771 188878628
" />
<path d="M180524104 188211961
L180416961 188307200
L180500295 188402438
L180607438 188307200
L180524104 188211961
L180500295 188402438
" />
<path d="M181107438 188878628
L181869342 188878628
" />
<path d="M181476485 188211961
L181262200 189926247
L181333628 190116723
L181512200 190211961
L181702676 190211961
" />
<path d="M182655057 190211961
L182476485 190116723
L182405057 189926247
L182619342 188211961
" />
<path d="M184190771 190116723
L183988390 190211961
L183607438 190211961
L183428866 190116723
L183357438 189926247
L183452676 189164342
L183571723 188973866
L183774104 188878628
L184155057 188878628
L184333628 188973866
L184405057 189164342
L184381247 189354819
L183405057 189545295
" />
<path d="M185155057 190021485
L185238390 190116723
L185131247 190211961
L185047914 190116723
L185155057 190021485
L185131247 190211961
" />
<path d="M185286009 188973866
L185369342 189069104
L185262200 189164342
L185178866 189069104
L185286009 188973866
L185262200 189164342
" />
</g></g>
<g style="fill:#000000; fill-opacity:0.0; 
stroke:#000000; stroke-width:21200.000000; stroke-opacity:1; 
stroke-linecap:round; stroke-linejoin:round;">
</g>
<g style="fill:#000000; fill-opacity:0.0; 
stroke:#000000; stroke-width:150000.000000; stroke-opacity:1; 
stroke-linecap:round; stroke-linejoin:round;">
<text x="178002200.000000" y="186457200.000000"
textLength="34162857.000000" font-size="2000000.000000" lengthAdjust="spacingAndGlyphs"
text-anchor="start" opacity="0">File: babbit_bottom.kicad_pcb</text>
<g class="stroked-text"><desc>File: babbit_bottom.kicad_pcb</desc>
<path d="M178934342 185600057
L178434342 185600057
" />
<path d="M178434342 186385771
L178434342 184885771
L179148628 184885771
" />
<path d="M179720057 186385771
L179720057 185385771
" />
<path d="M179720057 184885771
L179648628 184957200
L179720057 185028628
L179791485 184957200
L179720057 184885771
L179720057 185028628
" />
<path d="M180648628 186385771
L180505771 186314342
L180434342 186171485
L180434342 184885771
" />
<path d="M181791485 186314342
L181648628 186385771
L181362914 186385771
L181220057 186314342
L181148628 186171485
L181148628 185600057
L181220057 185457200
L181362914 185385771
L181648628 185385771
L181791485 185457200
L181862914 185600057
L181862914 185742914
L181148628 185885771
" />
<path d="M182505771 186242914
L182577200 186314342
L182505771 186385771
L182434342 186314342
L182505771 186242914
L182505771 186385771
" />
<path d="M182505771 185457200
L182577200 185528628
L182505771 185600057
L182434342 185528628
L182505771 185457200
L182505771 185600057
" />
<path d="M184362914 186385771
L184362914 184885771
" />
<path d="M184362914 185457200
L184505771 185385771
L184791485 185385771
L184934342 185457200
L185005771 185528628
L185077200 185671485
L185077200 186100057
L185005771 186242914
L184934342 186314342
L184791485 186385771
L184505771 186385771
L184362914 186314342
" />
<path d="M186362914 186385771
L186362914 185600057
L186291485 185457200
L186148628 185385771
L185862914 185385771
L185720057 185457200
" />
<path d="M186362914 186314342
L186220057 186385771
L185862914 186385771
L185720057 186314342
L185648628 186171485
L185648628 186028628
L185720057 185885771
L185862914 185814342
L186220057 185814342
L186362914 185742914
" />
<path d="M187077200 186385771
L187077200 184885771
" />
<path d="M187077200 185457200
L187220057 185385771
L187505771 185385771
L187648628 185457200
L187720057 185528628
L187791485 185671485
L187791485 186100057
L187720057 186242914
L187648628 186314342
L187505771 186385771
L187220057 186385771
L187077200 186314342
" />
<path d="M188434342 186385771
L188434342 184885771
" />
<path d="M188434342 185457200
L188577200 185385771
L188862914 185385771
L189005771 185457200
L189077200 185528628
L189148628 185671485
L189148628 186100057
L189077200 186242914
L189005771 186314342
L188862914 186385771
L188577200 186385771
L188434342 186314342
" />
<path d="M189791485 186385771
L189791485 185385771
" />
<path d="M189791485 184885771
L189720057 184957200
L189791485 185028628
L189862914 184957200
L189791485 184885771
L189791485 185028628
" />
<path d="M190291485 185385771
L190862914 185385771
" />
<path d="M190505771 184885771
L190505771 186171485
L190577200 186314342
L190720057 186385771
L190862914 186385771
" />
<path d="M191005771 186528628
L192148628 186528628
" />
<path d="M192505771 186385771
L192505771 184885771
" />
<path d="M192505771 185457200
L192648628 185385771
L192934342 185385771
L193077200 185457200
L193148628 185528628
L193220057 185671485
L193220057 186100057
L193148628 186242914
L193077200 186314342
L192934342 186385771
L192648628 186385771
L192505771 186314342
" />
<path d="M194077200 186385771
L193934342 186314342
L193862914 186242914
L193791485 186100057
L193791485 185671485
L193862914 185528628
L193934342 185457200
L194077200 185385771
L194291485 185385771
L194434342 185457200
L194505771 185528628
L194577200 185671485
L194577200 186100057
L194505771 186242914
L194434342 186314342
L194291485 186385771
L194077200 186385771
" />
<path d="M195005771 185385771
L195577200 185385771
" />
<path d="M195220057 184885771
L195220057 186171485
L195291485 186314342
L195434342 186385771
L195577200 186385771
" />
<path d="M195862914 185385771
L196434342 185385771
" />
<path d="M196077200 184885771
L196077200 186171485
L196148628 186314342
L196291485 186385771
L196434342 186385771
" />
<path d="M197148628 186385771
L197005771 186314342
L196934342 186242914
L196862914 186100057
L196862914 185671485
L196934342 185528628
L197005771 185457200
L197148628 185385771
L197362914 185385771
L197505771 185457200
L197577200 185528628
L197648628 185671485
L197648628 186100057
L197577200 186242914
L197505771 186314342
L197362914 186385771
L197148628 186385771
" />
<path d="M198291485 186385771
L198291485 185385771
" />
<path d="M198291485 185528628
L198362914 185457200
L198505771 185385771
L198720057 185385771
L198862914 185457200
L198934342 185600057
L198934342 186385771
" />
<path d="M198934342 185600057
L199005771 185457200
L199148628 185385771
L199362914 185385771
L199505771 185457200
L199577200 185600057
L199577200 186385771
" />
<path d="M200291485 186242914
L200362914 186314342
L200291485 186385771
L200220057 186314342
L200291485 186242914
L200291485 186385771
" />
<path d="M201005771 186385771
L201005771 184885771
" />
<path d="M201148628 185814342
L201577200 186385771
" />
<path d="M201577200 185385771
L201005771 185957200
" />
<path d="M202220057 186385771
L202220057 185385771
" />
<path d="M202220057 184885771
L202148628 184957200
L202220057 185028628
L202291485 184957200
L202220057 184885771
L202220057 185028628
" />
<path d="M203577200 186314342
L203434342 186385771
L203148628 186385771
L203005771 186314342
L202934342 186242914
L202862914 186100057
L202862914 185671485
L202934342 185528628
L203005771 185457200
L203148628 185385771
L203434342 185385771
L203577200 185457200
" />
<path d="M204862914 186385771
L204862914 185600057
L204791485 185457200
L204648628 185385771
L204362914 185385771
L204220057 185457200
" />
<path d="M204862914 186314342
L204720057 186385771
L204362914 186385771
L204220057 186314342
L204148628 186171485
L204148628 186028628
L204220057 185885771
L204362914 185814342
L204720057 185814342
L204862914 185742914
" />
<path d="M206220057 186385771
L206220057 184885771
" />
<path d="M206220057 186314342
L206077200 186385771
L205791485 186385771
L205648628 186314342
L205577200 186242914
L205505771 186100057
L205505771 185671485
L205577200 185528628
L205648628 185457200
L205791485 185385771
L206077200 185385771
L206220057 185457200
" />
<path d="M206577200 186528628
L207720057 186528628
" />
<path d="M208077200 185385771
L208077200 186885771
" />
<path d="M208077200 185457200
L208220057 185385771
L208505771 185385771
L208648628 185457200
L208720057 185528628
L208791485 185671485
L208791485 186100057
L208720057 186242914
L208648628 186314342
L208505771 186385771
L208220057 186385771
L208077200 186314342
" />
<path d="M210077200 186314342
L209934342 186385771
L209648628 186385771
L209505771 186314342
L209434342 186242914
L209362914 186100057
L209362914 185671485
L209434342 185528628
L209505771 185457200
L209648628 185385771
L209934342 185385771
L210077200 185457200
" />
<path d="M210720057 186385771
L210720057 184885771
" />
<path d="M210720057 185457200
L210862914 185385771
L211148628 185385771
L211291485 185457200
L211362914 185528628
L211434342 185671485
L211434342 186100057
L211362914 186242914
L211291485 186314342
L211148628 186385771
L210862914 186385771
L210720057 186314342
" />
</g></g>
<g style="fill:#000000; fill-opacity:0.0; 
stroke:#000000; stroke-width:21200.000000; stroke-opacity:1; 
stroke-linecap:round; stroke-linejoin:round;">
</g>
<g style="fill:#000000; fill-opacity:0.0; 
stroke:#000000; stroke-width:150000.000000; stroke-opacity:1; 
stroke-linecap:round; stroke-linejoin:round;">
<path d="M177002200 181507200
L285002200 181507200
" />
</g>
<g style="fill:#000000; fill-opacity:0.0; 
stroke:#000000; stroke-width:21200.000000; stroke-opacity:1; 
stroke-linecap:round; stroke-linejoin:round;">
</g>
<g style="fill:#000000; fill-opacity:0.0; 
stroke:#000000; stroke-width:150000.000000; stroke-opacity:1; 
stroke-linecap:round; stroke-linejoin:round;">
<text x="178002200.000000" y="183757200.000000"
textLength="8221429.000000" font-size="2000000.000000" lengthAdjust="spacingAndGlyphs"
text-anchor="start" opacity="0">Sheet: </text>
<g class="stroked-text"><desc>Sheet: </desc>
<path d="M178362914 183614342
L178577200 183685771
L178934342 183685771
L179077200 183614342
L179148628 183542914
L179220057 183400057
L179220057 183257200
L179148628 183114342
L179077200 183042914
L178934342 182971485
L178648628 182900057
L178505771 182828628
L178434342 182757200
L178362914 182614342
L178362914 182471485
L178434342 182328628
L178505771 182257200
L178648628 182185771
L179005771 182185771
L179220057 182257200
" />
<path d="M179862914 183685771
L179862914 182185771
" />
<path d="M180505771 183685771
L180505771 182900057
L180434342 182757200
L180291485 182685771
L180077200 182685771
L179934342 182757200
L179862914 182828628
" />
<path d="M181791485 183614342
L181648628 183685771
L181362914 183685771
L181220057 183614342
L181148628 183471485
L181148628 182900057
L181220057 182757200
L181362914 182685771
L181648628 182685771
L181791485 182757200
L181862914 182900057
L181862914 183042914
L181148628 183185771
" />
<path d="M183077200 183614342
L182934342 183685771
L182648628 183685771
L182505771 183614342
L182434342 183471485
L182434342 182900057
L182505771 182757200
L182648628 182685771
L182934342 182685771
L183077200 182757200
L183148628 182900057
L183148628 183042914
L182434342 183185771
" />
<path d="M183577200 182685771
L184148628 182685771
" />
<path d="M183791485 182185771
L183791485 183471485
L183862914 183614342
L184005771 183685771
L184148628 183685771
" />
<path d="M184648628 183542914
L184720057 183614342
L184648628 183685771
L184577200 183614342
L184648628 183542914
L184648628 183685771
" />
<path d="M184648628 182757200
L184720057 182828628
L184648628 182900057
L184577200 182828628
L184648628 182757200
L184648628 182900057
" />
</g></g>
<g style="fill:#000000; fill-opacity:0.0; 
stroke:#000000; stroke-width:21200.000000; stroke-opacity:1; 
stroke-linecap:round; stroke-linejoin:round;">
</g>
<g style="fill:#000000; fill-opacity:0.0; 
stroke:#000000; stroke-width:300000.000000; stroke-opacity:1; 
stroke-linecap:round; stroke-linejoin:round;">
<text x="178002200.000000" y="180757200.000000"
textLength="150000.000000" font-size="2000000.000000" lengthAdjust="spacingAndGlyphs"
text-anchor="start" opacity="0"></text>
<g class="stroked-text"><desc></desc>
</g></g>
<g style="fill:#000000; fill-opacity:0.0; 
stroke:#000000; stroke-width:21200.000000; stroke-opacity:1; 
stroke-linecap:round; stroke-linejoin:round;">
</g>
<g style="fill:#000000; fill-opacity:0.0; 
stroke:#000000; stroke-width:150000.000000; stroke-opacity:1; 
stroke-linecap:round; stroke-linejoin:round;">
<text x="178002200.000000" y="177757200.000000"
textLength="300000.000000" font-size="2000000.000000" lengthAdjust="spacingAndGlyphs"
text-anchor="start" opacity="0"></text>
<g class="stroked-text"><desc></desc>
</g></g>
<g style="fill:#000000; fill-opacity:0.0; 
stroke:#000000; stroke-width:21200.000000; stroke-opacity:1; 
stroke-linecap:round; stroke-linejoin:round;">
</g>
<g style="fill:#000000; fill-opacity:0.0; 
stroke:#000000; stroke-width:150000.000000; stroke-opacity:1; 
stroke-linecap:round; stroke-linejoin:round;">
<text x="178002200.000000" y="174757200.000000"
textLength="150000.000000" font-size="2000000.000000" lengthAdjust="spacingAndGlyphs"
text-anchor="start" opacity="0"></text>
<g class="stroked-text"><desc></desc>
</g></g>
<g style="fill:#000000; fill-opacity:0.0; 
stroke:#000000; stroke-width:21200.000000; stroke-opacity:1; 
stroke-linecap:round; stroke-linejoin:round;">
</g>
<g style="fill:#000000; fill-opacity:0.0; 
stroke:#000000; stroke-width:150000.000000; stroke-opacity:1; 
stroke-linecap:round; stroke-linejoin:round;">
<text x="178002200.000000" y="171757200.000000"
textLength="150000.000000" font-size="2000000.000000" lengthAdjust="spacingAndGlyphs"
text-anchor="start" opacity="0"></text>
<g class="stroked-text"><desc></desc>
</g></g>
<g style="fill:#000000; fill-opacity:0.0; 
stroke:#000000; stroke-width:21200.000000; stroke-opacity:1; 
stroke-linecap:round; stroke-linejoin:round;">
</g>
<g style="fill:#000000; fill-opacity:0.0; 
stroke:#000000; stroke-width:150000.000000; stroke-opacity:1; 
stroke-linecap:round; stroke-linejoin:round;">
<text x="178002200.000000" y="168757200.000000"
textLength="150000.000000" font-size="2000000.000000" lengthAdjust="spacingAndGlyphs"
text-anchor="start" opacity="0"></text>
<g class="stroked-text"><desc></desc>
</g></g>
<g style="fill:#000000; fill-opacity:0.0; 
stroke:#000000; stroke-width:21200.000000; stroke-opacity:1; 
stroke-linecap:round; stroke-linejoin:round;">
</g>
<g style="fill:#000000; fill-opacity:0.0; 
stroke:#000000; stroke-width:150000.000000; stroke-opacity:1; 
stroke-linecap:round; stroke-linejoin:round;">
<path d="M197002200 191507200
L197002200 194507200
" />
</g>
<g style="fill:#000000; fill-opacity:0.0; 
stroke:#000000; stroke-width:21200.000000; stroke-opacity:1; 
stroke-linecap:round; stroke-linejoin:round;">
</g>
<g style="fill:#000000; fill-opacity:0.0; 
stroke:#000000; stroke-width:150000.000000; stroke-opacity:1; 
stroke-linecap:round; stroke-linejoin:round;">
<path d="M261002200 191507200
L261002200 198007200
" />
</g>
<g style="fill:#840000; fill-opacity:0.0; 
stroke:#840000; stroke-width:150000.000000; stroke-opacity:1; 
stroke-linecap:round; stroke-linejoin:round;">
</g>
<g style="fill:#840000; fill-opacity:0.0; 
stroke:#840000; stroke-width:25000.000000; stroke-opacity:1; 
stroke-linecap:round; stroke-linejoin:round;">
</g>
<g style="fill:#840000; fill-opacity:1.0; 
stroke:#840000; stroke-width:25000.000000; stroke-opacity:1; 
stroke-linecap:round; stroke-linejoin:round;">
<path style="fill:#840000; fill-opacity:1.0; 
stroke:#840000; stroke-width:25000.000000; stroke-opacity:1; 
stroke-linecap:round; stroke-linejoin:round;fill-rule:evenodd;"
d="M 139991186.000000,55568816.000000
153495947.000000,63365793.000000
153495954.000000,78959768.000000
139991175.000000,86756750.000000
126486412.000000,78959772.000000
126486409.000000,71404874.000000
128755045.000000,71404874.000000
128765304.000000,71889017.000000
128795804.000000,72367949.000000
128846132.000000,72841256.000000
128915871.000000,73308523.000000
129004607.000000,73769336.000000
129111925.000000,74223280.000000
129237411.000000,74669940.000000
129380649.000000,75108901.000000
129541226.000000,75539749.000000
129718725.000000,75962068.000000
129912733.000000,76375444.000000
130122834.000000,76779462.000000
130348614.000000,77173708.000000
130589657.000000,77557766.000000
130845550.000000,77931222.000000
131115877.000000,78293661.000000
131154099.000000,78028897.000000
131199999.000000,77766685.000000
131253457.000000,77507141.000000
131314356.000000,77250385.000000
131382578.000000,76996534.000000
131458003.000000,76745708.000000
131540513.000000,76498025.000000
131629990.000000,76253603.000000
131726315.000000,76012561.000000
131829371.000000,75775016.000000
131939039.000000,75541088.000000
132055199.000000,75310894.000000
132102886.000000,75222810.000000
134835394.000000,75222810.000000
134835918.000000,75244036.000000
134837472.000000,75264992.000000
134840033.000000,75285654.000000
134843576.000000,75305997.000000
134848075.000000,75325995.000000
134853507.000000,75345625.000000
134859846.000000,75364862.000000
134867068.000000,75383681.000000
134875148.000000,75402058.000000
134884061.000000,75419967.000000
134893784.000000,75437385.000000
134904290.000000,75454285.000000
134915556.000000,75470644.000000
134927556.000000,75486438.000000
134940267.000000,75501640.000000
134953662.000000,75516227.000000
134967719.000000,75530174.000000
134982411.000000,75543457.000000
134997714.000000,75556050.000000
135013605.000000,75567928.000000
135030056.000000,75579068.000000
135047045.000000,75589444.000000
135064547.000000,75599033.000000
135082536.000000,75607808.000000
135100989.000000,75615745.000000
135119880.000000,75622821.000000
135139184.000000,75629009.000000
135158878.000000,75634286.000000
135178936.000000,75638626.000000
135199333.000000,75642005.000000
135220046.000000,75644399.000000
135241049.000000,75645782.000000
135241049.000000,75646145.000000
136584673.000000,75646145.000000
136584673.000000,76989765.000000
136585031.000000,76989765.000000
136586415.000000,77010768.000000
136588808.000000,77031481.000000
136592188.000000,77051879.000000
136596528.000000,77071937.000000
136601805.000000,77091631.000000
136607993.000000,77110935.000000
136615069.000000,77129826.000000
136623006.000000,77148279.000000
136631781.000000,77166268.000000
136641370.000000,77183770.000000
136651746.000000,77200759.000000
136662886.000000,77217211.000000
136674765.000000,77233101.000000
136687358.000000,77248404.000000
136700640.000000,77263096.000000
136714587.000000,77277153.000000
136729174.000000,77290548.000000
136744377.000000,77303259.000000
136760170.000000,77315259.000000
136776530.000000,77326525.000000
136793431.000000,77337031.000000
136810848.000000,77346753.000000
136828757.000000,77355666.000000
136847134.000000,77363746.000000
136865953.000000,77370968.000000
136885190.000000,77377307.000000
136904820.000000,77382739.000000
136924819.000000,77387238.000000
136945161.000000,77390781.000000
136965823.000000,77393341.000000
136986779.000000,77394896.000000
137008005.000000,77395420.000000
137029230.000000,77394896.000000
137050186.000000,77393341.000000
137070847.000000,77390781.000000
137091189.000000,77387238.000000
137111187.000000,77382739.000000
137130817.000000,77377307.000000
137150053.000000,77370968.000000
137168872.000000,77363746.000000
137187248.000000,77355666.000000
137205157.000000,77346753.000000
137222574.000000,77337031.000000
137239475.000000,77326525.000000
137255834.000000,77315259.000000
137271627.000000,77303259.000000
137286829.000000,77290548.000000
137301416.000000,77277153.000000
137315363.000000,77263096.000000
137328646.000000,77248404.000000
137341238.000000,77233101.000000
137353117.000000,77217211.000000
137364257.000000,77200759.000000
137374633.000000,77183770.000000
137384221.000000,77166268.000000
137392997.000000,77148279.000000
137400934.000000,77129826.000000
137408009.000000,77110935.000000
137414198.000000,77091631.000000
137419475.000000,77071937.000000
137423815.000000,77051879.000000
137427194.000000,77031481.000000
137429588.000000,77010768.000000
137430971.000000,76989765.000000
137431334.000000,76989765.000000
137431334.000000,76467978.000000
141314240.000000,76467978.000000
141315082.000000,76487765.000000
141316845.000000,76507503.000000
141319527.000000,76527156.000000
141323128.000000,76546690.000000
141327650.000000,76566069.000000
141333091.000000,76585260.000000
141339452.000000,76604226.000000
141346732.000000,76622934.000000
141354933.000000,76641347.000000
141364053.000000,76659432.000000
141374093.000000,76677153.000000
141385053.000000,76694476.000000
141396932.000000,76711365.000000
141409732.000000,76727786.000000
141423451.000000,76743703.000000
141438089.000000,76759082.000000
141453468.000000,76773721.000000
141469386.000000,76787440.000000
141485807.000000,76800239.000000
141502696.000000,76812118.000000
141520018.000000,76823077.000000
141537740.000000,76833117.000000
141555825.000000,76842237.000000
141574238.000000,76850437.000000
141592946.000000,76857718.000000
141611913.000000,76864079.000000
141631103.000000,76869520.000000
141650483.000000,76874041.000000
141670017.000000,76877643.000000
141689670.000000,76880325.000000
141709407.000000,76882087.000000
141729194.000000,76882929.000000
141748996.000000,76882852.000000
141768777.000000,76881854.000000
141788502.000000,76879938.000000
141808138.000000,76877101.000000
141827648.000000,76873345.000000
141846998.000000,76868669.000000
141866154.000000,76863073.000000
141885079.000000,76856557.000000
141903739.000000,76849122.000000
141922100.000000,76840767.000000
141940126.000000,76831492.000000
141957783.000000,76821297.000000
141975035.000000,76810183.000000
141991848.000000,76798149.000000
142008186.000000,76785195.000000
142024015.000000,76771322.000000
142024081.000000,76771387.000000
142024145.000000,76771452.000000
142024271.000000,76771581.000000
142974359.000000,75821499.000000
143911943.000000,76759082.000000
143924440.000000,76771581.000000
143924506.000000,76771517.000000
143924571.000000,76771452.000000
143924635.000000,76771387.000000
143924666.000000,76771354.000000
143924696.000000,76771322.000000
143940526.000000,76785195.000000
143956865.000000,76798149.000000
143973678.000000,76810183.000000
143990931.000000,76821297.000000
144008588.000000,76831492.000000
144026614.000000,76840767.000000
144044975.000000,76849122.000000
144063636.000000,76856557.000000
144082562.000000,76863073.000000
144101717.000000,76868669.000000
144121068.000000,76873345.000000
144140578.000000,76877101.000000
144160214.000000,76879938.000000
144179939.000000,76881854.000000
144199721.000000,76882852.000000
144219522.000000,76882929.000000
144239309.000000,76882087.000000
144259046.000000,76880325.000000
144278699.000000,76877643.000000
144298233.000000,76874041.000000
144317613.000000,76869520.000000
144336803.000000,76864079.000000
144355770.000000,76857718.000000
144374477.000000,76850437.000000
144392891.000000,76842237.000000
144410976.000000,76833117.000000
144428697.000000,76823077.000000
144446020.000000,76812118.000000
144462909.000000,76800239.000000
144479329.000000,76787440.000000
144495247.000000,76773721.000000
144510626.000000,76759082.000000
144525264.000000,76743703.000000
144538983.000000,76727786.000000
144551782.000000,76711365.000000
144563661.000000,76694476.000000
144574621.000000,76677153.000000
144584661.000000,76659432.000000
144593781.000000,76641347.000000
144601981.000000,76622934.000000
144609262.000000,76604226.000000
144615623.000000,76585260.000000
144621064.000000,76566069.000000
144625585.000000,76546690.000000
144629187.000000,76527156.000000
144631869.000000,76507503.000000
144633631.000000,76487765.000000
144634473.000000,76467978.000000
144634396.000000,76448177.000000
144633399.000000,76428396.000000
144631482.000000,76408670.000000
144628646.000000,76389035.000000
144624889.000000,76369525.000000
144620213.000000,76350174.000000
144614618.000000,76331019.000000
144608102.000000,76312094.000000
144600667.000000,76293433.000000
144592312.000000,76275072.000000
144583037.000000,76257046.000000
144572843.000000,76239389.000000
144561728.000000,76222137.000000
144549694.000000,76205324.000000
144536741.000000,76188986.000000
144522867.000000,76173156.000000
144523127.000000,76172897.000000
144510626.000000,76160398.000000
143573038.000000,75222814.000000
144510626.000000,74285230.000000
144523127.000000,74272731.000000
144523061.000000,74272665.000000
144522997.000000,74272600.000000
144522867.000000,74272472.000000
144536741.000000,74256643.000000
144549694.000000,74240304.000000
144561728.000000,74223491.000000
144572843.000000,74206239.000000
144583037.000000,74188582.000000
144592312.000000,74170556.000000
144600667.000000,74152195.000000
144608102.000000,74133535.000000
144614618.000000,74114609.000000
144620213.000000,74095454.000000
144624889.000000,74076104.000000
144628646.000000,74056594.000000
144631482.000000,74036958.000000
144633399.000000,74017232.000000
144634396.000000,73997451.000000
144634473.000000,73977650.000000
144633631.000000,73957863.000000
144631869.000000,73938126.000000
144629187.000000,73918473.000000
144625585.000000,73898939.000000
144621064.000000,73879559.000000
144615623.000000,73860369.000000
144609262.000000,73841402.000000
144601981.000000,73822695.000000
144593781.000000,73804281.000000
144584661.000000,73786196.000000
144574621.000000,73768475.000000
144563661.000000,73751152.000000
144551782.000000,73734263.000000
144538983.000000,73717842.000000
144525264.000000,73701925.000000
144510626.000000,73686546.000000
144495246.000000,73671907.000000
144479329.000000,73658188.000000
144462908.000000,73645389.000000
144446018.000000,73633509.000000
144428696.000000,73622550.000000
144410974.000000,73612510.000000
144392889.000000,73603389.000000
144374476.000000,73595189.000000
144355768.000000,73587908.000000
144336802.000000,73581547.000000
144317611.000000,73576106.000000
144298231.000000,73571585.000000
144278698.000000,73567983.000000
144259045.000000,73565301.000000
144239307.000000,73563539.000000
144219521.000000,73562697.000000
144199719.000000,73562774.000000
144179938.000000,73563771.000000
144160213.000000,73565688.000000
144140577.000000,73568524.000000
144121067.000000,73572280.000000
144101717.000000,73576956.000000
144082561.000000,73582552.000000
144063636.000000,73589068.000000
144044975.000000,73596503.000000
144026614.000000,73604858.000000
144008587.000000,73614132.000000
143990930.000000,73624326.000000
143973678.000000,73635440.000000
143956865.000000,73647474.000000
143940526.000000,73660428.000000
143924696.000000,73674301.000000
143924569.000000,73674172.000000
143924504.000000,73674107.000000
143924471.000000,73674075.000000
143924437.000000,73674043.000000
143912313.000000,73686176.000000
143912220.000000,73686269.000000
143912129.000000,73686361.000000
143911947.000000,73686546.000000
142974359.000000,74624130.000000
142036776.000000,73686542.000000
142024271.000000,73674043.000000
142024015.000000,73674301.000000
142008186.000000,73660427.000000
141991848.000000,73647474.000000
141975035.000000,73635440.000000
141957783.000000,73624325.000000
141940126.000000,73614131.000000
141922100.000000,73604856.000000
141903739.000000,73596501.000000
141885079.000000,73589066.000000
141866154.000000,73582550.000000
141846998.000000,73576955.000000
141827648.000000,73572279.000000
141808138.000000,73568522.000000
141788502.000000,73565686.000000
141768777.000000,73563769.000000
141748996.000000,73562772.000000
141729194.000000,73562695.000000
141709407.000000,73563537.000000
141689670.000000,73565299.000000
141670017.000000,73567981.000000
141650483.000000,73571583.000000
141631103.000000,73576104.000000
141611913.000000,73581545.000000
141592946.000000,73587906.000000
141574238.000000,73595187.000000
141555825.000000,73603387.000000
141537740.000000,73612507.000000
141520018.000000,73622547.000000
141502696.000000,73633507.000000
141485807.000000,73645386.000000
141469386.000000,73658185.000000
141453468.000000,73671904.000000
141438089.000000,73686542.000000
141423451.000000,73701922.000000
141409732.000000,73717839.000000
141396932.000000,73734260.000000
141385053.000000,73751150.000000
141374093.000000,73768472.000000
141364053.000000,73786194.000000
141354933.000000,73804279.000000
141346732.000000,73822693.000000
141339452.000000,73841400.000000
141333091.000000,73860367.000000
141327650.000000,73879557.000000
141323128.000000,73898937.000000
141319527.000000,73918471.000000
141316845.000000,73938124.000000
141315082.000000,73957861.000000
141314240.000000,73977648.000000
141314317.000000,73997450.000000
141315314.000000,74017231.000000
141317231.000000,74036956.000000
141320068.000000,74056592.000000
141323824.000000,74076102.000000
141328500.000000,74095452.000000
141334095.000000,74114608.000000
141340611.000000,74133533.000000
141348046.000000,74152194.000000
141356401.000000,74170555.000000
141365675.000000,74188581.000000
141375870.000000,74206238.000000
141386984.000000,74223490.000000
141399018.000000,74240304.000000
141411971.000000,74256642.000000
141425844.000000,74272472.000000
141425589.000000,74272728.000000
141438089.000000,74285226.000000
142375673.000000,75222814.000000
141425592.000000,76172897.000000
141425844.000000,76173156.000000
141411971.000000,76188986.000000
141399018.000000,76205324.000000
141386984.000000,76222137.000000
141375870.000000,76239389.000000
141365675.000000,76257046.000000
141356401.000000,76275072.000000
141348046.000000,76293433.000000
141340611.000000,76312094.000000
141334095.000000,76331019.000000
141328500.000000,76350174.000000
141323824.000000,76369525.000000
141320068.000000,76389035.000000
141317231.000000,76408670.000000
141315314.000000,76428396.000000
141314317.000000,76448177.000000
141314240.000000,76467978.000000
137431334.000000,76467978.000000
137431334.000000,75646145.000000
138774958.000000,75646145.000000
138774958.000000,75645782.000000
138795960.000000,75644399.000000
138816673.000000,75642005.000000
138837071.000000,75638626.000000
138857129.000000,75634286.000000
138876822.000000,75629009.000000
138896127.000000,75622821.000000
138915018.000000,75615745.000000
138933470.000000,75607808.000000
138951459.000000,75599033.000000
138968961.000000,75589444.000000
138985950.000000,75579068.000000
139002402.000000,75567928.000000
139018292.000000,75556050.000000
139033595.000000,75543457.000000
139048288.000000,75530174.000000
139062344.000000,75516227.000000
139075740.000000,75501640.000000
139088450.000000,75486438.000000
139100451.000000,75470644.000000
139111716.000000,75454285.000000
139122223.000000,75437385.000000
139131945.000000,75419967.000000
139140858.000000,75402058.000000
139148939.000000,75383681.000000
139156161.000000,75364862.000000
139162500.000000,75345625.000000
139167931.000000,75325995.000000
139172431.000000,75305997.000000
139175973.000000,75285654.000000
139178534.000000,75264992.000000
139180089.000000,75244036.000000
139180613.000000,75222810.000000
139180089.000000,75201585.000000
139178534.000000,75180628.000000
139175973.000000,75159967.000000
139172431.000000,75139624.000000
139167931.000000,75119626.000000
139162500.000000,75099995.000000
139156161.000000,75080758.000000
139148939.000000,75061939.000000
139140858.000000,75043563.000000
139131945.000000,75025654.000000
139122223.000000,75008236.000000
139111716.000000,74991336.000000
139100451.000000,74974976.000000
139088450.000000,74959183.000000
139075740.000000,74943981.000000
139062344.000000,74929393.000000
139048288.000000,74915446.000000
139033595.000000,74902164.000000
139018292.000000,74889571.000000
139002402.000000,74877693.000000
138985950.000000,74866553.000000
138968961.000000,74856176.000000
138951459.000000,74846588.000000
138933470.000000,74837813.000000
138915018.000000,74829875.000000
138896127.000000,74822800.000000
138876822.000000,74816612.000000
138857129.000000,74811335.000000
138837071.000000,74806995.000000
138816673.000000,74803615.000000
138795960.000000,74801222.000000
138774958.000000,74799839.000000
138774958.000000,74799480.000000
138757803.000000,74799484.000000
137431334.000000,74799484.000000
137431334.000000,73455856.000000
137430975.000000,73455856.000000
137429592.000000,73434853.000000
137427198.000000,73414141.000000
137423819.000000,73393743.000000
137419478.000000,73373685.000000
137414201.000000,73353991.000000
137408013.000000,73334687.000000
137400937.000000,73315796.000000
137393000.000000,73297343.000000
137384224.000000,73279354.000000
137374636.000000,73261852.000000
137364260.000000,73244863.000000
137353120.000000,73228411.000000
137341241.000000,73212521.000000
137328648.000000,73197217.000000
137315365.000000,73182525.000000
137301418.000000,73168469.000000
137286831.000000,73155073.000000
137271628.000000,73142362.000000
137255835.000000,73130362.000000
137239476.000000,73119096.000000
137222575.000000,73108590.000000
137205158.000000,73098867.000000
137187249.000000,73089954.000000
137168873.000000,73081873.000000
137150054.000000,73074651.000000
137130817.000000,73068312.000000
137111187.000000,73062881.000000
137091189.000000,73058381.000000
137070847.000000,73054839.000000
137050186.000000,73052278.000000
137029230.000000,73050723.000000
137008005.000000,73050199.000000
136986779.000000,73050723.000000
136965823.000000,73052278.000000
136945161.000000,73054839.000000
136924819.000000,73058381.000000
136904820.000000,73062881.000000
136885190.000000,73068312.000000
136865953.000000,73074651.000000
136847134.000000,73081873.000000
136828757.000000,73089954.000000
136810848.000000,73098867.000000
136793431.000000,73108590.000000
136776530.000000,73119096.000000
136760170.000000,73130362.000000
136744377.000000,73142362.000000
136729174.000000,73155073.000000
136714587.000000,73168469.000000
136700640.000000,73182525.000000
136687358.000000,73197217.000000
136674765.000000,73212521.000000
136662886.000000,73228411.000000
136651746.000000,73244863.000000
136641370.000000,73261852.000000
136631781.000000,73279354.000000
136623006.000000,73297343.000000
136615069.000000,73315796.000000
136607993.000000,73334687.000000
136601805.000000,73353991.000000
136596528.000000,73373685.000000
136592188.000000,73393743.000000
136588808.000000,73414141.000000
136586415.000000,73434853.000000
136585031.000000,73455856.000000
136584673.000000,73455856.000000
136584673.000000,74799480.000000
135241049.000000,74799480.000000
135241049.000000,74799843.000000
135220046.000000,74801226.000000
135199333.000000,74803619.000000
135178935.000000,74806999.000000
135158877.000000,74811339.000000
135139183.000000,74816616.000000
135119878.000000,74822804.000000
135100987.000000,74829879.000000
135082535.000000,74837817.000000
135064545.000000,74846592.000000
135047044.000000,74856180.000000
135030055.000000,74866556.000000
135013603.000000,74877696.000000
134997713.000000,74889575.000000
134982409.000000,74902168.000000
134967717.000000,74915450.000000
134953661.000000,74929397.000000
134940265.000000,74943984.000000
134927555.000000,74959186.000000
134915555.000000,74974979.000000
134904289.000000,74991339.000000
134893783.000000,75008239.000000
134884061.000000,75025656.000000
134875147.000000,75043565.000000
134867067.000000,75061942.000000
134859845.000000,75080760.000000
134853506.000000,75099997.000000
134848075.000000,75119627.000000
134843576.000000,75139625.000000
134840033.000000,75159968.000000
134837472.000000,75180629.000000
134835918.000000,75201585.000000
134835394.000000,75222810.000000
132102886.000000,75222810.000000
132177735.000000,75084554.000000
132306527.000000,74862185.000000
132441457.000000,74643906.000000
132582407.000000,74429836.000000
132404229.000000,74287537.000000
132234514.000000,74135541.000000
132073680.000000,73974265.000000
131922146.000000,73804129.000000
131780331.000000,73625549.000000
131648652.000000,73438946.000000
131527528.000000,73244737.000000
131417377.000000,73043340.000000
131318619.000000,72835175.000000
131231671.000000,72620659.000000
131156951.000000,72400211.000000
131094879.000000,72174249.000000
131045872.000000,71943193.000000
131010349.000000,71707459.000000
130988728.000000,71467467.000000
130981428.000000,71223636.000000
130981426.000000,71223636.000000
130986650.000000,71017291.000000
131002151.000000,70813644.000000
131027678.000000,70612946.000000
131062978.000000,70415452.000000
131107798.000000,70221412.000000
131161886.000000,70031081.000000
131224988.000000,69844711.000000
131296852.000000,69662554.000000
131377226.000000,69484864.000000
131465856.000000,69311892.000000
131562490.000000,69143892.000000
131666876.000000,68981117.000000
131778760.000000,68823818.000000
131897890.000000,68672249.000000
132024013.000000,68526663.000000
132156876.000000,68387312.000000
132296228.000000,68254448.000000
132441814.000000,68128325.000000
132593383.000000,68009195.000000
132750682.000000,67897311.000000
132913457.000000,67792926.000000
133081457.000000,67696292.000000
133254429.000000,67607661.000000
133432119.000000,67527288.000000
133614276.000000,67455424.000000
133800646.000000,67392321.000000
133990977.000000,67338234.000000
134185016.000000,67293414.000000
134382511.000000,67258114.000000
134583208.000000,67232587.000000
134786855.000000,67217086.000000
134993200.000000,67211862.000000
135178601.000000,67216077.000000
135361848.000000,67228600.000000
135542758.000000,67249247.000000
135721148.000000,67277836.000000
135896835.000000,67314184.000000
136069636.000000,67358108.000000
136239369.000000,67409425.000000
136405850.000000,67467952.000000
136568896.000000,67533506.000000
136728325.000000,67605904.000000
136883954.000000,67684964.000000
137035599.000000,67770502.000000
137183078.000000,67862335.000000
137326208.000000,67960281.000000
137464805.000000,68064156.000000
137598687.000000,68173778.000000
137727671.000000,68288963.000000
137851574.000000,68409529.000000
137970213.000000,68535293.000000
138083406.000000,68666071.000000
138190968.000000,68801682.000000
138292717.000000,68941941.000000
138388471.000000,69086666.000000
138478046.000000,69235674.000000
138561260.000000,69388783.000000
138637929.000000,69545808.000000
138707870.000000,69706568.000000
138770901.000000,69870879.000000
138826839.000000,70038558.000000
138875500.000000,70209423.000000
138916702.000000,70383290.000000
138950262.000000,70559976.000000
139078596.000000,70546026.000000
139207465.000000,70533894.000000
139336856.000000,70523592.000000
139466755.000000,70515134.000000
139597150.000000,70508532.000000
139728028.000000,70503801.000000
139859375.000000,70500952.000000
139991178.000000,70500000.000000
139991182.000000,70500000.000000
140114089.000000,70500828.000000
140236600.000000,70503305.000000
140358705.000000,70507421.000000
140480393.000000,70513165.000000
140601653.000000,70520526.000000
140722475.000000,70529495.000000
140842849.000000,70540059.000000
140962763.000000,70552210.000000
140994341.000000,70373081.000000
141033757.000000,70196772.000000
141080825.000000,70023469.000000
141135354.000000,69853361.000000
141197158.000000,69686635.000000
141266049.000000,69523480.000000
141341837.000000,69364084.000000
141424336.000000,69208636.000000
141513357.000000,69057322.000000
141608711.000000,68910331.000000
141710212.000000,68767852.000000
141817670.000000,68630072.000000
141930898.000000,68497180.000000
142049708.000000,68369363.000000
142173911.000000,68246810.000000
142303319.000000,68129709.000000
142437745.000000,68018247.000000
142577000.000000,67912613.000000
142720896.000000,67812996.000000
142869245.000000,67719582.000000
143021859.000000,67632561.000000
143178550.000000,67552120.000000
143339130.000000,67478447.000000
143503410.000000,67411731.000000
143671203.000000,67352159.000000
143842321.000000,67299920.000000
144016575.000000,67255202.000000
144193777.000000,67218192.000000
144373740.000000,67189080.000000
144556275.000000,67168052.000000
144741194.000000,67155298.000000
144928308.000000,67151004.000000
145134653.000000,67156228.000000
145338300.000000,67171729.000000
145538998.000000,67197256.000000
145736492.000000,67232556.000000
145930531.000000,67277376.000000
146120862.000000,67331464.000000
146307232.000000,67394566.000000
146489389.000000,67466430.000000
146667079.000000,67546804.000000
146840050.000000,67635434.000000
147008050.000000,67732068.000000
147170826.000000,67836453.000000
147328124.000000,67948337.000000
147479693.000000,68067467.000000
147625279.000000,68193590.000000
147764631.000000,68326454.000000
147897494.000000,68465805.000000
148023617.000000,68611392.000000
148142747.000000,68762960.000000
148254631.000000,68920259.000000
148359017.000000,69083035.000000
148455651.000000,69251034.000000
148544281.000000,69424006.000000
148624655.000000,69601696.000000
148696519.000000,69783853.000000
148759621.000000,69970223.000000
148813709.000000,70160554.000000
148858529.000000,70354594.000000
148893829.000000,70552089.000000
148919356.000000,70752786.000000
148934857.000000,70956434.000000
148940081.000000,71162779.000000
148932843.000000,71405566.000000
148911407.000000,71644548.000000
148876184.000000,71879312.000000
148827588.000000,72109445.000000
148766033.000000,72334534.000000
148691930.000000,72554166.000000
148605693.000000,72767927.000000
148507735.000000,72975405.000000
148398469.000000,73176187.000000
148278308.000000,73369859.000000
148147665.000000,73556009.000000
148006953.000000,73734224.000000
147856586.000000,73904091.000000
147696976.000000,74065196.000000
147528536.000000,74217127.000000
147351679.000000,74359470.000000
147497521.000000,74576586.000000
147637129.000000,74798126.000000
147770377.000000,75023963.000000
147897138.000000,75253973.000000
148017286.000000,75488030.000000
148130697.000000,75726006.000000
148237243.000000,75967776.000000
148336799.000000,76213215.000000
148429238.000000,76462196.000000
148514436.000000,76714593.000000
148592265.000000,76970281.000000
148662601.000000,77229133.000000
148725316.000000,77491023.000000
148780286.000000,77755826.000000
148827384.000000,78023415.000000
148866484.000000,78293665.000000
149136811.000000,77931226.000000
149392704.000000,77557770.000000
149633748.000000,77173711.000000
149859528.000000,76779466.000000
150069630.000000,76375447.000000
150263638.000000,75962071.000000
150441137.000000,75539751.000000
150601714.000000,75108903.000000
150744953.000000,74669942.000000
150870439.000000,74223281.000000
150977757.000000,73769337.000000
151066494.000000,73308524.000000
151136233.000000,72841256.000000
151186560.000000,72367949.000000
151217061.000000,71889017.000000
151227320.000000,71404874.000000
151212690.000000,70826946.000000
151169274.000000,70256571.000000
151097778.000000,69694460.000000
150998910.000000,69141319.000000
150873379.000000,68597855.000000
150721891.000000,68064778.000000
150545155.000000,67542794.000000
150343878.000000,67032611.000000
150118769.000000,66534938.000000
149870534.000000,66050481.000000
149599882.000000,65579948.000000
149307520.000000,65124048.000000
148994156.000000,64683488.000000
148660498.000000,64258975.000000
148307254.000000,63851218.000000
147935131.000000,63460924.000000
147544837.000000,63088801.000000
147137080.000000,62735557.000000
146712567.000000,62401899.000000
146272007.000000,62088536.000000
145816107.000000,61796174.000000
145345574.000000,61525522.000000
144861117.000000,61277287.000000
144363444.000000,61052178.000000
143853261.000000,60850901.000000
143331277.000000,60674166.000000
142798200.000000,60522678.000000
142254737.000000,60397147.000000
141701596.000000,60298279.000000
141139485.000000,60226783.000000
140569111.000000,60183367.000000
139991182.000000,60168737.000000
139413254.000000,60183367.000000
138842880.000000,60226783.000000
138280769.000000,60298279.000000
137727628.000000,60397147.000000
137184165.000000,60522678.000000
136651087.000000,60674166.000000
136129103.000000,60850901.000000
135618921.000000,61052178.000000
135121247.000000,61277287.000000
134636790.000000,61525522.000000
134166258.000000,61796174.000000
133710358.000000,62088536.000000
133269797.000000,62401899.000000
132845285.000000,62735557.000000
132437528.000000,63088801.000000
132047234.000000,63460924.000000
131675111.000000,63851218.000000
131321866.000000,64258975.000000
130988208.000000,64683488.000000
130674845.000000,65124048.000000
130382483.000000,65579948.000000
130111831.000000,66050481.000000
129863596.000000,66534938.000000
129638486.000000,67032611.000000
129437210.000000,67542794.000000
129260474.000000,68064778.000000
129108986.000000,68597855.000000
128983455.000000,69141319.000000
128884587.000000,69694460.000000
128813091.000000,70256571.000000
128769674.000000,70826946.000000
128755045.000000,71404874.000000
126486409.000000,71404874.000000
126486406.000000,63365799.000000
Z" /> 
</g>
<g style="fill:#840000; fill-opacity:1.0; 
stroke:#840000; stroke-width:400000.000000; stroke-opacity:1; 
stroke-linecap:round; stroke-linejoin:round;">
</g>
<g style="fill:#840000; fill-opacity:0.0; 
stroke:#840000; stroke-width:400000.000000; stroke-opacity:1; 
stroke-linecap:round; stroke-linejoin:round;">
<text x="141000000.000000" y="94500000.000000"
textLength="31578571.000000" font-size="6666666.000000" lengthAdjust="spacingAndGlyphs"
text-anchor="middle" opacity="0"></text>
<g class="stroked-text"><desc></desc>
<path d="M128619047 90214285
L129571428 93071428
" />
<path d="M127428571 90214285
L127190476 91404761
L126714285 92357142
L126238095 93071428
" />
<path d="M129095238 89500000
L129333333 89500000
L129571428 89738095
L129571428 89976190
L129333333 90214285
L129095238 90214285
L128857142 89976190
L128857142 89738095
L129095238 89500000
" />
<path d="M131714285 90452380
L134571428 90452380
" />
<path d="M131238095 93309523
L135047619 93309523
" />
<path d="M136952380 90690476
L137428571 91880952
" />
<path d="M138142857 90452380
L138380952 91642857
" />
<path d="M139571428 90690476
L139571428 91880952
L139333333 92595238
L138619047 93309523
L137904761 93785714
" />
<path d="M143380952 88785714
L143142857 89976190
L142666666 90690476
L142190476 91642857
" />
<path d="M143380952 89738095
L144809523 89738095
L144809523 90690476
L144571428 91642857
L144095238 92595238
L143619047 93309523
L142666666 94023809
" />
<path d="M148857142 93547619
L149095238 93785714
L148857142 94023809
L148619047 93785714
L148857142 93547619
L148857142 94023809
" />
<path d="M148857142 92119047
L148619047 89261904
L148857142 89023809
L149095238 89261904
L148857142 92119047
L148857142 89023809
" />
<path d="M154095238 93547619
L154333333 93785714
L154095238 94023809
L153857142 93785714
L154095238 93547619
L154095238 94023809
" />
<path d="M154095238 92119047
L153857142 89261904
L154095238 89023809
L154333333 89261904
L154095238 92119047
L154095238 89023809
" />
</g><g >
</g>
<g >
</g>
<g >
</g>
<g >
</g>
<g >
</g>
<g >
</g>
<g >
</g>
<g >
</g>
<g >
</g>
</g>
<g style="fill:#FFFFFF; fill-opacity:0.0; 
stroke:#FFFFFF; stroke-width:400000.000000; stroke-opacity:1; 
stroke-linecap:round; stroke-linejoin:round;">
</g>
<g style="fill:#FFFFFF; fill-opacity:1.0; 
stroke:#FFFFFF; stroke-width:1.000000; stroke-opacity:1; 
stroke-linecap:round; stroke-linejoin:round;">
<circle cx="207999968.000000" cy="74000000.000000" r="1099999.500000" /> 
</g>
<g style="fill:#FFFFFF; fill-opacity:1.0; 
stroke:#FFFFFF; stroke-width:21200.000000; stroke-opacity:1; 
stroke-linecap:round; stroke-linejoin:round;">
</g>
<g style="fill:#FFFFFF; fill-opacity:1.0; 
stroke:#FFFFFF; stroke-width:1.000000; stroke-opacity:1; 
stroke-linecap:round; stroke-linejoin:round;">
<circle cx="173999984.000000" cy="90999992.000000" r="1099999.500000" /> 
</g>
<g style="fill:#FFFFFF; fill-opacity:1.0; 
stroke:#FFFFFF; stroke-width:21200.000000; stroke-opacity:1; 
stroke-linecap:round; stroke-linejoin:round;">
</g>
<g style="fill:#FFFFFF; fill-opacity:1.0; 
stroke:#FFFFFF; stroke-width:1.000000; stroke-opacity:1; 
stroke-linecap:round; stroke-linejoin:round;">
<circle cx="106000016.000000" cy="57000008.000000" r="1099999.500000" /> 
</g>
<g style="fill:#FFFFFF; fill-opacity:1.0; 
stroke:#FFFFFF; stroke-width:21200.000000; stroke-opacity:1; 
stroke-linecap:round; stroke-linejoin:round;">
</g>
<g style="fill:#FFFFFF; fill-opacity:1.0; 
stroke:#FFFFFF; stroke-width:1.000000; stroke-opacity:1; 
stroke-linecap:round; stroke-linejoin:round;">
<circle cx="106000016.000000" cy="90999992.000000" r="1099999.500000" /> 
</g>
<g style="fill:#FFFFFF; fill-opacity:1.0; 
stroke:#FFFFFF; stroke-width:21200.000000; stroke-opacity:1; 
stroke-linecap:round; stroke-linejoin:round;">
</g>
<g style="fill:#FFFFFF; fill-opacity:1.0; 
stroke:#FFFFFF; stroke-width:1.000000; stroke-opacity:1; 
stroke-linecap:round; stroke-linejoin:round;">
<circle cx="173999984.000000" cy="57000008.000000" r="1099999.500000" /> 
</g>
<g style="fill:#FFFFFF; fill-opacity:1.0; 
stroke:#FFFFFF; stroke-width:21200.000000; stroke-opacity:1; 
stroke-linecap:round; stroke-linejoin:round;">
</g>
<g style="fill:#FFFFFF; fill-opacity:1.0; 
stroke:#FFFFFF; stroke-width:1.000000; stroke-opacity:1; 
stroke-linecap:round; stroke-linejoin:round;">
<circle cx="72000032.000000" cy="74000000.000000" r="1099999.500000" /> 
</g>
<g style="fill:#FFFFFF; fill-opacity:1.0; 
stroke:#FFFFFF; stroke-width:21200.000000; stroke-opacity:1; 
stroke-linecap:round; stroke-linejoin:round;">
</g>
<g style="fill:#000000; fill-opacity:1.0; 
stroke:#000000; stroke-width:21200.000000; stroke-opacity:1; 
stroke-linecap:round; stroke-linejoin:round;">
</g>
<g style="fill:#C2C200; fill-opacity:1.0; 
stroke:#C2C200; stroke-width:21200.000000; stroke-opacity:1; 
stroke-linecap:round; stroke-linejoin:round;">
</g>
<g style="fill:#C2C200; fill-opacity:0.0; 
stroke:#C2C200; stroke-width:100000.000000; stroke-opacity:1; 
stroke-linecap:round; stroke-linejoin:round;">
<path d="M55500000.000000 38500000.000000 A2000000.000000 2000000.000000 0.0 0 0 53500000.000000 40500000.000000" />
<path d="M226500000.000000 40500000.000000 A2000000.000000 2000000.000000 0.0 0 0 224500000.000000 38500000.000000" />
<path d="M224500000.000000 109500000.000000 A2000000.000000 2000000.000000 0.0 0 0 226500000.000000 107500000.000000" />
<path d="M224500000 109500000
L55500000 109500000
" />
<path d="M53500000 107500000
L53500000 40500000
" />
<path d="M55500000 38500000
L224500000 38500000
" />
<path d="M226500000 40500000
L226500000 107500000
" />
<path d="M53500000.000000 107500000.000000 A2000000.000000 2000000.000000 0.0 0 0 55500000.000000 109500000.000000" />
<g >
</g>
<g >
</g>
<g >
</g>
<g >
</g>
<g >
</g>
<g >
</g>
<g >
</g>
<g >
</g>
<g >
</g>
</g> 
</svg>
