<?xml version="1.0" encoding="UTF-8" standalone="no"?>
<!-- Created with Inkscape (http://www.inkscape.org/) -->

<svg
   width="71.299995mm"
   height="173.29999mm"
   viewBox="0 0 71.299995 173.29999"
   version="1.1"
   id="svg5"
   inkscape:version="1.1.1 (c3084ef, 2021-09-22)"
   sodipodi:docname="drawing-1.svg"
   xmlns:inkscape="http://www.inkscape.org/namespaces/inkscape"
   xmlns:sodipodi="http://sodipodi.sourceforge.net/DTD/sodipodi-0.dtd"
   xmlns="http://www.w3.org/2000/svg"
   xmlns:svg="http://www.w3.org/2000/svg">
  <sodipodi:namedview
     id="namedview7"
     pagecolor="#505050"
     bordercolor="#eeeeee"
     borderopacity="1"
     inkscape:pageshadow="0"
     inkscape:pageopacity="0"
     inkscape:pagecheckerboard="0"
     inkscape:document-units="mm"
     showgrid="false"
     inkscape:zoom="1.2340498"
     inkscape:cx="362.22201"
     inkscape:cy="124.3872"
     inkscape:window-width="2704"
     inkscape:window-height="1368"
     inkscape:window-x="1683"
     inkscape:window-y="171"
     inkscape:window-maximized="0"
     inkscape:current-layer="layer1"
     inkscape:rotation="90"
     units="mm"
     fit-margin-top="0"
     fit-margin-left="0"
     fit-margin-right="0"
     fit-margin-bottom="0"
     inkscape:snap-global="false" />
  <defs
     id="defs2" />
  <g
     inkscape:label="Layer 1"
     inkscape:groupmode="layer"
     id="layer1"
     transform="translate(-1.4902344,-1.3390199)">
    <g
       style="fill:#000000;fill-opacity:1;stroke:#000000;stroke-linecap:round;stroke-linejoin:round;stroke-opacity:1"
       id="g19029"
       transform="matrix(9.9999996e-7,0,0,9.9999996e-7,-46.471893,1.9824959)" />
    <g
       style="fill:#000000;fill-opacity:0;stroke:#000000;stroke-width:0;stroke-linecap:round;stroke-linejoin:round;stroke-opacity:1"
       id="g19031"
       transform="matrix(9.9999996e-7,0,0,9.9999996e-7,-46.471893,1.9824959)" />
    <g
       style="fill:#000000;fill-opacity:0;stroke:#000000;stroke-width:21200;stroke-linecap:round;stroke-linejoin:round;stroke-opacity:1"
       id="g19033"
       transform="matrix(9.9999996e-7,0,0,9.9999996e-7,-46.471893,1.9824959)" />
    <g
       style="fill:#000000;fill-opacity:0;stroke:#000000;stroke-width:21200;stroke-linecap:round;stroke-linejoin:round;stroke-opacity:1"
       id="g19039"
       transform="matrix(9.9999996e-7,0,0,9.9999996e-7,-46.471893,1.9824959)" />
    <g
       style="fill:#000000;fill-opacity:0;stroke:#000000;stroke-width:21200;stroke-linecap:round;stroke-linejoin:round;stroke-opacity:1"
       id="g19045"
       transform="matrix(9.9999996e-7,0,0,9.9999996e-7,-46.471893,1.9824959)" />
    <g
       style="fill:#000000;fill-opacity:0;stroke:#000000;stroke-width:21200;stroke-linecap:round;stroke-linejoin:round;stroke-opacity:1"
       id="g19051"
       transform="matrix(9.9999996e-7,0,0,9.9999996e-7,-46.471893,1.9824959)" />
    <g
       style="fill:#000000;fill-opacity:0;stroke:#000000;stroke-width:21200;stroke-linecap:round;stroke-linejoin:round;stroke-opacity:1"
       id="g19057"
       transform="matrix(9.9999996e-7,0,0,9.9999996e-7,-46.471893,1.9824959)" />
    <g
       style="fill:#000000;fill-opacity:0;stroke:#000000;stroke-width:21200;stroke-linecap:round;stroke-linejoin:round;stroke-opacity:1"
       id="g19063"
       transform="matrix(9.9999996e-7,0,0,9.9999996e-7,-46.471893,1.9824959)" />
    <g
       style="fill:#000000;fill-opacity:0;stroke:#000000;stroke-width:21200;stroke-linecap:round;stroke-linejoin:round;stroke-opacity:1"
       id="g19069"
       transform="matrix(9.9999996e-7,0,0,9.9999996e-7,-46.471893,1.9824959)" />
    <g
       style="fill:#000000;fill-opacity:0;stroke:#000000;stroke-width:21200;stroke-linecap:round;stroke-linejoin:round;stroke-opacity:1"
       id="g19075"
       transform="matrix(9.9999996e-7,0,0,9.9999996e-7,-46.471893,1.9824959)" />
    <g
       style="fill:#000000;fill-opacity:0;stroke:#000000;stroke-width:21200;stroke-linecap:round;stroke-linejoin:round;stroke-opacity:1"
       id="g19081"
       transform="matrix(9.9999996e-7,0,0,9.9999996e-7,-46.471893,1.9824959)" />
    <g
       style="fill:#000000;fill-opacity:0;stroke:#000000;stroke-width:21200;stroke-linecap:round;stroke-linejoin:round;stroke-opacity:1"
       id="g19095"
       transform="matrix(9.9999996e-7,0,0,9.9999996e-7,-46.471893,1.9824959)" />
    <g
       style="fill:#000000;fill-opacity:0;stroke:#000000;stroke-width:21200;stroke-linecap:round;stroke-linejoin:round;stroke-opacity:1"
       id="g19107"
       transform="matrix(9.9999996e-7,0,0,9.9999996e-7,-46.471893,1.9824959)" />
    <g
       style="fill:#000000;fill-opacity:0;stroke:#000000;stroke-width:21200;stroke-linecap:round;stroke-linejoin:round;stroke-opacity:1"
       id="g19119"
       transform="matrix(9.9999996e-7,0,0,9.9999996e-7,-46.471893,1.9824959)" />
    <g
       style="fill:#000000;fill-opacity:0;stroke:#000000;stroke-width:21200;stroke-linecap:round;stroke-linejoin:round;stroke-opacity:1"
       id="g19133"
       transform="matrix(9.9999996e-7,0,0,9.9999996e-7,-46.471893,1.9824959)" />
    <g
       style="fill:#000000;fill-opacity:0;stroke:#000000;stroke-width:21200;stroke-linecap:round;stroke-linejoin:round;stroke-opacity:1"
       id="g19145"
       transform="matrix(9.9999996e-7,0,0,9.9999996e-7,-46.471893,1.9824959)" />
    <g
       style="fill:#000000;fill-opacity:0;stroke:#000000;stroke-width:21200;stroke-linecap:round;stroke-linejoin:round;stroke-opacity:1"
       id="g19157"
       transform="matrix(9.9999996e-7,0,0,9.9999996e-7,-46.471893,1.9824959)" />
    <g
       style="fill:#000000;fill-opacity:0;stroke:#000000;stroke-width:21200;stroke-linecap:round;stroke-linejoin:round;stroke-opacity:1"
       id="g19163"
       transform="matrix(9.9999996e-7,0,0,9.9999996e-7,-46.471893,1.9824959)" />
    <g
       style="fill:#000000;fill-opacity:0;stroke:#000000;stroke-width:21200;stroke-linecap:round;stroke-linejoin:round;stroke-opacity:1"
       id="g19169"
       transform="matrix(9.9999996e-7,0,0,9.9999996e-7,-46.471893,1.9824959)" />
    <g
       style="fill:#000000;fill-opacity:0;stroke:#000000;stroke-width:21200;stroke-linecap:round;stroke-linejoin:round;stroke-opacity:1"
       id="g19175"
       transform="matrix(9.9999996e-7,0,0,9.9999996e-7,-46.471893,1.9824959)" />
    <g
       style="fill:#000000;fill-opacity:0;stroke:#000000;stroke-width:21200;stroke-linecap:round;stroke-linejoin:round;stroke-opacity:1"
       id="g19181"
       transform="matrix(9.9999996e-7,0,0,9.9999996e-7,-46.471893,1.9824959)" />
    <g
       style="fill:#000000;fill-opacity:0;stroke:#000000;stroke-width:21200;stroke-linecap:round;stroke-linejoin:round;stroke-opacity:1"
       id="g19187"
       transform="matrix(9.9999996e-7,0,0,9.9999996e-7,-46.471893,1.9824959)" />
    <g
       style="fill:#000000;fill-opacity:0;stroke:#000000;stroke-width:21200;stroke-linecap:round;stroke-linejoin:round;stroke-opacity:1"
       id="g19201"
       transform="matrix(9.9999996e-7,0,0,9.9999996e-7,-46.471893,1.9824959)" />
    <g
       style="fill:#000000;fill-opacity:0;stroke:#000000;stroke-width:21200;stroke-linecap:round;stroke-linejoin:round;stroke-opacity:1"
       id="g19213"
       transform="matrix(9.9999996e-7,0,0,9.9999996e-7,-46.471893,1.9824959)" />
    <g
       style="fill:#000000;fill-opacity:0;stroke:#000000;stroke-width:21200;stroke-linecap:round;stroke-linejoin:round;stroke-opacity:1"
       id="g19225"
       transform="matrix(9.9999996e-7,0,0,9.9999996e-7,-46.471893,1.9824959)" />
    <g
       style="fill:#000000;fill-opacity:0;stroke:#000000;stroke-width:21200;stroke-linecap:round;stroke-linejoin:round;stroke-opacity:1"
       id="g19239"
       transform="matrix(9.9999996e-7,0,0,9.9999996e-7,-46.471893,1.9824959)" />
    <g
       style="fill:#000000;fill-opacity:0;stroke:#000000;stroke-width:21200;stroke-linecap:round;stroke-linejoin:round;stroke-opacity:1"
       id="g19251"
       transform="matrix(9.9999996e-7,0,0,9.9999996e-7,-46.471893,1.9824959)" />
    <g
       style="fill:#000000;fill-opacity:0;stroke:#000000;stroke-width:21200;stroke-linecap:round;stroke-linejoin:round;stroke-opacity:1"
       id="g19263"
       transform="matrix(9.9999996e-7,0,0,9.9999996e-7,-46.471893,1.9824959)" />
    <g
       style="fill:#000000;fill-opacity:0;stroke:#000000;stroke-width:21200;stroke-linecap:round;stroke-linejoin:round;stroke-opacity:1"
       id="g19269"
       transform="matrix(9.9999996e-7,0,0,9.9999996e-7,-46.471893,1.9824959)" />
    <g
       style="fill:#000000;fill-opacity:0;stroke:#000000;stroke-width:21200;stroke-linecap:round;stroke-linejoin:round;stroke-opacity:1"
       id="g19275"
       transform="matrix(9.9999996e-7,0,0,9.9999996e-7,-46.471893,1.9824959)" />
    <g
       style="fill:#000000;fill-opacity:0;stroke:#000000;stroke-width:21200;stroke-linecap:round;stroke-linejoin:round;stroke-opacity:1"
       id="g19281"
       transform="matrix(9.9999996e-7,0,0,9.9999996e-7,-46.471893,1.9824959)" />
    <g
       style="fill:#000000;fill-opacity:0;stroke:#000000;stroke-width:21200;stroke-linecap:round;stroke-linejoin:round;stroke-opacity:1"
       id="g19295"
       transform="matrix(9.9999996e-7,0,0,9.9999996e-7,-46.471893,1.9824959)" />
    <g
       style="fill:#000000;fill-opacity:0;stroke:#000000;stroke-width:21200;stroke-linecap:round;stroke-linejoin:round;stroke-opacity:1"
       id="g19307"
       transform="matrix(9.9999996e-7,0,0,9.9999996e-7,-46.471893,1.9824959)" />
    <g
       style="fill:#000000;fill-opacity:0;stroke:#000000;stroke-width:21200;stroke-linecap:round;stroke-linejoin:round;stroke-opacity:1"
       id="g19319"
       transform="matrix(9.9999996e-7,0,0,9.9999996e-7,-46.471893,1.9824959)" />
    <g
       style="fill:#000000;fill-opacity:0;stroke:#000000;stroke-width:21200;stroke-linecap:round;stroke-linejoin:round;stroke-opacity:1"
       id="g19331"
       transform="matrix(9.9999996e-7,0,0,9.9999996e-7,-46.471893,1.9824959)" />
    <g
       style="fill:#000000;fill-opacity:0;stroke:#000000;stroke-width:21200;stroke-linecap:round;stroke-linejoin:round;stroke-opacity:1"
       id="g19337"
       transform="matrix(9.9999996e-7,0,0,9.9999996e-7,-46.471893,1.9824959)" />
    <g
       style="fill:#000000;fill-opacity:0;stroke:#000000;stroke-width:21200;stroke-linecap:round;stroke-linejoin:round;stroke-opacity:1"
       id="g19343"
       transform="matrix(9.9999996e-7,0,0,9.9999996e-7,-46.471893,1.9824959)" />
    <g
       style="fill:#000000;fill-opacity:0;stroke:#000000;stroke-width:21200;stroke-linecap:round;stroke-linejoin:round;stroke-opacity:1"
       id="g19349"
       transform="matrix(9.9999996e-7,0,0,9.9999996e-7,-46.471893,1.9824959)" />
    <g
       style="fill:#000000;fill-opacity:0;stroke:#000000;stroke-width:21200;stroke-linecap:round;stroke-linejoin:round;stroke-opacity:1"
       id="g19363"
       transform="matrix(9.9999996e-7,0,0,9.9999996e-7,-46.471893,1.9824959)" />
    <g
       style="fill:#000000;fill-opacity:0;stroke:#000000;stroke-width:21200;stroke-linecap:round;stroke-linejoin:round;stroke-opacity:1"
       id="g19375"
       transform="matrix(9.9999996e-7,0,0,9.9999996e-7,-46.471893,1.9824959)" />
    <g
       style="fill:#000000;fill-opacity:0;stroke:#000000;stroke-width:21200;stroke-linecap:round;stroke-linejoin:round;stroke-opacity:1"
       id="g19387"
       transform="matrix(9.9999996e-7,0,0,9.9999996e-7,-46.471893,1.9824959)" />
    <g
       style="fill:#000000;fill-opacity:0;stroke:#000000;stroke-width:21200;stroke-linecap:round;stroke-linejoin:round;stroke-opacity:1"
       id="g19399"
       transform="matrix(9.9999996e-7,0,0,9.9999996e-7,-46.471893,1.9824959)" />
    <g
       style="fill:#000000;fill-opacity:0;stroke:#000000;stroke-width:21200;stroke-linecap:round;stroke-linejoin:round;stroke-opacity:1"
       id="g19425"
       transform="matrix(9.9999996e-7,0,0,9.9999996e-7,-46.471893,1.9824959)" />
    <g
       style="fill:#000000;fill-opacity:0;stroke:#000000;stroke-width:21200;stroke-linecap:round;stroke-linejoin:round;stroke-opacity:1"
       id="g19431"
       transform="matrix(9.9999996e-7,0,0,9.9999996e-7,-46.471893,1.9824959)" />
    <g
       style="fill:#000000;fill-opacity:0;stroke:#000000;stroke-width:21200;stroke-linecap:round;stroke-linejoin:round;stroke-opacity:1"
       id="g19517"
       transform="matrix(9.9999996e-7,0,0,9.9999996e-7,-46.471893,1.9824959)" />
    <g
       style="fill:#000000;fill-opacity:0;stroke:#000000;stroke-width:21200;stroke-linecap:round;stroke-linejoin:round;stroke-opacity:1"
       id="g19523"
       transform="matrix(9.9999996e-7,0,0,9.9999996e-7,-46.471893,1.9824959)" />
    <g
       style="fill:#000000;fill-opacity:0;stroke:#000000;stroke-width:21200;stroke-linecap:round;stroke-linejoin:round;stroke-opacity:1"
       id="g19545"
       transform="matrix(9.9999996e-7,0,0,9.9999996e-7,-46.471893,1.9824959)" />
    <g
       style="fill:#000000;fill-opacity:0;stroke:#000000;stroke-width:21200;stroke-linecap:round;stroke-linejoin:round;stroke-opacity:1"
       id="g19577"
       transform="matrix(9.9999996e-7,0,0,9.9999996e-7,-46.471893,1.9824959)" />
    <g
       style="fill:#000000;fill-opacity:0;stroke:#000000;stroke-width:21200;stroke-linecap:round;stroke-linejoin:round;stroke-opacity:1"
       id="g19607"
       transform="matrix(9.9999996e-7,0,0,9.9999996e-7,-46.471893,1.9824959)" />
    <g
       style="fill:#000000;fill-opacity:0;stroke:#000000;stroke-width:21200;stroke-linecap:round;stroke-linejoin:round;stroke-opacity:1"
       id="g19613"
       transform="matrix(9.9999996e-7,0,0,9.9999996e-7,-46.471893,1.9824959)" />
    <g
       style="fill:#000000;fill-opacity:0;stroke:#000000;stroke-width:21200;stroke-linecap:round;stroke-linejoin:round;stroke-opacity:1"
       id="g19643"
       transform="matrix(9.9999996e-7,0,0,9.9999996e-7,-46.471893,1.9824959)" />
    <g
       style="fill:#000000;fill-opacity:0;stroke:#000000;stroke-width:21200;stroke-linecap:round;stroke-linejoin:round;stroke-opacity:1"
       id="g19751"
       transform="matrix(9.9999996e-7,0,0,9.9999996e-7,-46.471893,1.9824959)" />
    <g
       style="fill:#000000;fill-opacity:0;stroke:#000000;stroke-width:21200;stroke-linecap:round;stroke-linejoin:round;stroke-opacity:1"
       id="g19757"
       transform="matrix(9.9999996e-7,0,0,9.9999996e-7,-46.471893,1.9824959)" />
    <g
       style="fill:#000000;fill-opacity:0;stroke:#000000;stroke-width:21200;stroke-linecap:round;stroke-linejoin:round;stroke-opacity:1"
       id="g19785"
       transform="matrix(9.9999996e-7,0,0,9.9999996e-7,-46.471893,1.9824959)" />
    <g
       style="fill:#000000;fill-opacity:0;stroke:#000000;stroke-width:300000;stroke-linecap:round;stroke-linejoin:round;stroke-opacity:1"
       id="g19793"
       transform="matrix(9.9999996e-7,0,0,9.9999996e-7,-46.471893,1.9824959)">
      <text
         x="178002208"
         y="180757200"
         textLength="150000"
         font-size="2e+06px"
         lengthAdjust="spacingAndGlyphs"
         text-anchor="start"
         opacity="0"
         id="text19787" />
      <g
         class="stroked-text"
         id="g19791">
        <desc
           id="desc19789" />
      </g>
    </g>
    <g
       style="fill:#000000;fill-opacity:0;stroke:#000000;stroke-width:21200;stroke-linecap:round;stroke-linejoin:round;stroke-opacity:1"
       id="g19795"
       transform="matrix(9.9999996e-7,0,0,9.9999996e-7,-46.471893,1.9824959)" />
    <g
       style="fill:#000000;fill-opacity:0;stroke:#000000;stroke-width:150000;stroke-linecap:round;stroke-linejoin:round;stroke-opacity:1"
       id="g19803"
       transform="matrix(9.9999996e-7,0,0,9.9999996e-7,-46.471893,1.9824959)">
      <text
         x="178002208"
         y="177757200"
         textLength="300000"
         font-size="2e+06px"
         lengthAdjust="spacingAndGlyphs"
         text-anchor="start"
         opacity="0"
         id="text19797" />
      <g
         class="stroked-text"
         id="g19801">
        <desc
           id="desc19799" />
      </g>
    </g>
    <g
       style="fill:#000000;fill-opacity:0;stroke:#000000;stroke-width:21200;stroke-linecap:round;stroke-linejoin:round;stroke-opacity:1"
       id="g19805"
       transform="matrix(9.9999996e-7,0,0,9.9999996e-7,-46.471893,1.9824959)" />
    <g
       style="fill:#000000;fill-opacity:0;stroke:#000000;stroke-width:150000;stroke-linecap:round;stroke-linejoin:round;stroke-opacity:1"
       id="g19813"
       transform="matrix(9.9999996e-7,0,0,9.9999996e-7,-46.471893,1.9824959)">
      <text
         x="178002208"
         y="174757200"
         textLength="150000"
         font-size="2e+06px"
         lengthAdjust="spacingAndGlyphs"
         text-anchor="start"
         opacity="0"
         id="text19807" />
      <g
         class="stroked-text"
         id="g19811">
        <desc
           id="desc19809" />
      </g>
    </g>
    <g
       style="fill:#000000;fill-opacity:0;stroke:#000000;stroke-width:21200;stroke-linecap:round;stroke-linejoin:round;stroke-opacity:1"
       id="g19815"
       transform="matrix(9.9999996e-7,0,0,9.9999996e-7,-46.471893,1.9824959)" />
    <g
       style="fill:#000000;fill-opacity:0;stroke:#000000;stroke-width:150000;stroke-linecap:round;stroke-linejoin:round;stroke-opacity:1"
       id="g19823"
       transform="matrix(9.9999996e-7,0,0,9.9999996e-7,-46.471893,1.9824959)">
      <text
         x="178002208"
         y="171757200"
         textLength="150000"
         font-size="2e+06px"
         lengthAdjust="spacingAndGlyphs"
         text-anchor="start"
         opacity="0"
         id="text19817" />
      <g
         class="stroked-text"
         id="g19821">
        <desc
           id="desc19819" />
      </g>
    </g>
    <g
       style="fill:#000000;fill-opacity:0;stroke:#000000;stroke-width:21200;stroke-linecap:round;stroke-linejoin:round;stroke-opacity:1"
       id="g19825"
       transform="matrix(9.9999996e-7,0,0,9.9999996e-7,-46.471893,1.9824959)" />
    <g
       style="fill:#000000;fill-opacity:0;stroke:#000000;stroke-width:150000;stroke-linecap:round;stroke-linejoin:round;stroke-opacity:1"
       id="g19833"
       transform="matrix(9.9999996e-7,0,0,9.9999996e-7,-46.471893,1.9824959)">
      <text
         x="178002208"
         y="168757200"
         textLength="150000"
         font-size="2e+06px"
         lengthAdjust="spacingAndGlyphs"
         text-anchor="start"
         opacity="0"
         id="text19827" />
      <g
         class="stroked-text"
         id="g19831">
        <desc
           id="desc19829" />
      </g>
    </g>
    <g
       style="fill:#000000;fill-opacity:0;stroke:#000000;stroke-width:21200;stroke-linecap:round;stroke-linejoin:round;stroke-opacity:1"
       id="g19835"
       transform="matrix(9.9999996e-7,0,0,9.9999996e-7,-46.471893,1.9824959)" />
    <g
       style="fill:#000000;fill-opacity:0;stroke:#000000;stroke-width:21200;stroke-linecap:round;stroke-linejoin:round;stroke-opacity:1"
       id="g19841"
       transform="matrix(9.9999996e-7,0,0,9.9999996e-7,-46.471893,1.9824959)" />
    <g
       style="fill:#840084;fill-opacity:0;stroke:#840084;stroke-width:150000;stroke-linecap:round;stroke-linejoin:round;stroke-opacity:1"
       id="g19847"
       transform="matrix(9.9999996e-7,0,0,9.9999996e-7,-46.471893,1.9824959)" />
    <g
       style="fill:#840084;fill-opacity:0;stroke:#840084;stroke-width:25000;stroke-linecap:round;stroke-linejoin:round;stroke-opacity:1"
       id="g19849"
       transform="matrix(9.9999996e-7,0,0,9.9999996e-7,-46.471893,1.9824959)" />
    <g
       style="fill:#000000;fill-opacity:1;stroke:#000000;stroke-width:25000;stroke-linecap:round;stroke-linejoin:round;stroke-opacity:1"
       id="g19853"
       transform="matrix(0,-9.9999996e-7,-9.9999996e-7,0,111.14023,227.97137)">
      <path
         style="fill:#000000;fill-opacity:1;fill-rule:evenodd;stroke:#000000;stroke-width:25000;stroke-linecap:round;stroke-linejoin:round;stroke-opacity:1"
         d="m 139991190,55568816 13504760,7796977 v 15593975 l -13504770,7796982 -13504770,-7796978 v -7554898 h 2268640 l 10250,484143 30500,478932 50330,473307 69740,467267 88740,460813 107320,453944 125480,446660 143240,438961 160580,430848 177500,422319 194000,413376 210100,404018 225780,394246 241050,384058 255890,373456 270330,362439 38220,-264764 45900,-262212 53460,-259544 60900,-256756 68220,-253851 75420,-250826 82510,-247683 89480,-244422 96330,-241042 103050,-237545 109670,-233928 116160,-230194 47690,-88084 h 2732500 l 530,21226 1550,20956 2560,20662 3550,20343 4500,19998 5430,19630 6340,19237 7220,18819 8080,18377 8910,17909 9720,17418 10510,16900 11270,16359 12000,15794 12710,15202 13390,14587 14060,13947 14690,13283 15300,12593 15900,11878 16450,11140 16990,10376 17500,9589 17990,8775 18450,7937 18890,7076 19300,6188 19700,5277 20060,4340 20390,3379 20720,2394 21000,1383 v 363 h 1343620 v 1343620 h 360 l 1390,21003 2390,20713 3380,20398 4340,20058 5280,19694 6180,19304 7080,18891 7940,18453 8770,17989 9590,17502 10380,16989 11140,16452 11880,15890 12590,15303 13280,14692 13950,14057 14580,13395 15210,12711 15790,12000 16360,11266 16900,10506 17420,9722 17910,8913 18370,8080 18820,7222 19240,6339 19630,5432 20000,4499 20340,3543 20660,2560 20960,1555 21230,524 21220,-524 20960,-1555 20660,-2560 20340,-3543 20000,-4499 19630,-5432 19230,-6339 18820,-7222 18380,-8080 17910,-8913 17410,-9722 16910,-10506 16350,-11266 15800,-12000 15200,-12711 14590,-13395 13940,-14057 13290,-14692 12590,-15303 11880,-15890 11140,-16452 10370,-16989 9590,-17502 8780,-17989 7930,-18453 7080,-18891 6190,-19304 5280,-19694 4340,-20058 3370,-20398 2400,-20713 1380,-21003 h 360 v -521787 h 3882910 l 840,19787 1770,19738 2680,19653 3600,19534 4520,19379 5440,19191 6360,18966 7280,18708 8200,18413 9120,18085 10040,17721 10960,17323 11880,16889 12800,16421 13720,15917 14640,15379 15380,14639 15920,13719 16420,12799 16890,11879 17320,10959 17720,10040 18090,9120 18410,8200 18710,7281 18960,6361 19190,5441 19380,4521 19540,3602 19650,2682 19740,1762 19780,842 19810,-77 19780,-998 19720,-1916 19640,-2837 19510,-3756 19350,-4676 19150,-5596 18930,-6516 18660,-7435 18360,-8355 18030,-9275 17650,-10195 17260,-11114 16810,-12034 16340,-12954 15830,-13873 60,65 70,65 120,129 950090,-950082 937580,937583 12500,12499 70,-64 60,-65 70,-65 30,-33 30,-32 15830,13873 16340,12954 16810,12034 17250,11114 17660,10195 18020,9275 18370,8355 18660,7435 18920,6516 19160,5596 19350,4676 19510,3756 19630,2837 19730,1916 19780,998 19800,77 19790,-842 19740,-1762 19650,-2682 19530,-3602 19380,-4521 19190,-5441 18970,-6361 18710,-7281 18410,-8200 18090,-9120 17720,-10040 17320,-10959 16890,-11879 16420,-12799 15920,-13719 15380,-14639 14630,-15379 13720,-15917 12800,-16421 11880,-16889 10960,-17323 10040,-17721 9120,-18085 8200,-18413 7280,-18708 6360,-18966 5440,-19191 4530,-19379 3600,-19534 2680,-19653 1760,-19738 840,-19787 -70,-19801 -1000,-19781 -1920,-19726 -2830,-19635 -3760,-19510 -4680,-19351 -5590,-19155 -6520,-18925 -7430,-18661 -8360,-18361 -9270,-18026 -10200,-17657 -11110,-17252 -12040,-16813 -12950,-16338 -13870,-15830 260,-259 -12500,-12499 -937590,-937584 937590,-937584 12500,-12499 -70,-66 -60,-65 -130,-128 13870,-15829 12950,-16339 12040,-16813 11110,-17252 10200,-17657 9270,-18026 8360,-18361 7430,-18660 6520,-18926 5590,-19155 4680,-19350 3760,-19510 2830,-19636 1920,-19726 1000,-19781 70,-19801 -840,-19787 -1760,-19737 -2680,-19653 -3600,-19534 -4530,-19380 -5440,-19190 -6360,-18967 -7280,-18707 -8200,-18414 -9120,-18085 -10040,-17721 -10960,-17323 -11880,-16889 -12800,-16421 -13720,-15917 -14630,-15379 -15380,-14639 -15920,-13719 -16420,-12799 -16890,-11880 -17320,-10959 -17730,-10040 -18080,-9121 -18410,-8200 -18710,-7281 -18970,-6361 -19190,-5441 -19380,-4521 -19530,-3602 -19650,-2682 -19740,-1762 -19790,-842 -19800,77 -19780,997 -19730,1917 -19630,2836 -19510,3756 -19350,4676 -19160,5596 -18920,6516 -18660,7435 -18370,8355 -18020,9274 -17660,10194 -17250,11114 -16810,12034 -16340,12954 -15830,13873 -130,-129 -70,-65 -30,-32 -30,-32 -12130,12133 -90,93 -90,92 -180,185 -937590,937584 -937580,-937588 -12510,-12499 -250,258 -15830,-13874 -16340,-12953 -16810,-12034 -17260,-11115 -17650,-10194 -18030,-9275 -18360,-8355 -18660,-7435 -18930,-6516 -19150,-5595 -19350,-4676 -19510,-3757 -19640,-2836 -19720,-1917 -19780,-997 -19810,-77 -19780,842 -19740,1762 -19650,2682 -19540,3602 -19380,4521 -19190,5441 -18960,6361 -18710,7281 -18410,8200 -18090,9120 -17720,10040 -17320,10960 -16890,11879 -16420,12799 -15920,13719 -15380,14638 -14640,15380 -13720,15917 -12800,16421 -11880,16890 -10960,17322 -10040,17722 -9120,18085 -8200,18414 -7280,18707 -6360,18967 -5440,19190 -4520,19380 -3600,19534 -2680,19653 -1770,19737 -840,19787 80,19802 990,19781 1920,19725 2840,19636 3750,19510 4680,19350 5600,19156 6510,18925 7440,18661 8350,18361 9280,18026 10190,17657 11110,17252 12040,16814 12950,16338 13870,15830 -250,256 12500,12498 937580,937588 -950080,950083 250,259 -13870,15830 -12950,16338 -12040,16813 -11110,17252 -10190,17657 -9280,18026 -8350,18361 -7440,18661 -6510,18925 -5600,19155 -4680,19351 -3750,19510 -2840,19635 -1920,19726 -990,19781 -80,19801 h -3882910 v -821833 h 1343630 v -363 l 21000,-1383 20710,-2394 20400,-3379 20060,-4340 19690,-5277 19310,-6188 18890,-7076 18450,-7937 17990,-8775 17500,-9589 16990,-10376 16450,-11140 15890,-11878 15310,-12593 14690,-13283 14050,-13947 13400,-14587 12710,-15202 12000,-15794 11270,-16359 10500,-16900 9730,-17418 8910,-17909 8080,-18377 7220,-18819 6340,-19237 5430,-19630 4500,-19998 3540,-20343 2560,-20662 1560,-20956 520,-21226 -520,-21225 -1560,-20957 -2560,-20661 -3540,-20343 -4500,-19998 -5430,-19631 -6340,-19237 -7220,-18819 -8080,-18376 -8910,-17909 -9730,-17418 -10500,-16900 -11270,-16360 -12000,-15793 -12710,-15202 -13400,-14588 -14050,-13947 -14690,-13282 -15310,-12593 -15890,-11878 -16450,-11140 -16990,-10377 -17500,-9588 -17990,-8775 -18450,-7938 -18890,-7075 -19310,-6188 -19690,-5277 -20060,-4340 -20400,-3380 -20710,-2393 -21000,-1383 v -359 l -17160,4 h -1326470 v -1343628 h -350 l -1390,-21003 -2390,-20712 -3380,-20398 -4340,-20058 -5280,-19694 -6190,-19304 -7070,-18891 -7940,-18453 -8780,-17989 -9580,-17502 -10380,-16989 -11140,-16452 -11880,-15890 -12590,-15304 -13280,-14692 -13950,-14056 -14590,-13396 -15200,-12711 -15790,-12000 -16360,-11266 -16900,-10506 -17420,-9723 -17910,-8913 -18380,-8081 -18820,-7222 -19230,-6339 -19630,-5431 -20000,-4500 -20340,-3542 -20660,-2561 -20960,-1555 -21220,-524 -21230,524 -20960,1555 -20660,2561 -20340,3542 -20000,4500 -19630,5431 -19240,6339 -18820,7222 -18370,8081 -17910,8913 -17420,9723 -16900,10506 -16360,11266 -15790,12000 -15210,12711 -14580,13396 -13950,14056 -13280,14692 -12590,15304 -11880,15890 -11140,16452 -10380,16989 -9590,17502 -8770,17989 -7940,18453 -7080,18891 -6180,19304 -5280,19694 -4340,20058 -3380,20398 -2390,20712 -1390,21003 h -360 v 1343624 h -1343620 v 363 l -21000,1383 -20720,2393 -20390,3380 -20060,4340 -19700,5277 -19300,6188 -18890,7075 -18450,7938 -17990,8775 -17510,9588 -16980,10376 -16460,11140 -15890,11879 -15300,12593 -14690,13282 -14060,13947 -13390,14587 -12710,15202 -12000,15793 -11270,16360 -10510,16900 -9720,17417 -8910,17909 -8080,18377 -7220,18818 -6340,19237 -5430,19630 -4500,19998 -3550,20343 -2560,20661 -1550,20956 -530,21225 h -2732500 l 74850,-138256 128790,-222369 134930,-218279 140950,-214070 -178180,-142299 -169720,-151996 -160830,-161276 -151530,-170136 -141820,-178580 -131680,-186603 -121120,-194209 -110150,-201397 -98760,-208165 -86950,-214516 -74720,-220448 -62070,-225962 -49010,-231056 -35520,-235734 -21620,-239992 -7300,-243831 v 0 l 5220,-206345 15500,-203647 25530,-200698 35300,-197494 44820,-194040 54090,-190331 63100,-186370 71860,-182157 80380,-177690 88630,-172972 96630,-168000 104390,-162775 111880,-157299 119130,-151569 126120,-145586 132870,-139351 139350,-132864 145580,-126123 151570,-119130 157300,-111884 162780,-104385 168000,-96634 172970,-88631 177690,-80373 182160,-71864 186370,-63103 190330,-54087 194040,-44820 197490,-35300 200700,-25527 203650,-15501 206340,-5224 185400,4215 183250,12523 180910,20647 178390,28589 175690,36348 172800,43924 169730,51317 166480,58527 163050,65554 159430,72398 155620,79060 151650,85538 147480,91833 143130,97946 138600,103875 133880,109622 128980,115185 123900,120566 118640,125764 113200,130778 107560,135611 101750,140259 95750,144725 89580,149008 83210,153109 76670,157025 69940,160760 63030,164311 55940,167679 48660,170865 41200,173867 33560,176686 128340,-13950 128870,-12132 129390,-10302 129900,-8458 130390,-6602 130880,-4731 131350,-2849 131800,-952 v 0 l 122910,828 122510,2477 122110,4116 121680,5744 121260,7361 120830,8969 120370,10564 119910,12151 31580,-179129 39420,-176309 47070,-173303 54520,-170108 61810,-166726 68890,-163155 75790,-159396 82500,-155448 89020,-151314 95350,-146991 101500,-142479 107460,-137780 113230,-132892 118810,-127817 124200,-122553 129410,-117101 134430,-111462 139250,-105634 143900,-99617 148350,-93414 152610,-87021 156690,-80441 160580,-73673 164280,-66716 167790,-59572 171120,-52239 174260,-44718 177200,-37010 179960,-29112 182540,-21028 184910,-12754 187120,-4294 206340,5224 203650,15501 200700,25527 197490,35300 194040,44820 190330,54088 186370,63102 182160,71864 177690,80374 172970,88630 168000,96634 162780,104385 157290,111884 151570,119130 145590,126123 139350,132864 132860,139351 126130,145587 119130,151568 111880,157299 104390,162776 96630,167999 88630,172972 80380,177690 71860,182157 63100,186370 54090,190331 44820,194040 35300,197495 25530,200697 15500,203648 5220,206345 -7240,242787 -21430,238982 -35230,234764 -48590,230133 -61560,225089 -74100,219632 -86240,213761 -97950,207478 -109270,200782 -120160,193672 -130640,186150 -140720,178215 -150360,169867 -159610,161105 -168440,151931 -176860,142343 145840,217116 139610,221540 133250,225837 126760,230010 120150,234057 113410,237976 106540,241770 99560,245439 92440,248981 85200,252397 77830,255688 70330,258852 62720,261890 54970,264803 47090,267589 39100,270250 270330,-362439 255890,-373456 241050,-384059 225780,-394245 210100,-404019 194010,-413376 177500,-422320 160570,-430848 143240,-438961 125490,-446661 107320,-453944 88730,-460813 69740,-467268 50330,-473307 30500,-478932 10260,-484143 -14630,-577928 -43420,-570375 -71490,-562111 -98870,-553141 -125530,-543464 -151490,-533077 -176730,-521984 -201280,-510183 -225110,-497673 -248240,-484457 -270650,-470533 -292360,-455900 -313360,-440560 -333660,-424513 -353250,-407757 -372120,-390294 -390290,-372123 -407760,-353244 -424510,-333658 -440560,-313363 -455900,-292362 -470540,-270652 -484450,-248235 -497680,-225109 -510180,-201277 -521980,-176735 -533080,-151488 -543460,-125531 -553140,-98868 -562110,-71496 -570380,-43416 -577930,-14630 -577930,14630 -570370,43416 -562110,71496 -553140,98868 -543460,125531 -533080,151488 -521990,176735 -510180,201277 -497670,225109 -484460,248235 -470530,270652 -455900,292362 -440560,313363 -424510,333658 -407760,353244 -390300,372123 -372120,390294 -353240,407757 -333660,424513 -313360,440560 -292370,455900 -270650,470533 -248230,484457 -225110,497673 -201280,510183 -176740,521984 -151480,533077 -125530,543464 -98870,553141 -71500,562111 -43420,570375 -14620,577928 h -2268640 v -8039075 z"
         id="path19851" />
    </g>
    <g
       style="fill:#840084;fill-opacity:1;stroke:#840084;stroke-width:400000;stroke-linecap:round;stroke-linejoin:round;stroke-opacity:1"
       id="g19855"
       transform="matrix(9.9999996e-7,0,0,9.9999996e-7,-46.471893,1.9824959)" />
    <g
       style="fill:#840084;fill-opacity:0;stroke:#840084;stroke-width:400000;stroke-linecap:round;stroke-linejoin:round;stroke-opacity:1"
       id="g19957"
       transform="matrix(0,-9.9999996e-7,-9.9999996e-7,0,111.14023,227.98901)">
      <g
         aria-label=""
         id="text19857"
         style="font-size:6.66667e+06px;text-anchor:middle;opacity:0">
        <g
           id="path24737"
           style="opacity:0">
          <path
             style="color:#000000;stroke:none;stroke-linecap:butt;stroke-linejoin:miter;-inkscape-stroke:none"
             d="m 129610330,88920570 q 228720,0 398330,211588 169610,208334 169610,494792 0,283204 -169610,498048 -169610,214843 -398330,214843 -223580,0 -393190,-214843 -169610,-214844 -169610,-498048 0,-286458 167040,-494792 169610,-211588 395760,-211588 z m 0,973308 q 100230,0 156770,-71615 59100,-71615 59100,-195313 0,-123698 -59100,-198567 -56540,-74870 -156770,-74870 -97650,0 -156760,74870 -59110,74869 -59110,198567 0,123698 56540,195313 59110,71615 159330,71615 z m -2294890,-475261 q -154190,1500652 -537100,2958986 -380350,1458334 -889180,2337241 l -431740,-374349 q 557660,-979819 922590,-2340496 367490,-1363933 457430,-2779950 z m 2559590,4941409 -511400,166016 q -77100,-1054688 -442020,-2438153 -364920,-1386719 -873760,-2574871 l 442020,-266927 q 1084490,2884116 1385160,5113935 z"
             id="path24989" />
          <path
             style="color:#000000;fill-opacity:1;stroke:none;stroke-linecap:butt;stroke-linejoin:miter;-inkscape-stroke:none"
             d="m 129610330,88720570 c -213140,0 -411600,111587 -551800,286488 -139340,173791 -211000,390049 -211000,619892 0,3852 20,7701 60,11546 -55150,-152873 -111980,-307137 -170520,-462797 a 200020,200020 0 0 0 -290590,-100813 l -442020,266927 a 200020,200020 0 0 0 -80460,249941 c 334950,782121 623160,1631084 864200,2547033 a 200020,200020 0 0 0 20,112 c 240970,913548 385750,1715141 435940,2401725 a 200020,200020 0 0 0 261220,175645 l 511400,-166016 a 200020,200020 0 0 0 136460,-216953 c -164680,-1221235 -502100,-2581138 -1011050,-4081814 139440,175315 336060,288355 548140,288355 215100,0 415140,-113370 555310,-290915 a 200020,200020 0 0 0 0,-1 c 139550,-176775 212630,-393246 212630,-621975 0,-230190 -72940,-446889 -214040,-620487 -140490,-174942 -339990,-285893 -553900,-285893 z m -2772460,299489 a 200020,200020 0 0 0 -200030,187312 c -59120,930867 -209410,1844139 -450940,2740597 a 200020,200020 0 0 0 -60,222 c -239800,894100 -541880,1658454 -903240,2293376 a 200020,200020 0 0 0 42800,250037 l 431740,374349 a 200020,200020 0 0 0 304110,-50902 c 352400,-608713 653000,-1403082 909570,-2386807 257860,-982093 438740,-1978610 542570,-2989184 a 200020,200020 0 0 0 -122220,-205139 l -478000,-198568 a 200020,200020 0 0 0 -76300,-15293 z m 2772460,100511 c 74440,0 132100,20060 197630,86132 -61260,-34053 -131260,-53189 -197630,-53189 -65200,0 -133130,18564 -193030,51098 64710,-64629 121290,-84041 193030,-84041 z m -313730,183880 c 0,1 0,1 0,1 0,0 0,0 0,0 z m -2279930,206625 84060,34918 c -103820,939595 -275750,1866433 -515830,2780818 a 200020,200020 0 0 0 -90,318 c -220220,844385 -472610,1536643 -751870,2074253 l -121950,-105739 c 346190,-640467 632780,-1388460 862160,-2243723 224310,-832540 372170,-1679683 443520,-2540845 z m 1369980,30986 c 644820,1749499 1066530,3310402 1266950,4679574 l -112600,36552 c -66380,-657919 -208740,-1397635 -425990,-2221256 -229240,-871101 -500990,-1685203 -815610,-2442182 z m 1222980,11444 c 220,5 460,8 700,8 250,0 480,-2 710,-6 6220,8309 15160,25281 15160,73443 0,47123 -8610,61864 -12560,67017 -940,-58 -2030,-89 -3310,-89 -2140,0 -3820,75 -5110,202 -4230,-7811 -10760,-26187 -10760,-67130 0,-48187 8950,-65142 15170,-73445 z m 216680,478082 c -74030,84099 -135160,108254 -215980,108254 -74050,0 -132640,-22079 -203760,-100295 62930,35000 135130,54332 203760,54332 72840,0 150350,-22207 215980,-62291 z"
             id="path24991" />
        </g>
        <g
           id="path24739"
           style="opacity:0">
          <path
             style="color:#000000;stroke:none;stroke-linecap:butt;stroke-linejoin:miter;-inkscape-stroke:none"
             d="m 134847730,90359373 h -3564410 v -598959 h 3564410 z m 421460,4033205 h -4389340 v -598959 h 4389340 z"
             id="path24995" />
          <path
             style="color:#000000;fill-opacity:1;stroke:none;stroke-linecap:butt;stroke-linejoin:miter;-inkscape-stroke:none"
             d="m 131283320,89560414 a 200020,200020 0 0 0 -200000,200000 v 598959 a 200020,200020 0 0 0 200000,200000 h 3564410 a 200020,200020 0 0 0 200000,-200000 v -598959 a 200020,200020 0 0 0 -200000,-200000 z m 200000,400000 h 3164410 v 198959 h -3164410 z m -603470,3633205 a 200020,200020 0 0 0 -200000,200000 v 598959 a 200020,200020 0 0 0 200000,200000 h 4389340 a 200020,200020 0 0 0 200000,-200000 v -598959 a 200020,200020 0 0 0 -200000,-200000 z m 200000,400000 h 3989340 v 198959 h -3989340 z"
             id="path24997" />
        </g>
        <g
           id="path24741"
           style="opacity:0">
          <path
             style="color:#000000;stroke:none;stroke-linecap:butt;stroke-linejoin:miter;-inkscape-stroke:none"
             d="m 138589460,91459634 -431740,221354 q -149050,-849610 -442010,-1406251 l 431730,-195312 q 305820,748698 442020,1380209 z m 1105050,-1233725 q -82240,2763673 -2120150,3867190 l -321230,-501303 q 979120,-452474 1477680,-1295573 501120,-846355 501120,-1943361 0,-159505 -5140,-234375 z m -2030200,1552735 -431740,208334 q -197880,-888673 -501120,-1399741 l 436870,-214843 q 385480,794271 495990,1406250 z"
             id="path25001" />
          <path
             style="color:#000000;fill-opacity:1;stroke:none;stroke-linecap:butt;stroke-linejoin:miter;-inkscape-stroke:none"
             d="m 138146960,89879432 a 200020,200020 0 0 0 -81960,17772 l -431730,195312 a 200020,200020 0 0 0 -94540,275368 c 182280,346353 325200,795901 422000,1347663 a 200020,200020 0 0 0 288240,143413 l 431740,-221354 a 200020,200020 0 0 0 104260,-220137 c -93870,-435241 -244990,-905939 -452380,-1413672 a 200020,200020 0 0 0 -185630,-124365 z m 1079460,39061 a 200020,200020 0 0 0 -199160,213692 c 2760,40231 4670,116489 4670,220677 0,700883 -158440,1309825 -473220,1841464 a 200020,200020 0 0 0 -50,96 c -311160,526182 -767890,928594 -1389430,1215823 a 200020,200020 0 0 0 -84490,289456 l 321230,501303 a 200020,200020 0 0 0 263620,67966 c 1419090,-768430 2168570,-2146362 2224830,-4037112 a 200020,200020 0 0 0 -155140,-200874 l -467720,-107422 a 200020,200020 0 0 0 -45140,-5069 z m -2058730,253909 a 200020,200020 0 0 0 -87630,20520 l -436870,214843 a 200020,200020 0 0 0 -83740,281528 c 185940,313380 348920,761923 477900,1341154 a 200020,200020 0 0 0 282140,136656 l 431740,-208334 a 200020,200020 0 0 0 109900,-215666 c -78210,-433114 -250360,-917122 -512880,-1458033 a 200020,200020 0 0 0 -180560,-112668 z m 871310,175596 c 138380,358132 245160,693237 320750,1004655 l -56350,28892 c -81070,-380489 -186310,-716827 -317920,-1009334 z m 1392900,22803 56040,12873 c -84290,1629410 -693890,2750984 -1847580,3441727 l -98400,-153568 c 585240,-310325 1043540,-736984 1360980,-1273764 350580,-592132 526220,-1272655 528960,-2027268 z m -2357820,270817 c 173280,379665 293780,722059 363040,1024589 l -67490,32566 c -101320,-399538 -221060,-740367 -362960,-1024006 z"
             id="path25003" />
        </g>
        <g
           id="path24743"
           style="opacity:0">
          <path
             style="color:#000000;stroke:none;stroke-linecap:butt;stroke-linejoin:miter;-inkscape-stroke:none"
             d="m 145510120,90313800 q -477990,3346356 -2937360,4511721 l -326370,-540365 q 1179570,-533854 1832320,-1425782 655310,-891927 899450,-2265626 h -1924830 q -483140,911459 -1058790,1500652 l -362350,-481771 q 490840,-419923 909730,-1139324 421460,-722657 606490,-1406251 l 472860,234375 q -115650,338542 -274980,693360 h 1896570 z"
             id="path25007" />
          <path
             style="color:#000000;fill-opacity:1;stroke:none;stroke-linecap:butt;stroke-linejoin:miter;-inkscape-stroke:none"
             d="m 143148330,88867063 a 200020,200020 0 0 0 -192970,147737 c -117990,435919 -312640,888680 -586200,1357747 a 200020,200020 0 0 0 -70,120 c -270690,464868 -561200,826446 -866920,1087989 a 200020,200020 0 0 0 -29820,272190 l 362350,481771 a 200020,200020 0 0 0 302900,19551 c 377170,-386049 721320,-866675 1035180,-1440420 h 1562850 c -165830,785860 -440230,1432913 -818090,1947209 a 200020,200020 0 0 0 -230,301 c -412480,563631 -992500,1017325 -1753380,1361690 a 200020,200020 0 0 0 -88740,285608 l 326370,540365 a 200020,200020 0 0 0 256840,77336 c 1701990,-806483 2724720,-2388958 3049710,-4664176 a 200020,200020 0 0 0 -44680,-156719 l -267260,-319011 a 200020,200020 0 0 0 -153310,-71562 h -1593240 c 59060,-144688 112700,-287583 160910,-428706 a 200020,200020 0 0 0 -100440,-243850 l -472860,-234375 a 200020,200020 0 0 0 -88900,-20795 z m 124030,484647 100990,50054 c -61670,166975 -131490,337355 -209510,511097 a 200020,200020 0 0 0 182450,281928 h 1803210 l 149670,178642 c -313280,2061840 -1191410,3434976 -2650340,4191181 l -116940,-193607 c 716360,-356321 1289150,-820939 1708120,-1393384 458790,-624520 768230,-1410152 935060,-2348876 a 200020,200020 0 0 0 -196910,-234997 h -1924830 a 200020,200020 0 0 0 -176710,106331 c -269080,507627 -558400,934953 -865930,1283062 l -108960,-144873 c 294050,-281272 564050,-636735 813000,-1064284 241530,-414149 427850,-821470 557630,-1222274 z"
             id="path25009" />
        </g>
        <g
           id="path24745"
           style="opacity:0">
          <path
             style="color:#000000;stroke:none;stroke-linecap:butt;stroke-linejoin:miter;-inkscape-stroke:none"
             d="m 149185040,90785805 -131060,2526043 h -300680 l -141340,-2526043 v -1057943 h 573080 z m -25700,3714195 h -526820 v -667318 h 526820 z"
             id="path25013" />
          <path
             style="color:#000000;fill-opacity:1;stroke:none;stroke-linecap:butt;stroke-linejoin:miter;-inkscape-stroke:none"
             d="m 148611960,89527862 a 200020,200020 0 0 0 -200000,200000 v 1057943 a 200020,200020 0 0 0 310,11173 l 141340,2526043 a 200020,200020 0 0 0 199690,188827 h 300680 a 200020,200020 0 0 0 199730,-189637 l 131060,-2526043 a 200020,200020 0 0 0 270,-10363 v -1057943 a 200020,200020 0 0 0 -200000,-200000 z m 200000,400000 h 173080 v 852758 l -83260,1604810 -89820,-1605216 z m -179440,3704820 a 200020,200020 0 0 0 -200000,200000 v 667318 a 200020,200020 0 0 0 200000,200000 h 526820 a 200020,200020 0 0 0 200000,-200000 v -667318 a 200020,200020 0 0 0 -200000,-200000 z m 200000,400000 h 126820 v 267318 h -126820 z"
             id="path25015" />
        </g>
        <g
           id="path24747"
           style="opacity:0">
          <path
             style="color:#000000;stroke:none;stroke-linecap:butt;stroke-linejoin:miter;-inkscape-stroke:none"
             d="m 154448140,90785805 -131070,2526043 h -300670 l -141350,-2526043 v -1057943 h 573090 z m -25700,3714195 h -526830 v -667318 h 526830 z"
             id="path25019" />
          <path
             style="color:#000000;fill-opacity:1;stroke:none;stroke-linecap:butt;stroke-linejoin:miter;-inkscape-stroke:none"
             d="m 153875050,89527862 a 200020,200020 0 0 0 -200000,200000 v 1057943 a 200020,200020 0 0 0 310,11174 l 141350,2526043 a 200020,200020 0 0 0 199690,188826 h 300670 a 200020,200020 0 0 0 199730,-189636 l 131070,-2526043 a 200020,200020 0 0 0 270,-10364 v -1057943 a 200020,200020 0 0 0 -200000,-200000 z m 200000,400000 h 173090 v 852758 l -83270,1604784 -89820,-1605190 z m -179440,3704820 a 200020,200020 0 0 0 -200000,200000 v 667318 a 200020,200020 0 0 0 200000,200000 h 526830 a 200020,200020 0 0 0 200000,-200000 v -667318 a 200020,200020 0 0 0 -200000,-200000 z m 200000,400000 h 126830 v 267318 h -126830 z"
             id="path25021" />
        </g>
      </g>
      <g
         class="stroked-text"
         id="g19889">
        <desc
           id="desc19859" />
        <g
           id="path19861">
          <path
             style="color:#000000;stroke:none;stroke-linecap:butt;stroke-linejoin:miter;-inkscape-stroke:none"
             d="m 128619050,90214285 952380,2857143"
             id="path25025" />
          <path
             style="color:#000000;fill:#0000ff;fill-opacity:1;stroke:none;stroke-linecap:butt;stroke-linejoin:miter;-inkscape-stroke:none"
             d="m 128619050,90014285 a 200000,200000 0 0 0 -63240,10263 200000,200000 0 0 0 -126500,252982 l 952380,2857143 a 200000,200000 0 0 0 252990,126492 200000,200000 0 0 0 126490,-252982 l -952380,-2857143 a 200000,200000 0 0 0 -189740,-136755 z"
             id="path25027" />
        </g>
        <g
           id="path19863">
          <path
             style="color:#000000;stroke:none;stroke-linecap:butt;stroke-linejoin:miter;-inkscape-stroke:none"
             d="m 127428570,90214285 -238090,1190476 -476190,952381 -476190,714286"
             id="path25031" />
          <path
             style="color:#000000;fill:#0000ff;fill-opacity:1;stroke:none;stroke-linecap:butt;stroke-linejoin:miter;-inkscape-stroke:none"
             d="m 127428940,90014285 a 200000,200000 0 0 0 -196490,160778 l -232830,1164212 -458650,917287 -469280,703926 a 200000,200000 0 0 0 55470,277350 200000,200000 0 0 0 277350,-55470 l 476190,-714286 a 200020,200020 0 0 0 12480,-21497 l 476190,-952381 a 200020,200020 0 0 0 17230,-50221 l 238090,-1190476 a 200000,200000 0 0 0 -156900,-235338 200000,200000 0 0 0 -38850,-3884 z"
             id="path25033" />
        </g>
        <g
           id="path19865">
          <path
             style="color:#000000;stroke:none;stroke-linecap:butt;stroke-linejoin:miter;-inkscape-stroke:none"
             d="m 129095240,89500000 h 238090 l 238100,238095 v 238095 l -238100,238095 h -238090 l -238100,-238095 v -238095 l 238100,-238095"
             id="path25037" />
          <path
             style="color:#000000;fill:#0000ff;fill-opacity:1;stroke:none;stroke-linecap:butt;stroke-linejoin:miter;-inkscape-stroke:none"
             d="m 129095240,89300000 a 200000,200000 0 0 0 -310,1 200000,200000 0 0 0 -630,2 200000,200000 0 0 0 -640,4 200000,200000 0 0 0 -630,6 200000,200000 0 0 0 -630,8 200000,200000 0 0 0 -630,10 200000,200000 0 0 0 -630,12 200000,200000 0 0 0 -630,14 200000,200000 0 0 0 -630,16 200000,200000 0 0 0 -630,18 200000,200000 0 0 0 -630,19 200000,200000 0 0 0 -630,22 200000,200000 0 0 0 -630,24 200000,200000 0 0 0 -630,26 200000,200000 0 0 0 -630,28 200000,200000 0 0 0 -630,30 200000,200000 0 0 0 -630,32 200000,200000 0 0 0 -630,33 200000,200000 0 0 0 -630,36 200000,200000 0 0 0 -630,38 200000,200000 0 0 0 -630,40 200000,200000 0 0 0 -630,41 200000,200000 0 0 0 -630,44 200000,200000 0 0 0 -630,46 200000,200000 0 0 0 -630,48 200000,200000 0 0 0 -630,49 200000,200000 0 0 0 -630,52 200000,200000 0 0 0 -620,54 200000,200000 0 0 0 -630,55 200000,200000 0 0 0 -630,58 200000,200000 0 0 0 -630,59 200000,200000 0 0 0 -630,62 200000,200000 0 0 0 -620,64 200000,200000 0 0 0 -630,65 200000,200000 0 0 0 -630,68 200000,200000 0 0 0 -630,69 200000,200000 0 0 0 -620,72 200000,200000 0 0 0 -630,73 200000,200000 0 0 0 -630,76 200000,200000 0 0 0 -620,77 200000,200000 0 0 0 -630,79 200000,200000 0 0 0 -620,82 200000,200000 0 0 0 -630,83 200000,200000 0 0 0 -620,85 200000,200000 0 0 0 -630,87 200000,200000 0 0 0 -620,90 200000,200000 0 0 0 -630,91 200000,200000 0 0 0 -620,93 200000,200000 0 0 0 -630,95 200000,200000 0 0 0 -620,97 200000,200000 0 0 0 -620,99 200000,200000 0 0 0 -620,102 200000,200000 0 0 0 -630,102 200000,200000 0 0 0 -620,106 200000,200000 0 0 0 -620,106 200000,200000 0 0 0 -620,109 200000,200000 0 0 0 -620,111 200000,200000 0 0 0 -620,113 200000,200000 0 0 0 -620,115 200000,200000 0 0 0 -620,116 200000,200000 0 0 0 -620,119 200000,200000 0 0 0 -620,121 200000,200000 0 0 0 -620,122 200000,200000 0 0 0 -620,125 200000,200000 0 0 0 -620,126 200000,200000 0 0 0 -610,129 200000,200000 0 0 0 -620,130 200000,200000 0 0 0 -620,132 200000,200000 0 0 0 -620,135 200000,200000 0 0 0 -610,136 200000,200000 0 0 0 -620,138 200000,200000 0 0 0 -610,140 200000,200000 0 0 0 -620,142 200000,200000 0 0 0 -610,144 200000,200000 0 0 0 -610,146 200000,200000 0 0 0 -620,148 200000,200000 0 0 0 -610,150 200000,200000 0 0 0 -610,151 200000,200000 0 0 0 -620,154 200000,200000 0 0 0 -610,156 200000,200000 0 0 0 -610,157 200000,200000 0 0 0 -610,160 200000,200000 0 0 0 -610,161 200000,200000 0 0 0 -610,163 200000,200000 0 0 0 -610,165 200000,200000 0 0 0 -600,168 200000,200000 0 0 0 -610,169 200000,200000 0 0 0 -610,170 200000,200000 0 0 0 -610,173 200000,200000 0 0 0 -600,175 200000,200000 0 0 0 -610,177 200000,200000 0 0 0 -600,178 200000,200000 0 0 0 -610,181 200000,200000 0 0 0 -600,182 200000,200000 0 0 0 -600,185 200000,200000 0 0 0 -610,186 200000,200000 0 0 0 -600,188 200000,200000 0 0 0 -600,190 200000,200000 0 0 0 -600,192 200000,200000 0 0 0 -600,194 200000,200000 0 0 0 -600,195 200000,200000 0 0 0 -600,198 200000,200000 0 0 0 -600,199 200000,200000 0 0 0 -600,202 200000,200000 0 0 0 -590,203 200000,200000 0 0 0 -600,205 200000,200000 0 0 0 -600,207 200000,200000 0 0 0 -590,209 200000,200000 0 0 0 -600,211 200000,200000 0 0 0 -590,212 200000,200000 0 0 0 -590,215 200000,200000 0 0 0 -600,216 200000,200000 0 0 0 -590,218 200000,200000 0 0 0 -590,221 200000,200000 0 0 0 -590,222 200000,200000 0 0 0 -590,223 200000,200000 0 0 0 -590,226 200000,200000 0 0 0 -590,228 200000,200000 0 0 0 -580,229 200000,200000 0 0 0 -590,231 200000,200000 0 0 0 -590,234 200000,200000 0 0 0 -580,234 200000,200000 0 0 0 -590,237 200000,200000 0 0 0 -580,239 200000,200000 0 0 0 -580,240 200000,200000 0 0 0 -590,243 200000,200000 0 0 0 -580,244 200000,200000 0 0 0 -580,246 200000,200000 0 0 0 -580,248 200000,200000 0 0 0 -580,249 200000,200000 0 0 0 -580,252 200000,200000 0 0 0 -580,253 200000,200000 0 0 0 -570,255 200000,200000 0 0 0 -580,257 200000,200000 0 0 0 -570,259 200000,200000 0 0 0 -580,261 200000,200000 0 0 0 -570,262 200000,200000 0 0 0 -570,264 200000,200000 0 0 0 -580,266 200000,200000 0 0 0 -570,268 200000,200000 0 0 0 -570,270 200000,200000 0 0 0 -570,271 200000,200000 0 0 0 -570,273 200000,200000 0 0 0 -560,275 200000,200000 0 0 0 -570,277 200000,200000 0 0 0 -570,279 200000,200000 0 0 0 -560,280 200000,200000 0 0 0 -570,282 200000,200000 0 0 0 -560,284 200000,200000 0 0 0 -560,285 200000,200000 0 0 0 -560,288 200000,200000 0 0 0 -560,289 200000,200000 0 0 0 -560,291 200000,200000 0 0 0 -560,293 200000,200000 0 0 0 -560,295 200000,200000 0 0 0 -560,296 200000,200000 0 0 0 -550,298 200000,200000 0 0 0 -560,299 200000,200000 0 0 0 -550,302 200000,200000 0 0 0 -560,303 200000,200000 0 0 0 -550,305 200000,200000 0 0 0 -550,307 200000,200000 0 0 0 -550,309 200000,200000 0 0 0 -550,310 200000,200000 0 0 0 -550,312 200000,200000 0 0 0 -540,313 200000,200000 0 0 0 -550,316 200000,200000 0 0 0 -550,317 200000,200000 0 0 0 -540,319 200000,200000 0 0 0 -540,321 200000,200000 0 0 0 -550,322 200000,200000 0 0 0 -540,324 200000,200000 0 0 0 -540,326 200000,200000 0 0 0 -540,327 200000,200000 0 0 0 -540,329 200000,200000 0 0 0 -530,331 200000,200000 0 0 0 -540,332 200000,200000 0 0 0 -530,335 200000,200000 0 0 0 -540,335 200000,200000 0 0 0 -530,338 200000,200000 0 0 0 -530,339 200000,200000 0 0 0 -530,341 200000,200000 0 0 0 -530,343 200000,200000 0 0 0 -530,344 200000,200000 0 0 0 -530,346 200000,200000 0 0 0 -530,347 200000,200000 0 0 0 -520,350 200000,200000 0 0 0 -530,351 200000,200000 0 0 0 -520,352 200000,200000 0 0 0 -520,354 200000,200000 0 0 0 -520,356 200000,200000 0 0 0 -520,357 200000,200000 0 0 0 -520,360 200000,200000 0 0 0 -520,360 200000,200000 0 0 0 -510,363 200000,200000 0 0 0 -520,364 200000,200000 0 0 0 -510,365 200000,200000 0 0 0 -520,368 200000,200000 0 0 0 -510,368 200000,200000 0 0 0 -510,371 200000,200000 0 0 0 -510,372 200000,200000 0 0 0 -510,374 200000,200000 0 0 0 -500,375 200000,200000 0 0 0 -510,377 200000,200000 0 0 0 -500,378 200000,200000 0 0 0 -510,380 200000,200000 0 0 0 -500,382 200000,200000 0 0 0 -500,383 200000,200000 0 0 0 -500,385 200000,200000 0 0 0 -500,386 200000,200000 0 0 0 -500,388 200000,200000 0 0 0 -490,390 200000,200000 0 0 0 -500,391 200000,200000 0 0 0 -490,393 200000,200000 0 0 0 -490,394 200000,200000 0 0 0 -500,396 200000,200000 0 0 0 -490,397 200000,200000 0 0 0 -480,399 200000,200000 0 0 0 -490,400 200000,200000 0 0 0 -490,402 200000,200000 0 0 0 -480,404 200000,200000 0 0 0 -490,405 200000,200000 0 0 0 -480,406 200000,200000 0 0 0 -480,408 200000,200000 0 0 0 -480,410 200000,200000 0 0 0 -480,411 200000,200000 0 0 0 -480,412 200000,200000 0 0 0 -470,414 200000,200000 0 0 0 -480,416 200000,200000 0 0 0 -470,417 200000,200000 0 0 0 -470,418 200000,200000 0 0 0 -470,421 200000,200000 0 0 0 -470,421 200000,200000 0 0 0 -470,423 200000,200000 0 0 0 -470,424 200000,200000 0 0 0 -460,427 200000,200000 0 0 0 -470,427 200000,200000 0 0 0 -460,429 200000,200000 0 0 0 -460,430 200000,200000 0 0 0 -460,432 200000,200000 0 0 0 -460,433 200000,200000 0 0 0 -450,435 200000,200000 0 0 0 -460,436 200000,200000 0 0 0 -460,438 200000,200000 0 0 0 -450,438 200000,200000 0 0 0 -450,441 200000,200000 0 0 0 -450,442 200000,200000 0 0 0 -450,443 200000,200000 0 0 0 -450,444 200000,200000 0 0 0 -220,222 l -238100,238095 a 200020,200020 0 0 0 -58580,141423 v 238095 a 200020,200020 0 0 0 58580,141423 l 238100,238095 a 200020,200020 0 0 0 141420,58577 h 238090 a 200020,200020 0 0 0 141420,-58577 l 238100,-238095 a 200020,200020 0 0 0 58580,-141423 v -238095 a 200020,200020 0 0 0 -58580,-141423 l -238100,-238095 a 200020,200020 0 0 0 -141420,-58577 z m 82840,400000 h 72410 l 120940,120939 v 72407 l -120940,120939 h -72410 l -120940,-120939 v -72407 z"
             id="path25039" />
        </g>
        <g
           id="path19867">
          <path
             style="color:#000000;stroke:none;stroke-linecap:butt;stroke-linejoin:miter;-inkscape-stroke:none"
             d="m 131714290,90452380 h 2857140"
             id="path25043" />
          <path
             style="color:#000000;fill:#0000ff;fill-opacity:1;stroke:none;stroke-linecap:butt;stroke-linejoin:miter;-inkscape-stroke:none"
             d="m 131714290,90252380 a 200000,200000 0 0 0 -200000,200000 200000,200000 0 0 0 200000,200000 h 2857140 a 200000,200000 0 0 0 200000,-200000 200000,200000 0 0 0 -200000,-200000 z"
             id="path25045" />
        </g>
        <g
           id="path19869">
          <path
             style="color:#000000;stroke:none;stroke-linecap:butt;stroke-linejoin:miter;-inkscape-stroke:none"
             d="m 131238100,93309523 h 3809520"
             id="path25049" />
          <path
             style="color:#000000;fill:#0000ff;fill-opacity:1;stroke:none;stroke-linecap:butt;stroke-linejoin:miter;-inkscape-stroke:none"
             d="m 131238100,93109523 a 200000,200000 0 0 0 -200000,200000 200000,200000 0 0 0 200000,200000 h 3809520 a 200000,200000 0 0 0 200000,-200000 200000,200000 0 0 0 -200000,-200000 z"
             id="path25051" />
        </g>
        <g
           id="path19871">
          <path
             style="color:#000000;stroke:none;stroke-linecap:butt;stroke-linejoin:miter;-inkscape-stroke:none"
             d="m 136952380,90690476 476190,1190476"
             id="path25055" />
          <path
             style="color:#000000;fill:#0000ff;fill-opacity:1;stroke:none;stroke-linecap:butt;stroke-linejoin:miter;-inkscape-stroke:none"
             d="m 136951980,90490476 a 200000,200000 0 0 0 -73880,14305 200000,200000 0 0 0 -111410,259973 l 476190,1190476 a 200000,200000 0 0 0 259970,111417 200000,200000 0 0 0 111420,-259973 l -476190,-1190476 a 200000,200000 0 0 0 -186100,-125722 z"
             id="path25057" />
        </g>
        <g
           id="path19873">
          <path
             style="color:#000000;stroke:none;stroke-linecap:butt;stroke-linejoin:miter;-inkscape-stroke:none"
             d="m 138142860,90452380 238090,1190477"
             id="path25061" />
          <path
             style="color:#000000;fill:#0000ff;fill-opacity:1;stroke:none;stroke-linecap:butt;stroke-linejoin:miter;-inkscape-stroke:none"
             d="m 138142490,90252380 a 200000,200000 0 0 0 -38850,3884 200000,200000 0 0 0 -156900,235338 l 238090,1190477 a 200000,200000 0 0 0 235340,156894 200000,200000 0 0 0 156900,-235338 l -238090,-1190477 a 200000,200000 0 0 0 -196490,-160778 z"
             id="path25063" />
        </g>
        <g
           id="path19875">
          <path
             style="color:#000000;stroke:none;stroke-linecap:butt;stroke-linejoin:miter;-inkscape-stroke:none"
             d="m 139571430,90690476 v 1190476 l -238100,714286 -714280,714285 -714290,476191"
             id="path25067" />
          <path
             style="color:#000000;fill:#0000ff;fill-opacity:1;stroke:none;stroke-linecap:butt;stroke-linejoin:miter;-inkscape-stroke:none"
             d="m 139571430,90490476 a 200000,200000 0 0 0 -200000,200000 v 1158020 l -212910,638706 -666890,666896 -697810,465206 a 200000,200000 0 0 0 -55470,277350 200000,200000 0 0 0 277350,55470 l 714290,-476191 a 200020,200020 0 0 0 30480,-24989 l 714280,-714285 a 200020,200020 0 0 0 48320,-78174 l 238100,-714286 a 200020,200020 0 0 0 10260,-63247 v -1190476 a 200000,200000 0 0 0 -200000,-200000 z"
             id="path25069" />
        </g>
        <g
           id="path19877">
          <path
             style="color:#000000;stroke:none;stroke-linecap:butt;stroke-linejoin:miter;-inkscape-stroke:none"
             d="m 143380950,88785714 -238090,1190476 -476190,714286 -476190,952381"
             id="path25073" />
          <path
             style="color:#000000;fill:#0000ff;fill-opacity:1;stroke:none;stroke-linecap:butt;stroke-linejoin:miter;-inkscape-stroke:none"
             d="m 143381320,88585714 a 200000,200000 0 0 0 -196490,160778 l -230330,1151678 -454240,681366 a 200020,200020 0 0 0 -12470,21497 l -476190,952381 a 200000,200000 0 0 0 89440,268328 200000,200000 0 0 0 268330,-89442 l 470620,-941244 469280,-703926 a 200020,200020 0 0 0 29710,-71718 l 238090,-1190476 a 200000,200000 0 0 0 -156900,-235338 200000,200000 0 0 0 -38850,-3884 z"
             id="path25075" />
        </g>
        <g
           id="path19879">
          <path
             style="color:#000000;stroke:none;stroke-linecap:butt;stroke-linejoin:miter;-inkscape-stroke:none"
             d="m 143380950,89738095 h 1428570 v 952381 l -238090,952381 -476190,952381 -476190,714285 -952380,714286"
             id="path25079" />
          <path
             style="color:#000000;fill:#0000ff;fill-opacity:1;stroke:none;stroke-linecap:butt;stroke-linejoin:miter;-inkscape-stroke:none"
             d="m 143380950,89538095 a 200000,200000 0 0 0 -200000,200000 200000,200000 0 0 0 200000,200000 h 1228570 v 727760 l -226790,907196 -460810,921607 -450280,675420 -924970,693731 a 200000,200000 0 0 0 -40000,280000 200000,200000 0 0 0 280000,40000 l 952380,-714286 a 200020,200020 0 0 0 46410,-49060 l 476190,-714285 a 200020,200020 0 0 0 12480,-21497 l 476190,-952381 a 200020,200020 0 0 0 15140,-40937 l 238090,-952381 a 200020,200020 0 0 0 5970,-48506 v -952381 a 200020,200020 0 0 0 -200000,-200000 z"
             id="path25081" />
        </g>
        <g
           id="path19881">
          <path
             style="color:#000000;fill:#0000ff;fill-opacity:1;stroke:none;stroke-linecap:butt;stroke-linejoin:miter;-inkscape-stroke:none"
             d="m 148857140,93547619 238100,238095 -238100,238095 -238090,-238095 238090,-238095 v 476190"
             id="path25085" />
          <path
             style="color:#000000;fill:#0000ff;fill-opacity:1;stroke:none;stroke-linecap:butt;stroke-linejoin:miter;-inkscape-stroke:none"
             d="m 148857770,93347620 a 200000,200000 0 0 0 -142050,58579 l -238090,238095 a 200020,200020 0 0 0 0,282840 l 238090,238095 a 200020,200020 0 0 0 220,216 200000,200000 0 0 0 470,473 200020,200020 0 0 0 390,388 200000,200000 0 0 0 540,526 200020,200020 0 0 0 340,330 200000,200000 0 0 0 590,577 200020,200020 0 0 0 290,273 200000,200000 0 0 0 650,627 200020,200020 0 0 0 230,218 200000,200000 0 0 0 720,677 200020,200020 0 0 0 170,163 200000,200000 0 0 0 780,725 200020,200020 0 0 0 120,110 200000,200000 0 0 0 840,772 200020,200020 0 0 0 60,57 200000,200000 0 0 0 900,819 200020,200020 0 0 0 0,4 200000,200000 0 0 0 134110,51625 200000,200000 0 0 0 134100,-51622 200020,200020 0 0 0 10,-5 200000,200000 0 0 0 900,-819 200020,200020 0 0 0 60,-56 200000,200000 0 0 0 840,-773 200020,200020 0 0 0 120,-109 200000,200000 0 0 0 780,-726 200020,200020 0 0 0 170,-162 200000,200000 0 0 0 720,-678 200020,200020 0 0 0 220,-217 200000,200000 0 0 0 660,-628 200020,200020 0 0 0 280,-273 200000,200000 0 0 0 600,-578 200020,200020 0 0 0 340,-329 200000,200000 0 0 0 540,-527 200020,200020 0 0 0 390,-387 200000,200000 0 0 0 470,-473 200020,200020 0 0 0 220,-215 l 238100,-238095 a 200020,200020 0 0 0 0,-282846 l -238100,-238095 a 200000,200000 0 0 0 -140790,-58576 z"
             id="path25087" />
        </g>
        <g
           id="path19883">
          <path
             style="color:#000000;fill:#0000ff;fill-opacity:1;stroke:none;stroke-linecap:butt;stroke-linejoin:miter;-inkscape-stroke:none"
             d="m 148857140,92119047 -238090,-2857143 238090,-238095 238100,238095 -238100,2857143 v -3095238"
             id="path25091" />
          <path
             style="color:#000000;fill:#0000ff;fill-opacity:1;stroke:none;stroke-linecap:butt;stroke-linejoin:miter;-inkscape-stroke:none"
             d="m 148857140,88823809 a 200000,200000 0 0 0 -134110,51625 200020,200020 0 0 0 0,4 200000,200000 0 0 0 -900,819 200020,200020 0 0 0 -60,57 200000,200000 0 0 0 -840,772 200020,200020 0 0 0 -120,110 200000,200000 0 0 0 -780,725 200020,200020 0 0 0 -170,163 200000,200000 0 0 0 -720,677 200020,200020 0 0 0 -230,218 200000,200000 0 0 0 -650,627 200020,200020 0 0 0 -290,273 200000,200000 0 0 0 -590,577 200020,200020 0 0 0 -340,330 200000,200000 0 0 0 -540,526 200020,200020 0 0 0 -390,388 200000,200000 0 0 0 -470,473 200020,200020 0 0 0 -220,216 l -238090,238095 a 200020,200020 0 0 0 -57890,158029 l 238090,2857143 a 200000,200000 0 0 0 215920,182700 200000,200000 0 0 0 182700,-182697 200020,200020 0 0 0 0,-3 l 238100,-2857143 a 200020,200020 0 0 0 -57890,-158032 l -238100,-238095 a 200020,200020 0 0 0 0,-1 200000,200000 0 0 0 -141420,-58576 z"
             id="path25093" />
        </g>
        <g
           id="path19885">
          <path
             style="color:#000000;fill:#0000ff;fill-opacity:1;stroke:none;stroke-linecap:butt;stroke-linejoin:miter;-inkscape-stroke:none"
             d="m 154095240,93547619 238090,238095 -238090,238095 -238100,-238095 238100,-238095 v 476190"
             id="path25097" />
          <path
             style="color:#000000;fill:#0000ff;fill-opacity:1;stroke:none;stroke-linecap:butt;stroke-linejoin:miter;-inkscape-stroke:none"
             d="m 154094610,93347620 a 200000,200000 0 0 0 -140790,58576 l -238100,238095 a 200020,200020 0 0 0 0,282846 l 238100,238095 a 200020,200020 0 0 0 220,215 200000,200000 0 0 0 470,473 200020,200020 0 0 0 400,387 200000,200000 0 0 0 530,527 200020,200020 0 0 0 340,329 200000,200000 0 0 0 600,578 200020,200020 0 0 0 280,273 200000,200000 0 0 0 660,628 200020,200020 0 0 0 220,217 200000,200000 0 0 0 720,678 200020,200020 0 0 0 180,162 200000,200000 0 0 0 770,726 200020,200020 0 0 0 120,109 200000,200000 0 0 0 840,773 200020,200020 0 0 0 60,56 200000,200000 0 0 0 900,819 200020,200020 0 0 0 10,5 200000,200000 0 0 0 134100,51622 200000,200000 0 0 0 134110,-51625 200020,200020 0 0 0 0,-4 200000,200000 0 0 0 900,-819 200020,200020 0 0 0 60,-57 200000,200000 0 0 0 840,-772 200020,200020 0 0 0 120,-110 200000,200000 0 0 0 780,-725 200020,200020 0 0 0 170,-163 200000,200000 0 0 0 720,-677 200020,200020 0 0 0 230,-218 200000,200000 0 0 0 650,-627 200020,200020 0 0 0 290,-273 200000,200000 0 0 0 590,-577 200020,200020 0 0 0 340,-330 200000,200000 0 0 0 540,-526 200020,200020 0 0 0 390,-388 200000,200000 0 0 0 480,-473 200020,200020 0 0 0 210,-216 l 238090,-238095 a 200020,200020 0 0 0 0,-282840 l -238090,-238095 a 200000,200000 0 0 0 -142050,-58579 z"
             id="path25099" />
        </g>
        <g
           id="path19887">
          <path
             style="color:#000000;fill:#0000ff;fill-opacity:1;stroke:none;stroke-linecap:butt;stroke-linejoin:miter;-inkscape-stroke:none"
             d="m 154095240,92119047 -238100,-2857143 238100,-238095 238090,238095 -238090,2857143 v -3095238"
             id="path25103" />
          <path
             style="color:#000000;fill:#0000ff;fill-opacity:1;stroke:none;stroke-linecap:butt;stroke-linejoin:miter;-inkscape-stroke:none"
             d="m 154095240,88823809 a 200000,200000 0 0 0 -134100,51622 200020,200020 0 0 0 -10,5 200000,200000 0 0 0 -900,819 200020,200020 0 0 0 -60,56 200000,200000 0 0 0 -840,773 200020,200020 0 0 0 -120,109 200000,200000 0 0 0 -770,726 200020,200020 0 0 0 -180,162 200000,200000 0 0 0 -720,678 200020,200020 0 0 0 -220,217 200000,200000 0 0 0 -660,628 200020,200020 0 0 0 -280,273 200000,200000 0 0 0 -600,578 200020,200020 0 0 0 -340,329 200000,200000 0 0 0 -530,527 200020,200020 0 0 0 -400,387 200000,200000 0 0 0 -470,473 200020,200020 0 0 0 -220,215 l -238100,238095 a 200020,200020 0 0 0 -57890,158032 l 238100,2857143 a 200000,200000 0 0 0 215920,182700 200000,200000 0 0 0 182700,-182698 200020,200020 0 0 0 0,-2 l 238090,-2857143 a 200020,200020 0 0 0 -57890,-158029 l -238090,-238095 a 200000,200000 0 0 0 -141420,-58580 z"
             id="path25105" />
        </g>
      </g>
      <g
         id="g19891" />
      <g
         style="fill:#000000;fill-opacity:0;stroke:#000000;stroke-width:400000;stroke-linecap:round;stroke-linejoin:round;stroke-opacity:1"
         id="g19893" />
      <g
         style="fill:#000000;fill-opacity:1;stroke:#000000;stroke-width:1;stroke-linecap:round;stroke-linejoin:round;stroke-opacity:1"
         id="g19897">
        <circle
           cx="207999968"
           cy="74000000"
           r="1100000"
           id="circle19895"
           style="fill:none;stroke:#ff0000;stroke-width:300000;stroke-miterlimit:4;stroke-dasharray:none;stroke-opacity:1" />
      </g>
      <g
         style="fill:#000000;fill-opacity:1;stroke:#000000;stroke-width:21200;stroke-linecap:round;stroke-linejoin:round;stroke-opacity:1"
         id="g19899" />
      <g
         id="g19901" />
      <g
         style="fill:#000000;fill-opacity:1;stroke:#000000;stroke-width:21200;stroke-linecap:round;stroke-linejoin:round;stroke-opacity:1"
         id="g19903" />
      <g
         style="fill:#000000;fill-opacity:1;stroke:#000000;stroke-width:1;stroke-linecap:round;stroke-linejoin:round;stroke-opacity:1"
         id="g19907">
        <circle
           cx="173999984"
           cy="90999992"
           r="1100000"
           id="circle19905"
           style="fill:none;stroke:#ff0000;stroke-width:300000;stroke-miterlimit:4;stroke-dasharray:none;stroke-opacity:1" />
      </g>
      <g
         style="fill:#000000;fill-opacity:1;stroke:#000000;stroke-width:21200;stroke-linecap:round;stroke-linejoin:round;stroke-opacity:1"
         id="g19909" />
      <g
         id="g19911" />
      <g
         style="fill:#000000;fill-opacity:1;stroke:#000000;stroke-width:21200;stroke-linecap:round;stroke-linejoin:round;stroke-opacity:1"
         id="g19913" />
      <g
         style="fill:#000000;fill-opacity:1;stroke:#000000;stroke-width:1;stroke-linecap:round;stroke-linejoin:round;stroke-opacity:1"
         id="g19917">
        <circle
           cx="106000016"
           cy="57000008"
           r="1100000"
           id="circle19915"
           style="fill:none;fill-opacity:1;stroke:#ff0000;stroke-width:300000;stroke-miterlimit:4;stroke-dasharray:none;stroke-opacity:1" />
      </g>
      <g
         style="fill:#000000;fill-opacity:1;stroke:#000000;stroke-width:21200;stroke-linecap:round;stroke-linejoin:round;stroke-opacity:1"
         id="g19919" />
      <g
         id="g19921" />
      <g
         style="fill:#000000;fill-opacity:1;stroke:#000000;stroke-width:21200;stroke-linecap:round;stroke-linejoin:round;stroke-opacity:1"
         id="g19923" />
      <g
         style="fill:#000000;fill-opacity:1;stroke:#000000;stroke-width:1;stroke-linecap:round;stroke-linejoin:round;stroke-opacity:1"
         id="g19927">
        <circle
           cx="106000016"
           cy="90999992"
           r="1100000"
           id="circle19925"
           style="fill:none;stroke:#ff0000;stroke-width:300000;stroke-miterlimit:4;stroke-dasharray:none;stroke-opacity:1" />
      </g>
      <g
         style="fill:#000000;fill-opacity:1;stroke:#000000;stroke-width:21200;stroke-linecap:round;stroke-linejoin:round;stroke-opacity:1"
         id="g19929" />
      <g
         id="g19931" />
      <g
         style="fill:#000000;fill-opacity:1;stroke:#000000;stroke-width:21200;stroke-linecap:round;stroke-linejoin:round;stroke-opacity:1"
         id="g19933" />
      <g
         style="fill:#000000;fill-opacity:1;stroke:#000000;stroke-width:1;stroke-linecap:round;stroke-linejoin:round;stroke-opacity:1"
         id="g19937">
        <circle
           cx="173999984"
           cy="57000008"
           r="1100000"
           id="circle19935"
           style="fill:none;stroke:#ff0000;stroke-width:300000;stroke-miterlimit:4;stroke-dasharray:none;stroke-opacity:1" />
      </g>
      <g
         style="fill:#000000;fill-opacity:1;stroke:#000000;stroke-width:21200;stroke-linecap:round;stroke-linejoin:round;stroke-opacity:1"
         id="g19939" />
      <g
         id="g19941" />
      <g
         style="fill:#000000;fill-opacity:1;stroke:#000000;stroke-width:21200;stroke-linecap:round;stroke-linejoin:round;stroke-opacity:1"
         id="g19943" />
      <g
         style="fill:#000000;fill-opacity:1;stroke:#000000;stroke-width:1;stroke-linecap:round;stroke-linejoin:round;stroke-opacity:1"
         id="g19947">
        <circle
           cx="72000032"
           cy="74000000"
           r="1100000"
           id="circle19945"
           style="fill:none;stroke:#ff0000;stroke-width:300000;stroke-miterlimit:4;stroke-dasharray:none;stroke-opacity:1" />
      </g>
      <g
         style="fill:#000000;fill-opacity:1;stroke:#000000;stroke-width:21200;stroke-linecap:round;stroke-linejoin:round;stroke-opacity:1"
         id="g19949" />
      <g
         id="g19951" />
      <g
         id="g19953" />
      <g
         id="g19955" />
    </g>
    <g
       style="fill:#000000;fill-opacity:1;stroke:#000000;stroke-width:21200;stroke-linecap:round;stroke-linejoin:round;stroke-opacity:1"
       id="g19959"
       transform="matrix(9.9999996e-7,0,0,9.9999996e-7,-46.471893,1.9824959)" />
    <g
       style="fill:#c2c200;fill-opacity:1;stroke:#c2c200;stroke-width:21200;stroke-linecap:round;stroke-linejoin:round;stroke-opacity:1"
       id="g19961"
       transform="matrix(9.9999996e-7,0,0,9.9999996e-7,-46.471893,1.9824959)" />
    <g
       style="fill:#ff0000;fill-opacity:0;stroke:#ff0000;stroke-width:100000;stroke-linecap:round;stroke-linejoin:round;stroke-opacity:1"
       id="g19997"
       transform="matrix(0,9.9999996e-7,-9.9999996e-7,0,111.14023,-52.010978)">
      <path
         d="m 55500000,38500000 a 2000000,2000000 0 0 0 -2000000,2000000"
         id="path19963"
         style="fill:#ff0000;fill-opacity:0;stroke:#ff0000;stroke-width:300000;stroke-miterlimit:4;stroke-dasharray:none;stroke-opacity:1" />
      <path
         d="m 226500000,40500000 a 2000000,2000000 0 0 0 -2000000,-2000000"
         id="path19965"
         style="fill:#ff0000;fill-opacity:0;stroke:#ff0000;stroke-width:300000;stroke-miterlimit:4;stroke-dasharray:none;stroke-opacity:1" />
      <path
         d="m 224500000,109500000 a 2000000,2000000 0 0 0 2000000,-2000000"
         id="path19967"
         style="fill:#ff0000;fill-opacity:0;stroke:#ff0000;stroke-width:300000;stroke-miterlimit:4;stroke-dasharray:none;stroke-opacity:1" />
      <path
         d="M 224500000,109500000 H 55500000"
         id="path19969"
         style="fill:#ff0000;fill-opacity:0;stroke:#ff0000;stroke-width:300000;stroke-miterlimit:4;stroke-dasharray:none;stroke-opacity:1" />
      <path
         d="M 53500000,107500000 V 40500000"
         id="path19971"
         style="fill:#ff0000;fill-opacity:0;stroke:#ff0000;stroke-width:300000;stroke-miterlimit:4;stroke-dasharray:none;stroke-opacity:1" />
      <path
         d="M 55500000,38500000 H 224500000"
         id="path19973"
         style="fill:#ff0000;fill-opacity:0;stroke:#ff0000;stroke-width:300000;stroke-miterlimit:4;stroke-dasharray:none;stroke-opacity:1" />
      <path
         d="m 226500000,40500000 v 67000000"
         id="path19975"
         style="fill:#ff0000;fill-opacity:0;stroke:#ff0000;stroke-width:300000;stroke-miterlimit:4;stroke-dasharray:none;stroke-opacity:1" />
      <path
         d="m 53500000,107500000 a 2000000,2000000 0 0 0 2000000,2000000"
         id="path19977"
         style="fill:#ff0000;fill-opacity:0;stroke:#ff0000;stroke-width:300000;stroke-miterlimit:4;stroke-dasharray:none;stroke-opacity:1" />
      <g
         id="g19979"
         style="fill:#ff0000;fill-opacity:0;stroke:#ff0000;stroke-opacity:1" />
      <g
         id="g19981"
         style="fill:#ff0000;fill-opacity:0;stroke:#ff0000;stroke-opacity:1" />
      <g
         id="g19983"
         style="fill:#ff0000;fill-opacity:0;stroke:#ff0000;stroke-opacity:1" />
      <g
         id="g19985"
         style="fill:#ff0000;fill-opacity:0;stroke:#ff0000;stroke-opacity:1" />
      <g
         id="g19987"
         style="fill:#ff0000;fill-opacity:0;stroke:#ff0000;stroke-opacity:1" />
      <g
         id="g19989"
         style="fill:#ff0000;fill-opacity:0;stroke:#ff0000;stroke-opacity:1" />
      <g
         id="g19991"
         style="fill:#ff0000;fill-opacity:0;stroke:#ff0000;stroke-opacity:1" />
      <g
         id="g19993"
         style="fill:#ff0000;fill-opacity:0;stroke:#ff0000;stroke-opacity:1" />
      <g
         id="g19995"
         style="fill:#ff0000;fill-opacity:0;stroke:#ff0000;stroke-opacity:1" />
    </g>
  </g>
</svg>
